<?xml version="1.0" encoding="UTF-8"?><svg xmlns="http://www.w3.org/2000/svg" width="1920" height="1080" viewBox="0 0 1920 1080"><defs><style>.cls-1{fill:#000;}.cls-1,.cls-2{stroke-width:0px;}.cls-3{stroke:#000;}.cls-3,.cls-4{fill:#fff;}.cls-3,.cls-4,.cls-5{stroke-miterlimit:10;}.cls-2{fill:#2b63a5;}.cls-4,.cls-5{stroke:#231f20;}.cls-6{opacity:.43;}.cls-5{fill:#231f20;}</style></defs><g id="Layer_3"><rect class="cls-2" width="1930" height="1085"/></g><g id="Layer_2"><g class="cls-6"><ellipse class="cls-4" cx="338.57" cy="259.25" rx="30.03" ry="32.52"/><path class="cls-5" d="M319.11,259.25c-14.23.08-21.35.08-21.35,0,0-.16,27.58-.64,82.74-1.45"/><path class="cls-5" d="M337.79,305.5c.44-30.35.89-60.7,1.33-91.05"/></g><g class="cls-6"><ellipse class="cls-4" cx="317.64" cy="400.22" rx="30.03" ry="32.52"/><path class="cls-5" d="M298.18,400.22c-14.23.08-21.35.08-21.35,0,0-.16,27.58-.64,82.74-1.45"/><path class="cls-5" d="M316.86,446.47c.44-30.35.89-60.7,1.33-91.05"/></g><g class="cls-6"><ellipse class="cls-4" cx="120.67" cy="388.26" rx="30.03" ry="32.52"/><path class="cls-5" d="M101.21,388.26c-14.23.08-21.35.08-21.35,0,0-.16,27.58-.64,82.74-1.45"/><path class="cls-5" d="M119.89,434.51c.44-30.35.89-60.7,1.33-91.05"/></g><g class="cls-6"><ellipse class="cls-4" cx="203.68" cy="292.27" rx="30.03" ry="32.52"/><path class="cls-5" d="M184.22,292.27c-14.23.08-21.35.08-21.35,0,0-.16,27.58-.64,82.74-1.45"/><path class="cls-5" d="M202.9,338.52c.44-30.35.89-60.7,1.33-91.05"/></g><path class="cls-1" d="M44.51,313.56c5.3-.8,11.6-1.4,18.5-1.4,12.5,0,21.4,2.9,27.3,8.4,6,5.5,9.5,13.3,9.5,24.2s-3.4,20-9.7,26.2c-6.3,6.3-16.7,9.7-29.8,9.7-6.2,0-11.4-.3-15.8-.8v-66.3ZM53.21,373.16c2.2.4,5.4.5,8.8.5,18.6,0,28.7-10.4,28.7-28.6.1-15.9-8.9-26-27.3-26-4.5,0-7.9.4-10.2.9v53.2Z"/><path class="cls-1" d="M151.61,366.86c0,5,.1,9.4.4,13.2h-7.8l-.5-7.9h-.2c-2.3,3.9-7.4,9-16,9-7.6,0-16.7-4.2-16.7-21.2v-28.3h8.8v26.8c0,9.2,2.8,15.4,10.8,15.4,5.9,0,10-4.1,11.6-8,.5-1.3.8-2.9.8-4.5v-29.7h8.8v35.2Z"/><path class="cls-1" d="M200.71,378.26c-2.3,1.2-7.4,2.8-13.9,2.8-14.6,0-24.1-9.9-24.1-24.7s10.2-25.7,26-25.7c5.2,0,9.8,1.3,12.2,2.5l-2,6.8c-2.1-1.2-5.4-2.3-10.2-2.3-11.1,0-17.1,8.2-17.1,18.3,0,11.2,7.2,18.1,16.8,18.1,5,0,8.3-1.3,10.8-2.4l1.5,6.6Z"/><path class="cls-1" d="M219.71,353.86h.2c1.2-1.7,2.9-3.8,4.3-5.5l14.2-16.7h10.6l-18.7,19.9,21.3,28.5h-10.7l-16.7-23.2-4.5,5v18.2h-8.7v-71h8.7v44.8Z"/><path class="cls-1" d="M256.71,371.06c2.6,1.7,7.2,3.5,11.6,3.5,6.4,0,9.4-3.2,9.4-7.2,0-4.2-2.5-6.5-9-8.9-8.7-3.1-12.8-7.9-12.8-13.7,0-7.8,6.3-14.2,16.7-14.2,4.9,0,9.2,1.4,11.9,3l-2.2,6.4c-1.9-1.2-5.4-2.8-9.9-2.8-5.2,0-8.1,3-8.1,6.6,0,4,2.9,5.8,9.2,8.2,8.4,3.2,12.7,7.4,12.7,14.6,0,8.5-6.6,14.5-18.1,14.5-5.3,0-10.2-1.3-13.6-3.3l2.2-6.7Z"/><path class="cls-1" d="M319,312.66h8.7v32.5h.3c1.8-2.6,3.6-5,5.3-7.2l20.6-25.3h10.8l-24.4,28.6,26.3,38.8h-10.3l-22.2-33.1-6.4,7.4v25.7h-8.7v-67.4Z"/><path class="cls-1" d="M383.7,318.06c.1,3-2.1,5.4-5.6,5.4-3.1,0-5.3-2.4-5.3-5.4s2.3-5.5,5.5-5.5,5.4,2.4,5.4,5.5ZM373.9,380.06v-48.4h8.8v48.4h-8.8Z"/><path class="cls-1" d="M397.3,309.06h8.8v71h-8.8v-71Z"/><path class="cls-1" d="M420.9,309.06h8.8v71h-8.8v-71Z"/><path class="cls-1" d="M449.4,357.46c.2,11.9,7.8,16.8,16.6,16.8,6.3,0,10.1-1.1,13.4-2.5l1.5,6.3c-3.1,1.4-8.4,3-16.1,3-14.9,0-23.8-9.8-23.8-24.4s8.6-26.1,22.7-26.1c15.8,0,20,13.9,20,22.8,0,1.8-.2,3.2-.3,4.1h-34ZM475.2,351.16c.1-5.6-2.3-14.3-12.2-14.3-8.9,0-12.8,8.2-13.5,14.3h25.7Z"/><path class="cls-1" d="M536.4,309.06v58.5c0,4.3.1,9.2.4,12.5h-7.9l-.4-8.4h-.2c-2.7,5.4-8.6,9.5-16.5,9.5-11.7,0-20.7-9.9-20.7-24.6-.1-16.1,9.9-26,21.7-26,7.4,0,12.4,3.5,14.6,7.4h.2v-28.9h8.8ZM527.6,351.36c0-1.1-.1-2.6-.4-3.7-1.3-5.6-6.1-10.2-12.7-10.2-9.1,0-14.5,8-14.5,18.7,0,9.8,4.8,17.9,14.3,17.9,5.9,0,11.3-3.9,12.9-10.5.3-1.2.4-2.4.4-3.8v-8.4Z"/><path class="cls-1" d="M782.83,362.99c4.2-.7,9.7-1.3,16.7-1.3,8.6,0,14.9,2,18.9,5.6,3.7,3.2,5.9,8.1,5.9,14.1s-1.8,10.9-5.2,14.4c-4.6,4.9-12.1,7.4-20.6,7.4-2.6,0-5-.1-7-.6v27h-8.7v-66.6ZM791.53,395.49c1.9.5,4.3.7,7.2.7,10.5,0,16.9-5.1,16.9-14.4s-6.3-13.2-15.9-13.2c-3.8,0-6.7.3-8.2.7v26.2Z"/><path class="cls-1" d="M877.03,404.99c0,17.9-12.4,25.7-24.1,25.7-13.1,0-23.2-9.6-23.2-24.9,0-16.2,10.6-25.7,24-25.7s23.3,10.1,23.3,24.9ZM838.63,405.49c0,10.6,6.1,18.6,14.7,18.6s14.7-7.9,14.7-18.8c0-8.2-4.1-18.6-14.5-18.6s-14.9,9.6-14.9,18.8Z"/><path class="cls-1" d="M897.93,367.59c.1,3-2.1,5.4-5.6,5.4-3.1,0-5.3-2.4-5.3-5.4s2.3-5.5,5.5-5.5,5.4,2.4,5.4,5.5ZM888.13,429.59v-48.4h8.8v48.4h-8.8Z"/><path class="cls-1" d="M911.53,394.29c0-5-.1-9.1-.4-13.1h7.8l.5,8h.2c2.4-4.6,8-9.1,16-9.1,6.7,0,17.1,4,17.1,20.6v28.9h-8.8v-27.9c0-7.8-2.9-14.3-11.2-14.3-5.8,0-10.3,4.1-11.8,9-.4,1.1-.6,2.6-.6,4.1v29.1h-8.8v-35.3Z"/><path class="cls-1" d="M977.23,367.29v13.9h12.6v6.7h-12.6v26.1c0,6,1.7,9.4,6.6,9.4,2.3,0,4-.3,5.1-.6l.4,6.6c-1.7.7-4.4,1.2-7.8,1.2-4.1,0-7.4-1.3-9.5-3.7-2.5-2.6-3.4-6.9-3.4-12.6v-26.4h-7.5v-6.7h7.5v-11.6l8.6-2.3Z"/><path class="cls-1" d="M997.62,389.19c0-3.7,2.5-6.3,6-6.3s5.8,2.6,5.9,6.3c0,3.5-2.3,6.2-6,6.2-3.5,0-5.9-2.7-5.9-6.2ZM997.62,424.49c0-3.7,2.5-6.3,6-6.3s5.8,2.6,5.9,6.3c0,3.5-2.3,6.2-6,6.2-3.5,0-5.9-2.7-5.9-6.2Z"/><path class="cls-1" d="M946.23,544.29c4.2-.7,9.7-1.3,16.7-1.3,8.6,0,14.9,2,18.9,5.6,3.7,3.2,5.9,8.1,5.9,14.1s-1.8,10.9-5.2,14.4c-4.6,4.9-12.1,7.4-20.6,7.4-2.6,0-5-.1-7-.6v27h-8.7v-66.6ZM954.93,576.79c1.9.5,4.3.7,7.2.7,10.5,0,16.9-5.1,16.9-14.4s-6.3-13.2-15.9-13.2c-3.8,0-6.7.3-8.2.7v26.2Z"/><path class="cls-1" d="M1040.44,586.29c0,17.9-12.4,25.7-24.1,25.7-13.1,0-23.2-9.6-23.2-24.9,0-16.2,10.6-25.7,24-25.7s23.3,10.1,23.3,24.9ZM1002.03,586.79c0,10.6,6.1,18.6,14.7,18.6s14.7-7.9,14.7-18.8c0-8.2-4.1-18.6-14.5-18.6s-14.9,9.6-14.9,18.8Z"/><path class="cls-1" d="M1061.33,548.88c.1,3-2.1,5.4-5.6,5.4-3.1,0-5.3-2.4-5.3-5.4s2.3-5.5,5.5-5.5,5.4,2.4,5.4,5.5ZM1051.53,610.89v-48.4h8.8v48.4h-8.8Z"/><path class="cls-1" d="M1074.93,575.59c0-5-.1-9.1-.4-13.1h7.8l.5,8h.2c2.4-4.6,8-9.1,16-9.1,6.7,0,17.1,4,17.1,20.6v28.9h-8.8v-27.9c0-7.8-2.9-14.3-11.2-14.3-5.8,0-10.3,4.1-11.8,9-.4,1.1-.6,2.6-.6,4.1v29.1h-8.8v-35.3Z"/><path class="cls-1" d="M1140.63,548.59v13.9h12.6v6.7h-12.6v26.1c0,6,1.7,9.4,6.6,9.4,2.3,0,4-.3,5.1-.6l.4,6.6c-1.7.7-4.4,1.2-7.8,1.2-4.1,0-7.4-1.3-9.5-3.7-2.5-2.6-3.4-6.9-3.4-12.6v-26.4h-7.5v-6.7h7.5v-11.6l8.6-2.3Z"/><path class="cls-1" d="M1161.93,601.89c2.6,1.7,7.2,3.5,11.6,3.5,6.4,0,9.4-3.2,9.4-7.2,0-4.2-2.5-6.5-9-8.9-8.7-3.1-12.8-7.9-12.8-13.7,0-7.8,6.3-14.2,16.7-14.2,4.9,0,9.2,1.4,11.9,3l-2.2,6.4c-1.9-1.2-5.4-2.8-9.9-2.8-5.2,0-8.1,3-8.1,6.6,0,4,2.9,5.8,9.2,8.2,8.4,3.2,12.7,7.4,12.7,14.6,0,8.5-6.6,14.5-18.1,14.5-5.3,0-10.2-1.3-13.6-3.3l2.2-6.7Z"/><path class="cls-1" d="M1234.53,548.59v13.9h12.6v6.7h-12.6v26.1c0,6,1.7,9.4,6.6,9.4,2.3,0,4-.3,5.1-.6l.4,6.6c-1.7.7-4.4,1.2-7.8,1.2-4.1,0-7.4-1.3-9.5-3.7-2.5-2.6-3.4-6.9-3.4-12.6v-26.4h-7.5v-6.7h7.5v-11.6l8.6-2.3Z"/><path class="cls-1" d="M1300.23,586.29c0,17.9-12.4,25.7-24.1,25.7-13.1,0-23.2-9.6-23.2-24.9,0-16.2,10.6-25.7,24-25.7s23.3,10.1,23.3,24.9ZM1261.83,586.79c0,10.6,6.1,18.6,14.7,18.6s14.7-7.9,14.7-18.8c0-8.2-4.1-18.6-14.5-18.6s-14.9,9.6-14.9,18.8Z"/><path class="cls-1" d="M1336.03,562.49l6.4,24.6c1.4,5.4,2.7,10.4,3.6,15.4h.3c1.1-4.9,2.7-10.1,4.3-15.3l7.9-24.7h7.4l7.5,24.2c1.8,5.8,3.2,10.9,4.3,15.8h.3c.8-4.9,2.1-10,3.7-15.7l6.9-24.3h8.7l-15.6,48.4h-8l-7.4-23.1c-1.7-5.4-3.1-10.2-4.3-15.9h-.2c-1.2,5.8-2.7,10.8-4.4,16l-7.8,23h-8l-14.6-48.4h9Z"/><path class="cls-1" d="M1415.93,548.88c.1,3-2.1,5.4-5.6,5.4-3.1,0-5.3-2.4-5.3-5.4s2.3-5.5,5.5-5.5,5.4,2.4,5.4,5.5ZM1406.13,610.89v-48.4h8.8v48.4h-8.8Z"/><path class="cls-1" d="M1429.53,575.59c0-5-.1-9.1-.4-13.1h7.8l.5,8h.2c2.4-4.6,8-9.1,16-9.1,6.7,0,17.1,4,17.1,20.6v28.9h-8.8v-27.9c0-7.8-2.9-14.3-11.2-14.3-5.8,0-10.3,4.1-11.8,9-.4,1.1-.6,2.6-.6,4.1v29.1h-8.8v-35.3Z"/><path class="cls-1" d="M1482.93,570.49c0-3.7,2.5-6.3,6-6.3s5.8,2.6,5.9,6.3c0,3.5-2.3,6.2-6,6.2-3.5,0-5.9-2.7-5.9-6.2ZM1482.93,605.79c0-3.7,2.5-6.3,6-6.3s5.8,2.6,5.9,6.3c0,3.5-2.3,6.2-6,6.2-3.5,0-5.9-2.7-5.9-6.2Z"/><path class="cls-3" d="M1871.21,195.05c-3.11-4.35-8.09-7.46-13.89-8.47-5.05-4.23-12.28-6.72-20.19-6.37-8.66.38-16.2,4.07-20.81,9.46-1.73-.32-3.52-.47-5.37-.39-7.71.34-14.32,4.3-17.89,9.97-1.63-.42-3.27-.64-4.83-.63-5.6.05-12.07,3.01-15.06,8.75-.53,1.02-1.93,3.8-1.62,7.31.68,7.49,8.87,14.95,18.01,14.55,4.13-.18,7.87-1.63,10.76-3.89,3.56,2,7.81,3.08,12.33,2.88,6.08-.27,11.47-2.78,15.23-6.61,3.42,1.1,7.18,1.63,11.12,1.46,1.16-.05,2.31-.17,3.43-.33,3.38,1.71,7.31,2.63,11.49,2.45,2.74-.12,5.33-.7,7.7-1.64,2.83,1.48,6.17,2.27,9.7,2.12,9.58-.42,17.04-7.61,16.67-16.06-.35-8.09-7.75-14.31-16.78-14.54Z"/><path class="cls-3" d="M1754.26,82.44c-3.11-4.35-8.09-7.46-13.89-8.47-5.05-4.23-12.28-6.72-20.19-6.37-8.66.38-16.2,4.07-20.81,9.46-1.73-.32-3.52-.47-5.37-.39-7.71.34-14.32,4.3-17.89,9.97-1.63-.42-3.27-.64-4.83-.63-5.6.05-12.07,3.01-15.06,8.75-.53,1.02-1.93,3.8-1.62,7.31.68,7.49,8.87,14.95,18.01,14.55,4.13-.18,7.87-1.63,10.76-3.89,3.56,2,7.81,3.08,12.33,2.88,6.08-.27,11.47-2.78,15.23-6.61,3.42,1.1,7.18,1.63,11.12,1.46,1.16-.05,2.31-.17,3.43-.33,3.38,1.71,7.31,2.63,11.49,2.45,2.74-.12,5.33-.7,7.7-1.64,2.83,1.48,6.17,2.27,9.7,2.12,9.58-.42,17.04-7.61,16.67-16.06-.35-8.09-7.75-14.31-16.78-14.54Z"/><path class="cls-3" d="M181.15,135.27c-3.11-4.35-8.09-7.46-13.89-8.47-5.05-4.23-12.28-6.72-20.19-6.37-8.66.38-16.2,4.07-20.81,9.46-1.73-.32-3.52-.47-5.37-.39-7.71.34-14.32,4.3-17.89,9.97-1.63-.42-3.27-.64-4.83-.63-5.6.05-12.07,3.01-15.06,8.75-.53,1.02-1.93,3.8-1.62,7.31.68,7.49,8.87,14.95,18.01,14.55,4.13-.18,7.87-1.63,10.76-3.89,3.56,2,7.81,3.08,12.33,2.88,6.08-.27,11.47-2.78,15.23-6.61,3.42,1.1,7.18,1.63,11.12,1.46,1.16-.05,2.31-.17,3.43-.33,3.38,1.71,7.31,2.63,11.49,2.45,2.74-.12,5.33-.7,7.7-1.64,2.83,1.48,6.17,2.27,9.7,2.12,9.58-.42,17.04-7.61,16.67-16.06-.35-8.09-7.75-14.31-16.78-14.54Z"/><path class="cls-3" d="M392.21,163.05c-3.11-4.35-8.09-7.46-13.89-8.47-5.05-4.23-12.28-6.72-20.19-6.37-8.66.38-16.2,4.07-20.81,9.46-1.73-.32-3.52-.47-5.37-.39-7.71.34-14.32,4.3-17.89,9.97-1.63-.42-3.27-.64-4.83-.63-5.6.05-12.07,3.01-15.06,8.75-.53,1.02-1.93,3.8-1.62,7.31.68,7.49,8.87,14.95,18.01,14.55,4.13-.18,7.87-1.63,10.76-3.89,3.56,2,7.81,3.08,12.33,2.88,6.08-.27,11.47-2.78,15.23-6.61,3.42,1.1,7.18,1.63,11.12,1.46,1.16-.05,2.31-.17,3.43-.33,3.38,1.71,7.31,2.63,11.49,2.45,2.74-.12,5.33-.7,7.7-1.64,2.83,1.48,6.17,2.27,9.7,2.12,9.58-.42,17.04-7.61,16.67-16.06-.35-8.09-7.75-14.31-16.78-14.54Z"/><path class="cls-3" d="M275.26,50.44c-3.11-4.35-8.09-7.46-13.89-8.47-5.05-4.23-12.28-6.72-20.19-6.37-8.66.38-16.2,4.07-20.81,9.46-1.73-.32-3.52-.47-5.37-.39-7.71.34-14.32,4.3-17.89,9.97-1.63-.42-3.27-.64-4.83-.63-5.6.05-12.07,3.01-15.06,8.75-.53,1.02-1.93,3.8-1.62,7.31.68,7.49,8.87,14.95,18.01,14.55,4.13-.18,7.87-1.63,10.76-3.89,3.56,2,7.81,3.08,12.33,2.88,6.08-.27,11.47-2.78,15.23-6.61,3.42,1.1,7.18,1.63,11.12,1.46,1.16-.05,2.31-.17,3.43-.33,3.38,1.71,7.31,2.63,11.49,2.45,2.74-.12,5.33-.7,7.7-1.64,2.83,1.48,6.17,2.27,9.7,2.12,9.58-.42,17.04-7.61,16.67-16.06-.35-8.09-7.75-14.31-16.78-14.54Z"/><path class="cls-3" d="M855.15,547.27c-3.11-4.35-8.09-7.46-13.89-8.47-5.05-4.23-12.28-6.72-20.19-6.37-8.66.38-16.2,4.07-20.81,9.46-1.73-.32-3.52-.47-5.37-.39-7.71.34-14.32,4.3-17.89,9.97-1.63-.42-3.27-.64-4.83-.63-5.6.05-12.07,3.01-15.06,8.75-.53,1.02-1.93,3.8-1.62,7.31.68,7.49,8.87,14.95,18.01,14.55,4.13-.18,7.87-1.63,10.76-3.89,3.56,2,7.81,3.08,12.33,2.88,6.08-.27,11.47-2.78,15.23-6.61,3.42,1.1,7.18,1.63,11.12,1.46,1.16-.05,2.31-.17,3.43-.33,3.38,1.71,7.31,2.63,11.49,2.45,2.74-.12,5.33-.7,7.7-1.64,2.83,1.48,6.17,2.27,9.7,2.12,9.58-.42,17.04-7.61,16.67-16.06-.35-8.09-7.75-14.31-16.78-14.54Z"/><path class="cls-3" d="M676.21,715.05c-3.11-4.35-8.09-7.46-13.89-8.47-5.05-4.23-12.28-6.72-20.19-6.37-8.66.38-16.2,4.07-20.81,9.46-1.73-.32-3.52-.47-5.37-.39-7.71.34-14.32,4.3-17.89,9.97-1.63-.42-3.27-.64-4.83-.63-5.6.05-12.07,3.01-15.06,8.75-.53,1.02-1.93,3.8-1.62,7.31.68,7.49,8.87,14.95,18.01,14.55,4.13-.18,7.87-1.63,10.76-3.89,3.56,2,7.81,3.08,12.33,2.88,6.08-.27,11.47-2.78,15.23-6.61,3.42,1.1,7.18,1.63,11.12,1.46,1.16-.05,2.31-.17,3.43-.33,3.38,1.71,7.31,2.63,11.49,2.45,2.74-.12,5.33-.7,7.7-1.64,2.83,1.48,6.17,2.27,9.7,2.12,9.58-.42,17.04-7.61,16.67-16.06-.35-8.09-7.75-14.31-16.78-14.54Z"/><path class="cls-3" d="M686.26,498.44c-3.11-4.35-8.09-7.46-13.89-8.47-5.05-4.23-12.28-6.72-20.19-6.37-8.66.38-16.2,4.07-20.81,9.46-1.73-.32-3.52-.47-5.37-.39-7.71.34-14.32,4.3-17.89,9.97-1.63-.42-3.27-.64-4.83-.63-5.6.05-12.07,3.01-15.06,8.75-.53,1.02-1.93,3.8-1.62,7.31.68,7.49,8.87,14.95,18.01,14.55,4.13-.18,7.87-1.63,10.76-3.89,3.56,2,7.81,3.08,12.33,2.88,6.08-.27,11.47-2.78,15.23-6.61,3.42,1.1,7.18,1.63,11.12,1.46,1.16-.05,2.31-.17,3.43-.33,3.38,1.71,7.31,2.63,11.49,2.45,2.74-.12,5.33-.7,7.7-1.64,2.83,1.48,6.17,2.27,9.7,2.12,9.58-.42,17.04-7.61,16.67-16.06-.35-8.09-7.75-14.31-16.78-14.54Z"/><path class="cls-3" d="M686.15,958.27c-3.11-4.35-8.09-7.46-13.89-8.47-5.05-4.23-12.28-6.72-20.19-6.37-8.66.38-16.2,4.07-20.81,9.46-1.73-.32-3.52-.47-5.37-.39-7.71.34-14.32,4.3-17.89,9.97-1.63-.42-3.27-.64-4.83-.63-5.6.05-12.07,3.01-15.06,8.75-.53,1.02-1.93,3.8-1.62,7.31.68,7.49,8.87,14.95,18.01,14.55,4.13-.18,7.87-1.63,10.76-3.89,3.56,2,7.81,3.08,12.33,2.88,6.08-.27,11.47-2.78,15.23-6.61,3.42,1.1,7.18,1.63,11.12,1.46,1.16-.05,2.31-.17,3.43-.33,3.38,1.71,7.31,2.63,11.49,2.45,2.74-.12,5.33-.7,7.7-1.64,2.83,1.48,6.17,2.27,9.7,2.12,9.58-.42,17.04-7.61,16.67-16.06-.35-8.09-7.75-14.31-16.78-14.54Z"/><path class="cls-3" d="M897.21,986.05c-3.11-4.35-8.09-7.46-13.89-8.47-5.05-4.23-12.28-6.72-20.19-6.37-8.66.38-16.2,4.07-20.81,9.46-1.73-.32-3.52-.47-5.37-.39-7.71.34-14.32,4.3-17.89,9.97-1.63-.42-3.27-.64-4.83-.63-5.6.05-12.07,3.01-15.06,8.75-.53,1.02-1.93,3.8-1.62,7.31.68,7.49,8.87,14.95,18.01,14.55,4.13-.18,7.87-1.63,10.76-3.89,3.56,2,7.81,3.08,12.33,2.88,6.08-.27,11.47-2.78,15.23-6.61,3.42,1.1,7.18,1.63,11.12,1.46,1.16-.05,2.31-.17,3.43-.33,3.38,1.71,7.31,2.63,11.49,2.45,2.74-.12,5.33-.7,7.7-1.64,2.83,1.48,6.17,2.27,9.7,2.12,9.58-.42,17.04-7.61,16.67-16.06-.35-8.09-7.75-14.31-16.78-14.54Z"/><path class="cls-3" d="M866.26,861.44c-3.11-4.35-8.09-7.46-13.89-8.47-5.05-4.23-12.28-6.72-20.19-6.37-8.66.38-16.2,4.07-20.81,9.46-1.73-.32-3.52-.47-5.37-.39-7.71.34-14.32,4.3-17.89,9.97-1.63-.42-3.27-.64-4.83-.63-5.6.05-12.07,3.01-15.06,8.75-.53,1.02-1.93,3.8-1.62,7.31.68,7.49,8.87,14.95,18.01,14.55,4.13-.18,7.87-1.63,10.76-3.89,3.56,2,7.81,3.08,12.33,2.88,6.08-.27,11.47-2.78,15.23-6.61,3.42,1.1,7.18,1.63,11.12,1.46,1.16-.05,2.31-.17,3.43-.33,3.38,1.71,7.31,2.63,11.49,2.45,2.74-.12,5.33-.7,7.7-1.64,2.83,1.48,6.17,2.27,9.7,2.12,9.58-.42,17.04-7.61,16.67-16.06-.35-8.09-7.75-14.31-16.78-14.54Z"/><path class="cls-3" d="M1018.15,756.27c-3.11-4.35-8.09-7.46-13.89-8.47-5.05-4.23-12.28-6.72-20.19-6.37-8.66.38-16.2,4.07-20.81,9.46-1.73-.32-3.52-.47-5.37-.39-7.71.34-14.32,4.3-17.89,9.97-1.63-.42-3.27-.64-4.83-.63-5.6.05-12.07,3.01-15.06,8.75-.53,1.02-1.93,3.8-1.62,7.31.68,7.49,8.87,14.95,18.01,14.55,4.13-.18,7.87-1.63,10.76-3.89,3.56,2,7.81,3.08,12.33,2.88,6.08-.27,11.47-2.78,15.23-6.61,3.42,1.1,7.18,1.63,11.12,1.46,1.16-.05,2.31-.17,3.43-.33,3.38,1.71,7.31,2.63,11.49,2.45,2.74-.12,5.33-.7,7.7-1.64,2.83,1.48,6.17,2.27,9.7,2.12,9.58-.42,17.04-7.61,16.67-16.06-.35-8.09-7.75-14.31-16.78-14.54Z"/><path class="cls-3" d="M1229.21,784.05c-3.11-4.35-8.09-7.46-13.89-8.47-5.05-4.23-12.28-6.72-20.19-6.37-8.66.38-16.2,4.07-20.81,9.46-1.73-.32-3.52-.47-5.37-.39-7.71.34-14.32,4.3-17.89,9.97-1.63-.42-3.27-.64-4.83-.63-5.6.05-12.07,3.01-15.06,8.75-.53,1.02-1.93,3.8-1.62,7.31.68,7.49,8.87,14.95,18.01,14.55,4.13-.18,7.87-1.63,10.76-3.89,3.56,2,7.81,3.08,12.33,2.88,6.08-.27,11.47-2.78,15.23-6.61,3.42,1.1,7.18,1.63,11.12,1.46,1.16-.05,2.31-.17,3.43-.33,3.38,1.71,7.31,2.63,11.49,2.45,2.74-.12,5.33-.7,7.7-1.64,2.83,1.48,6.17,2.27,9.7,2.12,9.58-.42,17.04-7.61,16.67-16.06-.35-8.09-7.75-14.31-16.78-14.54Z"/><path class="cls-3" d="M1112.26,671.44c-3.11-4.35-8.09-7.46-13.89-8.47-5.05-4.23-12.28-6.72-20.19-6.37-8.66.38-16.2,4.07-20.81,9.46-1.73-.32-3.52-.47-5.37-.39-7.71.34-14.32,4.3-17.89,9.97-1.63-.42-3.27-.64-4.83-.63-5.6.05-12.07,3.01-15.06,8.75-.53,1.02-1.93,3.8-1.62,7.31.68,7.49,8.87,14.95,18.01,14.55,4.13-.18,7.87-1.63,10.76-3.89,3.56,2,7.81,3.08,12.33,2.88,6.08-.27,11.47-2.78,15.23-6.61,3.42,1.1,7.18,1.63,11.12,1.46,1.16-.05,2.31-.17,3.43-.33,3.38,1.71,7.31,2.63,11.49,2.45,2.74-.12,5.33-.7,7.7-1.64,2.83,1.48,6.17,2.27,9.7,2.12,9.58-.42,17.04-7.61,16.67-16.06-.35-8.09-7.75-14.31-16.78-14.54Z"/></g></svg>