<?xml version="1.0" encoding="UTF-8"?><svg id="Layer_1" xmlns="http://www.w3.org/2000/svg" width="81.9" height="72.4" viewBox="0 0 81.9 72.4"><defs><style>.cls-1{fill:red;stroke-width:0px;}</style></defs><path class="cls-1" d="m81.9,21.6c0,2.03-.28,4.04-.8,6,0,.1-.1.2-.1.3-.31.99-.67,1.96-1.1,2.9h0c-9.3,21.8-38.6,41.6-38.6,41.6,0,0-28.5-16.9-38.9-40.8h0C.79,28.52-.04,25.08,0,21.6-.02,9.69,9.62.02,21.54,0c8.29-.01,15.86,4.73,19.46,12.2C46.14,1.49,58.99-3.02,69.7,2.12c7.48,3.59,12.23,11.18,12.2,19.48h0Z"/></svg>