<?xml version="1.0" encoding="UTF-8"?><svg id="Layer_1" xmlns="http://www.w3.org/2000/svg" width="1247" height="519" viewBox="0 0 1247 519"><defs><style>.cls-1{fill:#000;}.cls-1,.cls-2{stroke-width:0px;}.cls-2{fill:#fbfbfb;}</style></defs><path class="cls-1" d="M1124.51,120.81c-198.49-4.16-401.07-3.23-599.53-7.91-128.7-2.64-261.73-7.22-390.61-10.41-5.03-.25-10.41-.02-15.18,1.8-5.02,1.82-9.82,4.97-11.88,9.97-13.2,56.95-25.76,114.06-38.44,171.14-1.78,7.94-19.99,90.82-21.07,96.58.13,8.59,14.04,10.94,20.88,10.68,0,0,42.81-1.17,42.81-1.17,355.92-9.69,725.3-18.59,1080.83-21.48,3.34-.28,6.64-.99,9.59-2.23,3.06-1.31,5.76-3.32,6.25-5.85,0-.41.09-.87-.02-1.27,0,0-.05-.44-.05-.44l-.16-.65-.33-1.3c-17.24-66.87-36.67-146.77-54.29-213.04,0,0-2.71-10.38-2.71-10.38-.3-1.33-.75-2.43-1.45-3.53-1.28-1.78-2.82-3.23-4.66-4.45-5.88-3.87-13-5.69-19.98-6.04h0ZM1124.54,119.81c7.22.34,14.44,2.17,20.55,6.16,1.93,1.26,3.63,2.84,4.97,4.74.78,1.13,1.3,2.57,1.61,3.85,0,0,2.75,10.36,2.75,10.36l11.1,41.44c14.32,50.91,32.52,121.26,47.18,172.65,2.36,10.87-11.51,15.49-19.82,16.32-355.37,12.14-725.28,16.9-1081.31,21.66,0,0-42.82.52-42.82.52-7.64-.09-15.64-1.42-21.61-6.9-2.29-2.16-4-5.57-3.73-8.9,0,0,.24-1.66.24-1.66l.3-1.32,2.41-10.45c19.61-82.54,39.04-172.95,57.9-255.14,2.34-5.97,8.02-9.91,13.76-12.04,5.22-2.01,10.92-2.41,16.46-2.17,129.02,1.97,261.99,2.57,390.77,5.06,198.46,3.18,400.82,12.13,599.29,15.83h0Z"/><path class="cls-2" d="M230.01,200.85c-5.5,11.47-10.99,23.38-16.49,35.73,16.05-3.29,32.09-6,48.14-8.21,4.88-10.87,9.75-20.05,14.63-27.53,4.16,0,8.33.02,12.49.03-11.25,15.91-32.95,66.76-44.2,104.98-4.56.46,1.31-22.83-3.25-22.31,5.46-17.46,10.93-32.8,16.39-46-16.21,2.46-32.43,5.48-48.64,9.13-6.16,14.1-26.34,46.99-32.5,62.19-4.51.75,5-16.7.49-15.89,13.53-30.8,27.06-61.49,40.6-92.09,4.12-.01,8.23-.02,12.35-.03Z"/><path class="cls-2" d="M346.2,254.04c-1.94,7.81-1.6,32.78-2.61,39.79-4.05.12-9.99-17.04-14.04-16.88.8-4.84,1.61-9.45,2.42-13.84-.1,0-.21,0-.31.01-5.1,6.62-15.15,16.33-28.58,17.09-11.88,1.14-24.12-7.42-16.02-32.05,4.45-13.3,8.9-24.28,13.34-32.93,4.28-.31,8.55-.6,12.83-.85-4.05,7.88-8.11,18-12.16,30.36-4.19,12.77-2.7,23.2,9.68,22.34,9.12-.57,17.15-7.87,21.17-13.96,1.29-2.04,2.4-4.46,3.05-6.77,4.03-14.28,8.05-25.45,12.08-33.51,4.28-.13,8.55-.24,12.83-.32-4.56,9.35-9.13,23.19-13.69,41.52Z"/><path class="cls-2" d="M376.47,224.39c1.8-5.33,3.12-8.98,4.13-12.12,3.79-.02,7.58-.01,11.37,0-.68,2.07-1.35,4.37-2.02,6.92.1,0,.2,0,.29,0,5.14-4.42,14.79-7.69,26.41-7.45,9.72.8,23.7,1.87,19.21,21-2.66,11.6,3.39,36.56.73,54.07-4.56-.11-17.83-10.6-22.4-10.67,2.73-17.04,5.47-31.27,8.2-42.68,2.27-9.61-.09-15.46-12.27-15.73-8.51-.15-16.5,3.44-20.42,8.91-.97,1.22-1.78,2.94-2.29,4.75-3.31,11.69-1.51,38.43-4.82,56.43-4.56.02-14.25-11.83-18.81-11.76,4.23-21.84,8.46-39.07,12.69-51.67Z"/><path class="cls-2" d="M480.11,205.19c-1.05,2.63-2.1,5.87-3.15,9.73,6.12.33,12.25.7,18.37,1.08-.45,1.93-.9,3.99-1.35,6.19-6.18-.45-12.36-.87-18.54-1.25-1.97,8.37-3.94,18.91-5.91,31.62-1.37,8.82.49,14.77,8.06,15.14,3.55.2,6.24-.12,7.99-.5-.24,3.54-.48,7.21-.72,11-.43,12.47-3.77,17.82-12.4,1.53-3-5.66-11.24-2.81-13.92-7.09-3.26-4.63-3.59-11.99-2.2-20.42,2.15-13,4.29-23.68,6.44-32.03-3.68-.2-7.36-.39-11.04-.57.58-2.1,1.16-4.05,1.74-5.84,3.65.16,7.29.32,10.94.5.94-3.15,1.89-5.86,2.83-8.12,4.3-.33,8.58-.65,12.86-.97Z"/><path class="cls-2" d="M526.25,206.84c-.33,2.16-3.89,3.94-8.94,3.66-4.47-.24-7.21-2.23-6.65-4.2.57-2.04,4.28-3.32,8.81-3.28,4.68.05,7.27,1.58,6.78,3.82ZM501.02,279.39c2.92-27.25,5.84-48.06,8.76-62.44,4.28.29,8.55.6,12.83.91-2.63,14.81-5.26,35.59-7.9,62.32,10.64,20.35-3.74,6.77-13.69-.79Z"/><path class="cls-2" d="M546.14,219.26c.67-5.68,1.07-9.93,1.17-13.84,3.79.3,7.58.61,11.37.92-.07,2.67-.14,5.47-.21,8.4.1,0,.2.02.3.03,4.1-4.66,12.74-8.45,24.36-7.5,9.72.92,24.6,5.98,23.86,26.51-.48,11.98-.97,24.81-1.45,38.47-4.56-.35-9.13-.71-13.69-1.05.63-13.57,1.26-26.15,1.9-37.74.51-9.76-3.32-17.53-15.5-18.73-8.51-.83-15.57,2.89-18.38,8.41-.72,1.23-1.19,2.99-1.37,4.82-1.12,11.87-2.25,25.39-3.37,40.56-4.56-.32-9.13-.63-13.69-.93,1.57-18.83,3.14-34.94,4.72-48.33Z"/><path class="cls-2" d="M685.61,232.31c-.07,4.73-.12,9.96.25,17.65.58,12.21,1.17,23.86,1.75,34.96.7,13.11-2.31,20.25-9.57,24.95-7.24,4.87-18.2,5.49-27.85,6.86-12.5,1.78-34.39,6.05-25.65-5.38,1.21-3.12,2.41-6.18,3.6-9.19,5.01,2.96,12.93,5.56,22.44,5.77,14.29.18,24.55-4.87,23.96-19.35-.08-2.17-.16-4.35-.24-6.54-.1-.01-.21-.02-.31-.03-3.94,5.03-11.91,8.76-23.59,7.87-18.76-1.24-31.85-16.53-31.38-33.7.59-20.6,16.4-29.6,32.46-28.44,12.21,1.06,19.08,7.47,22.37,13.06.1.01.2.02.29.03.08-3.16.16-6.35.24-9.56,3.74.35,7.48.69,11.23,1.03ZM673.19,255.88c-.07-1.91-.28-3.59-.92-5.2-2.62-6.85-9.09-13-18.48-13.98-12.3-1.23-21.19,6.37-21.35,20.5-.14,12.07,7.17,23.24,21.87,24.59,8.34.79,15.78-2.62,18.42-9.2.7-1.77.92-3.85.86-5.73-.13-3.63-.26-7.29-.39-10.98Z"/><path class="cls-2" d="M708.08,284.6c4.15,2.36,11.43,5,18.23,5.57,9.9.82,14.11-2.15,13.57-6.66-.55-4.77-4.68-7.93-14.78-11.94-13.52-5.26-20.06-12.06-20.56-19.73-.64-10.27,7.97-18.59,23.06-17.44,7.13.57,26.82-3.42,31-.69-.76,3.1-14.77,12.72-15.55,15.64-2.98-1.97-8.33-4.75-14.94-5.38-7.63-.72-11.58,3.07-11.21,7.91.42,5.37,4.91,8.18,14.65,12.32,12.98,5.46,20.13,11.51,21.22,19.63,1.31,9.46-8.07,14.3-26.04,13.22-8.26-.56-16.03-2.48-21.47-5.15.95-2.4,1.89-4.84,2.81-7.3Z"/><path class="cls-2" d="M884.02,266.36c7.93,32.18.58,47.3-26.41,47.51-27.93-.87-60.85-22.25-64.88-50.33-4.22-29.27,11.71-58.18,37.02-57.98,25.88-.3,47.44,32.17,54.27,60.8ZM806.53,264.32c3.16,20.22,18.09,32.51,39.37,33.22,21.43.61,29.47-9.11,24.57-30.92-4.29-18.55-18.74-46.45-39.37-46.95-20.49-.31-27.82,24.49-24.57,44.65Z"/><path class="cls-2" d="M902.41,244.6c7.92,15.46,16.01,28.33,24.28,38.64,4.11,4.99,7.65,8.98,10.75,12.55.15,0,.31,0,.46-.01.13-3.66.68-7.78,1.34-12.91,1.11-10.57,2.05-23.62,2.82-38.88,4.47-.14,8.94-.31,13.41-.5-2.17,26.96-4.96,47.29-8.38,59.29.66,23.86-5.43,15.78-13.07.33-15.71-11.43-30.82-30.87-45.33-58.56,4.57.04,9.14.06,13.71.06Z"/><path class="cls-2" d="M985.2,278.34c5.75,13.57,19.78,16.06,33.4,14.92,9.73-1.02,15.04-2.78,19.39-4.85,1.87,2,3.74,3.93,5.62,5.79-4.07,1.89-22.66-6.86-23.51,5.18-3.65,51.95-38.46,4.04-47.95-20.95-6.56-17.29,1.01-37.84,21.42-39.02,22.89-1.29,36.46,17.29,41.24,27.65.96,2.17,1.4,3.86,1.73,4.93-17.12,2.71-34.23,4.8-51.35,6.34ZM1020.92,266.28c-2.75-6.82-10.78-18.41-25.28-17.21-13.03,1.2-14.96,13.84-13.21,21.57,12.83-1.13,25.66-2.57,38.48-4.36Z"/><path class="cls-2" d="M1047.53,256.22c-3.16-7.11-6.02-13.54-8.95-19.63,3.74-.47,7.48-.97,11.23-1.49,1.95,4.13,3.9,8.16,5.85,12.1.2-.04.39-.07.59-.11-.44-8.8,4.89-15.15,13.46-16.41,1.46-.23,2.53-.27,3.82-.23,7.02-3.19,16.17-8.96,5,9.69-1.45.04-2.83.19-4.6.54-9.11,1.73-12.87,8.78-10.91,17.12.39,1.5.89,3.23,1.74,5,4.92,10.15,18.95,15.99,23.86,24.98-4.51.66-18.14,5.03-22.65,5.63-6.15-10.98-12.3-23.39-18.45-37.22Z"/></svg>