<?xml version="1.0" encoding="UTF-8"?><svg xmlns="http://www.w3.org/2000/svg" width="388" height="298" viewBox="0 0 388 298"><defs><style>.cls-1{mix-blend-mode:screen;opacity:.7;}.cls-2{isolation:isolate;}.cls-3{fill:none;stroke:#26130a;stroke-miterlimit:10;stroke-width:5px;}.cls-4{fill:#cec9c8;stroke-width:0px;}</style></defs><g class="cls-2"><g id="Layer_1"><path class="cls-4" d="M165.69,71.45c2.54-1.05,3.99-3.75,3.45-6.45l-.34-1.72c-.84-4.24.68-9.66,2.65-13.9.27-.57.84-.93,1.47-.93h21.75c.63,0,1.2.36,1.47.93,1.98,4.24,3.5,9.66,2.65,13.9l-.34,1.72c-.54,2.7.91,5.4,3.45,6.45l16.63,6.89c2.54,1.05,5.47.16,7-2.12l.97-1.46c2.4-3.59,7.31-6.35,11.71-7.95.59-.21,1.25-.07,1.7.38l15.38,15.38c.44.44.59,1.11.38,1.7-1.6,4.4-4.36,9.3-7.95,11.71l-1.46.97c-2.29,1.53-3.18,4.46-2.12,7l6.89,16.63c1.05,2.54,3.75,3.99,6.45,3.45l1.72-.34c4.24-.84,9.66.68,13.9,2.65.57.27.93.84.93,1.47v21.75c0,.63-.36,1.2-.93,1.47-4.24,1.98-9.66,3.5-13.9,2.65l-1.72-.34c-2.7-.54-5.4.91-6.45,3.45l-6.89,16.63c-1.05,2.54-.16,5.47,2.12,7l1.46.97c3.59,2.4,6.35,7.31,7.95,11.71.21.59.07,1.25-.38,1.7l-15.38,15.38c-.44.44-1.11.59-1.7.38-4.4-1.6-9.3-4.36-11.71-7.95l-.97-1.46c-1.53-2.29-4.46-3.18-7-2.12l-16.63,6.89c-2.54,1.05-3.99,3.75-3.45,6.45l.34,1.72c.84,4.24-.68,9.66-2.65,13.9-.27.57-.84.93-1.47.93h-21.75c-.63,0-1.2-.36-1.47-.93-1.98-4.24-3.5-9.66-2.65-13.9l.34-1.72c.54-2.7-.91-5.4-3.45-6.45l-16.63-6.89c-2.54-1.05-5.47-.16-7,2.12l-.97,1.46c-2.4,3.59-7.31,6.35-11.71,7.95-.59.21-1.25.07-1.7-.38l-15.38-15.38c-.44-.44-.59-1.11-.38-1.7,1.6-4.4,4.36-9.3,7.95-11.71l1.46-.97c2.29-1.53,3.18-4.46,2.12-7l-6.89-16.63c-1.05-2.54-3.75-3.99-6.45-3.45l-1.72.34c-4.24.84-9.66-.68-13.9-2.65-.57-.27-.93-.84-.93-1.47v-21.75c0-.63.36-1.2.93-1.47,4.24-1.98,9.66-3.5,13.9-2.65l1.72.34c2.7.54,5.4-.91,6.45-3.45l6.89-16.63c1.05-2.54.16-5.47-2.12-7l-1.46-.97c-3.59-2.4-6.35-7.31-7.95-11.71-.21-.59-.07-1.25.38-1.7l15.38-15.38c.44-.44,1.11-.59,1.7-.38,4.4,1.6,9.3,4.36,11.71,7.95l.97,1.46c1.53,2.29,4.46,3.18,7,2.12l16.63-6.89ZM141.41,138.68c0,23.41,18.98,42.38,42.38,42.38s42.38-18.98,42.38-42.38-18.98-42.38-42.38-42.38-42.38,18.98-42.38,42.38Z"/><g class="cls-1"><path class="cls-3" d="M165.69,71.45c2.54-1.05,3.99-3.75,3.45-6.45l-.34-1.72c-.84-4.24.68-9.66,2.65-13.9.27-.57.84-.93,1.47-.93h21.75c.63,0,1.2.36,1.47.93,1.98,4.24,3.5,9.66,2.65,13.9l-.34,1.72c-.54,2.7.91,5.4,3.45,6.45l16.63,6.89c2.54,1.05,5.47.16,7-2.12l.97-1.46c2.4-3.59,7.31-6.35,11.71-7.95.59-.21,1.25-.07,1.7.38l15.38,15.38c.44.44.59,1.11.38,1.7-1.6,4.4-4.36,9.3-7.95,11.71l-1.46.97c-2.29,1.53-3.18,4.46-2.12,7l6.89,16.63c1.05,2.54,3.75,3.99,6.45,3.45l1.72-.34c4.24-.84,9.66.68,13.9,2.65.57.27.93.84.93,1.47v21.75c0,.63-.36,1.2-.93,1.47-4.24,1.98-9.66,3.5-13.9,2.65l-1.72-.34c-2.7-.54-5.4.91-6.45,3.45l-6.89,16.63c-1.05,2.54-.16,5.47,2.12,7l1.46.97c3.59,2.4,6.35,7.31,7.95,11.71.21.59.07,1.25-.38,1.7l-15.38,15.38c-.44.44-1.11.59-1.7.38-4.4-1.6-9.3-4.36-11.71-7.95l-.97-1.46c-1.53-2.29-4.46-3.18-7-2.12l-16.63,6.89c-2.54,1.05-3.99,3.75-3.45,6.45l.34,1.72c.84,4.24-.68,9.66-2.65,13.9-.27.57-.84.93-1.47.93h-21.75c-.63,0-1.2-.36-1.47-.93-1.98-4.24-3.5-9.66-2.65-13.9l.34-1.72c.54-2.7-.91-5.4-3.45-6.45l-16.63-6.89c-2.54-1.05-5.47-.16-7,2.12l-.97,1.46c-2.4,3.59-7.31,6.35-11.71,7.95-.59.21-1.25.07-1.7-.38l-15.38-15.38c-.44-.44-.59-1.11-.38-1.7,1.6-4.4,4.36-9.3,7.95-11.71l1.46-.97c2.29-1.53,3.18-4.46,2.12-7l-6.89-16.63c-1.05-2.54-3.75-3.99-6.45-3.45l-1.72.34c-4.24.84-9.66-.68-13.9-2.65-.57-.27-.93-.84-.93-1.47v-21.75c0-.63.36-1.2.93-1.47,4.24-1.98,9.66-3.5,13.9-2.65l1.72.34c2.7.54,5.4-.91,6.45-3.45l6.89-16.63c1.05-2.54.16-5.47-2.12-7l-1.46-.97c-3.59-2.4-6.35-7.31-7.95-11.71-.21-.59-.07-1.25.38-1.7l15.38-15.38c.44-.44,1.11-.59,1.7-.38,4.4,1.6,9.3,4.36,11.71,7.95l.97,1.46c1.53,2.29,4.46,3.18,7,2.12l16.63-6.89ZM141.41,138.68c0,23.41,18.98,42.38,42.38,42.38s42.38-18.98,42.38-42.38-18.98-42.38-42.38-42.38-42.38,18.98-42.38,42.38Z"/></g></g></g></svg>