<?xml version="1.0" encoding="UTF-8"?><svg id="Layer_1" xmlns="http://www.w3.org/2000/svg" width="441" height="360" viewBox="0 0 441 360"><defs><style>.cls-1{fill:#000;}.cls-1,.cls-2{stroke-width:0px;}.cls-2{fill:#fff;}</style></defs><path class="cls-2" d="M239.5,330.5c-84.36,0-153-68.64-153-153S155.14,24.5,239.5,24.5s153,68.64,153,153-68.64,153-153,153Z"/><path class="cls-1" d="M239.5,25c40.73,0,79.03,15.86,107.83,44.67,28.8,28.8,44.67,67.1,44.67,107.83s-15.86,79.03-44.67,107.83c-28.8,28.8-67.1,44.67-107.83,44.67s-79.03-15.86-107.83-44.67c-28.8-28.8-44.67-67.1-44.67-107.83s15.86-79.03,44.67-107.83c28.8-28.8,67.1-44.67,107.83-44.67M239.5,24c-84.78,0-153.5,68.72-153.5,153.5s68.72,153.5,153.5,153.5,153.5-68.72,153.5-153.5S324.28,24,239.5,24h0Z"/><rect class="cls-1" x="233.41" y="38.51" width="11" height="41" transform="translate(-.11 .47) rotate(-.11)"/><path class="cls-2" d="M243.87,39l.08,40-10,.02-.08-40,10-.02M244.87,38l-12,.02.08,42,12-.02-.08-42h0Z"/><rect class="cls-1" x="174.24" y="54.68" width="11" height="41" transform="translate(-13.46 100.3) rotate(-30.11)"/><path class="cls-2" d="M174.03,55.37l20.07,34.6-8.65,5.02-20.07-34.6,8.65-5.02M174.4,54.01l-10.38,6.02,21.07,36.33,10.38-6.02-21.07-36.33h0Z"/><rect class="cls-1" x="131.09" y="98.27" width="11" height="41" transform="translate(-34.45 178) rotate(-60.11)"/><path class="cls-2" d="M121.74,104.47l34.68,19.93-4.98,8.67-34.68-19.93,4.98-8.67M121.37,103.1l-5.98,10.4,36.41,20.93,5.98-10.4-36.41-20.93h0Z"/><rect class="cls-1" x="100.51" y="172.59" width="41" height="11" transform="translate(-.34 .23) rotate(-.11)"/><path class="cls-2" d="M141,173.06l.02,10-40,.08-.02-10,40-.08M142,172.05l-42,.08.02,12,42-.08-.02-12h0Z"/><rect class="cls-1" x="116.68" y="231.76" width="41" height="11" transform="translate(-100.51 100.83) rotate(-30.11)"/><path class="cls-2" d="M151.98,222.9l5.02,8.65-34.6,20.07-5.02-8.65,34.6-20.07M152.34,221.53l-36.33,21.07,6.02,10.38,36.33-21.07-6.02-10.38h0Z"/><rect class="cls-1" x="160.27" y="274.91" width="41" height="11" transform="translate(-152.43 297.39) rotate(-60.11)"/><path class="cls-2" d="M186.4,260.58l8.67,4.98-19.93,34.68-8.67-4.98,19.93-34.68M186.03,259.21l-20.93,36.41,10.4,5.98,20.93-36.41-10.4-5.98h0Z"/><rect class="cls-1" x="234.59" y="275.49" width="11" height="41" transform="translate(-.55 .45) rotate(-.11)"/><path class="cls-2" d="M245.06,275.98l.08,40-10,.02-.08-40,10-.02M246.05,274.98l-12,.02.08,42,12-.02-.08-42h0Z"/><rect class="cls-1" x="293.76" y="259.32" width="11" height="41" transform="translate(-99.99 187.86) rotate(-30.11)"/><path class="cls-2" d="M293.55,260.01l20.07,34.6-8.65,5.02-20.07-34.6,8.65-5.02M293.91,258.64l-10.38,6.02,21.07,36.33,10.38-6.02-21.07-36.33h0Z"/><rect class="cls-1" x="336.91" y="215.73" width="11" height="41" transform="translate(-33.03 415.37) rotate(-60.11)"/><path class="cls-2" d="M327.56,221.93l34.68,19.93-4.98,8.67-34.68-19.93,4.98-8.67M327.19,220.56l-5.98,10.4,36.41,20.93,5.98-10.4-36.41-20.93h0Z"/><rect class="cls-1" x="337.49" y="171.41" width="41" height="11" transform="translate(-.34 .68) rotate(-.11)"/><path class="cls-2" d="M377.98,171.87l.02,10-40,.08-.02-10,40-.08M378.98,170.87l-42,.08.02,12,42-.08-.02-12h0Z"/><rect class="cls-1" x="321.32" y="112.24" width="41" height="11" transform="translate(-12.94 187.36) rotate(-30.11)"/><path class="cls-2" d="M356.61,103.38l5.02,8.65-34.6,20.07-5.02-8.65,34.6-20.07M356.97,102.02l-36.33,21.07,6.02,10.38,36.33-21.07-6.02-10.38h0Z"/><rect class="cls-1" x="277.73" y="69.09" width="41" height="11" transform="translate(84.94 295.98) rotate(-60.11)"/><path class="cls-2" d="M303.86,54.76l8.67,4.98-19.93,34.68-8.67-4.98,19.93-34.68M303.49,53.39l-20.93,36.41,10.4,5.98,20.93-36.41-10.4-5.98h0Z"/><rect class="cls-1" x="233.41" y="38.51" width="11" height="41" transform="translate(-.11 .47) rotate(-.11)"/><path class="cls-2" d="M243.87,39l.08,40-10,.02-.08-40,10-.02M244.87,38l-12,.02.08,42,12-.02-.08-42h0Z"/></svg>