<?xml version="1.0" encoding="UTF-8"?><svg id="Layer_1" xmlns="http://www.w3.org/2000/svg" width="340" height="216" xmlns:xlink="http://www.w3.org/1999/xlink" viewBox="0 0 340 216"><defs><style>.cls-1,.cls-2,.cls-3,.cls-4{stroke:#000;}.cls-1,.cls-2,.cls-3,.cls-5,.cls-6,.cls-7{stroke-linecap:round;}.cls-1,.cls-3,.cls-4,.cls-5,.cls-6,.cls-7{stroke-miterlimit:10;}.cls-1,.cls-4,.cls-5,.cls-6,.cls-7{fill:none;}.cls-2{stroke-linejoin:round;stroke-width:.5px;}.cls-2,.cls-3,.cls-8{fill:#c2c7c7;}.cls-9{fill:url(#radial-gradient-8);}.cls-9,.cls-10,.cls-11,.cls-12,.cls-13,.cls-14,.cls-15,.cls-16,.cls-8,.cls-17,.cls-18,.cls-19{stroke-width:0px;}.cls-5{stroke:#282a71;}.cls-10{fill:#f7ec46;}.cls-11{fill:url(#radial-gradient-2);}.cls-12{fill:url(#radial-gradient-7);}.cls-13{fill:#e61e25;}.cls-14{fill:url(#radial-gradient-5);}.cls-15{fill:url(#radial-gradient);}.cls-6{stroke:#5f7dbd;}.cls-16{fill:#e5e6e6;}.cls-17{fill:url(#radial-gradient-6);}.cls-18{fill:url(#radial-gradient-3);}.cls-7{stroke:#221f1f;}.cls-19{fill:url(#radial-gradient-4);}</style><radialGradient id="radial-gradient" cx="247.67" cy="96.86" fx="247.67" fy="96.86" r="14.04" gradientUnits="userSpaceOnUse"><stop offset="0" stop-color="#fff"/><stop offset=".02" stop-color="#b3c9e4"/><stop offset=".05" stop-color="#3b73b9"/><stop offset=".06" stop-color="#4e76aa"/><stop offset=".17" stop-color="#767c8a"/><stop offset=".3" stop-color="#9f8369"/><stop offset=".44" stop-color="#c2894e"/><stop offset=".57" stop-color="#dc8d38"/><stop offset=".71" stop-color="#ef9029"/><stop offset=".85" stop-color="#fb9220"/><stop offset="1" stop-color="#ff931e"/></radialGradient><radialGradient id="radial-gradient-2" cx="251.75" cy="85.56" fx="251.75" fy="85.56" r="10.2" gradientUnits="userSpaceOnUse"><stop offset=".09" stop-color="#fff"/><stop offset=".13" stop-color="#fff7ef"/><stop offset=".26" stop-color="#ffddb8"/><stop offset=".39" stop-color="#ffc689"/><stop offset=".52" stop-color="#ffb362"/><stop offset=".64" stop-color="#ffa544"/><stop offset=".77" stop-color="#ff9b2f"/><stop offset=".89" stop-color="#ff9522"/><stop offset="1" stop-color="#ff931e"/></radialGradient><radialGradient id="radial-gradient-3" cx="241.73" cy="73.44" fx="241.73" fy="73.44" r="12.72" gradientUnits="userSpaceOnUse"><stop offset="0" stop-color="#fff"/><stop offset=".05" stop-color="#ffecd8"/><stop offset=".12" stop-color="#ffd4a7"/><stop offset=".19" stop-color="#ffc07d"/><stop offset=".26" stop-color="#ffb05a"/><stop offset=".34" stop-color="#ffa340"/><stop offset=".41" stop-color="#ff9a2d"/><stop offset=".49" stop-color="#ff9421"/><stop offset=".57" stop-color="#ff931e"/></radialGradient><radialGradient id="radial-gradient-4" cx="243.9" cy="89.27" fx="243.9" fy="89.27" r="2.1" xlink:href="#radial-gradient"/><radialGradient id="radial-gradient-5" cx="230.1" cy="84.56" fx="230.1" fy="84.56" r="8.82" xlink:href="#radial-gradient-2"/><radialGradient id="radial-gradient-6" cx="234.82" cy="87.91" fx="234.82" fy="87.91" r="4.67" xlink:href="#radial-gradient"/><radialGradient id="radial-gradient-7" cx="229.32" cy="91.97" fx="229.32" fy="91.97" r="9.15" xlink:href="#radial-gradient"/><radialGradient id="radial-gradient-8" cx="226.68" cy="78.21" fx="226.68" fy="78.21" r="7.08" xlink:href="#radial-gradient-3"/></defs><path class="cls-15" d="M246.75,90.08c9.93,3.59,19.75,10.68,18.84,13.36-1.08,3.15-16.73-.17-25.4-2.73-2.96-.88-6.81-2.17-10.49-3.6,5.38-2.46,9.58-5.26,11.35-8.13.52.1,1.05.2,1.58.31,1.51.31,2.84.58,4.13.79Z"/><path class="cls-11" d="M265.28,84.92c.63,2.21-7.93,5.39-12.73,5.55-2.15.07-3.93-.09-5.79-.39-.17-.06-.35-.13-.53-.19-1.61-.56-3.25-1.04-4.89-1.43.58-1.12.77-2.26.49-3.38-.39-1.57-1.67-3.05-3.64-4.43.89-.02,1.8-.03,2.73-.03,9.51,0,23.54,1.42,24.36,4.29Z"/><path class="cls-18" d="M258.24,68.56c1.35,1.65-2.77,5.25-6.25,7.16-3.65,1.99-7.21,2.46-11.29,2.99-1.68.22-3.24.42-4.68.61-2.91-1.6-6.73-3.06-11.06-4.36,2.97-1.38,6.64-2.78,10.71-4.02,8.66-2.65,20.71-4.65,22.57-2.36Z"/><path class="cls-19" d="M246.23,89.89c.18.06.36.13.53.19-1.29-.21-2.61-.48-4.13-.79-.53-.11-1.06-.21-1.58-.31.11-.17.21-.35.29-.52,1.64.39,3.28.87,4.89,1.43Z"/><path class="cls-14" d="M241.83,85.08c.27,1.12.09,2.25-.49,3.38-4.58-1.11-9.16-1.6-13.03-1.62-.01,0-.02,0-.02,0-6.92-.96-9.9-1.04-10.02-1.93-.32-2.21,8.4-4.01,19.93-4.26,1.97,1.38,3.25,2.86,3.64,4.43Z"/><path class="cls-17" d="M241.34,88.46c-.08.17-.18.35-.29.52-5.23-1.03-9.44-1.68-12.74-2.14,3.88.02,8.45.51,13.03,1.62Z"/><path class="cls-8" d="M236.02,79.31c.8.44,1.52.89,2.17,1.34-11.54.25-20.26,2.05-19.93,4.26.12.88,3.1.97,10.02,1.93-6.03-.03-10.42,1.06-10.68,2.7-.32,2.04,5.62,5.03,12.1,7.56-11.15,5.09-27.33,8.68-37.28,8.16-.78-.05-3.19-.2-10.36-.61-13.49-.78-20.04-1.11-21.7-1.22-1.26-.08-17.34-4.31-28.84-9.37,6.89-2.57,11.19-6.12,11.1-9.88-.08-3.83-4.75-7.05-11.98-9.01,7.65-3.58,17.95-6.32,25.92-7.58,6.08-.95,12.87-1.34,23.21-.51,11.62.92,31.11,3.61,45.18,7.86-5.25,2.44-8.3,4.83-7.47,6.23.37.62,1.76.33,18.53-1.87Z"/><path class="cls-12" d="M241.05,88.98c-1.76,2.87-5.97,5.67-11.35,8.13-6.47-2.54-12.42-5.53-12.1-7.56.26-1.64,4.64-2.74,10.68-2.7,0,0,.01,0,.02,0,3.31.46,7.52,1.11,12.74,2.14Z"/><path class="cls-9" d="M224.95,74.95c4.33,1.31,8.15,2.77,11.06,4.36-16.77,2.2-18.17,2.49-18.53,1.87-.83-1.41,2.22-3.79,7.47-6.23Z"/><path class="cls-8" d="M142.63,84.19c.09,3.75-4.21,7.31-11.1,9.88-6.64-2.93-11.75-6.13-11.62-8.98.17-3.62,4.6-7.03,10.74-9.91,7.23,1.96,11.89,5.18,11.98,9.01Z"/><path class="cls-8" d="M130.65,75.18c-6.14,2.87-10.58,6.28-10.74,9.91-.13,2.85,4.98,6.05,11.62,8.98-5.81,2.17-13.47,3.63-21.9,3.9-10.55.35-19.74-1.24-25.52-3.98,16.02-.93,28.26-4.6,28.65-8.91.18-1.94-2.09-3.73-6.07-5.18.38-.39.62-.83.67-1.29.17-1.63-2.03-2.94-4.91-2.94-2.27,0-4.31.81-5.18,1.95-2.3-.37-4.79-.67-7.42-.89,5.77-1.99,13.12-3.32,21.02-3.56,7.48-.24,14.36.52,19.8,2Z"/><path class="cls-8" d="M106.68,79.91c3.98,1.45,6.25,3.23,6.07,5.18-.39,4.31-12.63,7.98-28.65,8.91-4.33-2.04-6.75-4.73-6.38-7.72.45-3.71,5.11-7.12,12.11-9.54,2.64.22,5.12.52,7.42.89-.23.31-.38.65-.43.99-.21,1.64,1.99,2.98,4.91,2.98,2.1,0,3.98-.69,4.94-1.69Z"/><path class="cls-16" d="M102.43,75.67c2.88,0,5.08,1.31,4.91,2.94-.05.46-.29.9-.67,1.29-.78-.28-1.63-.55-2.53-.8.07-.12.11-.25.12-.37.1-.9-1.11-1.63-2.71-1.63-1.07,0-2.05.33-2.61.82-.55-.1-1.12-.2-1.7-.29.87-1.14,2.91-1.95,5.18-1.95Z"/><path class="cls-16" d="M106.68,79.91c-.96,1-2.84,1.69-4.94,1.69-2.92,0-5.12-1.34-4.91-2.98.05-.35.2-.68.43-.99.58.09,1.15.19,1.7.29-.28.24-.45.52-.49.81-.11.91,1.1,1.65,2.7,1.65,1.38,0,2.6-.54,2.98-1.27.9.25,1.75.52,2.53.8Z"/><path class="cls-13" d="M101.56,77.1c1.6,0,2.81.73,2.71,1.63-.02.13-.05.25-.12.37-1.56-.44-3.3-.84-5.19-1.19.56-.49,1.53-.82,2.61-.82Z"/><path class="cls-13" d="M104.15,79.1c-.38.73-1.59,1.27-2.98,1.27-1.6,0-2.81-.74-2.7-1.65.04-.29.21-.57.49-.81,1.89.35,3.63.74,5.19,1.19Z"/><path class="cls-10" d="M89.83,76.73c-7,2.42-11.66,5.83-12.11,9.54-.37,2.99,2.05,5.68,6.38,7.72-2.57.15-5.24.23-7.98.23-19.77,0-34.77-4.13-33.53-9.14,1.22-4.89,17.58-8.78,36.57-8.78,3.74,0,7.32.15,10.67.43Z"/><path class="cls-4" d="M89.83,76.73c5.77-1.99,13.12-3.32,21.02-3.56,7.48-.24,14.36.52,19.8,2"/><path class="cls-4" d="M131.52,94.07c-5.81,2.17-13.47,3.63-21.9,3.9-10.55.35-19.74-1.24-25.52-3.98"/><path class="cls-4" d="M84.1,93.99c-2.57.15-5.24.23-7.98.23-19.77,0-34.77-4.13-33.53-9.14,1.22-4.89,17.58-8.78,36.57-8.78,3.74,0,7.32.15,10.67.43"/><line class="cls-7" x1="44.22" y1="83.39" x2="71.93" y2="83.39"/><path class="cls-5" d="M97.25,77.62c.87-1.14,2.91-1.95,5.18-1.95,2.88,0,5.08,1.31,4.91,2.94-.05.46-.29.9-.67,1.29-.96,1-2.84,1.69-4.94,1.69-2.92,0-5.12-1.34-4.91-2.98.05-.35.2-.68.43-.99Z"/><path class="cls-6" d="M98.96,77.92c.56-.49,1.53-.82,2.61-.82,1.6,0,2.81.73,2.71,1.63-.02.13-.05.25-.12.37-.38.73-1.59,1.27-2.98,1.27-1.6,0-2.81-.74-2.7-1.65.04-.29.21-.57.49-.81Z"/><path class="cls-1" d="M236.02,79.31c.8.44,1.52.89,2.17,1.34"/><path class="cls-1" d="M130.65,75.18c7.65-3.58,17.95-6.32,25.92-7.58,6.08-.95,12.87-1.34,23.21-.51,11.62.92,31.11,3.61,45.18,7.86"/><path class="cls-1" d="M241.34,88.46c-.08.17-.18.35-.29.52-1.76,2.87-5.97,5.67-11.35,8.13-11.15,5.09-27.33,8.68-37.28,8.16-.78-.05-3.19-.2-10.36-.61-13.49-.78-20.04-1.11-21.7-1.22-1.26-.08-17.34-4.31-28.84-9.37"/><path class="cls-1" d="M224.95,74.95c2.97-1.38,6.64-2.78,10.71-4.02,8.66-2.65,20.71-4.65,22.57-2.36,1.35,1.65-2.77,5.25-6.25,7.16-3.65,1.99-7.21,2.46-11.29,2.99-1.68.22-3.24.42-4.68.61"/><path class="cls-2" d="M200.21,69.57c30.18-1.67-1.47-11.56-1.47-11.56,12.46-2.46-1.53-12.45-1.53-12.45,7.2-.45-2.05-9.55-2.05-9.55,4.14-.89-6.8-8.25-6.8-8.25l-5.52,5.61c-.28,13.11-12.96,23.17-12.96,23.17-6.81,9.53-25.95,13.87-25.95,13.87"/><path class="cls-3" d="M165.51,89.19s-21.43,12.3-19.56,29.28c2.01,18.27-.91,71.53,10.27,37.46,0,0,40-20.3,7.7-26.88,0,0,50.86-18.73,8.53-13.67,0,0,40.76-12.25,15.18-21.15,0,0,.99-3.31-2.99-5.04"/></svg>