<?xml version="1.0" encoding="UTF-8"?><svg id="Layer_1" xmlns="http://www.w3.org/2000/svg" width="329" height="202" xmlns:xlink="http://www.w3.org/1999/xlink" viewBox="0 0 329 202"><defs><style>.cls-1{fill:url(#linear-gradient);}.cls-1,.cls-2,.cls-3,.cls-4,.cls-5,.cls-6,.cls-7,.cls-8,.cls-9,.cls-10,.cls-11,.cls-12{stroke-width:0px;}.cls-13,.cls-14,.cls-15,.cls-16{stroke:#000;}.cls-13,.cls-14,.cls-15,.cls-17,.cls-18,.cls-19{stroke-linecap:round;}.cls-13,.cls-15,.cls-16,.cls-17,.cls-18,.cls-19{stroke-miterlimit:10;}.cls-13,.cls-16,.cls-17,.cls-18,.cls-19{fill:none;}.cls-14{stroke-linejoin:round;stroke-width:.5px;}.cls-14,.cls-15,.cls-9{fill:#c2c7c7;}.cls-17{stroke:#282a71;}.cls-2{fill:#f7ec46;}.cls-3{fill:url(#linear-gradient-2);}.cls-4{fill:url(#radial-gradient-2);}.cls-5{fill:url(#linear-gradient-3);}.cls-6{fill:#e61e25;}.cls-7{fill:url(#radial-gradient);}.cls-18{stroke:#5f7dbd;}.cls-8{fill:#e5e6e6;}.cls-10{fill:url(#radial-gradient-3);}.cls-11{fill:url(#linear-gradient-4);}.cls-19{stroke:#221f1f;}.cls-12{fill:url(#radial-gradient-4);}</style><linearGradient id="linear-gradient" x1="218.89" y1="85.41" x2="254.84" y2="85.41" gradientUnits="userSpaceOnUse"><stop offset=".67" stop-color="#ff7bac"/><stop offset=".75" stop-color="rgba(255,123,172,.76)" stop-opacity=".76"/><stop offset=".87" stop-color="rgba(255,123,172,.36)" stop-opacity=".36"/><stop offset=".96" stop-color="rgba(255,123,172,.1)" stop-opacity=".1"/><stop offset="1" stop-color="#ff7bac" stop-opacity="0"/></linearGradient><radialGradient id="radial-gradient" cx="240.94" cy="74.11" fx="240.94" fy="74.11" r="10.2" gradientUnits="userSpaceOnUse"><stop offset=".09" stop-color="#fff"/><stop offset=".12" stop-color="#d3d3d3"/><stop offset=".15" stop-color="#9c9c9c"/><stop offset=".18" stop-color="#6d6d6d"/><stop offset=".22" stop-color="#464646"/><stop offset=".25" stop-color="#282828"/><stop offset=".28" stop-color="#131313"/><stop offset=".31" stop-color="#060606"/><stop offset=".34" stop-color="#020202"/><stop offset="1" stop-color="#ff931e"/></radialGradient><radialGradient id="radial-gradient-2" cx="230.92" cy="61.99" fx="230.92" fy="61.99" r="12.57" gradientUnits="userSpaceOnUse"><stop offset=".62" stop-color="#342aff"/><stop offset=".65" stop-color="#563bd8"/><stop offset=".69" stop-color="#8252a7"/><stop offset=".74" stop-color="#a9667d"/><stop offset=".79" stop-color="#c8765a"/><stop offset=".84" stop-color="#e08340"/><stop offset=".88" stop-color="#f18b2d"/><stop offset=".93" stop-color="#fb9121"/><stop offset=".99" stop-color="#ff931e"/></radialGradient><linearGradient id="linear-gradient-2" x1="230.24" y1="77.82" x2="235.95" y2="77.82" xlink:href="#linear-gradient"/><radialGradient id="radial-gradient-3" cx="219.29" cy="73.11" fx="219.29" fy="73.11" r="8.83" xlink:href="#radial-gradient"/><linearGradient id="linear-gradient-3" x1="217.5" y1="76.46" x2="230.53" y2="76.46" xlink:href="#linear-gradient"/><linearGradient id="linear-gradient-4" x1="206.78" y1="80.53" x2="230.24" y2="80.53" xlink:href="#linear-gradient"/><radialGradient id="radial-gradient-4" cx="215.87" cy="66.76" fx="215.87" fy="66.76" r="6.99" xlink:href="#radial-gradient-2"/></defs><path class="cls-1" d="M235.95,78.63c9.93,3.59,19.75,10.68,18.83,13.36-1.07,3.15-16.73-.17-25.4-2.73-2.96-.88-6.81-2.17-10.49-3.6,5.39-2.46,9.59-5.26,11.35-8.13.52.1,1.05.2,1.58.31,1.51.31,2.84.58,4.13.79Z"/><path class="cls-7" d="M254.47,73.47c.63,2.21-7.93,5.39-12.73,5.55-2.15.07-3.93-.09-5.79-.39-.17-.06-.35-.13-.53-.19-1.61-.56-3.25-1.04-4.89-1.43.58-1.12.77-2.26.49-3.38-.39-1.57-1.67-3.05-3.64-4.43.89-.02,1.81-.03,2.73-.03,9.51,0,23.54,1.42,24.36,4.29Z"/><path class="cls-4" d="M247.43,57.11c1.35,1.65-2.77,5.25-6.25,7.16-3.65,1.99-7.21,2.46-11.29,2.99-1.68.22-3.24.42-4.68.61-2.92-1.6-6.73-3.06-11.06-4.36,2.97-1.38,6.64-2.78,10.71-4.02,8.66-2.65,20.71-4.65,22.58-2.36Z"/><path class="cls-3" d="M235.42,78.44c.18.06.36.13.53.19-1.29-.21-2.61-.48-4.13-.79-.53-.11-1.06-.21-1.58-.31.11-.17.21-.35.29-.52,1.64.39,3.28.87,4.89,1.43Z"/><path class="cls-10" d="M231.02,73.64c.27,1.12.09,2.25-.49,3.38-4.58-1.11-9.16-1.6-13.03-1.62-.01,0-.02,0-.02,0-6.92-.95-9.9-1.04-10.03-1.93-.31-2.2,8.41-4.01,19.94-4.26,1.97,1.38,3.25,2.86,3.64,4.43Z"/><path class="cls-5" d="M230.53,77.01c-.08.17-.18.35-.29.52-5.23-1.03-9.44-1.68-12.74-2.14,3.88.02,8.45.51,13.03,1.62Z"/><path class="cls-9" d="M225.21,67.86c.8.44,1.52.88,2.17,1.34-11.53.25-20.26,2.06-19.94,4.26.13.88,3.11.97,10.03,1.93-6.03-.03-10.42,1.06-10.68,2.7-.32,2.04,5.62,5.03,12.09,7.56-11.15,5.09-27.33,8.68-37.27,8.16-.78-.04-3.19-.2-10.36-.61-13.49-.78-20.04-1.11-21.7-1.22-1.26-.08-17.33-4.31-28.83-9.37,6.89-2.57,11.19-6.12,11.1-9.88-.09-3.83-4.75-7.05-11.98-9.01,7.65-3.58,17.95-6.32,25.92-7.58,6.08-.95,12.87-1.34,23.21-.51,11.62.92,31.11,3.61,45.18,7.86-5.25,2.44-8.3,4.83-7.47,6.23.37.62,1.76.33,18.53-1.87Z"/><path class="cls-11" d="M230.24,77.53c-1.76,2.87-5.97,5.67-11.35,8.13-6.47-2.54-12.41-5.53-12.09-7.56.26-1.64,4.64-2.74,10.68-2.7,0,0,.01,0,.02,0,3.31.46,7.51,1.11,12.74,2.14Z"/><path class="cls-12" d="M214.15,63.5c4.33,1.31,8.15,2.76,11.06,4.36-16.77,2.2-18.17,2.49-18.53,1.87-.83-1.41,2.22-3.79,7.47-6.23Z"/><path class="cls-9" d="M131.82,72.74c.09,3.75-4.21,7.31-11.1,9.88-6.64-2.92-11.75-6.13-11.62-8.98.17-3.62,4.61-7.03,10.75-9.91,7.23,1.96,11.89,5.18,11.98,9.01Z"/><path class="cls-9" d="M119.84,63.73c-6.14,2.87-10.58,6.28-10.75,9.91-.13,2.85,4.98,6.06,11.62,8.98-5.81,2.17-13.48,3.63-21.91,3.9-10.55.35-19.74-1.24-25.52-3.98,16.02-.93,28.26-4.6,28.65-8.91.18-1.94-2.09-3.73-6.08-5.17.39-.39.62-.83.67-1.3.17-1.63-2.03-2.94-4.92-2.94-2.27,0-4.31.81-5.17,1.95-2.3-.37-4.79-.67-7.43-.89,5.77-1.99,13.12-3.32,21.02-3.56,7.48-.24,14.36.52,19.8,2Z"/><path class="cls-9" d="M95.86,68.46c3.99,1.44,6.26,3.23,6.08,5.17-.39,4.31-12.63,7.98-28.65,8.91-4.33-2.04-6.75-4.73-6.38-7.72.45-3.71,5.11-7.12,12.11-9.54,2.64.22,5.13.52,7.43.89-.24.31-.39.64-.43.99-.21,1.64,1.98,2.98,4.91,2.98,2.09,0,3.97-.69,4.93-1.68Z"/><path class="cls-8" d="M91.62,64.23c2.89,0,5.08,1.31,4.92,2.94-.05.47-.29.91-.67,1.3-.78-.28-1.62-.55-2.52-.81.07-.12.11-.25.12-.37.1-.9-1.11-1.63-2.7-1.63-1.07,0-2.05.33-2.61.82-.55-.1-1.12-.2-1.7-.29.86-1.14,2.9-1.95,5.17-1.95Z"/><path class="cls-8" d="M95.86,68.46c-.96,1-2.84,1.68-4.93,1.68-2.93,0-5.12-1.34-4.91-2.98.05-.35.2-.67.43-.99.58.09,1.15.19,1.7.29-.27.24-.45.52-.49.81-.11.91,1.1,1.65,2.7,1.65,1.38,0,2.6-.54,2.98-1.27.9.25,1.75.52,2.52.81Z"/><path class="cls-6" d="M90.76,65.65c1.59,0,2.8.73,2.7,1.63-.01.13-.05.25-.12.37-1.56-.44-3.3-.84-5.19-1.19.56-.49,1.53-.82,2.61-.82Z"/><path class="cls-6" d="M93.34,67.66c-.38.73-1.59,1.27-2.98,1.27-1.6,0-2.81-.74-2.7-1.65.04-.29.21-.58.49-.81,1.89.35,3.63.75,5.19,1.19Z"/><path class="cls-2" d="M79.02,65.29c-7,2.42-11.66,5.83-12.11,9.54-.37,2.99,2.05,5.68,6.38,7.72-2.58.15-5.24.23-7.98.23-19.77,0-34.77-4.13-33.53-9.14,1.22-4.89,17.58-8.78,36.57-8.78,3.74,0,7.32.15,10.67.43Z"/><path class="cls-16" d="M79.02,65.29c5.77-1.99,13.12-3.32,21.02-3.56,7.48-.24,14.36.52,19.8,2"/><path class="cls-16" d="M120.71,82.62c-5.81,2.17-13.48,3.63-21.91,3.9-10.55.35-19.74-1.24-25.52-3.98"/><path class="cls-16" d="M73.29,82.54c-2.58.15-5.24.23-7.98.23-19.77,0-34.77-4.13-33.53-9.14,1.22-4.89,17.58-8.78,36.57-8.78,3.74,0,7.32.15,10.67.43"/><line class="cls-19" x1="33.41" y1="71.94" x2="61.12" y2="71.94"/><path class="cls-17" d="M86.45,66.18c.86-1.14,2.9-1.95,5.17-1.95,2.89,0,5.08,1.31,4.92,2.94-.05.47-.29.91-.67,1.3-.96,1-2.84,1.68-4.93,1.68-2.93,0-5.12-1.34-4.91-2.98.05-.35.2-.67.43-.99Z"/><path class="cls-18" d="M88.15,66.47c.56-.49,1.53-.82,2.61-.82,1.59,0,2.8.73,2.7,1.63-.01.13-.05.25-.12.37-.38.73-1.59,1.27-2.98,1.27-1.6,0-2.81-.74-2.7-1.65.04-.29.21-.58.49-.81Z"/><path class="cls-13" d="M225.21,67.86c.8.44,1.52.88,2.17,1.34"/><path class="cls-13" d="M119.84,63.73c7.65-3.58,17.95-6.32,25.92-7.58,6.08-.95,12.87-1.34,23.21-.51,11.62.92,31.11,3.61,45.18,7.86"/><path class="cls-13" d="M230.53,77.01c-.08.17-.18.35-.29.52-1.76,2.87-5.97,5.67-11.35,8.13-11.15,5.09-27.33,8.68-37.27,8.16-.78-.04-3.19-.2-10.36-.61-13.49-.78-20.04-1.11-21.7-1.22-1.26-.08-17.33-4.31-28.83-9.37"/><path class="cls-13" d="M214.15,63.5c2.97-1.38,6.64-2.78,10.71-4.02,8.66-2.65,20.71-4.65,22.58-2.36,1.35,1.65-2.77,5.25-6.25,7.16-3.65,1.99-7.21,2.46-11.29,2.99-1.68.22-3.24.42-4.68.61"/><path class="cls-14" d="M189.4,58.12c30.18-1.67-1.47-11.56-1.47-11.56,12.46-2.46-1.53-12.45-1.53-12.45,7.2-.45-2.05-9.55-2.05-9.55,4.14-.89-6.8-8.25-6.8-8.25l-5.52,5.61c-.28,13.11-12.96,23.17-12.96,23.17-6.81,9.53-25.95,13.87-25.95,13.87"/><path class="cls-15" d="M154.71,77.74s-21.43,12.3-19.56,29.28c2.01,18.27-.91,71.53,10.27,37.46,0,0,40-20.3,7.7-26.88,0,0,50.86-18.73,8.53-13.67,0,0,40.76-12.25,15.18-21.15,0,0,.99-3.31-2.99-5.04"/></svg>