<?xml version="1.0" encoding="UTF-8"?><svg id="Layer_1" xmlns="http://www.w3.org/2000/svg" width="347" height="264" xmlns:xlink="http://www.w3.org/1999/xlink" viewBox="0 0 347 264"><defs><style>.cls-1,.cls-2,.cls-3,.cls-4,.cls-5{stroke:#000;}.cls-1,.cls-2,.cls-3,.cls-6,.cls-7,.cls-5,.cls-8{stroke-linecap:round;}.cls-1,.cls-3,.cls-4,.cls-6,.cls-7,.cls-8{stroke-miterlimit:10;}.cls-1,.cls-4,.cls-6,.cls-7,.cls-5,.cls-8{fill:none;}.cls-2,.cls-3,.cls-9{fill:#c2c7c7;}.cls-2,.cls-5{stroke-linejoin:round;stroke-width:.5px;}.cls-6{stroke:#282a71;}.cls-10{fill:#f7ec46;}.cls-10,.cls-11,.cls-12,.cls-13,.cls-14,.cls-15,.cls-16,.cls-17,.cls-18,.cls-9,.cls-19,.cls-20{stroke-width:0px;}.cls-11{fill:url(#New_Gradient_Swatch_1-3);}.cls-12{fill:url(#New_Gradient_Swatch_1);}.cls-13{fill:url(#radial-gradient-2);}.cls-14{fill:#e61e25;}.cls-15{fill:url(#New_Gradient_Swatch_1-2);}.cls-16{fill:url(#radial-gradient);}.cls-7{stroke:#5f7dbd;}.cls-17{fill:url(#New_Gradient_Swatch_1-4);}.cls-18{fill:#e5e6e6;}.cls-19{fill:url(#radial-gradient-3);}.cls-8{stroke:#221f1f;}.cls-20{fill:url(#radial-gradient-4);}</style><radialGradient id="New_Gradient_Swatch_1" cx="272.52" cy="141.53" fx="272.52" fy="141.53" r="14.04" gradientUnits="userSpaceOnUse"><stop offset="0" stop-color="#fff"/><stop offset="0" stop-color="#fff"/><stop offset=".1" stop-color="#ed5726"/><stop offset=".53" stop-color="#f05b30"/><stop offset=".62" stop-color="#732c15"/><stop offset=".65" stop-color="#732c15"/><stop offset=".96" stop-color="#732c15"/></radialGradient><radialGradient id="radial-gradient" cx="276.6" cy="130.23" fx="276.6" fy="130.23" r="10.33" gradientUnits="userSpaceOnUse"><stop offset="0" stop-color="#fff"/><stop offset="0" stop-color="#fff"/><stop offset=".1" stop-color="#f05b30"/><stop offset=".53" stop-color="#792e17"/><stop offset=".67" stop-color="#742c15"/><stop offset=".89" stop-color="#732c15"/></radialGradient><radialGradient id="radial-gradient-2" cx="266.58" cy="118.11" fx="266.58" fy="118.11" r="12.72" gradientUnits="userSpaceOnUse"><stop offset="0" stop-color="#fff"/><stop offset="0" stop-color="#fff"/><stop offset=".03" stop-color="#f05b30"/><stop offset=".64" stop-color="#732c15"/><stop offset=".65" stop-color="#732c15"/><stop offset=".76" stop-color="#732c15"/></radialGradient><radialGradient id="New_Gradient_Swatch_1-2" cx="268.75" cy="133.95" fx="268.75" fy="133.95" r="2.12" xlink:href="#New_Gradient_Swatch_1"/><radialGradient id="radial-gradient-3" cx="254.95" cy="129.24" fx="254.95" fy="129.24" r="8.94" xlink:href="#radial-gradient"/><radialGradient id="New_Gradient_Swatch_1-3" cx="259.67" cy="132.59" fx="259.67" fy="132.59" r="4.73" xlink:href="#New_Gradient_Swatch_1"/><radialGradient id="New_Gradient_Swatch_1-4" cx="254.17" cy="136.65" fx="254.17" fy="136.65" r="9.15" xlink:href="#New_Gradient_Swatch_1"/><radialGradient id="radial-gradient-4" cx="251.54" cy="122.88" fx="251.54" fy="122.88" r="7.08" xlink:href="#radial-gradient-2"/></defs><path class="cls-12" d="M271.6,134.75c9.94,3.59,19.76,10.68,18.84,13.37-1.07,3.15-16.73-.17-25.4-2.73-2.96-.88-6.81-2.17-10.49-3.6,5.39-2.46,9.59-5.26,11.35-8.13.52.1,1.05.2,1.58.31,1.51.31,2.83.58,4.12.78Z"/><path class="cls-16" d="M290.13,129.59c.63,2.21-7.93,5.39-12.73,5.55-2.16.07-3.94-.09-5.8-.39-.17-.06-.34-.13-.52-.18-1.61-.56-3.25-1.04-4.89-1.43.58-1.12.77-2.26.49-3.38-.39-1.57-1.67-3.05-3.64-4.43.89-.02,1.81-.03,2.73-.03,9.5,0,23.54,1.42,24.36,4.29Z"/><path class="cls-13" d="M283.09,113.24c1.35,1.65-2.77,5.25-6.25,7.16-3.65,1.99-7.21,2.45-11.29,2.99-1.68.22-3.24.42-4.68.61-2.92-1.6-6.73-3.06-11.07-4.36,2.97-1.38,6.64-2.78,10.71-4.02,8.66-2.65,20.71-4.65,22.58-2.36Z"/><path class="cls-15" d="M271.08,134.57c.17.06.34.12.52.18-1.28-.21-2.6-.48-4.12-.78-.53-.11-1.06-.21-1.58-.31.11-.17.21-.35.29-.52,1.64.39,3.28.87,4.89,1.43Z"/><path class="cls-19" d="M266.68,129.76c.27,1.12.09,2.25-.49,3.38-4.58-1.11-9.16-1.6-13.03-1.62,0,0-.01,0-.02,0-6.93-.96-9.91-1.04-10.04-1.93-.31-2.21,8.41-4.01,19.94-4.26,1.97,1.38,3.25,2.86,3.64,4.43Z"/><path class="cls-11" d="M266.19,133.14c-.08.17-.18.35-.29.52-5.23-1.03-9.44-1.68-12.74-2.14,3.88.02,8.45.51,13.03,1.62Z"/><path class="cls-9" d="M260.87,123.99c.8.44,1.52.89,2.17,1.34-11.53.25-20.26,2.05-19.94,4.26.13.88,3.11.97,10.04,1.93-6.04-.04-10.42,1.06-10.68,2.7-.32,2.04,5.62,5.03,12.09,7.56-11.15,5.09-27.33,8.68-37.27,8.15-.78-.04-3.19-.19-10.36-.61-13.49-.78-20.04-1.11-21.7-1.22-1.26-.08-17.33-4.31-28.83-9.37,6.89-2.57,11.19-6.13,11.1-9.88-.09-3.83-4.76-7.05-11.98-9.01,7.65-3.58,17.96-6.32,25.93-7.58,6.08-.96,12.87-1.34,23.21-.51,11.62.92,31.11,3.6,45.17,7.86-5.24,2.44-8.3,4.83-7.46,6.23.37.62,1.76.33,18.53-1.87Z"/><path class="cls-17" d="M265.9,133.66c-1.76,2.87-5.97,5.67-11.35,8.13-6.47-2.54-12.41-5.53-12.09-7.56.26-1.65,4.64-2.74,10.68-2.7,0,0,.01,0,.02,0,3.31.46,7.52,1.11,12.74,2.14Z"/><path class="cls-20" d="M249.8,119.63c4.33,1.31,8.15,2.77,11.07,4.36-16.77,2.2-18.17,2.49-18.53,1.87-.83-1.41,2.22-3.79,7.46-6.23Z"/><path class="cls-9" d="M167.48,128.87c.09,3.75-4.21,7.31-11.1,9.88-6.64-2.93-11.75-6.13-11.62-8.98.17-3.62,4.6-7.04,10.74-9.91,7.23,1.96,11.89,5.18,11.98,9.01Z"/><path class="cls-9" d="M155.5,119.86c-6.14,2.87-10.58,6.28-10.74,9.91-.13,2.85,4.98,6.05,11.62,8.98-5.81,2.17-13.48,3.63-21.91,3.9-10.55.35-19.74-1.24-25.52-3.98,16.02-.93,28.26-4.6,28.65-8.91.18-1.94-2.09-3.73-6.08-5.17.38-.39.62-.83.67-1.3.17-1.63-2.03-2.95-4.92-2.95-2.26,0-4.3.81-5.17,1.95-2.3-.37-4.79-.67-7.42-.89,5.77-1.99,13.12-3.32,21.02-3.56,7.48-.23,14.36.53,19.8,2.01Z"/><path class="cls-9" d="M131.52,124.59c3.99,1.44,6.26,3.23,6.08,5.17-.39,4.31-12.63,7.97-28.65,8.91-4.33-2.04-6.75-4.73-6.38-7.72.45-3.71,5.11-7.12,12.11-9.54,2.64.22,5.12.52,7.42.89-.23.31-.38.64-.43.99-.21,1.64,1.98,2.98,4.91,2.98,2.09,0,3.97-.69,4.93-1.68Z"/><path class="cls-18" d="M127.28,120.35c2.89,0,5.08,1.31,4.92,2.95-.05.47-.29.91-.67,1.3-.78-.28-1.62-.55-2.52-.81.07-.12.1-.25.12-.37.1-.9-1.11-1.63-2.7-1.63-1.07,0-2.05.33-2.61.82-.55-.1-1.12-.2-1.7-.29.87-1.14,2.91-1.95,5.17-1.95Z"/><path class="cls-18" d="M131.52,124.59c-.96,1-2.84,1.68-4.93,1.68-2.93,0-5.12-1.34-4.91-2.98.05-.35.2-.69.43-.99.58.09,1.15.19,1.7.29-.28.24-.45.52-.49.81-.11.91,1.1,1.65,2.7,1.65,1.38,0,2.6-.54,2.98-1.27.9.25,1.75.52,2.52.81Z"/><path class="cls-14" d="M126.42,121.78c1.59,0,2.8.73,2.7,1.63-.02.13-.05.25-.12.37-1.56-.44-3.3-.84-5.19-1.19.56-.49,1.53-.82,2.61-.82Z"/><path class="cls-14" d="M129,123.78c-.38.73-1.59,1.27-2.98,1.27-1.6,0-2.81-.74-2.7-1.65.04-.29.21-.57.49-.81,1.89.35,3.63.75,5.19,1.19Z"/><path class="cls-10" d="M114.68,121.41c-7,2.42-11.66,5.83-12.11,9.54-.37,2.99,2.05,5.68,6.38,7.72-2.57.15-5.24.23-7.98.23-19.77,0-34.77-4.14-33.53-9.14,1.22-4.89,17.58-8.78,36.57-8.78,3.74,0,7.32.15,10.67.43Z"/><path class="cls-4" d="M114.68,121.41c5.77-1.99,13.12-3.32,21.02-3.56,7.48-.23,14.36.53,19.8,2.01"/><path class="cls-4" d="M156.37,138.74c-5.81,2.17-13.48,3.63-21.91,3.9-10.55.35-19.74-1.24-25.52-3.98"/><path class="cls-4" d="M108.95,138.67c-2.57.15-5.24.23-7.98.23-19.77,0-34.77-4.14-33.53-9.14,1.22-4.89,17.58-8.78,36.57-8.78,3.74,0,7.32.15,10.67.43"/><line class="cls-8" x1="69.07" y1="128.07" x2="96.78" y2="128.07"/><path class="cls-6" d="M122.11,122.3c.87-1.14,2.91-1.95,5.17-1.95,2.89,0,5.08,1.31,4.92,2.95-.05.47-.29.91-.67,1.3-.96,1-2.84,1.68-4.93,1.68-2.93,0-5.12-1.34-4.91-2.98.05-.35.2-.69.43-.99Z"/><path class="cls-7" d="M123.81,122.6c.56-.49,1.53-.82,2.61-.82,1.59,0,2.8.73,2.7,1.63-.02.13-.05.25-.12.37-.38.73-1.59,1.27-2.98,1.27-1.6,0-2.81-.74-2.7-1.65.04-.29.21-.57.49-.81Z"/><path class="cls-1" d="M260.87,123.99c.8.44,1.52.89,2.17,1.34"/><path class="cls-1" d="M155.5,119.86c7.65-3.58,17.96-6.32,25.93-7.58,6.08-.96,12.87-1.34,23.21-.51,11.62.92,31.11,3.6,45.17,7.86"/><path class="cls-1" d="M266.19,133.14c-.08.17-.18.35-.29.52-1.76,2.87-5.97,5.67-11.35,8.13-11.15,5.09-27.33,8.68-37.27,8.15-.78-.04-3.19-.19-10.36-.61-13.49-.78-20.04-1.11-21.7-1.22-1.26-.08-17.33-4.31-28.83-9.37"/><path class="cls-1" d="M249.8,119.63c2.97-1.38,6.64-2.78,10.71-4.02,8.66-2.65,20.71-4.65,22.58-2.36,1.35,1.65-2.77,5.25-6.25,7.16-3.65,1.99-7.21,2.45-11.29,2.99-1.68.22-3.24.42-4.68.61"/><path class="cls-5" d="M271.6,134.75c9.94,3.59,19.76,10.68,18.84,13.37-1.07,3.15-16.73-.17-25.4-2.73-2.96-.88-6.81-2.17-10.49-3.6"/><path class="cls-1" d="M266.19,133.14c1.64.39,3.28.87,4.89,1.43.17.06.34.12.52.18"/><path class="cls-5" d="M263.04,125.33c.89-.02,1.81-.03,2.73-.03,9.5,0,23.54,1.42,24.36,4.29.63,2.21-7.93,5.39-12.73,5.55-2.16.07-3.94-.09-5.8-.39-1.28-.21-2.6-.48-4.12-.78-.53-.11-1.06-.21-1.58-.31"/><path class="cls-2" d="M225.06,114.25c30.18-1.67-1.47-11.56-1.47-11.56,12.46-2.46-1.53-12.45-1.53-12.45,7.2-.45-2.05-9.55-2.05-9.55,4.14-.89-6.8-8.25-6.8-8.25l-5.52,5.61c-.28,13.11-12.96,23.17-12.96,23.17-6.81,9.53-25.95,13.87-25.95,13.87"/><path class="cls-3" d="M190.37,133.87s-21.43,12.3-19.56,29.28c2.01,18.27-.91,71.53,10.27,37.46,0,0,40-20.3,7.7-26.88,0,0,50.86-18.73,8.53-13.67,0,0,40.76-12.25,15.18-21.15,0,0,.99-3.31-2.99-5.04"/></svg>