<?xml version="1.0" encoding="UTF-8"?><svg xmlns="http://www.w3.org/2000/svg" width="1920" height="1080" viewBox="0 0 1920 1080"><defs><style>.cls-1{fill:#4e5a28;stroke:#87a307;}.cls-1,.cls-2,.cls-3,.cls-4,.cls-5,.cls-6,.cls-7,.cls-8,.cls-9,.cls-10{stroke-miterlimit:10;}.cls-1,.cls-2,.cls-3,.cls-4,.cls-5,.cls-7,.cls-8,.cls-9,.cls-10{stroke-width:.5px;}.cls-11{fill:#2e89db;}.cls-11,.cls-12,.cls-13{stroke-width:0px;}.cls-12,.cls-13{fill:#754c24;}.cls-14{isolation:isolate;}.cls-2{fill:#695447;}.cls-2,.cls-4,.cls-6,.cls-7{stroke:#fff;}.cls-2,.cls-4,.cls-7{mix-blend-mode:darken;}.cls-3{fill:#00482a;}.cls-3,.cls-8{stroke:#08a365;}.cls-4{fill:#28170f;}.cls-5{fill:#49a200;}.cls-5,.cls-10{stroke:#49a200;}.cls-13,.cls-15{mix-blend-mode:multiply;}.cls-6{fill:#fff;}.cls-7{fill:#00693b;}.cls-8{fill:#08a365;}.cls-9{fill:#685213;stroke:#bc921d;}.cls-10{fill:#2d4417;}</style></defs><g class="cls-14"><g id="Layer_2"><rect class="cls-11" x="1" width="1918" height="892"/><rect class="cls-11" x="1384" y="446" width="385" height="323"/></g><g id="Layer_1"><rect class="cls-13" x="2" y="892" width="1916.98" height="188"/><path class="cls-12" d="M98.52,943.29c1.93,0,1.93-3,0-3s-1.93,3,0,3h0Z"/><path class="cls-12" d="M161.9,953.15c1.93,0,1.93-3,0-3s-1.93,3,0,3h0Z"/><path class="cls-12" d="M73.17,946.11c1.93,0,1.93-3,0-3s-1.93,3,0,3h0Z"/><path class="cls-12" d="M113.28,940.23c2.81,1.88,5.63,3.76,8.44,5.65.65.44,1.69.15,2.05-.54.4-.76.16-1.59-.54-2.05-2.81-1.88-5.63-3.76-8.44-5.65-.65-.44-1.69-.15-2.05.54-.4.76-.16,1.59.54,2.05h0Z"/><path class="cls-12" d="M321.83,571.46c1.93,0,1.93-3,0-3s-1.93,3,0,3h0Z"/><path class="cls-12" d="M444.37,570.05c1.93,0,1.93-3,0-3s-1.93,3,0,3h0Z"/><ellipse class="cls-4" cx="1500.59" cy="976.31" rx="8.16" ry="6.62"/><ellipse class="cls-4" cx="1431.29" cy="1030.49" rx="8.16" ry="6.62"/><ellipse class="cls-4" cx="1109.12" cy="1021.88" rx="2.46" ry="1.99"/><ellipse class="cls-4" cx="1229.07" cy="1033.44" rx=".4" ry="13.01"/><ellipse class="cls-4" cx="1111.58" cy="987.85" rx="4.91" ry="3.99"/><ellipse class="cls-4" cx="1054.9" cy="1029.32" rx="8.73" ry="11.82"/><ellipse class="cls-4" cx="784.01" cy="954.28" rx="16.39" ry="13.31"/><ellipse class="cls-4" cx="933.91" cy="1026.94" rx="5.42" ry="4.4"/><ellipse class="cls-4" cx="782.88" cy="1017.5" rx="2.93" ry="2.38"/><ellipse class="cls-4" cx="484.45" cy="974.12" rx="8.91" ry="6.2"/><ellipse class="cls-2" cx="566.28" cy="1022.54" rx="8.91" ry="6.2"/><ellipse class="cls-2" cx="422.99" cy="1007.18" rx="14.01" ry="12.7"/><ellipse class="cls-2" cx="485.02" cy="928.62" rx="2.6" ry="2.11"/><ellipse class="cls-2" cx="475.54" cy="1016.34" rx="3.27" ry="10.63"/><path class="cls-2" d="M393.9,944.96c0-4.4-8.3-7.97-18.54-7.97s-18.54,3.57-18.54,7.97"/><path class="cls-2" d="M356.82,944.96c0,4.4,8.3,7.97,18.54,7.97s18.54-3.57,18.54-7.97"/><g class="cls-15"><ellipse class="cls-7" cx="468.1" cy="878.71" rx="48.37" ry="29.86"/><ellipse class="cls-7" cx="394.45" cy="859.37" rx="33.91" ry="29.32"/><ellipse class="cls-7" cx="435.11" cy="887.06" rx="40.07" ry="32.53"/><ellipse class="cls-7" cx="381.54" cy="882.68" rx="24.96" ry="28.15"/><ellipse class="cls-7" cx="811.69" cy="847.64" rx="38.57" ry="31.88"/><ellipse class="cls-7" cx="861.68" cy="852.96" rx="55.95" ry="45.42"/><ellipse class="cls-7" cx="770.2" cy="886.61" rx="61.79" ry="33.65"/><ellipse class="cls-7" cx="861.68" cy="886.36" rx="58.85" ry="26.32"/><path class="cls-7" d="M951.19,888.41c5.48-11.5-1.56-24.44-15.74-28.89s-30.11,1.27-35.59,12.77c-5.48,11.5,1.56,24.44,15.74,28.89,14.17,4.45,30.11-1.27,35.59-12.77Z"/><ellipse class="cls-7" cx="1232.37" cy="855.65" rx="23.75" ry="31"/><path class="cls-7" d="M1210.36,876.9c0,19.08-9.18,29.54-32.83,29.54s-46.83-23.46-46.83-42.54,13.18-21.54,36.83-21.54,42.83,15.46,42.83,34.54Z"/><path class="cls-7" d="M1188.14,899.11c0,9.65-16.62,17.46-37.12,17.46s-41.12-15.82-41.12-25.46,20.62-9.46,41.12-9.46c-6.16,0,37.12,21.15,37.12,17.46Z"/><path class="cls-7" d="M1253.71,894.94c0,17.13-21.1,23.01-42.2,23.01s-34.2-5.88-34.2-23.01,7.1-26.01,28.2-26.01,48.2,8.88,48.2,26.01Z"/><path class="cls-7" d="M1291.33,892.76c0,38.91,3.11,26.83-29.21,26.83-21.66,0-35.21-6.25-35.21-23.83s7.56-26.83,29.21-26.83,35.21,6.25,35.21,23.83Z"/><ellipse class="cls-7" cx="232.77" cy="882.71" rx="48.3" ry="33.65"/><ellipse class="cls-7" cx="189.99" cy="868.33" rx="50.94" ry="30.11"/><ellipse class="cls-7" cx="129.78" cy="854.53" rx="46.35" ry="30.48"/><ellipse class="cls-7" cx="144.56" cy="895.19" rx="42.6" ry="21.25"/><ellipse class="cls-7" cx="82.95" cy="887.64" rx="51.56" ry="24.8"/></g><path class="cls-6" d="M17.45,82.8c.68,7.49,8.87,14.95,18.01,14.55,9.58-.42,17.04-7.61,16.67-16.06-.4-9.04-10.19-14.61-18.01-14.55-5.6.05-12.07,3.01-15.06,8.75-.53,1.02-1.93,3.8-1.62,7.31Z"/><ellipse class="cls-6" cx="57.7" cy="76.87" rx="21.57" ry="19.49" transform="translate(-3.3 2.59) rotate(-2.5)"/><ellipse class="cls-6" cx="83.97" cy="69.76" rx="26.55" ry="21.45" transform="translate(-2.97 3.73) rotate(-2.5)"/><ellipse class="cls-6" cx="78.97" cy="75.83" rx="21.57" ry="19.49" transform="translate(-3.24 3.52) rotate(-2.5)"/><path class="cls-6" d="M99.2,79.22c.23,8.46,8.43,14.96,18.01,14.55s17.04-7.61,16.67-16.06-8.43-14.89-18.01-14.55c-9.57.34-16.93,6.89-16.67,16.06Z"/><path class="cls-6" d="M689.52,156.25c.68,7.49,8.87,14.95,18.01,14.55,9.58-.42,17.04-7.61,16.67-16.06-.4-9.04-10.19-14.61-18.01-14.55-5.6.05-12.07,3.01-15.06,8.75-.53,1.02-1.93,3.8-1.62,7.31Z"/><ellipse class="cls-6" cx="729.76" cy="150.31" rx="21.57" ry="19.49" transform="translate(-5.87 32.02) rotate(-2.5)"/><ellipse class="cls-6" cx="756.03" cy="143.2" rx="26.55" ry="21.45" transform="translate(-5.53 33.17) rotate(-2.5)"/><ellipse class="cls-6" cx="771.03" cy="147.28" rx="21.57" ry="19.49" transform="translate(-5.7 33.82) rotate(-2.5)"/><path class="cls-6" d="M771.27,152.67c.23,8.46,8.43,14.96,18.01,14.55,9.58-.42,17.04-7.61,16.67-16.06-.37-8.45-8.43-14.89-18.01-14.55-9.57.34-16.93,6.89-16.67,16.06Z"/><path class="cls-6" d="M566.99,231.22c.68,7.49,8.87,14.95,18.01,14.55,9.58-.42,17.04-7.61,16.67-16.06-.4-9.04-10.19-14.61-18.01-14.55-5.6.05-12.07,3.01-15.06,8.75-.53,1.02-1.93,3.8-1.62,7.31Z"/><ellipse class="cls-6" cx="607.24" cy="225.28" rx="21.57" ry="19.49" transform="translate(-9.26 26.74) rotate(-2.5)"/><ellipse class="cls-6" cx="633.5" cy="218.17" rx="26.55" ry="21.45" transform="translate(-8.93 27.88) rotate(-2.5)"/><ellipse class="cls-6" cx="648.5" cy="222.25" rx="21.57" ry="19.49" transform="translate(-9.09 28.54) rotate(-2.5)"/><path class="cls-6" d="M648.74,227.64c.23,8.46,8.43,14.96,18.01,14.55s17.04-7.61,16.67-16.06c-.37-8.45-8.43-14.89-18.01-14.55-9.57.34-16.93,6.89-16.67,16.06Z"/><path class="cls-6" d="M450.04,118.61c.68,7.49,8.87,14.95,18.01,14.55,9.58-.42,17.04-7.61,16.67-16.06-.4-9.04-10.19-14.61-18.01-14.55-5.6.05-12.07,3.01-15.06,8.75-.53,1.02-1.93,3.8-1.62,7.31Z"/><ellipse class="cls-6" cx="490.28" cy="112.67" rx="21.57" ry="19.49" transform="translate(-4.45 21.53) rotate(-2.5)"/><ellipse class="cls-6" cx="516.55" cy="105.56" rx="26.55" ry="21.45" transform="translate(-4.12 22.67) rotate(-2.5)"/><ellipse class="cls-6" cx="531.55" cy="109.64" rx="21.57" ry="19.49" transform="translate(-4.28 23.33) rotate(-2.5)"/><path class="cls-6" d="M531.79,115.03c.23,8.46,8.43,14.96,18.01,14.55,9.58-.42,17.04-7.61,16.67-16.06-.37-8.45-8.43-14.89-18.01-14.55-9.57.34-16.93,6.89-16.67,16.06Z"/><path class="cls-6" d="M769.3,164.87c11.9-.52,21.17-9.66,20.7-20.41-.47-10.75-10.5-19.05-22.41-18.53"/><path class="cls-6" d="M768.19,139.45c-.52-11.83,10.94-21.95,25.59-22.59s26.95,8.43,27.46,20.27c.52,11.83-10.94,21.95-25.59,22.59s-26.95-8.43-27.46-20.27"/><ellipse class="cls-6" cx="809.72" cy="142.36" rx="21.57" ry="19.49" transform="translate(-5.45 35.51) rotate(-2.5)"/><path class="cls-6" d="M809.96,147.75c.23,8.46,8.43,14.96,18.01,14.55,9.58-.42,17.04-7.61,16.67-16.06-.37-8.45-8.43-14.89-18.01-14.55-9.57.34-16.93,6.89-16.67,16.06Z"/><path class="cls-6" d="M921.31,149.5c.68,7.49,8.87,14.95,18.01,14.55,9.58-.42,17.04-7.61,16.67-16.06-.4-9.04-10.19-14.61-18.01-14.55-5.6.05-12.07,3.01-15.06,8.75-.53,1.02-1.93,3.8-1.62,7.31Z"/><ellipse class="cls-6" cx="961.56" cy="143.56" rx="21.57" ry="19.49" transform="translate(-5.35 42.15) rotate(-2.5)"/><ellipse class="cls-6" cx="987.82" cy="136.45" rx="26.55" ry="21.45" transform="translate(-5.02 43.29) rotate(-2.5)"/><ellipse class="cls-6" cx="1002.83" cy="140.53" rx="21.57" ry="19.49" transform="translate(-5.18 43.95) rotate(-2.5)"/><path class="cls-6" d="M1003.06,145.92c.23,8.46,8.43,14.96,18.01,14.55,9.58-.42,17.04-7.61,16.67-16.06-.37-8.45-8.43-14.89-18.01-14.55-9.57.34-16.93,6.89-16.67,16.06Z"/><path class="cls-6" d="M1189.78,140.91c.68,7.49,8.87,14.95,18.01,14.55,9.58-.42,17.04-7.61,16.67-16.06-.4-9.04-10.19-14.61-18.01-14.55-5.6.05-12.07,3.01-15.06,8.75-.53,1.02-1.93,3.8-1.62,7.31Z"/><ellipse class="cls-6" cx="1230.02" cy="134.98" rx="21.57" ry="19.49" transform="translate(-4.72 53.87) rotate(-2.5)"/><ellipse class="cls-6" cx="1256.29" cy="127.87" rx="26.55" ry="21.45" transform="translate(-4.39 55.01) rotate(-2.5)"/><ellipse class="cls-6" cx="1271.29" cy="131.94" rx="21.57" ry="19.49" transform="translate(-4.55 55.67) rotate(-2.5)"/><path class="cls-6" d="M1271.53,137.34c.23,8.46,8.43,14.96,18.01,14.55,9.58-.42,17.04-7.61,16.67-16.06-.37-8.45-8.43-14.89-18.01-14.55-9.57.34-16.93,6.89-16.67,16.06Z"/><path class="cls-6" d="M1189.78,140.91c.68,7.49,8.87,14.95,18.01,14.55,9.58-.42,17.04-7.61,16.67-16.06-.4-9.04-10.19-14.61-18.01-14.55-5.6.05-12.07,3.01-15.06,8.75-.53,1.02-1.93,3.8-1.62,7.31Z"/><ellipse class="cls-6" cx="1230.02" cy="134.98" rx="21.57" ry="19.49" transform="translate(-4.72 53.87) rotate(-2.5)"/><ellipse class="cls-6" cx="1256.29" cy="127.87" rx="26.55" ry="21.45" transform="translate(-4.39 55.01) rotate(-2.5)"/><ellipse class="cls-6" cx="1271.29" cy="131.94" rx="21.57" ry="19.49" transform="translate(-4.55 55.67) rotate(-2.5)"/><path class="cls-6" d="M1271.53,137.34c.23,8.46,8.43,14.96,18.01,14.55,9.58-.42,17.04-7.61,16.67-16.06-.37-8.45-8.43-14.89-18.01-14.55-9.57.34-16.93,6.89-16.67,16.06Z"/><path class="cls-6" d="M1189.78,140.91c.68,7.49,8.87,14.95,18.01,14.55,9.58-.42,17.04-7.61,16.67-16.06-.4-9.04-10.19-14.61-18.01-14.55-5.6.05-12.07,3.01-15.06,8.75-.53,1.02-1.93,3.8-1.62,7.31Z"/><ellipse class="cls-6" cx="1230.02" cy="134.98" rx="21.57" ry="19.49" transform="translate(-4.72 53.87) rotate(-2.5)"/><ellipse class="cls-6" cx="1256.29" cy="127.87" rx="26.55" ry="21.45" transform="translate(-4.39 55.01) rotate(-2.5)"/><ellipse class="cls-6" cx="1271.29" cy="131.94" rx="21.57" ry="19.49" transform="translate(-4.55 55.67) rotate(-2.5)"/><path class="cls-6" d="M1271.53,137.34c.23,8.46,8.43,14.96,18.01,14.55,9.58-.42,17.04-7.61,16.67-16.06-.37-8.45-8.43-14.89-18.01-14.55-9.57.34-16.93,6.89-16.67,16.06Z"/><path class="cls-6" d="M812.78,255.91c.68,7.49,8.87,14.95,18.01,14.55,9.58-.42,17.04-7.61,16.67-16.06-.4-9.04-10.19-14.61-18.01-14.55-5.6.05-12.07,3.01-15.06,8.75-.53,1.02-1.93,3.8-1.62,7.31Z"/><ellipse class="cls-6" cx="853.02" cy="249.98" rx="21.57" ry="19.49" transform="translate(-10.11 37.51) rotate(-2.5)"/><ellipse class="cls-6" cx="879.29" cy="242.87" rx="26.55" ry="21.45" transform="translate(-9.77 38.65) rotate(-2.5)"/><ellipse class="cls-6" cx="894.29" cy="246.94" rx="21.57" ry="19.49" transform="translate(-9.93 39.31) rotate(-2.5)"/><path class="cls-6" d="M894.53,252.34c.23,8.46,8.43,14.96,18.01,14.55,9.58-.42,17.04-7.61,16.67-16.06-.37-8.45-8.43-14.89-18.01-14.55-9.57.34-16.93,6.89-16.67,16.06Z"/><path class="cls-6" d="M1695.76,111.54c.68,7.49,8.87,14.95,18.01,14.55,9.58-.42,17.04-7.61,16.67-16.06-.4-9.04-10.19-14.61-18.01-14.55-5.6.05-12.07,3.01-15.06,8.75-.53,1.02-1.93,3.8-1.62,7.31Z"/><ellipse class="cls-6" cx="1736" cy="105.61" rx="21.57" ry="19.49" transform="translate(-2.96 75.94) rotate(-2.5)"/><ellipse class="cls-6" cx="1762.27" cy="98.5" rx="26.55" ry="21.45" transform="translate(-2.62 77.08) rotate(-2.5)"/><ellipse class="cls-6" cx="1777.27" cy="102.57" rx="21.57" ry="19.49" transform="translate(-2.78 77.74) rotate(-2.5)"/><path class="cls-6" d="M1777.51,107.96c.23,8.46,8.43,14.96,18.01,14.55,9.58-.42,17.04-7.61,16.67-16.06-.37-8.45-8.43-14.89-18.01-14.55-9.57.34-16.93,6.89-16.67,16.06Z"/><path class="cls-6" d="M1591.92,181.52c.47,10.75,10.5,19.05,22.41,18.53,11.9-.52,21.17-9.66,20.7-20.41-.47-10.75-10.5-19.05-22.41-18.53-11.9.52-21.17,9.66-20.7,20.41"/><ellipse class="cls-6" cx="1639.75" cy="173.46" rx="26.55" ry="21.45" transform="translate(-6.01 71.8) rotate(-2.5)"/><ellipse class="cls-6" cx="1654.75" cy="177.54" rx="21.57" ry="19.49" transform="translate(-6.18 72.46) rotate(-2.5)"/><path class="cls-6" d="M1654.98,182.93c.23,8.46,8.43,14.96,18.01,14.55s17.04-7.61,16.67-16.06-8.43-14.89-18.01-14.55c-9.57.34-16.93,6.89-16.67,16.06Z"/><path class="cls-6" d="M1775.54,120.16c11.9-.52,21.17-9.66,20.7-20.41-.47-10.75-10.5-19.05-22.41-18.53"/><path class="cls-6" d="M1774.43,94.74c-.52-11.83,10.94-21.95,25.59-22.59s26.95,8.43,27.46,20.27c.52,11.83-10.94,21.95-25.59,22.59-14.65.64-26.95-8.43-27.46-20.27"/><ellipse class="cls-6" cx="1815.96" cy="97.65" rx="21.57" ry="19.49" transform="translate(-2.53 79.43) rotate(-2.5)"/><path class="cls-6" d="M1816.2,103.05c.23,8.46,8.43,14.96,18.01,14.55,9.58-.42,17.04-7.61,16.67-16.06-.37-8.45-8.43-14.89-18.01-14.55-9.57.34-16.93,6.89-16.67,16.06Z"/><path class="cls-6" d="M1819.02,211.2c.68,7.49,8.87,14.95,18.01,14.55,9.58-.42,17.04-7.61,16.67-16.06-.4-9.04-10.19-14.61-18.01-14.55-5.6.05-12.07,3.01-15.06,8.75-.53,1.02-1.93,3.8-1.62,7.31Z"/><ellipse class="cls-6" cx="1859.26" cy="205.27" rx="21.57" ry="19.49" transform="translate(-7.19 81.42) rotate(-2.5)"/><ellipse class="cls-6" cx="1885.53" cy="198.16" rx="26.55" ry="21.45" transform="translate(-6.86 82.56) rotate(-2.5)"/><ellipse class="cls-6" cx="1900.53" cy="202.23" rx="21.57" ry="19.49" transform="translate(-7.02 83.22) rotate(-2.5)"/><path class="cls-6" d="M1900.77,207.63c.23,8.46,8.43,14.96,18.01,14.55,9.58-.42,17.04-7.61,16.67-16.06-.37-8.45-8.43-14.89-18.01-14.55-9.57.34-16.93,6.89-16.67,16.06Z"/><path class="cls-6" d="M1294.05,237.61c.68,7.49,8.87,14.95,18.01,14.55,9.58-.42,17.04-7.61,16.67-16.06-.4-9.04-10.19-14.61-18.01-14.55-5.6.05-12.07,3.01-15.06,8.75-.53,1.02-1.93,3.8-1.62,7.31Z"/><ellipse class="cls-6" cx="1334.29" cy="231.68" rx="21.57" ry="19.49" transform="translate(-8.85 58.51) rotate(-2.5)"/><ellipse class="cls-6" cx="1360.56" cy="224.57" rx="26.55" ry="21.45" transform="translate(-8.51 59.65) rotate(-2.5)"/><ellipse class="cls-6" cx="1375.56" cy="228.64" rx="21.57" ry="19.49" transform="translate(-8.68 60.31) rotate(-2.5)"/><path class="cls-6" d="M1375.8,234.04c.23,8.46,8.43,14.96,18.01,14.55,9.58-.42,17.04-7.61,16.67-16.06-.37-8.45-8.43-14.89-18.01-14.55-9.57.34-16.93,6.89-16.67,16.06Z"/><path class="cls-6" d="M1294.05,237.61c.68,7.49,8.87,14.95,18.01,14.55,9.58-.42,17.04-7.61,16.67-16.06-.4-9.04-10.19-14.61-18.01-14.55-5.6.05-12.07,3.01-15.06,8.75-.53,1.02-1.93,3.8-1.62,7.31Z"/><ellipse class="cls-6" cx="1334.29" cy="231.68" rx="21.57" ry="19.49" transform="translate(-8.85 58.51) rotate(-2.5)"/><ellipse class="cls-6" cx="1360.56" cy="224.57" rx="26.55" ry="21.45" transform="translate(-8.51 59.65) rotate(-2.5)"/><ellipse class="cls-6" cx="1375.56" cy="228.64" rx="21.57" ry="19.49" transform="translate(-8.68 60.31) rotate(-2.5)"/><path class="cls-6" d="M1375.8,234.04c.23,8.46,8.43,14.96,18.01,14.55,9.58-.42,17.04-7.61,16.67-16.06-.37-8.45-8.43-14.89-18.01-14.55-9.57.34-16.93,6.89-16.67,16.06Z"/><path class="cls-6" d="M1294.05,237.61c.68,7.49,8.87,14.95,18.01,14.55,9.58-.42,17.04-7.61,16.67-16.06-.4-9.04-10.19-14.61-18.01-14.55-5.6.05-12.07,3.01-15.06,8.75-.53,1.02-1.93,3.8-1.62,7.31Z"/><ellipse class="cls-6" cx="1334.29" cy="231.68" rx="21.57" ry="19.49" transform="translate(-8.85 58.51) rotate(-2.5)"/><ellipse class="cls-6" cx="1360.56" cy="224.57" rx="26.55" ry="21.45" transform="translate(-8.51 59.65) rotate(-2.5)"/><ellipse class="cls-6" cx="1375.56" cy="228.64" rx="21.57" ry="19.49" transform="translate(-8.68 60.31) rotate(-2.5)"/><path class="cls-6" d="M1375.8,234.04c.23,8.46,8.43,14.96,18.01,14.55,9.58-.42,17.04-7.61,16.67-16.06-.37-8.45-8.43-14.89-18.01-14.55-9.57.34-16.93,6.89-16.67,16.06Z"/><path class="cls-6" d="M1696.2,278.22c.47,10.75,10.5,19.05,22.41,18.53,11.9-.52,21.17-9.66,20.7-20.41s-10.5-19.05-22.41-18.53-21.17,9.66-20.7,20.41"/><ellipse class="cls-6" cx="1744.02" cy="270.17" rx="26.55" ry="21.45" transform="translate(-10.14 76.45) rotate(-2.5)"/><path class="cls-6" d="M1780.57,273.3c-.47-10.75-10.5-19.05-22.41-18.53s-21.17,9.66-20.7,20.41c.47,10.75,10.5,19.05,22.41,18.53s21.17-9.66,20.7-20.41"/><path class="cls-6" d="M1793.94,278.12c-.37-8.45-8.43-14.89-18.01-14.55-9.57.34-16.93,6.89-16.67,16.06.23,8.46,8.43,14.96,18.01,14.55s17.04-7.61,16.67-16.06"/><rect class="cls-9" x="1771.29" y="828.48" width="63" height="63"/><path class="cls-5" d="M1803.29,525.48c-44.18,0-80,71.19-80,159s35.82,159,80,159v-318Z"/><path class="cls-10" d="M1800.29,843.77c44.18,0,80-71.19,80-159s-35.82-159-80-159v318Z"/><rect class="cls-1" x="584.29" y="828.48" width="63" height="63"/><path class="cls-8" d="M616.29,525.48c-44.18,0-80,71.19-80,159s35.82,159,80,159v-318Z"/><path class="cls-3" d="M613.29,843.77c44.18,0,80-71.19,80-159s-35.82-159-80-159v318Z"/></g></g></svg>