<?xml version="1.0" encoding="UTF-8"?><svg id="Layer_1" xmlns="http://www.w3.org/2000/svg" width="308" height="211" xmlns:xlink="http://www.w3.org/1999/xlink" viewBox="0 0 308 211"><defs><style>.cls-1,.cls-2,.cls-3,.cls-4,.cls-5,.cls-6,.cls-7{stroke-linecap:round;}.cls-1,.cls-2,.cls-3,.cls-8,.cls-5,.cls-7{stroke-miterlimit:10;}.cls-1,.cls-3,.cls-4,.cls-8,.cls-6{stroke:#000;}.cls-1,.cls-4,.cls-9{fill:#c3c8c9;}.cls-2{stroke:#5585ff;}.cls-2,.cls-3,.cls-8,.cls-5,.cls-6,.cls-7{fill:none;}.cls-10{fill:url(#radial-gradient-8);}.cls-10,.cls-9,.cls-11,.cls-12,.cls-13,.cls-14,.cls-15,.cls-16,.cls-17,.cls-18,.cls-19,.cls-20{stroke-width:0px;}.cls-4,.cls-6{stroke-linejoin:round;stroke-width:.5px;}.cls-11{fill:#e6e7e8;}.cls-12{fill:#e90006;}.cls-13{fill:#fffe3f;}.cls-14{fill:url(#radial-gradient-2);}.cls-15{fill:url(#radial-gradient-7);}.cls-16{fill:url(#radial-gradient-5);}.cls-17{fill:url(#radial-gradient);}.cls-5{stroke:#231f20;}.cls-18{fill:url(#radial-gradient-6);}.cls-19{fill:url(#radial-gradient-3);}.cls-7{stroke:#00097c;}.cls-20{fill:url(#radial-gradient-4);}</style><radialGradient id="radial-gradient" cx="237.91" cy="95.32" fx="237.91" fy="95.32" r="9.8" gradientUnits="userSpaceOnUse"><stop offset="0" stop-color="#fff"/><stop offset="0" stop-color="#fff"/><stop offset=".1" stop-color="#fd5a29"/><stop offset=".53" stop-color="#7a2b02"/><stop offset=".67" stop-color="#752900"/><stop offset=".89" stop-color="#742900"/></radialGradient><radialGradient id="radial-gradient-2" cx="230.47" cy="81.42" fx="230.47" fy="81.42" r="13.18" gradientUnits="userSpaceOnUse"><stop offset="0" stop-color="#fff"/><stop offset="0" stop-color="#fff"/><stop offset=".03" stop-color="#fd5a29"/><stop offset=".64" stop-color="#742900"/><stop offset=".65" stop-color="#742900"/><stop offset=".76" stop-color="#742900"/></radialGradient><radialGradient id="radial-gradient-3" cx="230.49" cy="107.5" fx="230.49" fy="107.5" r="12.95" gradientUnits="userSpaceOnUse"><stop offset="0" stop-color="#fff"/><stop offset="0" stop-color="#fff"/><stop offset=".1" stop-color="#fd5a29"/><stop offset=".53" stop-color="#7a2b02"/><stop offset=".92" stop-color="#742900"/></radialGradient><radialGradient id="radial-gradient-4" cx="229.01" cy="99.48" fx="229.01" fy="99.48" r="1.96" xlink:href="#radial-gradient"/><radialGradient id="radial-gradient-5" cx="216.47" cy="94.23" fx="216.47" fy="94.23" r="8.64" xlink:href="#radial-gradient"/><radialGradient id="radial-gradient-6" cx="220.59" cy="97.98" fx="220.59" fy="97.98" r="4.45" xlink:href="#radial-gradient"/><radialGradient id="radial-gradient-7" cx="215.07" cy="102.35" fx="215.07" fy="102.35" r="8.92" xlink:href="#radial-gradient-3"/><radialGradient id="radial-gradient-8" cx="214.04" cy="87.03" fx="214.04" fy="87.03" r="7.08" xlink:href="#radial-gradient-2"/></defs><path class="cls-17" d="M250.64,94.67c.07,2.45-8.88,5.94-13.52,6.12-2.08.08-3.76-.09-5.48-.42-.15-.07-.3-.14-.46-.2-1.44-.61-2.92-1.14-4.41-1.57.77-1.24,1.16-2.49,1.11-3.74-.07-1.76-1.04-3.43-2.69-4.99.87-.02,1.76-.03,2.66-.03,9.3,0,22.68,1.61,22.79,4.83Z"/><path class="cls-14" d="M247.66,75.71c.95,1.98-4.02,6.24-7.9,8.47-4.04,2.32-7.64,2.84-11.76,3.45-1.68.25-3.24.48-4.69.7-2.57-1.84-6.09-3.53-10.16-5.05,3.17-1.62,7.06-3.26,11.35-4.74,9.23-3.17,21.83-5.59,23.16-2.83Z"/><path class="cls-19" d="M231.64,100.36c8.75,3.88,16.45,11.39,14.98,14.17-1.7,3.22-15.54-.17-23.16-2.83-2.62-.91-6.03-2.27-9.28-3.79,5.51-2.62,10.01-5.63,12.21-8.75.48.11.96.22,1.46.34,1.39.34,2.6.63,3.79.86Z"/><path class="cls-20" d="M231.18,100.16c.15.06.3.13.46.2-1.19-.22-2.4-.52-3.79-.86-.5-.12-.98-.24-1.46-.34.14-.19.26-.38.38-.57,1.49.43,2.97.96,4.41,1.57Z"/><path class="cls-16" d="M227.88,94.86c.05,1.25-.34,2.5-1.11,3.74-4.26-1.25-8.61-1.79-12.38-1.8-6.49-1.04-9.34-1.14-9.34-2.12,0-2.48,8.8-4.52,20.13-4.8,1.65,1.56,2.62,3.23,2.69,4.99Z"/><path class="cls-18" d="M226.77,98.59c-.12.19-.24.38-.38.57-4.9-1.15-8.86-1.87-11.99-2.37,3.76.02,8.12.56,12.38,1.8Z"/><path class="cls-9" d="M223.31,88.33c.69.5,1.33,1.01,1.87,1.54-11.33.28-20.13,2.32-20.13,4.8,0,.98,2.85,1.08,9.34,2.12-5.76-.02-10.13,1.19-10.61,2.99-.58,2.22,4.65,5.43,10.39,8.13-11.23,5.33-26.71,9.01-35.8,8.48-.72-.04-2.94-.2-9.57-.62-12.5-.8-18.59-1.14-20.13-1.25-1.16-.08-16.23-4.48-27.27-9.85,6.49-2.77,10.5-6.66,10.33-10.81-.18-4.34-4.88-8.04-12.08-10.31,7.43-4.2,17.67-7.47,25.73-8.98,6.15-1.15,13.04-1.62,23.43-.62,11.71,1.12,31.01,4.35,44.35,9.34-5.58,2.83-8.94,5.58-8.32,7.18.27.7,1.68.39,18.48-2.13Z"/><path class="cls-15" d="M226.39,99.16c-2.2,3.12-6.7,6.13-12.21,8.75-5.74-2.7-10.97-5.91-10.39-8.13.48-1.8,4.84-3.02,10.61-2.99,3.13.51,7.1,1.22,11.99,2.37Z"/><path class="cls-10" d="M213.16,83.28c4.07,1.52,7.58,3.21,10.16,5.05-16.8,2.52-18.21,2.83-18.48,2.13-.61-1.6,2.75-4.35,8.32-7.18Z"/><path class="cls-9" d="M131.74,93.86c.17,4.16-3.84,8.04-10.33,10.81-6.49-3.16-11.59-6.66-11.67-9.81-.11-4.08,4.03-7.98,9.91-11.31,7.21,2.27,11.9,5.97,12.08,10.31Z"/><path class="cls-9" d="M119.65,83.55c-5.89,3.32-10.02,7.22-9.91,11.31.08,3.16,5.18,6.66,11.67,9.81-5.42,2.32-12.56,3.86-20.44,4.16-9.85.36-18.72-1.32-24.59-4.23,15.13-1.01,26.43-4.98,26.43-9.74,0-2.18-2.38-4.2-6.42-5.84h0c.32-.45.51-.95.51-1.48,0-1.88-2.31-3.4-5.16-3.4-2.25,0-4.16.94-4.86,2.26-2.32-.42-4.82-.77-7.46-1.03,5.41-2.32,12.55-3.86,20.41-4.15,7.46-.27,14.37.62,19.83,2.34Z"/><path class="cls-9" d="M96.4,89.01c4.04,1.64,6.42,3.66,6.42,5.84,0,4.76-11.29,8.73-26.43,9.74-4.46-2.21-7.19-5.13-7.32-8.42-.17-4.16,3.85-8.05,10.35-10.82,2.65.26,5.15.61,7.46,1.03-.2.36-.3.74-.3,1.14,0,1.88,2.31,3.4,5.17,3.4,2.05,0,3.81-.79,4.65-1.92Z"/><path class="cls-11" d="M96.9,87.53c0,.53-.18,1.03-.51,1.47-.79-.32-1.65-.62-2.57-.92.05-.14.07-.27.07-.42,0-1.04-1.27-1.89-2.85-1.89-1.05,0-1.97.38-2.47.94-.55-.12-1.12-.23-1.7-.34.71-1.32,2.61-2.26,4.86-2.26,2.85,0,5.16,1.52,5.16,3.4Z"/><path class="cls-11" d="M96.4,89.01h0c-.84,1.14-2.61,1.93-4.65,1.93-2.86,0-5.17-1.52-5.17-3.4,0-.4.11-.79.3-1.14.58.11,1.15.22,1.7.34-.24.27-.38.6-.38.94,0,1.04,1.28,1.88,2.85,1.88,1.36,0,2.49-.62,2.78-1.46.92.29,1.78.6,2.57.92Z"/><path class="cls-12" d="M93.9,87.67c0,.14-.03.28-.07.42-1.59-.51-3.35-.96-5.25-1.36.5-.56,1.42-.94,2.47-.94,1.58,0,2.85.84,2.85,1.89Z"/><path class="cls-12" d="M88.58,86.73c1.9.4,3.66.86,5.25,1.36-.28.84-1.42,1.46-2.78,1.46-1.57,0-2.85-.84-2.85-1.88,0-.34.14-.67.38-.94Z"/><path class="cls-13" d="M68.82,84.87c3.7,0,7.26.17,10.59.49-6.5,2.77-10.52,6.66-10.35,10.82.13,3.28,2.86,6.21,7.32,8.42-2.43.16-4.96.25-7.56.25-18.77,0-33.99-4.47-33.99-9.99s15.22-9.99,33.99-9.99Z"/><path class="cls-8" d="M79.41,85.36c5.41-2.32,12.55-3.86,20.41-4.15,7.46-.27,14.37.62,19.83,2.34"/><path class="cls-8" d="M121.41,104.67c-5.42,2.32-12.56,3.86-20.44,4.16-9.85.36-18.72-1.32-24.59-4.23"/><path class="cls-8" d="M76.38,104.59c-2.43.16-4.96.25-7.56.25-18.77,0-33.99-4.47-33.99-9.99s15.22-9.99,33.99-9.99c3.7,0,7.26.17,10.59.49"/><line class="cls-5" x1="36" y1="92.96" x2="62.96" y2="92.96"/><path class="cls-7" d="M86.88,86.39c.71-1.32,2.61-2.26,4.86-2.26,2.85,0,5.16,1.52,5.16,3.4,0,.53-.18,1.03-.51,1.47h0c-.84,1.14-2.61,1.93-4.65,1.93-2.86,0-5.17-1.52-5.17-3.4,0-.4.11-.79.3-1.14Z"/><path class="cls-2" d="M88.58,86.73c.5-.56,1.42-.94,2.47-.94,1.58,0,2.85.84,2.85,1.89,0,.14-.03.28-.07.42-.28.84-1.42,1.46-2.78,1.46-1.57,0-2.85-.84-2.85-1.88,0-.34.14-.67.38-.94Z"/><path class="cls-3" d="M223.31,88.33c.69.5,1.33,1.01,1.87,1.54"/><path class="cls-3" d="M119.65,83.55c7.43-4.2,17.67-7.47,25.73-8.98,6.15-1.15,13.04-1.62,23.43-.62,11.71,1.12,31.01,4.35,44.35,9.34"/><path class="cls-3" d="M226.77,98.59c-.12.19-.24.38-.38.57-2.2,3.12-6.7,6.13-12.21,8.75-11.23,5.33-26.71,9.01-35.8,8.48-.72-.04-2.94-.2-9.57-.62-12.5-.8-18.59-1.14-20.13-1.25-1.16-.08-16.23-4.48-27.27-9.85"/><path class="cls-3" d="M213.16,83.28c3.17-1.62,7.06-3.26,11.35-4.74,9.23-3.17,21.83-5.59,23.16-2.83.95,1.98-4.02,6.24-7.9,8.47-4.04,2.32-7.64,2.84-11.76,3.45-1.68.25-3.24.48-4.69.7"/><path class="cls-6" d="M231.64,100.36c8.75,3.88,16.45,11.39,14.98,14.17-1.7,3.22-15.54-.17-23.16-2.83-2.62-.91-6.03-2.27-9.28-3.79"/><path class="cls-3" d="M226.77,98.59c1.49.43,2.97.96,4.41,1.57.15.06.3.13.46.2"/><path class="cls-6" d="M225.19,89.87c.87-.02,1.76-.03,2.66-.03,9.3,0,22.68,1.61,22.79,4.83.07,2.45-8.88,5.94-13.52,6.12-2.08.08-3.76-.09-5.48-.42-1.19-.22-2.4-.52-3.79-.86-.5-.12-.98-.24-1.46-.34"/><path class="cls-4" d="M189.17,76.93c30.59-2.01-.23-14.22-.23-14.22,13.2-3.12-.2-16.21-.2-16.21,7.72-.6-1.12-13.13-1.12-13.13,4.62-1.25-6.6-11.86-6.6-11.86l-6.6,8.12c-1.32,18.1-15.18,31.21-15.18,31.21-7.26,11.86-26.54,17.08-26.54,17.08"/><path class="cls-1" d="M153.83,99.39s-20.33,13.11-18.33,30.11.19,60.13,9.1,33.56c0,0,34.9-17.56,6.9-23.56,0,0,47-18,8-13,0,0,38.41-12.3,15.2-21.65,0,0,1.18-3.57-2.51-5.46"/></svg>