<?xml version="1.0" encoding="UTF-8"?><svg id="Layer_1" xmlns="http://www.w3.org/2000/svg" width="133" height="100" xmlns:xlink="http://www.w3.org/1999/xlink" viewBox="0 0 133 100"><defs><style>.cls-1,.cls-2,.cls-3,.cls-4,.cls-5,.cls-6,.cls-7{stroke-linecap:round;}.cls-1,.cls-2,.cls-3,.cls-8,.cls-5,.cls-7{stroke-miterlimit:10;}.cls-1,.cls-3,.cls-4,.cls-8,.cls-6{stroke:#000;}.cls-1,.cls-4,.cls-9{fill:#c3c8c9;}.cls-2{stroke:#5585ff;}.cls-2,.cls-3,.cls-8,.cls-5,.cls-6,.cls-7{fill:none;}.cls-10{fill:url(#radial-gradient-8);}.cls-10,.cls-9,.cls-11,.cls-12,.cls-13,.cls-14,.cls-15,.cls-16,.cls-17,.cls-18,.cls-19,.cls-20{stroke-width:0px;}.cls-4,.cls-6{stroke-linejoin:round;stroke-width:.5px;}.cls-11{fill:#e6e7e8;}.cls-12{fill:#e90006;}.cls-13{fill:#fffe3f;}.cls-14{fill:url(#radial-gradient-2);}.cls-15{fill:url(#radial-gradient-7);}.cls-16{fill:url(#radial-gradient-5);}.cls-17{fill:url(#radial-gradient);}.cls-5{stroke:#231f20;}.cls-18{fill:url(#radial-gradient-6);}.cls-19{fill:url(#radial-gradient-3);}.cls-7{stroke:#00097c;}.cls-20{fill:url(#radial-gradient-4);}</style><radialGradient id="radial-gradient" cx="72.61" cy="93.96" fx="72.61" fy="93.96" r="4.86" gradientUnits="userSpaceOnUse"><stop offset="0" stop-color="#fff"/><stop offset="0" stop-color="#fff"/><stop offset=".1" stop-color="#fd5a29"/><stop offset=".53" stop-color="#7a2b02"/><stop offset=".67" stop-color="#752900"/><stop offset=".89" stop-color="#742900"/></radialGradient><radialGradient id="radial-gradient-2" cx="80.03" cy="90.52" fx="80.03" fy="90.52" r="6.54" gradientUnits="userSpaceOnUse"><stop offset="0" stop-color="#fff"/><stop offset="0" stop-color="#fff"/><stop offset=".03" stop-color="#fd5a29"/><stop offset=".64" stop-color="#742900"/><stop offset=".65" stop-color="#742900"/><stop offset=".76" stop-color="#742900"/></radialGradient><radialGradient id="radial-gradient-3" cx="66.11" cy="90.53" fx="66.11" fy="90.53" r="6.43" gradientUnits="userSpaceOnUse"><stop offset="0" stop-color="#fff"/><stop offset="0" stop-color="#fff"/><stop offset=".1" stop-color="#fd5a29"/><stop offset=".53" stop-color="#7a2b02"/><stop offset=".92" stop-color="#742900"/></radialGradient><radialGradient id="radial-gradient-4" cx="70.39" cy="89.85" fx="70.39" fy="89.85" r=".97" xlink:href="#radial-gradient"/><radialGradient id="radial-gradient-5" cx="73.19" cy="84.06" fx="73.19" fy="84.06" r="4.29" xlink:href="#radial-gradient"/><radialGradient id="radial-gradient-6" cx="71.19" cy="85.96" fx="71.19" fy="85.96" r="2.21" xlink:href="#radial-gradient"/><radialGradient id="radial-gradient-7" cx="68.86" cy="83.41" fx="68.86" fy="83.41" r="4.43" xlink:href="#radial-gradient-3"/><radialGradient id="radial-gradient-8" cx="77.03" cy="82.94" fx="77.03" fy="82.94" r="3.51" xlink:href="#radial-gradient-2"/></defs><path class="cls-17" d="M72.95,99.83c-1.31.04-3.17-4.1-3.26-6.24-.04-.96.05-1.73.23-2.53.04-.07.07-.14.11-.21.33-.66.61-1.35.84-2.03.66.35,1.33.54,2,.51.94-.03,1.83-.48,2.66-1.24,0,.4.02.81.02,1.23,0,4.29-.86,10.47-2.58,10.52Z"/><path class="cls-14" d="M83.07,98.46c-1.06.44-3.33-1.86-4.52-3.65-1.24-1.86-1.52-3.52-1.84-5.43-.13-.78-.26-1.5-.37-2.16.98-1.19,1.89-2.81,2.7-4.69.86,1.47,1.74,3.26,2.53,5.24,1.69,4.26,2.99,10.08,1.51,10.69Z"/><path class="cls-19" d="M69.92,91.06c-2.07,4.04-6.08,7.59-7.56,6.92-1.72-.79.09-7.17,1.51-10.69.49-1.21,1.21-2.78,2.02-4.28,1.4,2.54,3.01,4.62,4.67,5.63-.06.22-.12.44-.18.67-.18.64-.34,1.2-.46,1.75Z"/><path class="cls-20" d="M70.02,90.85c-.03.07-.07.14-.11.21.12-.55.28-1.11.46-1.75.06-.23.13-.45.18-.67.1.06.2.12.3.18-.23.69-.51,1.37-.84,2.03Z"/><path class="cls-16" d="M72.85,89.33c-.67.02-1.33-.16-2-.51.67-1.96.95-3.98.96-5.71.56-2.99.61-4.31,1.13-4.31,1.32,0,2.41,4.06,2.56,9.29-.83.76-1.72,1.21-2.66,1.24Z"/><path class="cls-18" d="M70.86,88.81c-.1-.05-.2-.11-.3-.18.61-2.26,1-4.09,1.27-5.54,0,1.73-.3,3.75-.96,5.71Z"/><path class="cls-9" d="M76.34,87.22c-.27.32-.54.61-.82.87-.15-5.23-1.24-9.29-2.56-9.29-.52,0-.58,1.32-1.13,4.31,0-2.66-.63-4.68-1.6-4.9-1.18-.27-2.9,2.14-4.34,4.8-2.85-5.19-4.81-12.33-4.53-16.53.02-.33.11-1.36.33-4.42.43-5.77.61-8.58.67-9.29.04-.54,2.39-7.49,5.26-12.59,1.48,2.99,3.55,4.85,5.77,4.77,2.32-.09,4.29-2.25,5.5-5.58,2.24,3.43,3.98,8.16,4.79,11.88.62,2.84.87,6.02.33,10.81-.6,5.4-2.32,14.31-4.98,20.47-1.52-2.57-2.98-4.12-3.83-3.84-.37.12-.21.77,1.14,8.53Z"/><path class="cls-15" d="M70.56,88.64c-1.66-1.02-3.27-3.09-4.67-5.63,1.44-2.65,3.15-5.07,4.34-4.8.96.22,1.61,2.24,1.6,4.9-.27,1.44-.65,3.27-1.27,5.54Z"/><path class="cls-10" d="M79.03,82.53c-.81,1.88-1.72,3.5-2.7,4.69-1.34-7.76-1.51-8.4-1.14-8.53.85-.29,2.32,1.26,3.83,3.84Z"/><path class="cls-9" d="M73.39,44.95c-2.22.08-4.29-1.77-5.77-4.77,1.68-2.99,3.55-5.35,5.23-5.39,2.18-.05,4.26,1.86,6.03,4.57-1.21,3.33-3.18,5.5-5.5,5.58Z"/><path class="cls-9" d="M78.89,39.37c-1.77-2.72-3.85-4.62-6.03-4.57-1.69.04-3.55,2.39-5.23,5.39-1.24-2.5-2.07-5.8-2.22-9.43-.2-4.55.7-8.65,2.26-11.36.54,6.99,2.66,12.21,5.2,12.21,1.16,0,2.24-1.1,3.11-2.96.24.15.51.24.79.24,1,0,1.82-1.07,1.82-2.39,0-1.04-.5-1.92-1.21-2.25.23-1.07.41-2.22.55-3.45,1.24,2.5,2.06,5.79,2.22,9.43.15,3.44-.33,6.63-1.25,9.15Z"/><path class="cls-9" d="M75.97,28.64c-.87,1.86-1.95,2.96-3.11,2.96-2.54,0-4.66-5.22-5.2-12.21,1.18-2.05,2.74-3.31,4.49-3.37,2.22-.08,4.29,1.78,5.77,4.78-.14,1.22-.32,2.38-.55,3.45-.19-.09-.4-.14-.61-.14-1,0-1.82,1.07-1.82,2.39,0,.94.42,1.76,1.02,2.15Z"/><path class="cls-11" d="M76.76,28.87c-.28,0-.55-.09-.79-.24.17-.37.34-.76.5-1.19.07.02.15.03.22.03.56,0,1-.59,1-1.31,0-.49-.2-.91-.5-1.14.06-.26.12-.52.18-.79.7.33,1.21,1.21,1.21,2.25,0,1.32-.81,2.39-1.82,2.39Z"/><path class="cls-11" d="M75.97,28.64c-.61-.39-1.02-1.21-1.02-2.15,0-1.32.81-2.39,1.82-2.39.21,0,.42.05.61.14-.06.27-.12.53-.18.79-.15-.11-.32-.18-.5-.18-.55,0-1,.59-1,1.32,0,.62.33,1.15.78,1.28-.16.42-.32.82-.5,1.19Z"/><path class="cls-12" d="M76.69,27.48c-.08,0-.15-.01-.22-.03.27-.73.51-1.54.73-2.42.3.23.5.65.5,1.14,0,.73-.45,1.31-1,1.31Z"/><path class="cls-12" d="M77.19,25.03c-.21.88-.46,1.69-.73,2.42-.45-.13-.78-.65-.78-1.28,0-.73.45-1.32,1-1.32.18,0,.36.06.5.18Z"/><path class="cls-13" d="M78.19,15.91c0,1.71-.09,3.35-.26,4.89-1.48-3-3.55-4.86-5.77-4.78-1.75.06-3.31,1.32-4.49,3.37-.09-1.12-.13-2.28-.13-3.48,0-8.66,2.39-15.69,5.33-15.69s5.33,7.02,5.33,15.69Z"/><path class="cls-8" d="M77.92,20.8c1.24,2.5,2.06,5.79,2.22,9.43.15,3.44-.33,6.63-1.25,9.15"/><path class="cls-8" d="M67.62,40.18c-1.24-2.5-2.07-5.8-2.22-9.43-.2-4.55.7-8.65,2.26-11.36"/><path class="cls-8" d="M67.66,19.39c-.09-1.12-.13-2.28-.13-3.48,0-8.66,2.39-15.69,5.33-15.69s5.33,7.02,5.33,15.69c0,1.71-.09,3.35-.26,4.89"/><line class="cls-5" x1="73.87" y1=".76" x2="73.87" y2="13.2"/><path class="cls-7" d="M77.37,24.24c.7.33,1.21,1.21,1.21,2.25,0,1.32-.81,2.39-1.82,2.39-.28,0-.55-.09-.79-.24-.61-.39-1.02-1.21-1.02-2.15,0-1.32.81-2.39,1.82-2.39.21,0,.42.05.61.14Z"/><path class="cls-2" d="M77.19,25.03c.3.23.5.65.5,1.14,0,.73-.45,1.31-1,1.31-.08,0-.15-.01-.22-.03-.45-.13-.78-.65-.78-1.28,0-.73.45-1.32,1-1.32.18,0,.36.06.5.18Z"/><path class="cls-3" d="M76.34,87.22c-.27.32-.54.61-.82.87"/><path class="cls-3" d="M78.89,39.37c2.24,3.43,3.98,8.16,4.79,11.88.62,2.84.87,6.02.33,10.81-.6,5.4-2.32,14.31-4.98,20.47"/><path class="cls-3" d="M70.86,88.81c-.1-.05-.2-.11-.3-.18-1.66-1.02-3.27-3.09-4.67-5.63-2.85-5.19-4.81-12.33-4.53-16.53.02-.33.11-1.36.33-4.42.43-5.77.61-8.58.67-9.29.04-.54,2.39-7.49,5.26-12.59"/><path class="cls-3" d="M79.03,82.53c.86,1.47,1.74,3.26,2.53,5.24,1.69,4.26,2.99,10.08,1.51,10.69-1.06.44-3.33-1.86-4.52-3.65-1.24-1.86-1.52-3.52-1.84-5.43-.13-.78-.26-1.5-.37-2.16"/><path class="cls-6" d="M69.92,91.06c-2.07,4.04-6.08,7.59-7.56,6.92-1.72-.79.09-7.17,1.51-10.69.49-1.21,1.21-2.78,2.02-4.28"/><path class="cls-3" d="M70.86,88.81c-.23.69-.51,1.37-.84,2.03-.03.07-.07.14-.11.21"/><path class="cls-6" d="M75.52,88.08c0,.4.02.81.02,1.23,0,4.29-.86,10.47-2.58,10.52-1.31.04-3.17-4.1-3.26-6.24-.04-.96.05-1.73.23-2.53.12-.55.28-1.11.46-1.75.06-.23.13-.45.18-.67"/><path class="cls-4" d="M82.42,71.46c1.07,14.12,7.59-.11,7.59-.11,1.67,6.09,8.65-.09,8.65-.09.32,3.56,7.01-.52,7.01-.52.67,2.13,6.33-3.05,6.33-3.05l-4.33-3.05c-9.66-.61-16.66-7.01-16.66-7.01-6.33-3.35-9.12-12.25-9.12-12.25"/><path class="cls-1" d="M70.43,55.15s-7-9.38-16.07-8.46c-9.07.92-32.09.09-17.91,4.2,0,0,9.37,16.11,12.57,3.19,0,0,9.61,21.69,6.94,3.69,0,0,6.56,17.73,11.55,7.02,0,0,1.91.54,2.91-1.16"/></svg>