<?xml version="1.0" encoding="UTF-8"?><svg xmlns="http://www.w3.org/2000/svg" width="1920" height="1080" xmlns:xlink="http://www.w3.org/1999/xlink" viewBox="0 0 1920 1080"><defs><style>.cls-1,.cls-2,.cls-3,.cls-4,.cls-5,.cls-6,.cls-7,.cls-8,.cls-9,.cls-10,.cls-11,.cls-12{stroke-linecap:round;}.cls-1,.cls-2,.cls-3,.cls-5,.cls-13,.cls-7,.cls-8,.cls-9,.cls-11,.cls-12{stroke-miterlimit:10;}.cls-1,.cls-3,.cls-4,.cls-5,.cls-6,.cls-13,.cls-10{stroke:#000;}.cls-1,.cls-6,.cls-14{fill:#c3c8c9;}.cls-15{fill:url(#radial-gradient-16);}.cls-15,.cls-16,.cls-17,.cls-18,.cls-19,.cls-20,.cls-14,.cls-21,.cls-22,.cls-23,.cls-24,.cls-25,.cls-26,.cls-27,.cls-28,.cls-29,.cls-30,.cls-31,.cls-32,.cls-33,.cls-34,.cls-35,.cls-36,.cls-37,.cls-38,.cls-39,.cls-40,.cls-41,.cls-42,.cls-43,.cls-44,.cls-45,.cls-46,.cls-47,.cls-48,.cls-49,.cls-50,.cls-51,.cls-52,.cls-53,.cls-54,.cls-55{stroke-width:0px;}.cls-2{stroke:#5585ff;}.cls-2,.cls-3,.cls-13,.cls-7,.cls-8,.cls-9,.cls-10,.cls-11,.cls-12{fill:none;}.cls-16{fill:url(#linear-gradient);}.cls-17{fill:#000;}.cls-4,.cls-5,.cls-46{fill:#c2c7c7;}.cls-4,.cls-6,.cls-10{stroke-linejoin:round;stroke-width:.5px;}.cls-18{fill:url(#radial-gradient-8);}.cls-19{fill:url(#radial-gradient-13);}.cls-20{fill:url(#radial-gradient-12);}.cls-21{fill:#e2a064;}.cls-7{stroke:#282a71;}.cls-22{fill:#e6e7e8;}.cls-23{fill:url(#radial-gradient-27);}.cls-24{fill:#f7ec46;}.cls-25{fill:#e90006;}.cls-26{fill:url(#radial-gradient-22);}.cls-27{fill:url(#radial-gradient-19);}.cls-28{fill:url(#radial-gradient-20);}.cls-29{fill:url(#radial-gradient-25);}.cls-30{fill:#fffe3f;}.cls-31{fill:url(#linear-gradient-2);}.cls-32{fill:url(#radial-gradient-17);}.cls-33{fill:url(#radial-gradient-21);}.cls-34{fill:url(#radial-gradient-2);}.cls-35{fill:url(#radial-gradient-7);}.cls-36{fill:url(#linear-gradient-3);}.cls-37{fill:#e61e25;}.cls-38{fill:url(#radial-gradient-26);}.cls-39{fill:url(#radial-gradient-5);}.cls-40{fill:url(#radial-gradient-24);}.cls-41{fill:url(#radial-gradient);}.cls-8{stroke:#231f20;}.cls-42{fill:url(#radial-gradient-14);}.cls-43{fill:url(#radial-gradient-18);}.cls-44{fill:url(#radial-gradient-10);}.cls-9{stroke:#5f7dbd;}.cls-45{fill:#e5e6e6;}.cls-47{fill:url(#radial-gradient-28);}.cls-48{fill:url(#radial-gradient-6);}.cls-49{fill:url(#radial-gradient-15);}.cls-50{fill:url(#radial-gradient-9);}.cls-51{fill:url(#radial-gradient-3);}.cls-52{fill:url(#radial-gradient-11);}.cls-53{fill:url(#linear-gradient-4);}.cls-11{stroke:#221f1f;}.cls-12{stroke:#00097c;}.cls-54{fill:url(#radial-gradient-4);}.cls-55{fill:url(#radial-gradient-23);}</style><radialGradient id="radial-gradient" cx="1425.86" cy="259.07" fx="1425.86" fy="259.07" r="12.6" gradientUnits="userSpaceOnUse"><stop offset="0" stop-color="#fff"/><stop offset="0" stop-color="#fff"/><stop offset=".1" stop-color="#fd5a29"/><stop offset=".53" stop-color="#7a2b02"/><stop offset=".67" stop-color="#752900"/><stop offset=".89" stop-color="#742900"/></radialGradient><radialGradient id="radial-gradient-2" cx="1417.81" cy="262.51" fx="1417.81" fy="262.51" r="4.39" gradientUnits="userSpaceOnUse"><stop offset="0" stop-color="#fff"/><stop offset="0" stop-color="#fff"/><stop offset=".1" stop-color="#ef5525"/><stop offset=".53" stop-color="#fd5a29"/><stop offset=".62" stop-color="#742900"/><stop offset=".65" stop-color="#742900"/><stop offset=".96" stop-color="#742900"/></radialGradient><radialGradient id="radial-gradient-3" cx="1404.65" cy="257.55" fx="1404.65" fy="257.55" r="5.75" xlink:href="#radial-gradient"/><radialGradient id="radial-gradient-4" cx="1421.09" cy="270.53" fx="1421.09" fy="270.53" r="14.18" xlink:href="#radial-gradient-2"/><radialGradient id="radial-gradient-5" cx="1409.26" cy="261" fx="1409.26" fy="261" r="1.93" xlink:href="#radial-gradient-2"/><radialGradient id="radial-gradient-6" cx="1420.47" cy="245.75" fx="1420.47" fy="245.75" r="14.76" gradientUnits="userSpaceOnUse"><stop offset="0" stop-color="#fff"/><stop offset="0" stop-color="#fff"/><stop offset=".03" stop-color="#fd5a29"/><stop offset=".64" stop-color="#742900"/><stop offset=".65" stop-color="#742900"/><stop offset=".76" stop-color="#742900"/></radialGradient><radialGradient id="radial-gradient-7" cx="1403.87" cy="265.32" fx="1403.87" fy="265.32" r="6.55" xlink:href="#radial-gradient-2"/><radialGradient id="radial-gradient-8" cx="1402.33" cy="252.02" fx="1402.33" fy="252.02" r="4.2" xlink:href="#radial-gradient-6"/><radialGradient id="radial-gradient-9" cx="1659.09" cy="569.07" fx="1659.09" fy="569.07" r="9.8" xlink:href="#radial-gradient"/><radialGradient id="radial-gradient-10" cx="1651.65" cy="555.17" fx="1651.65" fy="555.17" r="13.18" xlink:href="#radial-gradient-6"/><radialGradient id="radial-gradient-11" cx="1651.67" cy="581.25" fx="1651.67" fy="581.25" r="12.95" gradientUnits="userSpaceOnUse"><stop offset="0" stop-color="#fff"/><stop offset="0" stop-color="#fff"/><stop offset=".1" stop-color="#fd5a29"/><stop offset=".53" stop-color="#7a2b02"/><stop offset=".92" stop-color="#742900"/></radialGradient><radialGradient id="radial-gradient-12" cx="1650.19" cy="573.23" fx="1650.19" fy="573.23" r="1.96" xlink:href="#radial-gradient"/><radialGradient id="radial-gradient-13" cx="1637.65" cy="567.98" fx="1637.65" fy="567.98" r="8.64" xlink:href="#radial-gradient"/><radialGradient id="radial-gradient-14" cx="1641.76" cy="571.73" fx="1641.76" fy="571.73" r="4.45" xlink:href="#radial-gradient"/><radialGradient id="radial-gradient-15" cx="1636.25" cy="576.1" fx="1636.25" fy="576.1" r="8.92" xlink:href="#radial-gradient-11"/><radialGradient id="radial-gradient-16" cx="1635.21" cy="560.78" fx="1635.21" fy="560.78" r="7.08" xlink:href="#radial-gradient-6"/><radialGradient id="radial-gradient-17" cx="1696.22" cy="240.53" fx="1696.22" fy="240.53" r="14.44" gradientUnits="userSpaceOnUse"><stop offset="0" stop-color="#fff"/><stop offset=".02" stop-color="#b3c9e4"/><stop offset=".05" stop-color="#3b73b9"/><stop offset=".06" stop-color="#4e76aa"/><stop offset=".17" stop-color="#767c8a"/><stop offset=".3" stop-color="#9f8369"/><stop offset=".44" stop-color="#c2894e"/><stop offset=".57" stop-color="#dc8d38"/><stop offset=".71" stop-color="#ef9029"/><stop offset=".85" stop-color="#fb9220"/><stop offset="1" stop-color="#ff931e"/></radialGradient><radialGradient id="radial-gradient-18" cx="1699.88" cy="229.41" fx="1699.88" fy="229.41" r="10.84" gradientUnits="userSpaceOnUse"><stop offset=".09" stop-color="#fff"/><stop offset=".13" stop-color="#fff7ef"/><stop offset=".26" stop-color="#ffddb8"/><stop offset=".39" stop-color="#ffc689"/><stop offset=".52" stop-color="#ffb362"/><stop offset=".64" stop-color="#ffa544"/><stop offset=".77" stop-color="#ff9b2f"/><stop offset=".89" stop-color="#ff9522"/><stop offset="1" stop-color="#ff931e"/></radialGradient><radialGradient id="radial-gradient-19" cx="1690.43" cy="217.39" fx="1690.43" fy="217.39" r="13.01" gradientUnits="userSpaceOnUse"><stop offset="0" stop-color="#fff"/><stop offset=".05" stop-color="#ffecd8"/><stop offset=".12" stop-color="#ffd4a7"/><stop offset=".19" stop-color="#ffc07d"/><stop offset=".26" stop-color="#ffb05a"/><stop offset=".34" stop-color="#ffa340"/><stop offset=".41" stop-color="#ff9a2d"/><stop offset=".49" stop-color="#ff9421"/><stop offset=".57" stop-color="#ff931e"/></radialGradient><radialGradient id="radial-gradient-20" cx="1692.09" cy="232.92" fx="1692.09" fy="232.92" r="2.75" xlink:href="#radial-gradient-17"/><radialGradient id="radial-gradient-21" cx="1678.19" cy="228.23" fx="1678.19" fy="228.23" r="8.1" xlink:href="#radial-gradient-18"/><radialGradient id="radial-gradient-22" cx="1683.01" cy="231.59" fx="1683.01" fy="231.59" r="4.02" xlink:href="#radial-gradient-17"/><radialGradient id="radial-gradient-23" cx="1677.51" cy="235.61" fx="1677.51" fy="235.61" r="8.5" xlink:href="#radial-gradient-17"/><radialGradient id="radial-gradient-24" cx="1674.96" cy="222.24" fx="1674.96" fy="222.24" r="6.48" xlink:href="#radial-gradient-19"/><linearGradient id="linear-gradient" x1="1264.79" y1="197.7" x2="1300.74" y2="197.7" gradientUnits="userSpaceOnUse"><stop offset=".67" stop-color="#ff7bac"/><stop offset=".75" stop-color="rgba(255,123,172,.76)" stop-opacity=".76"/><stop offset=".87" stop-color="rgba(255,123,172,.36)" stop-opacity=".36"/><stop offset=".96" stop-color="rgba(255,123,172,.1)" stop-opacity=".1"/><stop offset="1" stop-color="#ff7bac" stop-opacity="0"/></linearGradient><radialGradient id="radial-gradient-25" cx="1286.84" cy="186.4" fx="1286.84" fy="186.4" r="10.2" gradientUnits="userSpaceOnUse"><stop offset=".09" stop-color="#fff"/><stop offset=".12" stop-color="#d3d3d3"/><stop offset=".15" stop-color="#9c9c9c"/><stop offset=".18" stop-color="#6d6d6d"/><stop offset=".22" stop-color="#464646"/><stop offset=".25" stop-color="#282828"/><stop offset=".28" stop-color="#131313"/><stop offset=".31" stop-color="#060606"/><stop offset=".34" stop-color="#020202"/><stop offset="1" stop-color="#ff931e"/></radialGradient><radialGradient id="radial-gradient-26" cx="1276.82" cy="174.28" fx="1276.82" fy="174.28" r="12.57" gradientUnits="userSpaceOnUse"><stop offset=".62" stop-color="#342aff"/><stop offset=".65" stop-color="#563bd8"/><stop offset=".69" stop-color="#8252a7"/><stop offset=".74" stop-color="#a9667d"/><stop offset=".79" stop-color="#c8765a"/><stop offset=".84" stop-color="#e08340"/><stop offset=".88" stop-color="#f18b2d"/><stop offset=".93" stop-color="#fb9121"/><stop offset=".99" stop-color="#ff931e"/></radialGradient><linearGradient id="linear-gradient-2" x1="1276.14" y1="190.12" x2="1281.84" y2="190.12" xlink:href="#linear-gradient"/><radialGradient id="radial-gradient-27" cx="1265.19" cy="185.41" fx="1265.19" fy="185.41" r="8.83" xlink:href="#radial-gradient-25"/><linearGradient id="linear-gradient-3" x1="1263.39" y1="188.76" x2="1276.43" y2="188.76" xlink:href="#linear-gradient"/><linearGradient id="linear-gradient-4" x1="1252.68" y1="192.82" x2="1276.14" y2="192.82" xlink:href="#linear-gradient"/><radialGradient id="radial-gradient-28" cx="1261.77" cy="179.06" fx="1261.77" fy="179.06" r="6.99" xlink:href="#radial-gradient-26"/></defs><g id="Layer_1"><rect class="cls-21" x=".5" y="3.5" width="1919" height="1076"/><path class="cls-17" d="M1919,4v1075H1V4h1918M1920,3H0v1077h1920V3h0Z"/></g><g id="Layer_2"><path class="cls-17" d="M108.32,78.44c2.64-.54,6.42-.84,10.02-.84,5.58,0,9.18,1.02,11.7,3.3,2.04,1.8,3.18,4.56,3.18,7.68,0,5.34-3.36,8.88-7.62,10.32v.18c3.12,1.08,4.98,3.96,5.94,8.16,1.32,5.64,2.28,9.54,3.12,11.1h-5.4c-.66-1.14-1.56-4.62-2.7-9.66-1.2-5.58-3.36-7.68-8.1-7.86h-4.92v17.52h-5.22v-39.9ZM113.54,96.85h5.34c5.58,0,9.12-3.06,9.12-7.68,0-5.22-3.78-7.5-9.3-7.56-2.52,0-4.32.24-5.16.48v14.76Z"/><path class="cls-17" d="M143.36,104.77c.12,7.14,4.68,10.08,9.96,10.08,3.78,0,6.06-.66,8.04-1.5l.9,3.78c-1.86.84-5.04,1.8-9.66,1.8-8.94,0-14.28-5.88-14.28-14.64s5.16-15.66,13.62-15.66c9.48,0,12,8.34,12,13.68,0,1.08-.12,1.92-.18,2.46h-20.4ZM158.84,100.99c.06-3.36-1.38-8.58-7.32-8.58-5.34,0-7.68,4.92-8.1,8.58h15.42Z"/><path class="cls-17" d="M195.5,89.29c-.12,2.1-.24,4.44-.24,7.98v16.86c0,6.66-1.32,10.74-4.14,13.26-2.82,2.64-6.9,3.48-10.56,3.48s-7.32-.84-9.66-2.4l1.32-4.02c1.92,1.2,4.92,2.28,8.52,2.28,5.4,0,9.36-2.82,9.36-10.14v-3.24h-.12c-1.62,2.7-4.74,4.86-9.24,4.86-7.2,0-12.36-6.12-12.36-14.16,0-9.84,6.42-15.42,13.08-15.42,5.04,0,7.8,2.64,9.06,5.04h.12l.24-4.38h4.62ZM190.04,100.75c0-.9-.06-1.68-.3-2.4-.96-3.06-3.54-5.58-7.38-5.58-5.04,0-8.64,4.26-8.64,10.98,0,5.7,2.88,10.44,8.58,10.44,3.24,0,6.18-2.04,7.32-5.4.3-.9.42-1.92.42-2.82v-5.22Z"/><path class="cls-17" d="M204.02,75.74h5.28v42.6h-5.28v-42.6Z"/><path class="cls-17" d="M221.12,104.77c.12,7.14,4.68,10.08,9.96,10.08,3.78,0,6.06-.66,8.04-1.5l.9,3.78c-1.86.84-5.04,1.8-9.66,1.8-8.94,0-14.28-5.88-14.28-14.64s5.16-15.66,13.62-15.66c9.48,0,12,8.34,12,13.68,0,1.08-.12,1.92-.18,2.46h-20.4ZM236.6,100.99c.06-3.36-1.38-8.58-7.32-8.58-5.34,0-7.68,4.92-8.1,8.58h15.42Z"/><path class="cls-17" d="M248.24,98.35c0-3.42-.06-6.36-.24-9.06h4.62l.18,5.7h.24c1.32-3.9,4.5-6.36,8.04-6.36.6,0,1.02.06,1.5.18v4.98c-.54-.12-1.08-.18-1.8-.18-3.72,0-6.36,2.82-7.08,6.78-.12.72-.24,1.56-.24,2.46v15.48h-5.22v-19.98Z"/><path class="cls-17" d="M266.6,94.09c0-2.22,1.5-3.78,3.6-3.78s3.48,1.56,3.54,3.78c0,2.1-1.38,3.72-3.6,3.72-2.1,0-3.54-1.62-3.54-3.72ZM266.6,115.27c0-2.22,1.5-3.78,3.6-3.78s3.48,1.56,3.54,3.78c0,2.1-1.38,3.72-3.6,3.72-2.1,0-3.54-1.62-3.54-3.72Z"/><path class="cls-17" d="M107.6,255.97c2.34,1.44,5.76,2.64,9.36,2.64,5.34,0,8.46-2.82,8.46-6.9,0-3.78-2.16-5.94-7.62-8.04-6.6-2.34-10.68-5.76-10.68-11.46,0-6.3,5.22-10.98,13.08-10.98,4.14,0,7.14.96,8.94,1.98l-1.44,4.26c-1.32-.72-4.02-1.92-7.68-1.92-5.52,0-7.62,3.3-7.62,6.06,0,3.78,2.46,5.64,8.04,7.8,6.84,2.64,10.32,5.94,10.32,11.88,0,6.24-4.62,11.64-14.16,11.64-3.9,0-8.16-1.14-10.32-2.58l1.32-4.38Z"/><path class="cls-17" d="M142.94,246.61h.12c.72-1.02,1.74-2.28,2.58-3.3l8.52-10.02h6.36l-11.22,11.94,12.78,17.1h-6.42l-10.02-13.92-2.7,3v10.92h-5.22v-42.6h5.22v26.88Z"/><path class="cls-17" d="M167.78,233.29l6.36,17.16c.66,1.92,1.38,4.2,1.86,5.94h.12c.54-1.74,1.14-3.96,1.86-6.06l5.76-17.04h5.58l-7.92,20.7c-3.78,9.96-6.36,15.06-9.96,18.18-2.58,2.28-5.16,3.18-6.48,3.42l-1.32-4.44c1.32-.42,3.06-1.26,4.62-2.58,1.44-1.14,3.24-3.18,4.44-5.88.24-.54.42-.96.42-1.26s-.12-.72-.36-1.38l-10.74-26.76h5.76Z"/><path class="cls-17" d="M219.2,219.74v35.1c0,2.58.06,5.52.24,7.5h-4.74l-.24-5.04h-.12c-1.62,3.24-5.16,5.7-9.9,5.7-7.02,0-12.42-5.94-12.42-14.76-.06-9.66,5.94-15.6,13.02-15.6,4.44,0,7.44,2.1,8.76,4.44h.12v-17.34h5.28ZM213.92,245.11c0-.66-.06-1.56-.24-2.22-.78-3.36-3.66-6.12-7.62-6.12-5.46,0-8.7,4.8-8.7,11.22,0,5.88,2.88,10.74,8.58,10.74,3.54,0,6.78-2.34,7.74-6.3.18-.72.24-1.44.24-2.28v-5.04Z"/><path class="cls-17" d="M239.96,256.93c1.56,1.02,4.32,2.1,6.96,2.1,3.84,0,5.64-1.92,5.64-4.32,0-2.52-1.5-3.9-5.4-5.34-5.22-1.86-7.68-4.74-7.68-8.22,0-4.68,3.78-8.52,10.02-8.52,2.94,0,5.52.84,7.14,1.8l-1.32,3.84c-1.14-.72-3.24-1.68-5.94-1.68-3.12,0-4.86,1.8-4.86,3.96,0,2.4,1.74,3.48,5.52,4.92,5.04,1.92,7.62,4.44,7.62,8.76,0,5.1-3.96,8.7-10.86,8.7-3.18,0-6.12-.78-8.16-1.98l1.32-4.02Z"/><path class="cls-17" d="M280.52,262.33l-.42-3.66h-.18c-1.62,2.28-4.74,4.32-8.88,4.32-5.88,0-8.88-4.14-8.88-8.34,0-7.02,6.24-10.86,17.46-10.8v-.6c0-2.4-.66-6.72-6.6-6.72-2.7,0-5.52.84-7.56,2.16l-1.2-3.48c2.4-1.56,5.88-2.58,9.54-2.58,8.88,0,11.04,6.06,11.04,11.88v10.86c0,2.52.12,4.98.48,6.96h-4.8ZM279.74,247.51c-5.76-.12-12.3.9-12.3,6.54,0,3.42,2.28,5.04,4.98,5.04,3.78,0,6.18-2.4,7.02-4.86.18-.54.3-1.14.3-1.68v-5.04ZM268.4,224.66c0-3.18,2.34-5.7,6.12-5.7s5.94,2.46,5.94,5.64-2.58,5.52-6,5.52c-3.6,0-6.06-2.4-6.06-5.46ZM277.52,224.54c0-1.8-1.2-3.3-3.12-3.3s-2.94,1.56-2.94,3.42c0,1.56,1.2,3.24,2.94,3.24,1.92,0,3.12-1.56,3.12-3.36Z"/><path class="cls-17" d="M306.08,241.15c0-3-.06-5.46-.24-7.86h4.62l.24,4.68h.18c1.62-2.76,4.32-5.34,9.12-5.34,3.96,0,6.96,2.4,8.22,5.82h.12c.9-1.62,2.04-2.88,3.24-3.78,1.74-1.32,3.66-2.04,6.42-2.04,3.84,0,9.54,2.52,9.54,12.6v17.1h-5.16v-16.44c0-5.58-2.04-8.94-6.3-8.94-3,0-5.34,2.22-6.24,4.8-.24.72-.42,1.68-.42,2.64v17.94h-5.16v-17.4c0-4.62-2.04-7.98-6.06-7.98-3.3,0-5.7,2.64-6.54,5.28-.3.78-.42,1.68-.42,2.58v17.52h-5.16v-21.18Z"/><path class="cls-17" d="M372.19,262.33l-.42-3.66h-.18c-1.62,2.28-4.74,4.32-8.88,4.32-5.88,0-8.88-4.14-8.88-8.34,0-7.02,6.24-10.86,17.46-10.8v-.6c0-2.4-.66-6.72-6.6-6.72-2.7,0-5.52.84-7.56,2.16l-1.2-3.48c2.4-1.56,5.88-2.58,9.54-2.58,8.88,0,11.04,6.06,11.04,11.88v10.86c0,2.52.12,4.98.48,6.96h-4.8ZM371.42,247.51c-5.76-.12-12.3.9-12.3,6.54,0,3.42,2.28,5.04,4.98,5.04,3.78,0,6.18-2.4,7.02-4.86.18-.54.3-1.14.3-1.68v-5.04Z"/><path class="cls-17" d="M385.04,241.15c0-3-.06-5.46-.24-7.86h4.68l.3,4.8h.12c1.44-2.76,4.8-5.46,9.6-5.46,4.02,0,10.26,2.4,10.26,12.36v17.34h-5.28v-16.74c0-4.68-1.74-8.58-6.72-8.58-3.48,0-6.18,2.46-7.08,5.4-.24.66-.36,1.56-.36,2.46v17.46h-5.28v-21.18Z"/><path class="cls-17" d="M443.35,233.29c-.12,2.1-.24,4.44-.24,7.98v16.86c0,6.66-1.32,10.74-4.14,13.26-2.82,2.64-6.9,3.48-10.56,3.48s-7.32-.84-9.66-2.4l1.32-4.02c1.92,1.2,4.92,2.28,8.52,2.28,5.4,0,9.36-2.82,9.36-10.14v-3.24h-.12c-1.62,2.7-4.74,4.86-9.24,4.86-7.2,0-12.36-6.12-12.36-14.16,0-9.84,6.42-15.42,13.08-15.42,5.04,0,7.8,2.64,9.06,5.04h.12l.24-4.38h4.62ZM437.89,244.75c0-.9-.06-1.68-.3-2.4-.96-3.06-3.54-5.58-7.38-5.58-5.04,0-8.64,4.26-8.64,10.98,0,5.7,2.88,10.44,8.58,10.44,3.24,0,6.18-2.04,7.32-5.4.3-.9.42-1.92.42-2.82v-5.22Z"/><path class="cls-17" d="M454.81,248.77c.12,7.14,4.68,10.08,9.96,10.08,3.78,0,6.06-.66,8.04-1.5l.9,3.78c-1.86.84-5.04,1.8-9.66,1.8-8.94,0-14.28-5.88-14.28-14.64s5.16-15.66,13.62-15.66c9.48,0,12,8.34,12,13.68,0,1.08-.12,1.92-.18,2.46h-20.4ZM470.29,244.99c.06-3.36-1.38-8.58-7.32-8.58-5.34,0-7.68,4.92-8.1,8.58h15.42Z"/><path class="cls-17" d="M514.87,248.35c-.18,6.9,3.78,10.56,9.24,10.56,4.02,0,6.3-.9,7.92-1.68l.96,3.72c-2.34,1.26-5.7,2.04-9.54,2.04-4.92,0-9.36-2.34-11.04-6.42h-.12c-1.86,4.02-5.82,6.42-10.8,6.42-6.06,0-9.06-4.08-9.06-8.28,0-6.72,6.24-10.62,17.52-10.5v-1.2c0-1.44-.9-6.48-6.78-6.48-2.76,0-5.7,1.02-7.44,2.22l-1.26-3.48c2.58-1.62,6.18-2.64,9.06-2.64,5.22,0,8.16,2.46,9.36,6.18h.12c1.98-3.84,5.58-6.18,10.14-6.18,8.88,0,11.34,8.58,11.34,13.38,0,.9-.06,1.8-.18,2.34h-19.44ZM510.01,247.75c-5.58-.12-12.36.84-12.36,6.54,0,3.06,2.28,4.8,5.04,4.8,3.78,0,6.18-2.34,7.02-4.98.24-.66.3-1.38.3-2.1v-4.26ZM529.39,244.57c.18-2.94-1.44-8.16-6.78-8.16s-7.62,4.86-7.8,8.16h14.58Z"/><path class="cls-17" d="M541.03,241.15c0-3-.06-5.46-.24-7.86h4.68l.3,4.8h.12c1.44-2.76,4.8-5.46,9.6-5.46,4.02,0,10.26,2.4,10.26,12.36v17.34h-5.28v-16.74c0-4.68-1.74-8.58-6.72-8.58-3.48,0-6.18,2.46-7.08,5.4-.24.66-.36,1.56-.36,2.46v17.46h-5.28v-21.18Z"/><path class="cls-17" d="M599.41,219.74v35.1c0,2.58.06,5.52.24,7.5h-4.74l-.24-5.04h-.12c-1.62,3.24-5.16,5.7-9.9,5.7-7.02,0-12.42-5.94-12.42-14.76-.06-9.66,5.94-15.6,13.02-15.6,4.44,0,7.44,2.1,8.76,4.44h.12v-17.34h5.28ZM594.13,245.11c0-.66-.06-1.56-.24-2.22-.78-3.36-3.66-6.12-7.62-6.12-5.46,0-8.7,4.8-8.7,11.22,0,5.88,2.88,10.74,8.58,10.74,3.54,0,6.78-2.34,7.74-6.3.18-.72.24-1.44.24-2.28v-5.04Z"/><path class="cls-17" d="M611.11,248.77c.12,7.14,4.68,10.08,9.96,10.08,3.78,0,6.06-.66,8.04-1.5l.9,3.78c-1.86.84-5.04,1.8-9.66,1.8-8.94,0-14.28-5.88-14.28-14.64s5.16-15.66,13.62-15.66c9.48,0,12,8.34,12,13.68,0,1.08-.12,1.92-.18,2.46h-20.4ZM626.59,244.99c.06-3.36-1.38-8.58-7.32-8.58-5.34,0-7.68,4.92-8.1,8.58h15.42Z"/><path class="cls-17" d="M638.23,242.35c0-3.42-.06-6.36-.24-9.06h4.62l.18,5.7h.24c1.32-3.9,4.5-6.36,8.04-6.36.6,0,1.02.06,1.5.18v4.98c-.54-.12-1.08-.18-1.8-.18-3.72,0-6.36,2.82-7.08,6.78-.12.72-.24,1.56-.24,2.46v15.48h-5.22v-19.98Z"/><path class="cls-17" d="M669.85,256.93c1.56,1.02,4.32,2.1,6.96,2.1,3.84,0,5.64-1.92,5.64-4.32,0-2.52-1.5-3.9-5.4-5.34-5.22-1.86-7.68-4.74-7.68-8.22,0-4.68,3.78-8.52,10.02-8.52,2.94,0,5.52.84,7.14,1.8l-1.32,3.84c-1.14-.72-3.24-1.68-5.94-1.68-3.12,0-4.86,1.8-4.86,3.96,0,2.4,1.74,3.48,5.52,4.92,5.04,1.92,7.62,4.44,7.62,8.76,0,5.1-3.96,8.7-10.86,8.7-3.18,0-6.12-.78-8.16-1.98l1.32-4.02Z"/><path class="cls-17" d="M720.61,247.57c0,10.74-7.44,15.42-14.46,15.42-7.86,0-13.92-5.76-13.92-14.94,0-9.72,6.36-15.42,14.4-15.42s13.98,6.06,13.98,14.94ZM697.57,247.87c0,6.36,3.66,11.16,8.82,11.16s8.82-4.74,8.82-11.28c0-4.92-2.46-11.16-8.7-11.16s-8.94,5.76-8.94,11.28Z"/><path class="cls-17" d="M727.27,241.15c0-3-.06-5.46-.24-7.86h4.62l.24,4.68h.18c1.62-2.76,4.32-5.34,9.12-5.34,3.96,0,6.96,2.4,8.22,5.82h.12c.9-1.62,2.04-2.88,3.24-3.78,1.74-1.32,3.66-2.04,6.42-2.04,3.84,0,9.54,2.52,9.54,12.6v17.1h-5.16v-16.44c0-5.58-2.04-8.94-6.3-8.94-3,0-5.34,2.22-6.24,4.8-.24.72-.42,1.68-.42,2.64v17.94h-5.16v-17.4c0-4.62-2.04-7.98-6.06-7.98-3.3,0-5.7,2.64-6.54,5.28-.3.78-.42,1.68-.42,2.58v17.52h-5.16v-21.18Z"/><path class="cls-17" d="M790.03,241.15c0-3-.06-5.46-.24-7.86h4.62l.24,4.68h.18c1.62-2.76,4.32-5.34,9.12-5.34,3.96,0,6.96,2.4,8.22,5.82h.12c.9-1.62,2.04-2.88,3.24-3.78,1.74-1.32,3.66-2.04,6.42-2.04,3.84,0,9.54,2.52,9.54,12.6v17.1h-5.16v-16.44c0-5.58-2.04-8.94-6.3-8.94-3,0-5.34,2.22-6.24,4.8-.24.72-.42,1.68-.42,2.64v17.94h-5.16v-17.4c0-4.62-2.04-7.98-6.06-7.98-3.3,0-5.7,2.64-6.54,5.28-.3.78-.42,1.68-.42,2.58v17.52h-5.16v-21.18Z"/><path class="cls-17" d="M864.37,254.41c0,3,.06,5.64.24,7.92h-4.68l-.3-4.74h-.12c-1.38,2.34-4.44,5.4-9.6,5.4-4.56,0-10.02-2.52-10.02-12.72v-16.98h5.28v16.08c0,5.52,1.68,9.24,6.48,9.24,3.54,0,6-2.46,6.96-4.8.3-.78.48-1.74.48-2.7v-17.82h5.28v21.12Z"/><path class="cls-17" d="M873.13,219.74h5.28v42.6h-5.28v-42.6Z"/><path class="cls-17" d="M893.17,225.14c.06,1.8-1.26,3.24-3.36,3.24-1.86,0-3.18-1.44-3.18-3.24s1.38-3.3,3.3-3.3,3.24,1.44,3.24,3.3ZM887.29,262.33v-29.04h5.28v29.04h-5.28Z"/><path class="cls-17" d="M926.35,233.29c-.12,2.1-.24,4.44-.24,7.98v16.86c0,6.66-1.32,10.74-4.14,13.26-2.82,2.64-6.9,3.48-10.56,3.48s-7.32-.84-9.66-2.4l1.32-4.02c1.92,1.2,4.92,2.28,8.52,2.28,5.4,0,9.36-2.82,9.36-10.14v-3.24h-.12c-1.62,2.7-4.74,4.86-9.24,4.86-7.2,0-12.36-6.12-12.36-14.16,0-9.84,6.42-15.42,13.08-15.42,5.04,0,7.8,2.64,9.06,5.04h.12l.24-4.38h4.62ZM920.89,244.75c0-.9-.06-1.68-.3-2.4-.96-3.06-3.54-5.58-7.38-5.58-5.04,0-8.64,4.26-8.64,10.98,0,5.7,2.88,10.44,8.58,10.44,3.24,0,6.18-2.04,7.32-5.4.3-.9.42-1.92.42-2.82v-5.22Z"/><path class="cls-17" d="M941.23,224.96v8.34h7.56v4.02h-7.56v15.66c0,3.6,1.02,5.64,3.96,5.64,1.38,0,2.4-.18,3.06-.36l.24,3.96c-1.02.42-2.64.72-4.68.72-2.46,0-4.44-.78-5.7-2.22-1.5-1.56-2.04-4.14-2.04-7.56v-15.84h-4.5v-4.02h4.5v-6.96l5.16-1.38Z"/><path class="cls-17" d="M951.31,269.71c1.32-3.54,2.94-9.96,3.6-14.34l5.88-.6c-1.38,5.1-4.02,11.76-5.7,14.58l-3.78.36Z"/><path class="cls-17" d="M108.14,313.15c0-3-.06-5.46-.24-7.86h4.62l.24,4.68h.18c1.62-2.76,4.32-5.34,9.12-5.34,3.96,0,6.96,2.4,8.22,5.82h.12c.9-1.62,2.04-2.88,3.24-3.78,1.74-1.32,3.66-2.04,6.42-2.04,3.84,0,9.54,2.52,9.54,12.6v17.1h-5.16v-16.44c0-5.58-2.04-8.94-6.3-8.94-3,0-5.34,2.22-6.24,4.8-.24.72-.42,1.68-.42,2.64v17.94h-5.16v-17.4c0-4.62-2.04-7.98-6.06-7.98-3.3,0-5.7,2.64-6.54,5.28-.3.78-.42,1.68-.42,2.58v17.52h-5.16v-21.18Z"/><path class="cls-17" d="M161.12,320.77c.12,7.14,4.68,10.08,9.96,10.08,3.78,0,6.06-.66,8.04-1.5l.9,3.78c-1.86.84-5.04,1.8-9.66,1.8-8.94,0-14.28-5.88-14.28-14.64s5.16-15.66,13.62-15.66c9.48,0,12,8.34,12,13.68,0,1.08-.12,1.92-.18,2.46h-20.4ZM176.6,316.99c.06-3.36-1.38-8.58-7.32-8.58-5.34,0-7.68,4.92-8.1,8.58h15.42Z"/><path class="cls-17" d="M188.24,313.15c0-3-.06-5.46-.24-7.86h4.68l.3,4.8h.12c1.44-2.76,4.8-5.46,9.6-5.46,4.02,0,10.26,2.4,10.26,12.36v17.34h-5.28v-16.74c0-4.68-1.74-8.58-6.72-8.58-3.48,0-6.18,2.46-7.08,5.4-.24.66-.36,1.56-.36,2.46v17.46h-5.28v-21.18Z"/><path class="cls-17" d="M234.26,314.77c0-3.72-.12-6.72-.24-9.48h4.74l.24,4.98h.12c2.16-3.54,5.58-5.64,10.32-5.64,7.02,0,12.3,5.94,12.3,14.76,0,10.44-6.36,15.6-13.2,15.6-3.84,0-7.2-1.68-8.94-4.56h-.12v15.78h-5.22v-31.44ZM239.48,322.51c0,.78.12,1.5.24,2.16.96,3.66,4.14,6.18,7.92,6.18,5.58,0,8.82-4.56,8.82-11.22,0-5.82-3.06-10.8-8.64-10.8-3.6,0-6.96,2.58-7.98,6.54-.18.66-.36,1.44-.36,2.16v4.98Z"/><path class="cls-17" d="M284.48,334.33l-.42-3.66h-.18c-1.62,2.28-4.74,4.32-8.88,4.32-5.88,0-8.88-4.14-8.88-8.34,0-7.02,6.24-10.86,17.46-10.8v-.6c0-2.4-.66-6.72-6.6-6.72-2.7,0-5.52.84-7.56,2.16l-1.2-3.48c2.4-1.56,5.88-2.58,9.54-2.58,8.88,0,11.04,6.06,11.04,11.88v10.86c0,2.52.12,4.98.48,6.96h-4.8ZM283.7,319.51c-5.76-.12-12.3.9-12.3,6.54,0,3.42,2.28,5.04,4.98,5.04,3.78,0,6.18-2.4,7.02-4.86.18-.54.3-1.14.3-1.68v-5.04Z"/><path class="cls-17" d="M296.6,328.93c1.56,1.02,4.32,2.1,6.96,2.1,3.84,0,5.64-1.92,5.64-4.32,0-2.52-1.5-3.9-5.4-5.34-5.22-1.86-7.68-4.74-7.68-8.22,0-4.68,3.78-8.52,10.02-8.52,2.94,0,5.52.84,7.14,1.8l-1.32,3.84c-1.14-.72-3.24-1.68-5.94-1.68-3.12,0-4.86,1.8-4.86,3.96,0,2.4,1.74,3.48,5.52,4.92,5.04,1.92,7.62,4.44,7.62,8.76,0,5.1-3.96,8.7-10.86,8.7-3.18,0-6.12-.78-8.16-1.98l1.32-4.02Z"/><path class="cls-17" d="M333.8,314.77c0-3.72-.12-6.72-.24-9.48h4.74l.24,4.98h.12c2.16-3.54,5.58-5.64,10.32-5.64,7.02,0,12.3,5.94,12.3,14.76,0,10.44-6.36,15.6-13.2,15.6-3.84,0-7.2-1.68-8.94-4.56h-.12v15.78h-5.22v-31.44ZM339.02,322.51c0,.78.12,1.5.24,2.16.96,3.66,4.14,6.18,7.92,6.18,5.58,0,8.82-4.56,8.82-11.22,0-5.82-3.06-10.8-8.64-10.8-3.6,0-6.96,2.58-7.98,6.54-.18.66-.36,1.44-.36,2.16v4.98Z"/><path class="cls-17" d="M384.01,334.33l-.42-3.66h-.18c-1.62,2.28-4.74,4.32-8.88,4.32-5.88,0-8.88-4.14-8.88-8.34,0-7.02,6.24-10.86,17.46-10.8v-.6c0-2.4-.66-6.72-6.6-6.72-2.7,0-5.52.84-7.56,2.16l-1.2-3.48c2.4-1.56,5.88-2.58,9.54-2.58,8.88,0,11.04,6.06,11.04,11.88v10.86c0,2.52.12,4.98.48,6.96h-4.8ZM383.23,319.51c-5.76-.12-12.3.9-12.3,6.54,0,3.42,2.28,5.04,4.98,5.04,3.78,0,6.18-2.4,7.02-4.86.18-.54.3-1.14.3-1.68v-5.04ZM371.89,296.66c0-3.18,2.34-5.7,6.12-5.7s5.94,2.46,5.94,5.64-2.58,5.52-6,5.52c-3.6,0-6.06-2.4-6.06-5.46ZM381.01,296.54c0-1.8-1.2-3.3-3.12-3.3s-2.94,1.56-2.94,3.42c0,1.56,1.2,3.24,2.94,3.24,1.92,0,3.12-1.56,3.12-3.36Z"/><path class="cls-17" d="M434.65,291.74v35.1c0,2.58.06,5.52.24,7.5h-4.74l-.24-5.04h-.12c-1.62,3.24-5.16,5.7-9.9,5.7-7.02,0-12.42-5.94-12.42-14.76-.06-9.66,5.94-15.6,13.02-15.6,4.44,0,7.44,2.1,8.76,4.44h.12v-17.34h5.28ZM429.37,317.11c0-.66-.06-1.56-.24-2.22-.78-3.36-3.66-6.12-7.62-6.12-5.46,0-8.7,4.8-8.7,11.22,0,5.88,2.88,10.74,8.58,10.74,3.54,0,6.78-2.34,7.74-6.3.18-.72.24-1.44.24-2.28v-5.04Z"/><path class="cls-17" d="M467.71,326.41c0,3,.06,5.64.24,7.92h-4.68l-.3-4.74h-.12c-1.38,2.34-4.44,5.4-9.6,5.4-4.56,0-10.02-2.52-10.02-12.72v-16.98h5.28v16.08c0,5.52,1.68,9.24,6.48,9.24,3.54,0,6-2.46,6.96-4.8.3-.78.48-1.74.48-2.7v-17.82h5.28v21.12Z"/><path class="cls-17" d="M495.07,297.14c.06,1.8-1.26,3.24-3.36,3.24-1.86,0-3.18-1.44-3.18-3.24s1.38-3.3,3.3-3.3,3.24,1.44,3.24,3.3ZM489.19,334.33v-29.04h5.28v29.04h-5.28Z"/><path class="cls-17" d="M508.45,318.61h.12c.72-1.02,1.74-2.28,2.58-3.3l8.52-10.02h6.36l-11.22,11.94,12.78,17.1h-6.42l-10.02-13.92-2.7,3v10.92h-5.22v-42.6h5.22v26.88Z"/><path class="cls-17" d="M536.59,318.61h.12c.72-1.02,1.74-2.28,2.58-3.3l8.52-10.02h6.36l-11.22,11.94,12.78,17.1h-6.42l-10.02-13.92-2.7,3v10.92h-5.22v-42.6h5.22v26.88Z"/><path class="cls-17" d="M562.45,320.77c.12,7.14,4.68,10.08,9.96,10.08,3.78,0,6.06-.66,8.04-1.5l.9,3.78c-1.86.84-5.04,1.8-9.66,1.8-8.94,0-14.28-5.88-14.28-14.64s5.16-15.66,13.62-15.66c9.48,0,12,8.34,12,13.68,0,1.08-.12,1.92-.18,2.46h-20.4ZM577.93,316.99c.06-3.36-1.38-8.58-7.32-8.58-5.34,0-7.68,4.92-8.1,8.58h15.42Z"/><path class="cls-17" d="M601.57,328.93c1.56,1.02,4.32,2.1,6.96,2.1,3.84,0,5.64-1.92,5.64-4.32,0-2.52-1.5-3.9-5.4-5.34-5.22-1.86-7.68-4.74-7.68-8.22,0-4.68,3.78-8.52,10.02-8.52,2.94,0,5.52.84,7.14,1.8l-1.32,3.84c-1.14-.72-3.24-1.68-5.94-1.68-3.12,0-4.86,1.8-4.86,3.96,0,2.4,1.74,3.48,5.52,4.92,5.04,1.92,7.62,4.44,7.62,8.76,0,5.1-3.96,8.7-10.86,8.7-3.18,0-6.12-.78-8.16-1.98l1.32-4.02Z"/><path class="cls-17" d="M631.27,318.61h.12c.72-1.02,1.74-2.28,2.58-3.3l8.52-10.02h6.36l-11.22,11.94,12.78,17.1h-6.42l-10.02-13.92-2.7,3v10.92h-5.22v-42.6h5.22v26.88Z"/><path class="cls-17" d="M656.11,305.29l6.36,17.16c.66,1.92,1.38,4.2,1.86,5.94h.12c.54-1.74,1.14-3.96,1.86-6.06l5.76-17.04h5.58l-7.92,20.7c-3.78,9.96-6.36,15.06-9.96,18.18-2.58,2.28-5.16,3.18-6.48,3.42l-1.32-4.44c1.32-.42,3.06-1.26,4.62-2.58,1.44-1.14,3.24-3.18,4.44-5.88.24-.54.42-.96.42-1.26s-.12-.72-.36-1.38l-10.74-26.76h5.76Z"/><path class="cls-17" d="M707.53,291.74v35.1c0,2.58.06,5.52.24,7.5h-4.74l-.24-5.04h-.12c-1.62,3.24-5.16,5.7-9.9,5.7-7.02,0-12.42-5.94-12.42-14.76-.06-9.66,5.94-15.6,13.02-15.6,4.44,0,7.44,2.1,8.76,4.44h.12v-17.34h5.28ZM702.25,317.11c0-.66-.06-1.56-.24-2.22-.78-3.36-3.66-6.12-7.62-6.12-5.46,0-8.7,4.8-8.7,11.22,0,5.88,2.88,10.74,8.58,10.74,3.54,0,6.78-2.34,7.74-6.3.18-.72.24-1.44.24-2.28v-5.04Z"/><path class="cls-17" d="M719.23,320.77c.12,7.14,4.68,10.08,9.96,10.08,3.78,0,6.06-.66,8.04-1.5l.9,3.78c-1.86.84-5.04,1.8-9.66,1.8-8.94,0-14.28-5.88-14.28-14.64s5.16-15.66,13.62-15.66c9.48,0,12,8.34,12,13.68,0,1.08-.12,1.92-.18,2.46h-20.4ZM734.71,316.99c.06-3.36-1.38-8.58-7.32-8.58-5.34,0-7.68,4.92-8.1,8.58h15.42Z"/><path class="cls-17" d="M746.35,314.35c0-3.42-.06-6.36-.24-9.06h4.62l.18,5.7h.24c1.32-3.9,4.5-6.36,8.04-6.36.6,0,1.02.06,1.5.18v4.98c-.54-.12-1.08-.18-1.8-.18-3.72,0-6.36,2.82-7.08,6.78-.12.72-.24,1.56-.24,2.46v15.48h-5.22v-19.98Z"/><path class="cls-17" d="M762.55,341.71c1.32-3.54,2.94-9.96,3.6-14.34l5.88-.6c-1.38,5.1-4.02,11.76-5.7,14.58l-3.78.36Z"/><path class="cls-17" d="M794.05,320.77c.12,7.14,4.68,10.08,9.96,10.08,3.78,0,6.06-.66,8.04-1.5l.9,3.78c-1.86.84-5.04,1.8-9.66,1.8-8.94,0-14.28-5.88-14.28-14.64s5.16-15.66,13.62-15.66c9.48,0,12,8.34,12,13.68,0,1.08-.12,1.92-.18,2.46h-20.4ZM809.53,316.99c.06-3.36-1.38-8.58-7.32-8.58-5.34,0-7.68,4.92-8.1,8.58h15.42Z"/><path class="cls-17" d="M821.17,313.15c0-3-.06-5.46-.24-7.86h4.68l.3,4.8h.12c1.44-2.76,4.8-5.46,9.6-5.46,4.02,0,10.26,2.4,10.26,12.36v17.34h-5.28v-16.74c0-4.68-1.74-8.58-6.72-8.58-3.48,0-6.18,2.46-7.08,5.4-.24.66-.36,1.56-.36,2.46v17.46h-5.28v-21.18Z"/><path class="cls-17" d="M108.68,406.33v-25.02h-4.08v-4.02h4.08v-1.38c0-4.08.9-7.8,3.36-10.14,1.98-1.92,4.62-2.7,7.08-2.7,1.86,0,3.48.42,4.5.84l-.72,4.08c-.78-.36-1.86-.66-3.36-.66-4.5,0-5.64,3.96-5.64,8.4v1.56h7.02v4.02h-7.02v25.02h-5.22Z"/><path class="cls-17" d="M125.66,386.35c0-3.42-.06-6.36-.24-9.06h4.62l.18,5.7h.24c1.32-3.9,4.5-6.36,8.04-6.36.6,0,1.02.06,1.5.18v4.98c-.54-.12-1.08-.18-1.8-.18-3.72,0-6.36,2.82-7.08,6.78-.12.72-.24,1.56-.24,2.46v15.48h-5.22v-19.98Z"/><path class="cls-17" d="M148.22,392.77c.12,7.14,4.68,10.08,9.96,10.08,3.78,0,6.06-.66,8.04-1.5l.9,3.78c-1.86.84-5.04,1.8-9.66,1.8-8.94,0-14.28-5.88-14.28-14.64s5.16-15.66,13.62-15.66c9.48,0,12,8.34,12,13.68,0,1.08-.12,1.92-.18,2.46h-20.4ZM163.7,388.99c.06-3.36-1.38-8.58-7.32-8.58-5.34,0-7.68,4.92-8.1,8.58h15.42Z"/><path class="cls-17" d="M200.42,363.74v35.1c0,2.58.06,5.52.24,7.5h-4.74l-.24-5.04h-.12c-1.62,3.24-5.16,5.7-9.9,5.7-7.02,0-12.42-5.94-12.42-14.76-.06-9.66,5.94-15.6,13.02-15.6,4.44,0,7.44,2.1,8.76,4.44h.12v-17.34h5.28ZM195.14,389.11c0-.66-.06-1.56-.24-2.22-.78-3.36-3.66-6.12-7.62-6.12-5.46,0-8.7,4.8-8.7,11.22,0,5.88,2.88,10.74,8.58,10.74,3.54,0,6.78-2.34,7.74-6.3.18-.72.24-1.44.24-2.28v-5.04Z"/><path class="cls-17" d="M212.12,392.77c.12,7.14,4.68,10.08,9.96,10.08,3.78,0,6.06-.66,8.04-1.5l.9,3.78c-1.86.84-5.04,1.8-9.66,1.8-8.94,0-14.28-5.88-14.28-14.64s5.16-15.66,13.62-15.66c9.48,0,12,8.34,12,13.68,0,1.08-.12,1.92-.18,2.46h-20.4ZM227.6,388.99c.06-3.36-1.38-8.58-7.32-8.58-5.34,0-7.68,4.92-8.1,8.58h15.42Z"/><path class="cls-17" d="M245.6,368.96v8.34h7.56v4.02h-7.56v15.66c0,3.6,1.02,5.64,3.96,5.64,1.38,0,2.4-.18,3.06-.36l.24,3.96c-1.02.42-2.64.72-4.68.72-2.46,0-4.44-.78-5.7-2.22-1.5-1.56-2.04-4.14-2.04-7.56v-15.84h-4.5v-4.02h4.5v-6.96l5.16-1.38Z"/><path class="cls-17" d="M287.9,406.33l-.42-3.66h-.18c-1.62,2.28-4.74,4.32-8.88,4.32-5.88,0-8.88-4.14-8.88-8.34,0-7.02,6.24-10.86,17.46-10.8v-.6c0-2.4-.66-6.72-6.6-6.72-2.7,0-5.52.84-7.56,2.16l-1.2-3.48c2.4-1.56,5.88-2.58,9.54-2.58,8.88,0,11.04,6.06,11.04,11.88v10.86c0,2.52.12,4.98.48,6.96h-4.8ZM287.12,391.51c-5.76-.12-12.3.9-12.3,6.54,0,3.42,2.28,5.04,4.98,5.04,3.78,0,6.18-2.4,7.02-4.86.18-.54.3-1.14.3-1.68v-5.04Z"/><path class="cls-17" d="M300.74,385.15c0-3-.06-5.46-.24-7.86h4.68l.3,4.8h.12c1.44-2.76,4.8-5.46,9.6-5.46,4.02,0,10.26,2.4,10.26,12.36v17.34h-5.28v-16.74c0-4.68-1.74-8.58-6.72-8.58-3.48,0-6.18,2.46-7.08,5.4-.24.66-.36,1.56-.36,2.46v17.46h-5.28v-21.18Z"/><path class="cls-17" d="M359.11,363.74v35.1c0,2.58.06,5.52.24,7.5h-4.74l-.24-5.04h-.12c-1.62,3.24-5.16,5.7-9.9,5.7-7.02,0-12.42-5.94-12.42-14.76-.06-9.66,5.94-15.6,13.02-15.6,4.44,0,7.44,2.1,8.76,4.44h.12v-17.34h5.28ZM353.83,389.11c0-.66-.06-1.56-.24-2.22-.78-3.36-3.66-6.12-7.62-6.12-5.46,0-8.7,4.8-8.7,11.22,0,5.88,2.88,10.74,8.58,10.74,3.54,0,6.78-2.34,7.74-6.3.18-.72.24-1.44.24-2.28v-5.04Z"/><path class="cls-17" d="M366.62,403.21c0-2.22,1.5-3.78,3.6-3.78s3.54,1.56,3.54,3.78-1.38,3.78-3.6,3.78c-2.1,0-3.54-1.62-3.54-3.78Z"/><path class="cls-17" d="M113.54,509.9v16.92h19.56v-16.92h5.28v40.44h-5.28v-18.96h-19.56v18.96h-5.22v-40.44h5.22Z"/><path class="cls-17" d="M163.34,550.33l-.42-3.66h-.18c-1.62,2.28-4.74,4.32-8.88,4.32-5.88,0-8.88-4.14-8.88-8.34,0-7.02,6.24-10.86,17.46-10.8v-.6c0-2.4-.66-6.72-6.6-6.72-2.7,0-5.52.84-7.56,2.16l-1.2-3.48c2.4-1.56,5.88-2.58,9.54-2.58,8.88,0,11.04,6.06,11.04,11.88v10.86c0,2.52.12,4.98.48,6.96h-4.8ZM162.56,535.51c-5.76-.12-12.3.9-12.3,6.54,0,3.42,2.28,5.04,4.98,5.04,3.78,0,6.18-2.4,7.02-4.86.18-.54.3-1.14.3-1.68v-5.04Z"/><path class="cls-17" d="M176.18,530.77c0-3.72-.12-6.72-.24-9.48h4.74l.24,4.98h.12c2.16-3.54,5.58-5.64,10.32-5.64,7.02,0,12.3,5.94,12.3,14.76,0,10.44-6.36,15.6-13.2,15.6-3.84,0-7.2-1.68-8.94-4.56h-.12v15.78h-5.22v-31.44ZM181.4,538.51c0,.78.12,1.5.24,2.16.96,3.66,4.14,6.18,7.92,6.18,5.58,0,8.82-4.56,8.82-11.22,0-5.82-3.06-10.8-8.64-10.8-3.6,0-6.96,2.58-7.98,6.54-.18.66-.36,1.44-.36,2.16v4.98Z"/><path class="cls-17" d="M210.32,530.77c0-3.72-.12-6.72-.24-9.48h4.74l.24,4.98h.12c2.16-3.54,5.58-5.64,10.32-5.64,7.02,0,12.3,5.94,12.3,14.76,0,10.44-6.36,15.6-13.2,15.6-3.84,0-7.2-1.68-8.94-4.56h-.12v15.78h-5.22v-31.44ZM215.54,538.51c0,.78.12,1.5.24,2.16.96,3.66,4.14,6.18,7.92,6.18,5.58,0,8.82-4.56,8.82-11.22,0-5.82-3.06-10.8-8.64-10.8-3.6,0-6.96,2.58-7.98,6.54-.18.66-.36,1.44-.36,2.16v4.98Z"/><path class="cls-17" d="M246.38,521.29l6.36,17.16c.66,1.92,1.38,4.2,1.86,5.94h.12c.54-1.74,1.14-3.96,1.86-6.06l5.76-17.04h5.58l-7.92,20.7c-3.78,9.96-6.36,15.06-9.96,18.18-2.58,2.28-5.16,3.18-6.48,3.42l-1.32-4.44c1.32-.42,3.06-1.26,4.62-2.58,1.44-1.14,3.24-3.18,4.44-5.88.24-.54.42-.96.42-1.26s-.12-.72-.36-1.38l-10.74-26.76h5.76Z"/><path class="cls-17" d="M290.84,509.9v16.92h19.56v-16.92h5.28v40.44h-5.28v-18.96h-19.56v18.96h-5.22v-40.44h5.22Z"/><path class="cls-17" d="M348.85,542.41c0,3,.06,5.64.24,7.92h-4.68l-.3-4.74h-.12c-1.38,2.34-4.44,5.4-9.6,5.4-4.56,0-10.02-2.52-10.02-12.72v-16.98h5.28v16.08c0,5.52,1.68,9.24,6.48,9.24,3.54,0,6-2.46,6.96-4.8.3-.78.48-1.74.48-2.7v-17.82h5.28v21.12Z"/><path class="cls-17" d="M357.62,529.16c0-3-.06-5.46-.24-7.86h4.68l.3,4.8h.12c1.44-2.76,4.8-5.46,9.6-5.46,4.02,0,10.26,2.4,10.26,12.36v17.34h-5.28v-16.74c0-4.68-1.74-8.58-6.72-8.58-3.48,0-6.18,2.46-7.08,5.4-.24.66-.36,1.56-.36,2.46v17.46h-5.28v-21.18Z"/><path class="cls-17" d="M397.27,512.96v8.34h7.56v4.02h-7.56v15.66c0,3.6,1.02,5.64,3.96,5.64,1.38,0,2.4-.18,3.06-.36l.24,3.96c-1.02.42-2.64.72-4.68.72-2.46,0-4.44-.78-5.7-2.22-1.5-1.56-2.04-4.14-2.04-7.56v-15.84h-4.5v-4.02h4.5v-6.96l5.16-1.38Z"/><path class="cls-17" d="M416.65,513.14c.06,1.8-1.26,3.24-3.36,3.24-1.86,0-3.18-1.44-3.18-3.24s1.38-3.3,3.3-3.3,3.24,1.44,3.24,3.3ZM410.77,550.33v-29.04h5.28v29.04h-5.28Z"/><path class="cls-17" d="M424.81,529.16c0-3-.06-5.46-.24-7.86h4.68l.3,4.8h.12c1.44-2.76,4.8-5.46,9.6-5.46,4.02,0,10.26,2.4,10.26,12.36v17.34h-5.28v-16.74c0-4.68-1.74-8.58-6.72-8.58-3.48,0-6.18,2.46-7.08,5.4-.24.66-.36,1.56-.36,2.46v17.46h-5.28v-21.18Z"/><path class="cls-17" d="M483.13,521.29c-.12,2.1-.24,4.44-.24,7.98v16.86c0,6.66-1.32,10.74-4.14,13.26-2.82,2.64-6.9,3.48-10.56,3.48s-7.32-.84-9.66-2.4l1.32-4.02c1.92,1.2,4.92,2.28,8.52,2.28,5.4,0,9.36-2.82,9.36-10.14v-3.24h-.12c-1.62,2.7-4.74,4.86-9.24,4.86-7.2,0-12.36-6.12-12.36-14.16,0-9.84,6.42-15.42,13.08-15.42,5.04,0,7.8,2.64,9.06,5.04h.12l.24-4.38h4.62ZM477.67,532.75c0-.9-.06-1.68-.3-2.4-.96-3.06-3.54-5.58-7.38-5.58-5.04,0-8.64,4.26-8.64,10.98,0,5.7,2.88,10.44,8.58,10.44,3.24,0,6.18-2.04,7.32-5.4.3-.9.42-1.92.42-2.82v-5.22Z"/><path class="cls-17" d="M490.39,547.21c0-2.22,1.5-3.78,3.6-3.78s3.54,1.56,3.54,3.78-1.38,3.78-3.6,3.78c-2.1,0-3.54-1.62-3.54-3.78Z"/><path class="cls-41" d="M1408.9,254.2c3.29-.39,7.08-.62,11.12-.62,9.3,0,22.68,1.61,22.78,4.83.08,2.45-8.88,5.94-13.51,6.12-2.08.08-3.76-.09-5.48-.42-.15-.07-.3-.14-.46-.2-3.7-1.58-7.66-2.54-11.4-3.01.09-.43.13-.87.11-1.3-.09-1.92-1.22-3.72-3.15-5.4Z"/><path class="cls-34" d="M1420.03,263.26c-3.08-.74-5.81-1.32-8.22-1.79.07-.19.11-.37.15-.56,3.74.47,7.71,1.43,11.4,3.01.15.06.3.13.46.2-1.19-.22-2.4-.52-3.79-.86Z"/><path class="cls-51" d="M1412.06,259.6c.02.43-.02.87-.11,1.3-1.87-.24-3.69-.36-5.38-.36-6.49-1.04-9.34-1.14-9.34-2.12,0-1.81,4.71-3.39,11.67-4.21,1.93,1.68,3.07,3.48,3.15,5.4Z"/><path class="cls-54" d="M1411.81,261.46c2.41.47,5.14,1.05,8.22,1.79,1.39.34,2.6.63,3.79.86,8.75,3.88,16.45,11.39,14.98,14.17-1.7,3.22-15.54-.17-23.16-2.83-3.5-1.22-8.4-3.22-12.43-5.36,4.49-2.68,7.72-5.65,8.61-8.63Z"/><path class="cls-39" d="M1411.95,260.9c-.03.19-.08.37-.15.56-1.95-.37-3.7-.67-5.23-.92,1.69,0,3.5.12,5.38.36Z"/><path class="cls-48" d="M1420.18,251.38c-5.27.78-9.33,1.4-12.46,1.87-1.81-1.33-4.1-2.58-6.73-3.74,3.55-2.33,9.16-4.96,15.69-7.22,9.23-3.17,21.83-5.59,23.16-2.83.95,1.98-4.03,6.24-7.9,8.47-4.04,2.32-7.64,2.84-11.76,3.45Z"/><path class="cls-35" d="M1406.57,260.54c1.54.25,3.28.55,5.23.92-.88,2.98-4.11,5.94-8.61,8.63-4.35-2.3-7.71-4.76-7.23-6.56.48-1.8,4.84-3.02,10.61-2.99Z"/><path class="cls-18" d="M1400.98,249.51c2.63,1.16,4.92,2.41,6.73,3.74-9.5,1.43-10.49,1.54-10.71.96-.43-1.12,1.1-2.81,3.97-4.7Z"/><path class="cls-14" d="M1329.56,239.31c6.15-1.15,13.03-1.62,23.43-.62,12.83,1.24,34.77,4.98,48,10.82-2.88,1.89-4.4,3.58-3.97,4.7.22.57,1.2.47,10.71-.96.42.31.82.63,1.19.96-6.96.82-11.67,2.4-11.67,4.21,0,.98,2.85,1.08,9.34,2.12-5.76-.02-10.13,1.19-10.61,2.99-.48,1.8,2.88,4.26,7.23,6.56-11.17,6.67-30.16,11.66-40.64,11.05-.73-.04-2.95-.2-9.57-.62-12.5-.8-18.59-1.14-20.13-1.25-1.1-.07-14.37-3.93-25.12-8.83,9.83-2.68,16.39-7.54,16.18-12.83-.21-5.09-6.66-9.31-16.08-11.36,6.84-3.2,15.04-5.67,21.73-6.93Z"/><path class="cls-14" d="M1307.83,246.24c9.42,2.05,15.87,6.27,16.08,11.36.22,5.29-6.35,10.14-16.18,12.83-6.65-3.03-12.32-6.46-13.57-9.65.53-.7.82-1.44.82-2.19,0-.59-.18-1.18-.51-1.74,1.66-3.93,6.91-7.6,13.36-10.62Z"/><path class="cls-14" d="M1292,244.96c5.74-.21,11.15.27,15.83,1.29-6.45,3.02-11.7,6.69-13.36,10.62-.9-1.51-2.96-2.9-5.9-4.1h0c.32-.45.51-.95.51-1.48,0-1.88-2.31-3.4-5.17-3.4-2.24,0-4.16.94-4.86,2.26-2.32-.43-4.82-.77-7.46-1.03,5.41-2.32,12.55-3.86,20.42-4.15Z"/><path class="cls-14" d="M1294.47,256.86c.34.56.51,1.15.51,1.74,0,.75-.28,1.49-.82,2.19-.15-.4-.24-.79-.25-1.19-.03-.92.17-1.84.55-2.74Z"/><path class="cls-14" d="M1294.17,260.79c1.25,3.18,6.92,6.62,13.57,9.65-4.34,1.18-9.3,1.94-14.59,2.14-9.85.37-18.72-1.31-24.6-4.23,12.74-.85,22.78-3.8,25.62-7.55Z"/><path class="cls-14" d="M1294.47,256.86c-.38.9-.58,1.82-.55,2.74,0,.39.1.79.25,1.19-2.84,3.75-12.88,6.7-25.62,7.55-4.45-2.21-7.17-5.13-7.31-8.42-.17-4.16,3.85-8.05,10.35-10.82,2.65.26,5.15.6,7.46,1.03-.2.36-.3.74-.3,1.14,0,1.88,2.32,3.4,5.17,3.4,2.05,0,3.82-.79,4.66-1.92,2.94,1.2,5,2.59,5.9,4.1Z"/><path class="cls-22" d="M1289.08,251.28c0,.53-.18,1.03-.51,1.47-.79-.32-1.65-.62-2.57-.92.05-.14.07-.27.07-.42,0-1.04-1.28-1.88-2.85-1.88-1.05,0-1.97.37-2.47.94-.56-.12-1.13-.23-1.71-.34.71-1.32,2.62-2.26,4.86-2.26,2.86,0,5.17,1.52,5.17,3.4Z"/><path class="cls-22" d="M1288.57,252.76h0c-.84,1.14-2.61,1.93-4.66,1.93-2.85,0-5.17-1.52-5.17-3.4,0-.4.11-.79.3-1.14.58.11,1.15.22,1.71.34-.24.27-.38.6-.38.94,0,1.04,1.28,1.88,2.85,1.88,1.35,0,2.49-.62,2.78-1.46.92.29,1.78.6,2.57.92Z"/><path class="cls-25" d="M1286.08,251.42c0,.14-.03.28-.07.42-1.59-.51-3.35-.96-5.25-1.36.5-.56,1.42-.94,2.47-.94,1.57,0,2.85.84,2.85,1.88Z"/><path class="cls-25" d="M1280.76,250.48c1.9.4,3.66.86,5.25,1.36-.29.84-1.43,1.46-2.78,1.46-1.57,0-2.85-.84-2.85-1.88,0-.34.14-.67.38-.94Z"/><path class="cls-30" d="M1261,248.62c3.7,0,7.25.17,10.59.49-6.5,2.77-10.52,6.66-10.35,10.82.14,3.28,2.86,6.21,7.31,8.42-2.43.16-4.96.25-7.55.25-18.77,0-33.99-4.47-33.99-9.99s15.22-9.99,33.99-9.99Z"/><path class="cls-13" d="M1271.58,249.11c5.41-2.32,12.55-3.86,20.42-4.15,5.74-.21,11.15.27,15.83,1.29"/><path class="cls-13" d="M1307.74,270.44c-4.34,1.18-9.3,1.94-14.59,2.14-9.85.37-18.72-1.31-24.6-4.23"/><path class="cls-13" d="M1268.55,268.34c-2.43.16-4.96.25-7.55.25-18.77,0-33.99-4.47-33.99-9.99s15.22-9.99,33.99-9.99c3.7,0,7.25.17,10.59.49"/><line class="cls-8" x1="1228.17" y1="256.71" x2="1255.14" y2="256.71"/><path class="cls-12" d="M1279.05,250.14c.71-1.32,2.62-2.26,4.86-2.26,2.86,0,5.17,1.52,5.17,3.4,0,.53-.18,1.03-.51,1.47h0c-.84,1.14-2.61,1.93-4.66,1.93-2.85,0-5.17-1.52-5.17-3.4,0-.4.11-.79.3-1.14Z"/><path class="cls-2" d="M1280.76,250.48c.5-.56,1.42-.94,2.47-.94,1.57,0,2.85.84,2.85,1.88,0,.14-.03.28-.07.42-.29.84-1.43,1.46-2.78,1.46-1.57,0-2.85-.84-2.85-1.88,0-.34.14-.67.38-.94Z"/><path class="cls-3" d="M1407.72,253.25c.42.31.82.63,1.19.96"/><path class="cls-3" d="M1307.83,246.24c6.84-3.2,15.04-5.67,21.73-6.93,6.15-1.15,13.03-1.62,23.43-.62,12.83,1.24,34.77,4.98,48,10.82"/><path class="cls-3" d="M1411.95,260.9c-.03.19-.08.37-.15.56-.88,2.98-4.11,5.94-8.61,8.63-11.17,6.67-30.16,11.66-40.64,11.05-.73-.04-2.95-.2-9.57-.62-12.5-.8-18.59-1.14-20.13-1.25-1.1-.07-14.37-3.93-25.12-8.83"/><path class="cls-3" d="M1400.98,249.51c3.55-2.33,9.16-4.96,15.69-7.22,9.23-3.17,21.83-5.59,23.16-2.83.95,1.98-4.03,6.24-7.9,8.47-4.04,2.32-7.64,2.84-11.76,3.45-5.27.78-9.33,1.4-12.46,1.87"/><path class="cls-10" d="M1423.81,264.11c8.75,3.88,16.45,11.39,14.98,14.17-1.7,3.22-15.54-.17-23.16-2.83-3.5-1.22-8.4-3.22-12.43-5.36"/><path class="cls-3" d="M1411.95,260.9c3.74.47,7.71,1.43,11.4,3.01.15.06.3.13.46.2"/><path class="cls-10" d="M1408.9,254.2c3.29-.39,7.08-.62,11.12-.62,9.3,0,22.68,1.61,22.78,4.83.08,2.45-8.88,5.94-13.51,6.12-2.08.08-3.76-.09-5.48-.42-1.19-.22-2.4-.52-3.79-.86-3.08-.74-5.81-1.32-8.22-1.79"/><path class="cls-6" d="M1381.35,240.68c30.59-2.01-.23-14.22-.23-14.22,13.2-3.12-.2-16.21-.2-16.21,7.72-.6-1.12-13.13-1.12-13.13,4.62-1.25-6.6-11.86-6.6-11.86l-6.6,8.12c-1.32,18.1-15.18,31.21-15.18,31.21-7.26,11.86-26.54,17.08-26.54,17.08"/><path class="cls-1" d="M1346.01,263.14s-20.33,13.11-18.33,30.11.19,60.13,9.1,33.56c0,0,34.9-17.56,6.9-23.56,0,0,47-18,8-13,0,0,38.41-12.3,15.2-21.65,0,0,1.18-3.57-2.51-5.46"/><path class="cls-50" d="M1671.81,568.42c.08,2.45-8.88,5.94-13.51,6.12-2.08.08-3.76-.09-5.48-.42-.15-.07-.3-.14-.46-.2-1.44-.61-2.92-1.14-4.41-1.57.77-1.24,1.16-2.49,1.11-3.74-.07-1.76-1.04-3.43-2.69-4.99.87-.02,1.76-.03,2.66-.03,9.3,0,22.68,1.61,22.78,4.83Z"/><path class="cls-44" d="M1668.84,549.46c.95,1.98-4.03,6.24-7.9,8.47-4.04,2.32-7.64,2.84-11.76,3.45-1.68.25-3.24.48-4.69.7-2.57-1.84-6.09-3.53-10.16-5.05,3.17-1.62,7.06-3.26,11.35-4.74,9.23-3.17,21.83-5.59,23.16-2.83Z"/><path class="cls-52" d="M1652.81,574.11c8.75,3.88,16.45,11.39,14.98,14.17-1.7,3.22-15.54-.17-23.16-2.83-2.62-.91-6.03-2.27-9.28-3.79,5.51-2.62,10.01-5.63,12.21-8.75.48.11.96.22,1.46.34,1.39.34,2.6.63,3.79.86Z"/><path class="cls-20" d="M1652.36,573.91c.15.06.3.13.46.2-1.19-.22-2.4-.52-3.79-.86-.5-.12-.98-.24-1.46-.34.14-.19.26-.38.38-.57,1.49.43,2.97.96,4.41,1.57Z"/><path class="cls-19" d="M1649.06,568.61c.05,1.25-.34,2.5-1.11,3.74-4.26-1.25-8.61-1.79-12.38-1.8-6.49-1.04-9.34-1.14-9.34-2.12,0-2.48,8.8-4.52,20.13-4.8,1.65,1.56,2.62,3.23,2.69,4.99Z"/><path class="cls-42" d="M1647.95,572.35c-.12.19-.24.38-.38.57-4.9-1.15-8.86-1.87-11.99-2.37,3.76.02,8.12.56,12.38,1.8Z"/><path class="cls-14" d="M1644.49,562.08c.69.5,1.33,1.01,1.87,1.54-11.33.28-20.13,2.32-20.13,4.8,0,.98,2.85,1.08,9.34,2.12-5.76-.02-10.13,1.19-10.61,2.99-.58,2.22,4.65,5.43,10.39,8.13-11.23,5.33-26.71,9.01-35.8,8.48-.73-.04-2.94-.2-9.57-.62-12.5-.8-18.59-1.14-20.13-1.25-1.17-.08-16.23-4.48-27.27-9.85,6.49-2.77,10.5-6.66,10.33-10.81-.18-4.34-4.88-8.04-12.08-10.31,7.43-4.2,17.67-7.47,25.73-8.98,6.15-1.15,13.03-1.62,23.43-.62,11.71,1.12,31.01,4.35,44.35,9.34-5.58,2.83-8.94,5.58-8.32,7.18.27.7,1.68.39,18.48-2.13Z"/><path class="cls-49" d="M1647.57,572.91c-2.2,3.12-6.7,6.13-12.21,8.75-5.74-2.7-10.97-5.91-10.39-8.13.48-1.8,4.84-3.02,10.61-2.99,3.13.51,7.1,1.22,11.99,2.37Z"/><path class="cls-15" d="M1634.33,557.03c4.07,1.52,7.58,3.21,10.16,5.05-16.8,2.52-18.21,2.83-18.48,2.13-.61-1.6,2.75-4.35,8.32-7.18Z"/><path class="cls-14" d="M1552.92,567.61c.17,4.16-3.84,8.04-10.33,10.81-6.49-3.16-11.59-6.66-11.67-9.81-.11-4.08,4.03-7.98,9.91-11.31,7.21,2.27,11.9,5.97,12.08,10.31Z"/><path class="cls-14" d="M1540.83,557.3c-5.89,3.32-10.02,7.22-9.91,11.31.08,3.16,5.18,6.66,11.67,9.81-5.42,2.32-12.56,3.86-20.44,4.16-9.85.37-18.72-1.31-24.59-4.23,15.13-1.01,26.43-4.98,26.43-9.74,0-2.18-2.38-4.2-6.42-5.84h0c.32-.45.51-.95.51-1.48,0-1.88-2.31-3.4-5.17-3.4-2.24,0-4.16.94-4.86,2.26-2.32-.43-4.82-.77-7.46-1.03,5.41-2.32,12.55-3.86,20.42-4.15,7.46-.27,14.37.62,19.83,2.34Z"/><path class="cls-14" d="M1517.57,562.76c4.04,1.64,6.42,3.66,6.42,5.84,0,4.76-11.3,8.73-26.43,9.74-4.45-2.21-7.18-5.13-7.32-8.42-.17-4.16,3.85-8.05,10.35-10.82,2.65.26,5.15.6,7.46,1.03-.2.36-.3.74-.3,1.14,0,1.88,2.32,3.4,5.17,3.4,2.05,0,3.82-.79,4.66-1.92Z"/><path class="cls-22" d="M1518.08,561.28c0,.53-.18,1.03-.51,1.47-.79-.32-1.65-.62-2.57-.92.05-.14.07-.27.07-.42,0-1.04-1.28-1.89-2.85-1.89-1.06,0-1.98.38-2.47.94-.56-.12-1.13-.23-1.71-.34.71-1.32,2.62-2.26,4.86-2.26,2.86,0,5.17,1.52,5.17,3.4Z"/><path class="cls-22" d="M1517.57,562.76h0c-.84,1.14-2.61,1.93-4.66,1.93-2.85,0-5.17-1.52-5.17-3.4,0-.4.11-.79.3-1.14.58.11,1.15.22,1.71.34-.24.27-.38.6-.38.94,0,1.04,1.27,1.88,2.85,1.88,1.35,0,2.49-.62,2.78-1.46.92.29,1.78.6,2.57.92Z"/><path class="cls-25" d="M1515.08,561.42c0,.14-.03.28-.07.42-1.59-.51-3.35-.96-5.25-1.36.49-.56,1.41-.94,2.47-.94,1.57,0,2.85.84,2.85,1.89Z"/><path class="cls-25" d="M1509.76,560.48c1.9.4,3.66.86,5.25,1.36-.29.84-1.43,1.46-2.78,1.46-1.58,0-2.85-.84-2.85-1.88,0-.34.14-.67.38-.94Z"/><path class="cls-30" d="M1490,558.62c3.7,0,7.25.17,10.59.49-6.5,2.77-10.52,6.66-10.35,10.82.14,3.28,2.87,6.21,7.32,8.42-2.43.16-4.96.25-7.56.25-18.77,0-33.99-4.47-33.99-9.99s15.22-9.99,33.99-9.99Z"/><path class="cls-13" d="M1500.58,559.11c5.41-2.32,12.55-3.86,20.42-4.15,7.46-.27,14.37.62,19.83,2.34"/><path class="cls-13" d="M1542.59,578.42c-5.42,2.32-12.56,3.86-20.44,4.16-9.85.37-18.72-1.31-24.59-4.23"/><path class="cls-13" d="M1497.55,578.35c-2.43.16-4.96.25-7.56.25-18.77,0-33.99-4.47-33.99-9.99s15.22-9.99,33.99-9.99c3.7,0,7.25.17,10.59.49"/><line class="cls-8" x1="1457.17" y1="566.71" x2="1484.14" y2="566.71"/><path class="cls-12" d="M1508.05,560.14c.71-1.32,2.62-2.26,4.86-2.26,2.86,0,5.17,1.52,5.17,3.4,0,.53-.18,1.03-.51,1.47h0c-.84,1.14-2.61,1.93-4.66,1.93-2.85,0-5.17-1.52-5.17-3.4,0-.4.11-.79.3-1.14Z"/><path class="cls-2" d="M1509.76,560.48c.49-.56,1.41-.94,2.47-.94,1.57,0,2.85.84,2.85,1.89,0,.14-.03.28-.07.42-.29.84-1.43,1.46-2.78,1.46-1.58,0-2.85-.84-2.85-1.88,0-.34.14-.67.38-.94Z"/><path class="cls-3" d="M1644.49,562.08c.69.5,1.33,1.01,1.87,1.54"/><path class="cls-3" d="M1540.83,557.3c7.43-4.2,17.67-7.47,25.73-8.98,6.15-1.15,13.03-1.62,23.43-.62,11.71,1.12,31.01,4.35,44.35,9.34"/><path class="cls-3" d="M1647.95,572.35c-.12.19-.24.38-.38.57-2.2,3.12-6.7,6.13-12.21,8.75-11.23,5.33-26.71,9.01-35.8,8.48-.73-.04-2.94-.2-9.57-.62-12.5-.8-18.59-1.14-20.13-1.25-1.17-.08-16.23-4.48-27.27-9.85"/><path class="cls-3" d="M1634.33,557.03c3.17-1.62,7.06-3.26,11.35-4.74,9.23-3.17,21.83-5.59,23.16-2.83.95,1.98-4.03,6.24-7.9,8.47-4.04,2.32-7.64,2.84-11.76,3.45-1.68.25-3.24.48-4.69.7"/><path class="cls-10" d="M1652.81,574.11c8.75,3.88,16.45,11.39,14.98,14.17-1.7,3.22-15.54-.17-23.16-2.83-2.62-.91-6.03-2.27-9.28-3.79"/><path class="cls-3" d="M1647.95,572.35c1.49.43,2.97.96,4.41,1.57.15.06.3.13.46.2"/><path class="cls-10" d="M1646.37,563.62c.87-.02,1.76-.03,2.66-.03,9.3,0,22.68,1.61,22.78,4.83.08,2.45-8.88,5.94-13.51,6.12-2.08.08-3.76-.09-5.48-.42-1.19-.22-2.4-.52-3.79-.86-.5-.12-.98-.24-1.46-.34"/><path class="cls-6" d="M1610.35,550.68c30.59-2.01-.23-14.22-.23-14.22,13.2-3.12-.2-16.21-.2-16.21,7.72-.6-1.12-13.13-1.12-13.13,4.62-1.25-6.6-11.86-6.6-11.86l-6.6,8.12c-1.32,18.1-15.18,31.21-15.18,31.21-7.26,11.86-26.54,17.08-26.54,17.08"/><path class="cls-1" d="M1575.01,573.14s-20.33,13.11-18.33,30.11.19,60.13,9.1,33.56c0,0,34.9-17.56,6.9-23.56,0,0,47-18,8-13,0,0,38.41-12.3,15.2-21.65,0,0,1.18-3.57-2.51-5.46"/><path class="cls-17" d="M1129.52,113.4l18.48-40.44h25.32v4.38h-17.22l1.56,12.9h15.06v4.32h-14.4l1.8,14.46h14.82v4.38h-19.32l-1.8-14.28h-12.42l-6.48,14.28h-5.4ZM1153.22,94.92l-1.32-11.64c-.24-1.92-.6-4.5-.72-6.54h-.24c-.72,1.92-1.68,4.2-2.58,6.36l-5.22,11.82h10.08Z"/><path class="cls-17" d="M1181.24,92.22c0-3-.06-5.46-.24-7.86h4.68l.3,4.8h.12c1.44-2.76,4.8-5.46,9.6-5.46,4.02,0,10.26,2.4,10.26,12.36v17.34h-5.28v-16.74c0-4.68-1.74-8.58-6.72-8.58-3.48,0-6.18,2.46-7.08,5.4-.24.66-.36,1.56-.36,2.46v17.46h-5.28v-21.18Z"/><path class="cls-17" d="M1239.62,70.8v35.1c0,2.58.06,5.52.24,7.5h-4.74l-.24-5.04h-.12c-1.62,3.24-5.16,5.7-9.9,5.7-7.02,0-12.42-5.94-12.42-14.76-.06-9.66,5.94-15.6,13.02-15.6,4.44,0,7.44,2.1,8.76,4.44h.12v-17.34h5.28ZM1234.34,96.18c0-.66-.06-1.56-.24-2.22-.78-3.36-3.66-6.12-7.62-6.12-5.46,0-8.7,4.8-8.7,11.22,0,5.88,2.88,10.74,8.58,10.74,3.54,0,6.78-2.34,7.74-6.3.18-.72.24-1.44.24-2.28v-5.04Z"/><path class="cls-17" d="M1251.32,99.84c.12,7.14,4.68,10.08,9.96,10.08,3.78,0,6.06-.66,8.04-1.5l.9,3.78c-1.86.84-5.04,1.8-9.66,1.8-8.94,0-14.28-5.88-14.28-14.64s5.16-15.66,13.62-15.66c9.48,0,12,8.34,12,13.68,0,1.08-.12,1.92-.18,2.46h-20.4ZM1266.8,96.06c.06-3.36-1.38-8.58-7.32-8.58-5.34,0-7.68,4.92-8.1,8.58h15.42Z"/><path class="cls-17" d="M1278.44,93.42c0-3.42-.06-6.36-.24-9.06h4.62l.18,5.7h.24c1.32-3.9,4.5-6.36,8.04-6.36.6,0,1.02.06,1.5.18v4.98c-.54-.12-1.08-.18-1.8-.18-3.72,0-6.36,2.82-7.08,6.78-.12.72-.24,1.56-.24,2.46v15.48h-5.22v-19.98Z"/><path class="cls-17" d="M1335.86,70.8v35.1c0,2.58.06,5.52.24,7.5h-4.74l-.24-5.04h-.12c-1.62,3.24-5.16,5.7-9.9,5.7-7.02,0-12.42-5.94-12.42-14.76-.06-9.66,5.94-15.6,13.02-15.6,4.44,0,7.44,2.1,8.76,4.44h.12v-17.34h5.28ZM1330.58,96.18c0-.66-.06-1.56-.24-2.22-.78-3.36-3.66-6.12-7.62-6.12-5.46,0-8.7,4.8-8.7,11.22,0,5.88,2.88,10.74,8.58,10.74,3.54,0,6.78-2.34,7.74-6.3.18-.72.24-1.44.24-2.28v-5.04Z"/><path class="cls-17" d="M1347.56,99.84c.12,7.14,4.68,10.08,9.96,10.08,3.78,0,6.06-.66,8.04-1.5l.9,3.78c-1.86.84-5.04,1.8-9.66,1.8-8.94,0-14.28-5.88-14.28-14.64s5.16-15.66,13.62-15.66c9.48,0,12,8.34,12,13.68,0,1.08-.12,1.92-.18,2.46h-20.4ZM1363.04,96.06c.06-3.36-1.38-8.58-7.32-8.58-5.34,0-7.68,4.92-8.1,8.58h15.42Z"/><path class="cls-17" d="M1374.68,93.42c0-3.42-.06-6.36-.24-9.06h4.62l.18,5.7h.24c1.32-3.9,4.5-6.36,8.04-6.36.6,0,1.02.06,1.5.18v4.98c-.54-.12-1.08-.18-1.8-.18-3.72,0-6.36,2.82-7.08,6.78-.12.72-.24,1.56-.24,2.46v15.48h-5.22v-19.98Z"/><path class="cls-17" d="M1412.24,97.68h.12c.72-1.02,1.74-2.28,2.58-3.3l8.52-10.02h6.36l-11.22,11.94,12.78,17.1h-6.42l-10.02-13.92-2.7,3v10.92h-5.22v-42.6h5.22v26.88Z"/><path class="cls-17" d="M1451.24,113.4l-.42-3.66h-.18c-1.62,2.28-4.74,4.32-8.88,4.32-5.88,0-8.88-4.14-8.88-8.34,0-7.02,6.24-10.86,17.46-10.8v-.6c0-2.4-.66-6.72-6.6-6.72-2.7,0-5.52.84-7.56,2.16l-1.2-3.48c2.4-1.56,5.88-2.58,9.54-2.58,8.88,0,11.04,6.06,11.04,11.88v10.86c0,2.52.12,4.98.48,6.96h-4.8ZM1450.46,98.58c-5.76-.12-12.3.9-12.3,6.54,0,3.42,2.28,5.04,4.98,5.04,3.78,0,6.18-2.4,7.02-4.86.18-.54.3-1.14.3-1.68v-5.04Z"/><path class="cls-17" d="M1464.08,92.22c0-3-.06-5.46-.24-7.86h4.68l.3,4.8h.12c1.44-2.76,4.8-5.46,9.6-5.46,4.02,0,10.26,2.4,10.26,12.36v17.34h-5.28v-16.74c0-4.68-1.74-8.58-6.72-8.58-3.48,0-6.18,2.46-7.08,5.4-.24.66-.36,1.56-.36,2.46v17.46h-5.28v-21.18Z"/><path class="cls-17" d="M1503.02,121.8c2.4-.18,4.5-.84,5.76-2.22,1.44-1.68,1.98-3.96,1.98-10.92v-24.3h5.28v26.34c0,5.64-.9,9.3-3.48,11.94-2.34,2.34-6.18,3.3-9,3.3l-.54-4.14ZM1516.64,76.2c.06,1.74-1.2,3.24-3.3,3.24-1.98,0-3.24-1.5-3.24-3.24,0-1.86,1.38-3.3,3.36-3.3s3.18,1.44,3.18,3.3Z"/><path class="cls-17" d="M1540.76,113.4l-.42-3.66h-.18c-1.62,2.28-4.74,4.32-8.88,4.32-5.88,0-8.88-4.14-8.88-8.34,0-7.02,6.24-10.86,17.46-10.8v-.6c0-2.4-.66-6.72-6.6-6.72-2.7,0-5.52.84-7.56,2.16l-1.2-3.48c2.4-1.56,5.88-2.58,9.54-2.58,8.88,0,11.04,6.06,11.04,11.88v10.86c0,2.52.12,4.98.48,6.96h-4.8ZM1539.98,98.58c-5.76-.12-12.3.9-12.3,6.54,0,3.42,2.28,5.04,4.98,5.04,3.78,0,6.18-2.4,7.02-4.86.18-.54.3-1.14.3-1.68v-5.04Z"/><path class="cls-17" d="M1578.62,84.36c-.12,2.1-.24,4.44-.24,7.98v16.86c0,6.66-1.32,10.74-4.14,13.26-2.82,2.64-6.9,3.48-10.56,3.48s-7.32-.84-9.66-2.4l1.32-4.02c1.92,1.2,4.92,2.28,8.52,2.28,5.4,0,9.36-2.82,9.36-10.14v-3.24h-.12c-1.62,2.7-4.74,4.86-9.24,4.86-7.2,0-12.36-6.12-12.36-14.16,0-9.84,6.42-15.42,13.08-15.42,5.04,0,7.8,2.64,9.06,5.04h.12l.24-4.38h4.62ZM1573.16,95.82c0-.9-.06-1.68-.3-2.4-.96-3.06-3.54-5.58-7.38-5.58-5.04,0-8.64,4.26-8.64,10.98,0,5.7,2.88,10.44,8.58,10.44,3.24,0,6.18-2.04,7.32-5.4.3-.9.42-1.92.42-2.82v-5.22Z"/><path class="cls-17" d="M1590.08,99.84c.12,7.14,4.68,10.08,9.96,10.08,3.78,0,6.06-.66,8.04-1.5l.9,3.78c-1.86.84-5.04,1.8-9.66,1.8-8.94,0-14.28-5.88-14.28-14.64s5.16-15.66,13.62-15.66c9.48,0,12,8.34,12,13.68,0,1.08-.12,1.92-.18,2.46h-20.4ZM1605.56,96.06c.06-3.36-1.38-8.58-7.32-8.58-5.34,0-7.68,4.92-8.1,8.58h15.42Z"/><path class="cls-17" d="M1616.48,108c1.56,1.02,4.32,2.1,6.96,2.1,3.84,0,5.64-1.92,5.64-4.32,0-2.52-1.5-3.9-5.4-5.34-5.22-1.86-7.68-4.74-7.68-8.22,0-4.68,3.78-8.52,10.02-8.52,2.94,0,5.52.84,7.14,1.8l-1.32,3.84c-1.14-.72-3.24-1.68-5.94-1.68-3.12,0-4.86,1.8-4.86,3.96,0,2.4,1.74,3.48,5.52,4.92,5.04,1.92,7.62,4.44,7.62,8.76,0,5.1-3.96,8.7-10.86,8.7-3.18,0-6.12-.78-8.16-1.98l1.32-4.02Z"/><path class="cls-17" d="M1389.38,402.76h21.78v4.38h-16.56v13.44h15.3v4.32h-15.3v18.3h-5.22v-40.44Z"/><path class="cls-17" d="M1418.42,423.22c0-3.42-.06-6.36-.24-9.06h4.62l.18,5.7h.24c1.32-3.9,4.5-6.36,8.04-6.36.6,0,1.02.06,1.5.18v4.98c-.54-.12-1.08-.18-1.8-.18-3.72,0-6.36,2.82-7.08,6.78-.12.72-.24,1.56-.24,2.46v15.48h-5.22v-19.98Z"/><path class="cls-17" d="M1440.98,429.63c.12,7.14,4.68,10.08,9.96,10.08,3.78,0,6.06-.66,8.04-1.5l.9,3.78c-1.86.84-5.04,1.8-9.66,1.8-8.94,0-14.28-5.88-14.28-14.64s5.16-15.66,13.62-15.66c9.48,0,12,8.34,12,13.68,0,1.08-.12,1.92-.18,2.46h-20.4ZM1456.46,425.85c.06-3.36-1.38-8.58-7.32-8.58-5.34,0-7.68,4.92-8.1,8.58h15.42Z"/><path class="cls-17" d="M1493.18,400.6v35.1c0,2.58.06,5.52.24,7.5h-4.74l-.24-5.04h-.12c-1.62,3.24-5.16,5.7-9.9,5.7-7.02,0-12.42-5.94-12.42-14.76-.06-9.66,5.94-15.6,13.02-15.6,4.44,0,7.44,2.1,8.76,4.44h.12v-17.34h5.28ZM1487.9,425.98c0-.66-.06-1.56-.24-2.22-.78-3.36-3.66-6.12-7.62-6.12-5.46,0-8.7,4.8-8.7,11.22,0,5.88,2.88,10.74,8.58,10.74,3.54,0,6.78-2.34,7.74-6.3.18-.72.24-1.44.24-2.28v-5.04Z"/><path class="cls-17" d="M1504.88,429.63c.12,7.14,4.68,10.08,9.96,10.08,3.78,0,6.06-.66,8.04-1.5l.9,3.78c-1.86.84-5.04,1.8-9.66,1.8-8.94,0-14.28-5.88-14.28-14.64s5.16-15.66,13.62-15.66c9.48,0,12,8.34,12,13.68,0,1.08-.12,1.92-.18,2.46h-20.4ZM1520.36,425.85c.06-3.36-1.38-8.58-7.32-8.58-5.34,0-7.68,4.92-8.1,8.58h15.42Z"/><path class="cls-17" d="M1538.36,405.82v8.34h7.56v4.02h-7.56v15.66c0,3.6,1.02,5.64,3.96,5.64,1.38,0,2.4-.18,3.06-.36l.24,3.96c-1.02.42-2.64.72-4.68.72-2.46,0-4.44-.78-5.7-2.22-1.5-1.56-2.04-4.14-2.04-7.56v-15.84h-4.5v-4.02h4.5v-6.96l5.16-1.38Z"/><path class="cls-17" d="M1580.66,443.19l-.42-3.66h-.18c-1.62,2.28-4.74,4.32-8.88,4.32-5.88,0-8.88-4.14-8.88-8.34,0-7.02,6.24-10.86,17.46-10.8v-.6c0-2.4-.66-6.72-6.6-6.72-2.7,0-5.52.84-7.56,2.16l-1.2-3.48c2.4-1.56,5.88-2.58,9.54-2.58,8.88,0,11.04,6.06,11.04,11.88v10.86c0,2.52.12,4.98.48,6.96h-4.8ZM1579.88,428.38c-5.76-.12-12.3.9-12.3,6.54,0,3.42,2.28,5.04,4.98,5.04,3.78,0,6.18-2.4,7.02-4.86.18-.54.3-1.14.3-1.68v-5.04Z"/><path class="cls-17" d="M1593.5,422.02c0-3-.06-5.46-.24-7.86h4.68l.3,4.8h.12c1.44-2.76,4.8-5.46,9.6-5.46,4.02,0,10.26,2.4,10.26,12.36v17.34h-5.28v-16.74c0-4.68-1.74-8.58-6.72-8.58-3.48,0-6.18,2.46-7.08,5.4-.24.66-.36,1.56-.36,2.46v17.46h-5.28v-21.18Z"/><path class="cls-17" d="M1651.88,400.6v35.1c0,2.58.06,5.52.24,7.5h-4.74l-.24-5.04h-.12c-1.62,3.24-5.16,5.7-9.9,5.7-7.02,0-12.42-5.94-12.42-14.76-.06-9.66,5.94-15.6,13.02-15.6,4.44,0,7.44,2.1,8.76,4.44h.12v-17.34h5.28ZM1646.6,425.98c0-.66-.06-1.56-.24-2.22-.78-3.36-3.66-6.12-7.62-6.12-5.46,0-8.7,4.8-8.7,11.22,0,5.88,2.88,10.74,8.58,10.74,3.54,0,6.78-2.34,7.74-6.3.18-.72.24-1.44.24-2.28v-5.04Z"/><path class="cls-17" d="M964.56,623.81h5.22v19.5h.18c1.08-1.56,2.16-3,3.18-4.32l12.36-15.18h6.48l-14.64,17.16,15.78,23.28h-6.18l-13.32-19.86-3.84,4.44v15.42h-5.22v-40.44Z"/><path class="cls-17" d="M1002.78,627.05c.06,1.8-1.26,3.24-3.36,3.24-1.86,0-3.18-1.44-3.18-3.24s1.38-3.3,3.3-3.3,3.24,1.44,3.24,3.3ZM996.9,664.25v-29.04h5.28v29.04h-5.28Z"/><path class="cls-17" d="M1035.96,635.21c-.12,2.1-.24,4.44-.24,7.98v16.86c0,6.66-1.32,10.74-4.14,13.26-2.82,2.64-6.9,3.48-10.56,3.48s-7.32-.84-9.66-2.4l1.32-4.02c1.92,1.2,4.92,2.28,8.52,2.28,5.4,0,9.36-2.82,9.36-10.14v-3.24h-.12c-1.62,2.7-4.74,4.86-9.24,4.86-7.2,0-12.36-6.12-12.36-14.16,0-9.84,6.42-15.42,13.08-15.42,5.04,0,7.8,2.64,9.06,5.04h.12l.24-4.38h4.62ZM1030.5,646.67c0-.9-.06-1.68-.3-2.4-.96-3.06-3.54-5.58-7.38-5.58-5.04,0-8.64,4.26-8.64,10.98,0,5.7,2.88,10.44,8.58,10.44,3.24,0,6.18-2.04,7.32-5.4.3-.9.42-1.92.42-2.82v-5.22Z"/><path class="cls-17" d="M1082.22,635.21c-.12,2.1-.24,4.44-.24,7.98v16.86c0,6.66-1.32,10.74-4.14,13.26-2.82,2.64-6.9,3.48-10.56,3.48s-7.32-.84-9.66-2.4l1.32-4.02c1.92,1.2,4.92,2.28,8.52,2.28,5.4,0,9.36-2.82,9.36-10.14v-3.24h-.12c-1.62,2.7-4.74,4.86-9.24,4.86-7.2,0-12.36-6.12-12.36-14.16,0-9.84,6.42-15.42,13.08-15.42,5.04,0,7.8,2.64,9.06,5.04h.12l.24-4.38h4.62ZM1076.76,646.67c0-.9-.06-1.68-.3-2.4-.96-3.06-3.54-5.58-7.38-5.58-5.04,0-8.64,4.26-8.64,10.98,0,5.7,2.88,10.44,8.58,10.44,3.24,0,6.18-2.04,7.32-5.4.3-.9.42-1.92.42-2.82v-5.22Z"/><path class="cls-17" d="M1117.02,649.49c0,10.74-7.44,15.42-14.46,15.42-7.86,0-13.92-5.76-13.92-14.94,0-9.72,6.36-15.42,14.4-15.42s13.98,6.06,13.98,14.94ZM1093.98,649.79c0,6.36,3.66,11.16,8.82,11.16s8.82-4.74,8.82-11.28c0-4.92-2.46-11.16-8.7-11.16s-8.94,5.76-8.94,11.28Z"/><path class="cls-17" d="M1148.76,621.65v35.1c0,2.58.06,5.52.24,7.5h-4.74l-.24-5.04h-.12c-1.62,3.24-5.16,5.7-9.9,5.7-7.02,0-12.42-5.94-12.42-14.76-.06-9.66,5.94-15.6,13.02-15.6,4.44,0,7.44,2.1,8.76,4.44h.12v-17.34h5.28ZM1143.48,647.03c0-.66-.06-1.56-.24-2.22-.78-3.36-3.66-6.12-7.62-6.12-5.46,0-8.7,4.8-8.7,11.22,0,5.88,2.88,10.74,8.58,10.74,3.54,0,6.78-2.34,7.74-6.3.18-.72.24-1.44.24-2.28v-5.04Z"/><path class="cls-17" d="M1163.88,626.87v8.34h7.56v4.02h-7.56v15.66c0,3.6,1.02,5.64,3.96,5.64,1.38,0,2.4-.18,3.06-.36l.24,3.96c-1.02.42-2.64.72-4.68.72-2.46,0-4.44-.78-5.7-2.22-1.5-1.56-2.04-4.14-2.04-7.56v-15.84h-4.5v-4.02h4.5v-6.96l5.16-1.38Z"/><path class="cls-17" d="M1190.1,644.69c0-3.72-.12-6.72-.24-9.48h4.74l.24,4.98h.12c2.16-3.54,5.58-5.64,10.32-5.64,7.02,0,12.3,5.94,12.3,14.76,0,10.44-6.36,15.6-13.2,15.6-3.84,0-7.2-1.68-8.94-4.56h-.12v15.78h-5.22v-31.44ZM1195.32,652.43c0,.78.12,1.5.24,2.16.96,3.66,4.14,6.18,7.92,6.18,5.58,0,8.82-4.56,8.82-11.22,0-5.82-3.06-10.8-8.64-10.8-3.6,0-6.96,2.58-7.98,6.54-.18.66-.36,1.44-.36,2.16v4.98Z"/><path class="cls-17" d="M1240.31,664.25l-.42-3.66h-.18c-1.62,2.28-4.74,4.32-8.88,4.32-5.88,0-8.88-4.14-8.88-8.34,0-7.02,6.24-10.86,17.46-10.8v-.6c0-2.4-.66-6.72-6.6-6.72-2.7,0-5.52.84-7.56,2.16l-1.2-3.48c2.4-1.56,5.88-2.58,9.54-2.58,8.88,0,11.04,6.06,11.04,11.88v10.86c0,2.52.12,4.98.48,6.96h-4.8ZM1239.53,649.43c-5.76-.12-12.3.9-12.3,6.54,0,3.42,2.28,5.04,4.98,5.04,3.78,0,6.18-2.4,7.02-4.86.18-.54.3-1.14.3-1.68v-5.04ZM1228.19,626.57c0-3.18,2.34-5.7,6.12-5.7s5.94,2.46,5.94,5.64-2.58,5.52-6,5.52c-3.6,0-6.06-2.4-6.06-5.46ZM1237.31,626.45c0-1.8-1.2-3.3-3.12-3.3s-2.94,1.56-2.94,3.42c0,1.56,1.2,3.24,2.94,3.24,1.92,0,3.12-1.56,3.12-3.36Z"/><path class="cls-17" d="M1290.95,621.65v35.1c0,2.58.06,5.52.24,7.5h-4.74l-.24-5.04h-.12c-1.62,3.24-5.16,5.7-9.9,5.7-7.02,0-12.42-5.94-12.42-14.76-.06-9.66,5.94-15.6,13.02-15.6,4.44,0,7.44,2.1,8.76,4.44h.12v-17.34h5.28ZM1285.67,647.03c0-.66-.06-1.56-.24-2.22-.78-3.36-3.66-6.12-7.62-6.12-5.46,0-8.7,4.8-8.7,11.22,0,5.88,2.88,10.74,8.58,10.74,3.54,0,6.78-2.34,7.74-6.3.18-.72.24-1.44.24-2.28v-5.04Z"/><path class="cls-17" d="M1302.65,650.69c.12,7.14,4.68,10.08,9.96,10.08,3.78,0,6.06-.66,8.04-1.5l.9,3.78c-1.86.84-5.04,1.8-9.66,1.8-8.94,0-14.28-5.88-14.28-14.64s5.16-15.66,13.62-15.66c9.48,0,12,8.34,12,13.68,0,1.08-.12,1.92-.18,2.46h-20.4ZM1318.13,646.91c.06-3.36-1.38-8.58-7.32-8.58-5.34,0-7.68,4.92-8.1,8.58h15.42Z"/><path class="cls-17" d="M1342.07,658.19c1.5.96,4.98,2.46,8.64,2.46,6.78,0,8.88-4.32,8.82-7.56-.06-5.46-4.98-7.8-10.08-7.8h-2.94v-3.96h2.94c3.84,0,8.7-1.98,8.7-6.6,0-3.12-1.98-5.88-6.84-5.88-3.12,0-6.12,1.38-7.8,2.58l-1.38-3.84c2.04-1.5,6-3,10.2-3,7.68,0,11.16,4.56,11.16,9.3,0,4.02-2.4,7.44-7.2,9.18v.12c4.8.96,8.7,4.56,8.7,10.02,0,6.24-4.86,11.7-14.22,11.7-4.38,0-8.22-1.38-10.14-2.64l1.44-4.08Z"/><path class="cls-17" d="M1386.53,664.25v-25.02h-4.08v-4.02h4.08v-1.56c0-7.68,4.5-12.66,12.66-12.66,2.7,0,5.88.84,7.38,1.92l-1.5,4.02c-1.26-.9-3.54-1.68-6.12-1.68-5.58,0-7.2,3.9-7.2,8.52v1.44h16.86v26.34c0,5.64-.9,9.3-3.48,11.94-2.28,2.34-6.18,3.3-9,3.3l-.54-4.14c2.46-.18,4.5-.84,5.76-2.22,1.44-1.68,2.04-3.96,2.04-10.92v-20.28h-11.64v25.02h-5.22Z"/><path class="cls-17" d="M1420.25,650.69c.12,7.14,4.68,10.08,9.96,10.08,3.78,0,6.06-.66,8.04-1.5l.9,3.78c-1.86.84-5.04,1.8-9.66,1.8-8.94,0-14.28-5.88-14.28-14.64s5.16-15.66,13.62-15.66c9.48,0,12,8.34,12,13.68,0,1.08-.12,1.92-.18,2.46h-20.4ZM1435.73,646.91c.06-3.36-1.38-8.58-7.32-8.58-5.34,0-7.68,4.92-8.1,8.58h15.42Z"/><path class="cls-17" d="M1447.37,644.27c0-3.42-.06-6.36-.24-9.06h4.62l.18,5.7h.24c1.32-3.9,4.5-6.36,8.04-6.36.6,0,1.02.06,1.5.18v4.98c-.54-.12-1.08-.18-1.8-.18-3.72,0-6.36,2.82-7.08,6.78-.12.72-.24,1.56-.24,2.46v15.48h-5.22v-19.98Z"/><path class="cls-17" d="M1463.57,671.62c1.32-3.54,2.94-9.96,3.6-14.34l5.88-.6c-1.38,5.1-4.02,11.76-5.7,14.58l-3.78.36Z"/><path class="cls-17" d="M964.92,736.25v-25.02h-4.08v-4.02h4.08v-1.38c0-4.08.9-7.8,3.36-10.14,1.98-1.92,4.62-2.7,7.08-2.7,1.86,0,3.48.42,4.5.84l-.72,4.08c-.78-.36-1.86-.66-3.36-.66-4.5,0-5.64,3.96-5.64,8.4v1.56h7.02v4.02h-7.02v25.02h-5.22Z"/><path class="cls-17" d="M1008.18,721.49c0,10.74-7.44,15.42-14.46,15.42-7.86,0-13.92-5.76-13.92-14.94,0-9.72,6.36-15.42,14.4-15.42s13.98,6.06,13.98,14.94ZM985.14,721.79c0,6.36,3.66,11.16,8.82,11.16s8.82-4.74,8.82-11.28c0-4.92-2.46-11.16-8.7-11.16s-8.94,5.76-8.94,11.28Z"/><path class="cls-17" d="M1014.84,716.27c0-3.42-.06-6.36-.24-9.06h4.62l.18,5.7h.24c1.32-3.9,4.5-6.36,8.04-6.36.6,0,1.02.06,1.5.18v4.98c-.54-.12-1.08-.18-1.8-.18-3.72,0-6.36,2.82-7.08,6.78-.12.72-.24,1.56-.24,2.46v15.48h-5.22v-19.98Z"/><path class="cls-17" d="M1063.26,736.25l-.42-3.66h-.18c-1.62,2.28-4.74,4.32-8.88,4.32-5.88,0-8.88-4.14-8.88-8.34,0-7.02,6.24-10.86,17.46-10.8v-.6c0-2.4-.66-6.72-6.6-6.72-2.7,0-5.52.84-7.56,2.16l-1.2-3.48c2.4-1.56,5.88-2.58,9.54-2.58,8.88,0,11.04,6.06,11.04,11.88v10.86c0,2.52.12,4.98.48,6.96h-4.8ZM1062.48,721.43c-5.76-.12-12.3.9-12.3,6.54,0,3.42,2.28,5.04,4.98,5.04,3.78,0,6.18-2.4,7.02-4.86.18-.54.3-1.14.3-1.68v-5.04Z"/><path class="cls-17" d="M1082.46,698.87v8.34h7.56v4.02h-7.56v15.66c0,3.6,1.02,5.64,3.96,5.64,1.38,0,2.4-.18,3.06-.36l.24,3.96c-1.02.42-2.64.72-4.68.72-2.46,0-4.44-.78-5.7-2.22-1.5-1.56-2.04-4.14-2.04-7.56v-15.84h-4.5v-4.02h4.5v-6.96l5.16-1.38Z"/><path class="cls-17" d="M1107.96,730.85c1.56,1.02,4.32,2.1,6.96,2.1,3.84,0,5.64-1.92,5.64-4.32,0-2.52-1.5-3.9-5.4-5.34-5.22-1.86-7.68-4.74-7.68-8.22,0-4.68,3.78-8.52,10.02-8.52,2.94,0,5.52.84,7.14,1.8l-1.32,3.84c-1.14-.72-3.24-1.68-5.94-1.68-3.12,0-4.86,1.8-4.86,3.96,0,2.4,1.74,3.48,5.52,4.92,5.04,1.92,7.62,4.44,7.62,8.76,0,5.1-3.96,8.7-10.86,8.7-3.18,0-6.12-.78-8.16-1.98l1.32-4.02Z"/><path class="cls-17" d="M1135.38,722.69c.12,7.14,4.68,10.08,9.96,10.08,3.78,0,6.06-.66,8.04-1.5l.9,3.78c-1.86.84-5.04,1.8-9.66,1.8-8.94,0-14.28-5.88-14.28-14.64s5.16-15.66,13.62-15.66c9.48,0,12,8.34,12,13.68,0,1.08-.12,1.92-.18,2.46h-20.4ZM1150.86,718.91c.06-3.36-1.38-8.58-7.32-8.58-5.34,0-7.68,4.92-8.1,8.58h15.42Z"/><path class="cls-17" d="M1175.76,736.25v-25.02h-4.08v-4.02h4.08v-1.38c0-4.08.9-7.8,3.36-10.14,1.98-1.92,4.62-2.7,7.08-2.7,1.86,0,3.48.42,4.5.84l-.72,4.08c-.78-.36-1.86-.66-3.36-.66-4.5,0-5.64,3.96-5.64,8.4v1.56h7.02v4.02h-7.02v25.02h-5.22Z"/><path class="cls-17" d="M1219.02,721.49c0,10.74-7.44,15.42-14.46,15.42-7.86,0-13.92-5.76-13.92-14.94,0-9.72,6.36-15.42,14.4-15.42s13.98,6.06,13.98,14.94ZM1195.98,721.79c0,6.36,3.66,11.16,8.82,11.16s8.82-4.74,8.82-11.28c0-4.92-2.46-11.16-8.7-11.16s-8.94,5.76-8.94,11.28Z"/><path class="cls-17" d="M1225.68,716.27c0-3.42-.06-6.36-.24-9.06h4.62l.18,5.7h.24c1.32-3.9,4.5-6.36,8.04-6.36.6,0,1.02.06,1.5.18v4.98c-.54-.12-1.08-.18-1.8-.18-3.72,0-6.36,2.82-7.08,6.78-.12.72-.24,1.56-.24,2.46v15.48h-5.22v-19.98Z"/><path class="cls-17" d="M1244.58,730.85c1.56,1.02,4.32,2.1,6.96,2.1,3.84,0,5.64-1.92,5.64-4.32,0-2.52-1.5-3.9-5.4-5.34-5.22-1.86-7.68-4.74-7.68-8.22,0-4.68,3.78-8.52,10.02-8.52,2.94,0,5.52.84,7.14,1.8l-1.32,3.84c-1.14-.72-3.24-1.68-5.94-1.68-3.12,0-4.86,1.8-4.86,3.96,0,2.4,1.74,3.48,5.52,4.92,5.04,1.92,7.62,4.44,7.62,8.76,0,5.1-3.96,8.7-10.86,8.7-3.18,0-6.12-.78-8.16-1.98l1.32-4.02Z"/><path class="cls-17" d="M1274.28,720.53h.12c.72-1.02,1.74-2.28,2.58-3.3l8.52-10.02h6.36l-11.22,11.94,12.78,17.1h-6.42l-10.02-13.92-2.7,3v10.92h-5.22v-42.6h5.22v26.88Z"/><path class="cls-17" d="M1300.13,722.69c.12,7.14,4.68,10.08,9.96,10.08,3.78,0,6.06-.66,8.04-1.5l.9,3.78c-1.86.84-5.04,1.8-9.66,1.8-8.94,0-14.28-5.88-14.28-14.64s5.16-15.66,13.62-15.66c9.48,0,12,8.34,12,13.68,0,1.08-.12,1.92-.18,2.46h-20.4ZM1315.61,718.91c.06-3.36-1.38-8.58-7.32-8.58-5.34,0-7.68,4.92-8.1,8.58h15.42Z"/><path class="cls-17" d="M1327.25,693.65h5.28v42.6h-5.28v-42.6Z"/><path class="cls-17" d="M1337.99,743.62c1.32-3.54,2.94-9.96,3.6-14.34l5.88-.6c-1.38,5.1-4.02,11.76-5.7,14.58l-3.78.36Z"/><path class="cls-17" d="M1365.83,730.85c1.56,1.02,4.32,2.1,6.96,2.1,3.84,0,5.64-1.92,5.64-4.32,0-2.52-1.5-3.9-5.4-5.34-5.22-1.86-7.68-4.74-7.68-8.22,0-4.68,3.78-8.52,10.02-8.52,2.94,0,5.52.84,7.14,1.8l-1.32,3.84c-1.14-.72-3.24-1.68-5.94-1.68-3.12,0-4.86,1.8-4.86,3.96,0,2.4,1.74,3.48,5.52,4.92,5.04,1.92,7.62,4.44,7.62,8.76,0,5.1-3.96,8.7-10.86,8.7-3.18,0-6.12-.78-8.16-1.98l1.32-4.02Z"/><path class="cls-17" d="M1406.39,736.25l-.42-3.66h-.18c-1.62,2.28-4.74,4.32-8.88,4.32-5.88,0-8.88-4.14-8.88-8.34,0-7.02,6.24-10.86,17.46-10.8v-.6c0-2.4-.66-6.72-6.6-6.72-2.7,0-5.52.84-7.56,2.16l-1.2-3.48c2.4-1.56,5.88-2.58,9.54-2.58,8.88,0,11.04,6.06,11.04,11.88v10.86c0,2.52.12,4.98.48,6.96h-4.8ZM1405.61,721.43c-5.76-.12-12.3.9-12.3,6.54,0,3.42,2.28,5.04,4.98,5.04,3.78,0,6.18-2.4,7.02-4.86.18-.54.3-1.14.3-1.68v-5.04ZM1394.27,698.57c0-3.18,2.34-5.7,6.12-5.7s5.94,2.46,5.94,5.64-2.58,5.52-6,5.52c-3.6,0-6.06-2.4-6.06-5.46ZM1403.39,698.45c0-1.8-1.2-3.3-3.12-3.3s-2.94,1.56-2.94,3.42c0,1.56,1.2,3.24,2.94,3.24,1.92,0,3.12-1.56,3.12-3.36Z"/><path class="cls-17" d="M1457.03,693.65v35.1c0,2.58.06,5.52.24,7.5h-4.74l-.24-5.04h-.12c-1.62,3.24-5.16,5.7-9.9,5.7-7.02,0-12.42-5.94-12.42-14.76-.06-9.66,5.94-15.6,13.02-15.6,4.44,0,7.44,2.1,8.76,4.44h.12v-17.34h5.28ZM1451.75,719.03c0-.66-.06-1.56-.24-2.22-.78-3.36-3.66-6.12-7.62-6.12-5.46,0-8.7,4.8-8.7,11.22,0,5.88,2.88,10.74,8.58,10.74,3.54,0,6.78-2.34,7.74-6.3.18-.72.24-1.44.24-2.28v-5.04Z"/><path class="cls-17" d="M1490.09,728.33c0,3,.06,5.64.24,7.92h-4.68l-.3-4.74h-.12c-1.38,2.34-4.44,5.4-9.6,5.4-4.56,0-10.02-2.52-10.02-12.72v-16.98h5.28v16.08c0,5.52,1.68,9.24,6.48,9.24,3.54,0,6-2.46,6.96-4.8.3-.78.48-1.74.48-2.7v-17.82h5.28v21.12Z"/><path class="cls-17" d="M970.26,771.05c.06,1.8-1.26,3.24-3.36,3.24-1.86,0-3.18-1.44-3.18-3.24s1.38-3.3,3.3-3.3,3.24,1.44,3.24,3.3ZM964.38,808.25v-29.04h5.28v29.04h-5.28Z"/><path class="cls-17" d="M983.64,792.53h.12c.72-1.02,1.74-2.28,2.58-3.3l8.52-10.02h6.36l-11.22,11.94,12.78,17.1h-6.42l-10.02-13.92-2.7,3v10.92h-5.22v-42.6h5.22v26.88Z"/><path class="cls-17" d="M1011.78,792.53h.12c.72-1.02,1.74-2.28,2.58-3.3l8.52-10.02h6.36l-11.22,11.94,12.78,17.1h-6.42l-10.02-13.92-2.7,3v10.92h-5.22v-42.6h5.22v26.88Z"/><path class="cls-17" d="M1037.64,794.69c.12,7.14,4.68,10.08,9.96,10.08,3.78,0,6.06-.66,8.04-1.5l.9,3.78c-1.86.84-5.04,1.8-9.66,1.8-8.94,0-14.28-5.88-14.28-14.64s5.16-15.66,13.62-15.66c9.48,0,12,8.34,12,13.68,0,1.08-.12,1.92-.18,2.46h-20.4ZM1053.12,790.91c.06-3.36-1.38-8.58-7.32-8.58-5.34,0-7.68,4.92-8.1,8.58h15.42Z"/><path class="cls-17" d="M1076.76,802.85c1.56,1.02,4.32,2.1,6.96,2.1,3.84,0,5.64-1.92,5.64-4.32,0-2.52-1.5-3.9-5.4-5.34-5.22-1.86-7.68-4.74-7.68-8.22,0-4.68,3.78-8.52,10.02-8.52,2.94,0,5.52.84,7.14,1.8l-1.32,3.84c-1.14-.72-3.24-1.68-5.94-1.68-3.12,0-4.86,1.8-4.86,3.96,0,2.4,1.74,3.48,5.52,4.92,5.04,1.92,7.62,4.44,7.62,8.76,0,5.1-3.96,8.7-10.86,8.7-3.18,0-6.12-.78-8.16-1.98l1.32-4.02Z"/><path class="cls-17" d="M1106.46,792.53h.12c.72-1.02,1.74-2.28,2.58-3.3l8.52-10.02h6.36l-11.22,11.94,12.78,17.1h-6.42l-10.02-13.92-2.7,3v10.92h-5.22v-42.6h5.22v26.88Z"/><path class="cls-17" d="M1131.3,779.21l6.36,17.16c.66,1.92,1.38,4.2,1.86,5.94h.12c.54-1.74,1.14-3.96,1.86-6.06l5.76-17.04h5.58l-7.92,20.7c-3.78,9.96-6.36,15.06-9.96,18.18-2.58,2.28-5.16,3.18-6.48,3.42l-1.32-4.44c1.32-.42,3.06-1.26,4.62-2.58,1.44-1.14,3.24-3.18,4.44-5.88.24-.54.42-.96.42-1.26s-.12-.72-.36-1.38l-10.74-26.76h5.76Z"/><path class="cls-17" d="M1182.72,765.65v35.1c0,2.58.06,5.52.24,7.5h-4.74l-.24-5.04h-.12c-1.62,3.24-5.16,5.7-9.9,5.7-7.02,0-12.42-5.94-12.42-14.76-.06-9.66,5.94-15.6,13.02-15.6,4.44,0,7.44,2.1,8.76,4.44h.12v-17.34h5.28ZM1177.44,791.03c0-.66-.06-1.56-.24-2.22-.78-3.36-3.66-6.12-7.62-6.12-5.46,0-8.7,4.8-8.7,11.22,0,5.88,2.88,10.74,8.58,10.74,3.54,0,6.78-2.34,7.74-6.3.18-.72.24-1.44.24-2.28v-5.04Z"/><path class="cls-17" d="M1194.42,794.69c.12,7.14,4.68,10.08,9.96,10.08,3.78,0,6.06-.66,8.04-1.5l.9,3.78c-1.86.84-5.04,1.8-9.66,1.8-8.94,0-14.28-5.88-14.28-14.64s5.16-15.66,13.62-15.66c9.48,0,12,8.34,12,13.68,0,1.08-.12,1.92-.18,2.46h-20.4ZM1209.9,790.91c.06-3.36-1.38-8.58-7.32-8.58-5.34,0-7.68,4.92-8.1,8.58h15.42Z"/><path class="cls-17" d="M1221.54,788.27c0-3.42-.06-6.36-.24-9.06h4.62l.18,5.7h.24c1.32-3.9,4.5-6.36,8.04-6.36.6,0,1.02.06,1.5.18v4.98c-.54-.12-1.08-.18-1.8-.18-3.72,0-6.36,2.82-7.08,6.78-.12.72-.24,1.56-.24,2.46v15.48h-5.22v-19.98Z"/><path class="cls-17" d="M1256.82,794.69c.12,7.14,4.68,10.08,9.96,10.08,3.78,0,6.06-.66,8.04-1.5l.9,3.78c-1.86.84-5.04,1.8-9.66,1.8-8.94,0-14.28-5.88-14.28-14.64s5.16-15.66,13.62-15.66c9.48,0,12,8.34,12,13.68,0,1.08-.12,1.92-.18,2.46h-20.4ZM1272.3,790.91c.06-3.36-1.38-8.58-7.32-8.58-5.34,0-7.68,4.92-8.1,8.58h15.42Z"/><path class="cls-17" d="M1283.94,787.07c0-3-.06-5.46-.24-7.86h4.68l.3,4.8h.12c1.44-2.76,4.8-5.46,9.6-5.46,4.02,0,10.26,2.4,10.26,12.36v17.34h-5.28v-16.74c0-4.68-1.74-8.58-6.72-8.58-3.48,0-6.18,2.46-7.08,5.4-.24.66-.36,1.56-.36,2.46v17.46h-5.28v-21.18Z"/><path class="cls-17" d="M1330.5,808.25v-25.02h-4.08v-4.02h4.08v-1.38c0-4.08.9-7.8,3.36-10.14,1.98-1.92,4.62-2.7,7.08-2.7,1.86,0,3.48.42,4.5.84l-.72,4.08c-.78-.36-1.86-.66-3.36-.66-4.5,0-5.64,3.96-5.64,8.4v1.56h7.02v4.02h-7.02v25.02h-5.22Z"/><path class="cls-17" d="M1347.48,788.27c0-3.42-.06-6.36-.24-9.06h4.62l.18,5.7h.24c1.32-3.9,4.5-6.36,8.04-6.36.6,0,1.02.06,1.5.18v4.98c-.54-.12-1.08-.18-1.8-.18-3.72,0-6.36,2.82-7.08,6.78-.12.72-.24,1.56-.24,2.46v15.48h-5.22v-19.98Z"/><path class="cls-17" d="M1370.04,794.69c.12,7.14,4.68,10.08,9.96,10.08,3.78,0,6.06-.66,8.04-1.5l.9,3.78c-1.86.84-5.04,1.8-9.66,1.8-8.94,0-14.28-5.88-14.28-14.64s5.16-15.66,13.62-15.66c9.48,0,12,8.34,12,13.68,0,1.08-.12,1.92-.18,2.46h-20.4ZM1385.51,790.91c.06-3.36-1.38-8.58-7.32-8.58-5.34,0-7.68,4.92-8.1,8.58h15.42Z"/><path class="cls-17" d="M1422.23,765.65v35.1c0,2.58.06,5.52.24,7.5h-4.74l-.24-5.04h-.12c-1.62,3.24-5.16,5.7-9.9,5.7-7.02,0-12.42-5.94-12.42-14.76-.06-9.66,5.94-15.6,13.02-15.6,4.44,0,7.44,2.1,8.76,4.44h.12v-17.34h5.28ZM1416.95,791.03c0-.66-.06-1.56-.24-2.22-.78-3.36-3.66-6.12-7.62-6.12-5.46,0-8.7,4.8-8.7,11.22,0,5.88,2.88,10.74,8.58,10.74,3.54,0,6.78-2.34,7.74-6.3.18-.72.24-1.44.24-2.28v-5.04Z"/><path class="cls-17" d="M1433.93,794.69c.12,7.14,4.68,10.08,9.96,10.08,3.78,0,6.06-.66,8.04-1.5l.9,3.78c-1.86.84-5.04,1.8-9.66,1.8-8.94,0-14.28-5.88-14.28-14.64s5.16-15.66,13.62-15.66c9.48,0,12,8.34,12,13.68,0,1.08-.12,1.92-.18,2.46h-20.4ZM1449.41,790.91c.06-3.36-1.38-8.58-7.32-8.58-5.34,0-7.68,4.92-8.1,8.58h15.42Z"/><path class="cls-17" d="M1467.41,770.87v8.34h7.56v4.02h-7.56v15.66c0,3.6,1.02,5.64,3.96,5.64,1.38,0,2.4-.18,3.06-.36l.24,3.96c-1.02.42-2.64.72-4.68.72-2.46,0-4.44-.78-5.7-2.22-1.5-1.56-2.04-4.14-2.04-7.56v-15.84h-4.5v-4.02h4.5v-6.96l5.16-1.38Z"/><path class="cls-17" d="M980.46,880.25l-.42-3.66h-.18c-1.62,2.28-4.74,4.32-8.88,4.32-5.88,0-8.88-4.14-8.88-8.34,0-7.02,6.24-10.86,17.46-10.8v-.6c0-2.4-.66-6.72-6.6-6.72-2.7,0-5.52.84-7.56,2.16l-1.2-3.48c2.4-1.56,5.88-2.58,9.54-2.58,8.88,0,11.04,6.06,11.04,11.88v10.86c0,2.52.12,4.98.48,6.96h-4.8ZM979.68,865.43c-5.76-.12-12.3.9-12.3,6.54,0,3.42,2.28,5.04,4.98,5.04,3.78,0,6.18-2.4,7.02-4.86.18-.54.3-1.14.3-1.68v-5.04Z"/><path class="cls-17" d="M993.3,859.07c0-3-.06-5.46-.24-7.86h4.68l.3,4.8h.12c1.44-2.76,4.8-5.46,9.6-5.46,4.02,0,10.26,2.4,10.26,12.36v17.34h-5.28v-16.74c0-4.68-1.74-8.58-6.72-8.58-3.48,0-6.18,2.46-7.08,5.4-.24.66-.36,1.56-.36,2.46v17.46h-5.28v-21.18Z"/><path class="cls-17" d="M1051.68,837.65v35.1c0,2.58.06,5.52.24,7.5h-4.74l-.24-5.04h-.12c-1.62,3.24-5.16,5.7-9.9,5.7-7.02,0-12.42-5.94-12.42-14.76-.06-9.66,5.94-15.6,13.02-15.6,4.44,0,7.44,2.1,8.76,4.44h.12v-17.34h5.28ZM1046.4,863.03c0-.66-.06-1.56-.24-2.22-.78-3.36-3.66-6.12-7.62-6.12-5.46,0-8.7,4.8-8.7,11.22,0,5.88,2.88,10.74,8.58,10.74,3.54,0,6.78-2.34,7.74-6.3.18-.72.24-1.44.24-2.28v-5.04Z"/><path class="cls-17" d="M1059.18,877.12c0-2.22,1.5-3.78,3.6-3.78s3.54,1.56,3.54,3.78-1.38,3.78-3.6,3.78c-2.1,0-3.54-1.62-3.54-3.78Z"/><path class="cls-32" d="M1695.84,233.93c9.93,3.59,19.75,10.68,18.83,13.36-1.07,3.15-16.73-.17-25.4-2.73-3.25-.96-7.58-2.42-11.57-4.04,5.15-2.45,9.1-5.23,10.64-8.05,1.08.2,2.2.43,3.38.66,1.51.31,2.84.58,4.13.79Z"/><path class="cls-43" d="M1714.37,228.77c.63,2.21-7.93,5.39-12.73,5.55-2.15.07-3.93-.09-5.79-.39-.17-.06-.35-.13-.53-.19-2.21-.77-4.47-1.38-6.7-1.84.43-.99.55-1.98.3-2.97-.38-1.55-1.63-3-3.56-4.37,1.5-.06,3.05-.09,4.64-.09,9.5,0,23.54,1.42,24.36,4.29Z"/><path class="cls-27" d="M1707.33,212.41c1.35,1.65-2.77,5.25-6.25,7.16-3.65,2-7.21,2.46-11.29,2.99-2.33.31-4.42.58-6.31.82-2.68-1.53-6.21-2.93-10.22-4.2,3.09-1.5,7.05-3.04,11.49-4.4,8.66-2.65,20.71-4.65,22.58-2.36Z"/><path class="cls-28" d="M1695.32,233.74c.18.06.36.13.53.19-1.29-.21-2.61-.48-4.13-.79-1.18-.24-2.3-.46-3.38-.66.11-.19.2-.39.28-.58,2.23.46,4.49,1.07,6.7,1.84Z"/><path class="cls-33" d="M1688.92,228.93c.24.99.12,1.98-.3,2.97-3.97-.82-7.86-1.2-11.22-1.21-.01,0-.02,0-.02,0-6.92-.95-9.9-1.04-10.03-1.93-.3-2.08,7.45-3.81,18.02-4.2,1.92,1.37,3.18,2.82,3.56,4.37Z"/><path class="cls-26" d="M1688.62,231.9c-.08.19-.17.39-.28.58-4.41-.83-8.03-1.38-10.94-1.79,3.37.01,7.26.39,11.22,1.21Z"/><path class="cls-46" d="M1683.48,223.37c.68.39,1.31.78,1.88,1.19-10.57.4-18.32,2.12-18.02,4.2.13.88,3.11.97,10.03,1.93-6.03-.03-10.42,1.06-10.68,2.7-.3,1.92,4.98,4.7,11.01,7.13-11.16,5.32-27.98,9.12-38.19,8.59-.78-.04-3.19-.2-10.36-.61-13.49-.78-20.04-1.11-21.7-1.22-1.23-.08-16.51-4.09-27.93-8.98,7.53-2.59,12.29-6.32,12.2-10.27-.1-4.05-5.31-7.43-13.27-9.34,7.58-3.42,17.49-6.03,25.21-7.24,6.08-.96,12.87-1.34,23.21-.52,11.96.95,32.26,3.76,46.4,8.23-4.77,2.31-7.48,4.52-6.69,5.86.36.59,1.67.36,16.91-1.65Z"/><path class="cls-55" d="M1688.34,232.48c-1.53,2.82-5.48,5.6-10.64,8.05-6.03-2.43-11.31-5.21-11.01-7.13.26-1.64,4.64-2.74,10.68-2.7,0,0,.01,0,.02,0,2.92.4,6.54.96,10.94,1.79Z"/><path class="cls-40" d="M1673.26,219.17c4.01,1.27,7.54,2.67,10.22,4.2-15.23,2.01-16.55,2.25-16.91,1.65-.79-1.34,1.92-3.55,6.69-5.86Z"/><path class="cls-46" d="M1591.72,228.04c.09,3.95-4.67,7.68-12.2,10.27-7.07-3.03-12.65-6.39-12.52-9.37.17-3.76,4.95-7.3,11.45-10.23,7.96,1.91,13.18,5.29,13.27,9.34Z"/><path class="cls-46" d="M1578.44,218.7c-6.5,2.93-11.28,6.47-11.45,10.23-.14,2.98,5.45,6.34,12.52,9.37-5.67,1.95-12.9,3.25-20.81,3.51-10.55.35-19.74-1.24-25.52-3.98,16.02-.93,28.26-4.6,28.65-8.91.18-1.94-2.09-3.72-6.07-5.17.38-.39.62-.84.67-1.3.17-1.63-2.03-2.94-4.92-2.94-2.27,0-4.31.81-5.17,1.95-2.3-.37-4.79-.67-7.43-.89,5.77-1.99,13.13-3.32,21.02-3.56,6.9-.22,13.29.42,18.51,1.67Z"/><path class="cls-46" d="M1555.77,223.76c3.98,1.45,6.25,3.23,6.07,5.17-.39,4.31-12.63,7.98-28.65,8.91-4.33-2.04-6.75-4.73-6.38-7.72.45-3.71,5.11-7.12,12.1-9.54,2.64.22,5.14.52,7.43.89-.24.31-.39.64-.43.99-.21,1.64,1.98,2.98,4.91,2.98,2.1,0,3.98-.69,4.94-1.68Z"/><path class="cls-45" d="M1551.51,219.52c2.89,0,5.08,1.31,4.92,2.94-.05.46-.29.91-.67,1.3-.78-.28-1.63-.55-2.53-.81.07-.12.11-.25.12-.37.1-.9-1.11-1.63-2.7-1.63-1.07,0-2.05.33-2.61.82-.55-.1-1.12-.2-1.7-.29.86-1.14,2.9-1.95,5.17-1.95Z"/><path class="cls-45" d="M1555.77,223.76c-.96,1-2.84,1.68-4.94,1.68-2.93,0-5.12-1.34-4.91-2.98.05-.35.2-.68.43-.99.58.09,1.15.19,1.7.29-.27.24-.45.52-.49.81-.11.91,1.09,1.65,2.7,1.65,1.38,0,2.6-.54,2.98-1.27.9.25,1.75.52,2.53.81Z"/><path class="cls-37" d="M1550.65,220.95c1.59,0,2.8.73,2.7,1.63-.01.13-.05.25-.12.37-1.56-.44-3.3-.84-5.19-1.19.56-.49,1.53-.82,2.61-.82Z"/><path class="cls-37" d="M1553.24,222.95c-.38.73-1.59,1.27-2.98,1.27-1.61,0-2.81-.74-2.7-1.65.04-.29.21-.58.49-.81,1.89.35,3.63.75,5.19,1.19Z"/><path class="cls-24" d="M1538.91,220.58c-6.99,2.42-11.65,5.83-12.1,9.54-.37,2.99,2.05,5.68,6.38,7.72-2.58.15-5.24.23-7.98.23-19.77,0-34.77-4.13-33.53-9.14,1.22-4.89,17.58-8.78,36.57-8.78,3.74,0,7.32.15,10.66.43Z"/><path class="cls-13" d="M1538.91,220.58c5.77-1.99,13.13-3.32,21.02-3.56,6.9-.22,13.29.42,18.51,1.67"/><path class="cls-13" d="M1579.51,238.31c-5.67,1.95-12.9,3.25-20.81,3.51-10.55.35-19.74-1.24-25.52-3.98"/><path class="cls-13" d="M1533.19,237.84c-2.58.15-5.24.23-7.98.23-19.77,0-34.77-4.13-33.53-9.14,1.22-4.89,17.58-8.78,36.57-8.78,3.74,0,7.32.15,10.66.43"/><line class="cls-11" x1="1493.31" y1="227.24" x2="1521.02" y2="227.24"/><path class="cls-7" d="M1546.35,221.48c.86-1.14,2.9-1.95,5.17-1.95,2.89,0,5.08,1.31,4.92,2.94-.05.46-.29.91-.67,1.3-.96,1-2.84,1.68-4.94,1.68-2.93,0-5.12-1.34-4.91-2.98.05-.35.2-.68.43-.99Z"/><path class="cls-9" d="M1548.05,221.77c.56-.49,1.53-.82,2.61-.82,1.59,0,2.8.73,2.7,1.63-.01.13-.05.25-.12.37-.38.73-1.59,1.27-2.98,1.27-1.61,0-2.81-.74-2.7-1.65.04-.29.21-.58.49-.81Z"/><path class="cls-3" d="M1683.48,223.37c.68.39,1.31.78,1.88,1.19"/><path class="cls-3" d="M1578.44,218.7c7.58-3.42,17.49-6.03,25.21-7.24,6.08-.96,12.87-1.34,23.21-.52,11.96.95,32.26,3.76,46.4,8.23"/><path class="cls-3" d="M1688.62,231.9c-.08.19-.17.39-.28.58-1.53,2.82-5.48,5.6-10.64,8.05-11.16,5.32-27.98,9.12-38.19,8.59-.78-.04-3.19-.2-10.36-.61-13.49-.78-20.04-1.11-21.7-1.22-1.23-.08-16.51-4.09-27.93-8.98"/><path class="cls-3" d="M1673.26,219.17c3.09-1.5,7.05-3.04,11.49-4.4,8.66-2.65,20.71-4.65,22.58-2.36,1.35,1.65-2.77,5.25-6.25,7.16-3.65,2-7.21,2.46-11.29,2.99-2.33.31-4.42.58-6.31.82"/><path class="cls-4" d="M1649.3,213.42c30.18-1.67-1.47-11.56-1.47-11.56,12.46-2.46-1.53-12.45-1.53-12.45,7.2-.45-2.05-9.55-2.05-9.55,4.14-.89-6.8-8.25-6.8-8.25l-5.52,5.61c-.28,13.11-12.96,23.17-12.96,23.17-6.81,9.53-25.95,13.87-25.95,13.87"/><path class="cls-5" d="M1614.6,233.04s-21.43,12.3-19.56,29.28c2.01,18.27-.91,71.53,10.27,37.46,0,0,40-20.3,7.7-26.88,0,0,50.86-18.73,8.53-13.67,0,0,40.76-12.25,15.18-21.15,0,0,.99-3.31-2.99-5.04"/><path class="cls-17" d="M1174.2,433.2h1.04v7.21h3.45v.88h-4.5v-8.08Z"/><path class="cls-16" d="M1281.84,190.93c9.93,3.59,19.76,10.68,18.84,13.36-1.08,3.15-16.73-.17-25.4-2.73-2.96-.88-6.81-2.16-10.49-3.61,5.38-2.46,9.58-5.26,11.35-8.12.52.1,1.04.2,1.57.31,1.51.31,2.84.58,4.13.79Z"/><path class="cls-29" d="M1300.37,185.77c.63,2.21-7.93,5.39-12.73,5.55-2.15.07-3.93-.09-5.8-.39-.17-.06-.35-.13-.53-.19-1.61-.56-3.25-1.04-4.88-1.43.58-1.12.77-2.26.49-3.38-.39-1.57-1.67-3.05-3.65-4.43.9-.02,1.81-.03,2.73-.03,9.5,0,23.53,1.42,24.36,4.29Z"/><path class="cls-38" d="M1293.33,169.41c1.34,1.65-2.78,5.25-6.25,7.16-3.65,2-7.2,2.46-11.29,2.99-1.68.22-3.23.42-4.67.61-2.92-1.6-6.73-3.06-11.06-4.36,2.97-1.38,6.64-2.78,10.71-4.02,8.66-2.65,20.71-4.65,22.58-2.36Z"/><path class="cls-31" d="M1281.31,190.74c.18.06.36.13.53.19-1.29-.21-2.61-.48-4.13-.79-.53-.11-1.06-.21-1.57-.31.11-.17.21-.35.29-.52,1.63.39,3.27.87,4.88,1.43Z"/><path class="cls-23" d="M1276.92,185.93c.27,1.12.09,2.25-.49,3.38-4.59-1.11-9.16-1.6-13.04-1.62-.01,0-.02,0-.02,0-6.92-.95-9.89-1.04-10.02-1.93-.32-2.2,8.4-4.01,19.93-4.26,1.97,1.38,3.26,2.85,3.65,4.43Z"/><path class="cls-36" d="M1276.43,189.31c-.08.17-.18.35-.29.52-5.23-1.03-9.44-1.68-12.75-2.14,3.88.02,8.45.51,13.04,1.62Z"/><path class="cls-46" d="M1271.11,180.16c.79.44,1.51.88,2.17,1.34-11.54.25-20.26,2.06-19.93,4.26.13.88,3.1.97,10.02,1.93-6.03-.03-10.42,1.06-10.68,2.7-.32,2.04,5.63,5.03,12.1,7.56-11.15,5.1-27.34,8.68-37.29,8.16-.78-.04-3.19-.2-10.36-.61-13.49-.78-20.04-1.11-21.7-1.22-1.26-.08-17.33-4.31-28.83-9.37,6.89-2.57,11.19-6.12,11.1-9.88-.09-3.83-4.76-7.05-11.98-9.01,7.65-3.58,17.96-6.32,25.93-7.57,6.08-.96,12.87-1.34,23.2-.52,11.63.92,31.12,3.61,45.18,7.86-5.25,2.44-8.3,4.83-7.47,6.23.37.62,1.76.34,18.53-1.87Z"/><path class="cls-53" d="M1276.14,189.83c-1.76,2.87-5.97,5.67-11.35,8.12-6.47-2.53-12.42-5.52-12.1-7.56.26-1.64,4.64-2.74,10.68-2.7,0,0,.01,0,.02,0,3.31.46,7.52,1.11,12.75,2.14Z"/><path class="cls-47" d="M1260.05,175.8c4.33,1.31,8.15,2.77,11.06,4.36-16.77,2.21-18.17,2.49-18.53,1.87-.83-1.41,2.22-3.79,7.47-6.23Z"/><path class="cls-46" d="M1177.72,185.04c.09,3.75-4.21,7.31-11.1,9.88-6.64-2.92-11.75-6.13-11.62-8.98.17-3.62,4.6-7.04,10.74-9.91,7.23,1.96,11.89,5.18,11.98,9.01Z"/><path class="cls-46" d="M1165.73,176.03c-6.14,2.87-10.58,6.28-10.74,9.91-.13,2.85,4.98,6.06,11.62,8.98-5.81,2.17-13.48,3.63-21.91,3.9-10.55.35-19.74-1.24-25.52-3.98,16.03-.93,28.26-4.6,28.66-8.91.18-1.94-2.09-3.73-6.08-5.17.38-.39.62-.84.67-1.3.17-1.63-2.02-2.94-4.91-2.94-2.27,0-4.31.81-5.18,1.95-2.3-.37-4.79-.67-7.43-.89,5.77-1.99,13.13-3.31,21.03-3.56,7.48-.24,14.36.52,19.8,2Z"/><path class="cls-46" d="M1141.76,180.76c3.99,1.44,6.26,3.23,6.08,5.17-.4,4.31-12.63,7.98-28.66,8.91-4.33-2.04-6.74-4.73-6.38-7.71.45-3.71,5.11-7.12,12.1-9.54,2.64.22,5.14.52,7.43.89-.23.31-.37.64-.42.99-.21,1.64,1.98,2.98,4.91,2.98,2.1,0,3.98-.69,4.94-1.68Z"/><path class="cls-45" d="M1137.52,176.52c2.89,0,5.08,1.31,4.91,2.94-.05.46-.29.91-.67,1.3-.78-.28-1.62-.55-2.52-.8.07-.12.1-.25.12-.37.1-.91-1.11-1.64-2.71-1.64-1.07,0-2.05.33-2.61.82-.55-.1-1.12-.2-1.7-.29.87-1.14,2.9-1.95,5.18-1.95Z"/><path class="cls-45" d="M1141.76,180.76c-.96,1-2.84,1.68-4.94,1.68-2.92,0-5.12-1.34-4.91-2.98.05-.35.2-.68.42-.99.58.09,1.15.19,1.7.29-.27.24-.45.51-.49.81-.11.91,1.1,1.64,2.71,1.64,1.38,0,2.6-.54,2.98-1.27.9.25,1.75.52,2.52.8Z"/><path class="cls-37" d="M1136.65,177.95c1.6,0,2.81.73,2.71,1.64-.02.13-.05.25-.12.37-1.56-.44-3.3-.84-5.2-1.19.56-.5,1.54-.82,2.61-.82Z"/><path class="cls-37" d="M1139.24,179.96c-.38.73-1.59,1.27-2.98,1.27-1.61,0-2.82-.74-2.71-1.64.04-.3.21-.58.49-.81,1.89.35,3.63.74,5.2,1.19Z"/><path class="cls-24" d="M1124.9,177.58c-6.99,2.42-11.64,5.83-12.1,9.54-.36,2.99,2.05,5.67,6.38,7.71-2.57.15-5.24.23-7.98.23-19.77,0-34.77-4.13-33.52-9.14,1.21-4.89,17.58-8.78,36.57-8.78,3.73,0,7.31.15,10.65.43Z"/><path class="cls-13" d="M1124.9,177.58c5.77-1.99,13.13-3.31,21.03-3.56,7.48-.24,14.36.52,19.8,2"/><path class="cls-13" d="M1166.61,194.92c-5.81,2.17-13.48,3.63-21.91,3.9-10.55.35-19.74-1.24-25.52-3.98"/><path class="cls-13" d="M1119.18,194.84c-2.57.15-5.24.23-7.98.23-19.77,0-34.77-4.13-33.52-9.14,1.21-4.89,17.58-8.78,36.57-8.78,3.73,0,7.31.15,10.65.43"/><line class="cls-11" x1="1079.3" y1="184.24" x2="1107.02" y2="184.24"/><path class="cls-7" d="M1132.34,178.48c.87-1.14,2.9-1.95,5.18-1.95,2.89,0,5.08,1.31,4.91,2.94-.05.46-.29.91-.67,1.3-.96,1-2.84,1.68-4.94,1.68-2.92,0-5.12-1.34-4.91-2.98.05-.35.2-.68.42-.99Z"/><path class="cls-9" d="M1134.04,178.77c.56-.5,1.54-.82,2.61-.82,1.6,0,2.81.73,2.71,1.64-.02.13-.05.25-.12.37-.38.73-1.59,1.27-2.98,1.27-1.61,0-2.82-.74-2.71-1.64.04-.3.21-.58.49-.81Z"/><path class="cls-3" d="M1271.11,180.16c.79.44,1.51.88,2.17,1.34"/><path class="cls-3" d="M1165.73,176.03c7.65-3.58,17.96-6.32,25.93-7.57,6.08-.96,12.87-1.34,23.2-.52,11.63.92,31.12,3.61,45.18,7.86"/><path class="cls-3" d="M1276.43,189.31c-.08.17-.18.35-.29.52-1.76,2.87-5.97,5.67-11.35,8.12-11.15,5.1-27.34,8.68-37.29,8.16-.78-.04-3.19-.2-10.36-.61-13.49-.78-20.04-1.11-21.7-1.22-1.26-.08-17.33-4.31-28.83-9.37"/><path class="cls-3" d="M1260.05,175.8c2.97-1.38,6.64-2.78,10.71-4.02,8.66-2.65,20.71-4.65,22.58-2.36,1.34,1.65-2.78,5.25-6.25,7.16-3.65,2-7.2,2.46-11.29,2.99-1.68.22-3.23.42-4.67.61"/><path class="cls-4" d="M1235.3,170.42c19.31-1.07,13.31-5.51,6.48-8.56-2.3-1.03-3.75-3.6-2.93-5.98.63-1.84-.84-4.08-2.54-5.93-1.24-1.34-1.9-3.22-1.35-4.96.51-1.59-1.25-4.17-2.76-5.99-.71-.86-.94-1.95-1.01-3.06-.07-1.17-2.23-3.16-4.25-4.77-1.91-1.52-4.67-1.36-6.38.38l-1.38,1.4c-.76.77-1.24,1.77-1.34,2.84-1.06,11.02-10.49,19.58-12.49,21.28-.26.22-.48.47-.69.74-7.06,9.23-25.64,13.44-25.64,13.44"/><path class="cls-5" d="M1200.6,190.04s-21.43,12.3-19.56,29.28c1.97,17.94-.8,69.6,9.67,39.24.39-1.13,1.18-2.07,2.22-2.64,5.92-3.26,25.53-14.96,16.19-22.18-2.94-2.27-2.48-6.79.93-8.26,7.62-3.27,16.03-7.46,14.01-9.24-2.31-2.03-1.55-5.88,1.07-7.49,6.2-3.81,9.58-8.5.25-12.63-1.31-.58-2.31-1.7-2.7-3.07-.29-1.01-1.06-2.18-2.94-3"/></g></svg>