<?xml version="1.0" encoding="UTF-8"?><svg xmlns="http://www.w3.org/2000/svg" width="1920" height="1080" xmlns:xlink="http://www.w3.org/1999/xlink" viewBox="0 0 1920 1080"><defs><style>.cls-1,.cls-2,.cls-3,.cls-4,.cls-5,.cls-6,.cls-7{stroke-linecap:round;}.cls-1,.cls-2,.cls-3,.cls-8,.cls-5,.cls-7{stroke-miterlimit:10;}.cls-1,.cls-3,.cls-4,.cls-8,.cls-6{stroke:#000;}.cls-1,.cls-4,.cls-9{fill:#c3c8c9;}.cls-10{fill:url(#radial-gradient-16);}.cls-10,.cls-11,.cls-12,.cls-13,.cls-14,.cls-9,.cls-15,.cls-16,.cls-17,.cls-18,.cls-19,.cls-20,.cls-21,.cls-22,.cls-23,.cls-24,.cls-25,.cls-26,.cls-27,.cls-28,.cls-29,.cls-30{stroke-width:0px;}.cls-2{stroke:#5585ff;}.cls-2,.cls-3,.cls-8,.cls-5,.cls-6,.cls-7{fill:none;}.cls-11{fill:#000;}.cls-12{fill:url(#radial-gradient-8);}.cls-4,.cls-6{stroke-linejoin:round;stroke-width:.5px;}.cls-13{fill:url(#radial-gradient-13);}.cls-14{fill:url(#radial-gradient-12);}.cls-15{fill:#e2a064;}.cls-16{fill:#e6e7e8;}.cls-17{fill:#e90006;}.cls-18{fill:#fffe3f;}.cls-19{fill:url(#radial-gradient-2);}.cls-20{fill:url(#radial-gradient-7);}.cls-21{fill:url(#radial-gradient-5);}.cls-22{fill:url(#radial-gradient);}.cls-5{stroke:#231f20;}.cls-23{fill:url(#radial-gradient-14);}.cls-24{fill:url(#radial-gradient-10);}.cls-25{fill:url(#radial-gradient-6);}.cls-26{fill:url(#radial-gradient-15);}.cls-27{fill:url(#radial-gradient-9);}.cls-28{fill:url(#radial-gradient-3);}.cls-29{fill:url(#radial-gradient-11);}.cls-7{stroke:#00097c;}.cls-30{fill:url(#radial-gradient-4);}</style><radialGradient id="radial-gradient" cx="1430.09" cy="259.07" fx="1430.09" fy="259.07" r="9.8" gradientUnits="userSpaceOnUse"><stop offset="0" stop-color="#fff"/><stop offset="0" stop-color="#fff"/><stop offset=".1" stop-color="#fd5a29"/><stop offset=".53" stop-color="#7a2b02"/><stop offset=".67" stop-color="#752900"/><stop offset=".89" stop-color="#742900"/></radialGradient><radialGradient id="radial-gradient-2" cx="1422.65" cy="245.17" fx="1422.65" fy="245.17" r="13.18" gradientUnits="userSpaceOnUse"><stop offset="0" stop-color="#fff"/><stop offset="0" stop-color="#fff"/><stop offset=".03" stop-color="#fd5a29"/><stop offset=".64" stop-color="#742900"/><stop offset=".65" stop-color="#742900"/><stop offset=".76" stop-color="#742900"/></radialGradient><radialGradient id="radial-gradient-3" cx="1422.67" cy="271.25" fx="1422.67" fy="271.25" r="12.95" gradientUnits="userSpaceOnUse"><stop offset="0" stop-color="#fff"/><stop offset="0" stop-color="#fff"/><stop offset=".1" stop-color="#ef5525"/><stop offset=".53" stop-color="#fd5a29"/><stop offset=".62" stop-color="#742900"/><stop offset=".65" stop-color="#742900"/><stop offset=".96" stop-color="#742900"/></radialGradient><radialGradient id="radial-gradient-4" cx="1421.19" cy="263.23" fx="1421.19" fy="263.23" r="1.96" xlink:href="#radial-gradient-3"/><radialGradient id="radial-gradient-5" cx="1408.65" cy="257.98" fx="1408.65" fy="257.98" r="8.64" xlink:href="#radial-gradient"/><radialGradient id="radial-gradient-6" cx="1412.76" cy="261.73" fx="1412.76" fy="261.73" r="4.45" xlink:href="#radial-gradient-3"/><radialGradient id="radial-gradient-7" cx="1407.25" cy="266.1" fx="1407.25" fy="266.1" r="8.92" xlink:href="#radial-gradient-3"/><radialGradient id="radial-gradient-8" cx="1406.21" cy="250.78" fx="1406.21" fy="250.78" r="7.08" xlink:href="#radial-gradient-2"/><radialGradient id="radial-gradient-9" cx="1659.09" cy="569.07" fx="1659.09" fy="569.07" r="9.8" xlink:href="#radial-gradient"/><radialGradient id="radial-gradient-10" cx="1651.65" cy="555.17" fx="1651.65" fy="555.17" r="13.18" xlink:href="#radial-gradient-2"/><radialGradient id="radial-gradient-11" cx="1651.67" cy="581.25" fx="1651.67" fy="581.25" r="12.95" gradientUnits="userSpaceOnUse"><stop offset="0" stop-color="#fff"/><stop offset="0" stop-color="#fff"/><stop offset=".1" stop-color="#fd5a29"/><stop offset=".53" stop-color="#7a2b02"/><stop offset=".92" stop-color="#742900"/></radialGradient><radialGradient id="radial-gradient-12" cx="1650.19" cy="573.23" fx="1650.19" fy="573.23" r="1.96" xlink:href="#radial-gradient"/><radialGradient id="radial-gradient-13" cx="1637.65" cy="567.98" fx="1637.65" fy="567.98" r="8.64" xlink:href="#radial-gradient"/><radialGradient id="radial-gradient-14" cx="1641.76" cy="571.73" fx="1641.76" fy="571.73" r="4.45" xlink:href="#radial-gradient"/><radialGradient id="radial-gradient-15" cx="1636.25" cy="576.1" fx="1636.25" fy="576.1" r="8.92" xlink:href="#radial-gradient-11"/><radialGradient id="radial-gradient-16" cx="1635.21" cy="560.78" fx="1635.21" fy="560.78" r="7.08" xlink:href="#radial-gradient-2"/></defs><g id="Layer_1"><rect class="cls-15" x=".5" y="3.5" width="1919" height="1076"/><path class="cls-11" d="M1919,4v1075H1V4h1918M1920,3H0v1077h1920V3h0Z"/></g><g id="Layer_2"><path class="cls-11" d="M160.32,73.44c2.64-.54,6.42-.84,10.02-.84,5.58,0,9.18,1.02,11.7,3.3,2.04,1.8,3.18,4.56,3.18,7.68,0,5.34-3.36,8.88-7.62,10.32v.18c3.12,1.08,4.98,3.96,5.94,8.16,1.32,5.64,2.28,9.54,3.12,11.1h-5.4c-.66-1.14-1.56-4.62-2.7-9.66-1.2-5.58-3.36-7.68-8.1-7.86h-4.92v17.52h-5.22v-39.9ZM165.54,91.85h5.34c5.58,0,9.12-3.06,9.12-7.68,0-5.22-3.78-7.5-9.3-7.56-2.52,0-4.32.24-5.16.48v14.76Z"/><path class="cls-11" d="M195.36,99.77c.12,7.14,4.68,10.08,9.96,10.08,3.78,0,6.06-.66,8.04-1.5l.9,3.78c-1.86.84-5.04,1.8-9.66,1.8-8.94,0-14.28-5.88-14.28-14.64s5.16-15.66,13.62-15.66c9.48,0,12,8.34,12,13.68,0,1.08-.12,1.92-.18,2.46h-20.4ZM210.84,95.99c.06-3.36-1.38-8.58-7.32-8.58-5.34,0-7.68,4.92-8.1,8.58h15.42Z"/><path class="cls-11" d="M247.5,84.29c-.12,2.1-.24,4.44-.24,7.98v16.86c0,6.66-1.32,10.74-4.14,13.26-2.82,2.64-6.9,3.48-10.56,3.48s-7.32-.84-9.66-2.4l1.32-4.02c1.92,1.2,4.92,2.28,8.52,2.28,5.4,0,9.36-2.82,9.36-10.14v-3.24h-.12c-1.62,2.7-4.74,4.86-9.24,4.86-7.2,0-12.36-6.12-12.36-14.16,0-9.84,6.42-15.42,13.08-15.42,5.04,0,7.8,2.64,9.06,5.04h.12l.24-4.38h4.62ZM242.04,95.75c0-.9-.06-1.68-.3-2.4-.96-3.06-3.54-5.58-7.38-5.58-5.04,0-8.64,4.26-8.64,10.98,0,5.7,2.88,10.44,8.58,10.44,3.24,0,6.18-2.04,7.32-5.4.3-.9.42-1.92.42-2.82v-5.22Z"/><path class="cls-11" d="M256.02,70.74h5.28v42.6h-5.28v-42.6Z"/><path class="cls-11" d="M273.12,99.77c.12,7.14,4.68,10.08,9.96,10.08,3.78,0,6.06-.66,8.04-1.5l.9,3.78c-1.86.84-5.04,1.8-9.66,1.8-8.94,0-14.28-5.88-14.28-14.64s5.16-15.66,13.62-15.66c9.48,0,12,8.34,12,13.68,0,1.08-.12,1.92-.18,2.46h-20.4ZM288.6,95.99c.06-3.36-1.38-8.58-7.32-8.58-5.34,0-7.68,4.92-8.1,8.58h15.42Z"/><path class="cls-11" d="M300.24,93.35c0-3.42-.06-6.36-.24-9.06h4.62l.18,5.7h.24c1.32-3.9,4.5-6.36,8.04-6.36.6,0,1.02.06,1.5.18v4.98c-.54-.12-1.08-.18-1.8-.18-3.72,0-6.36,2.82-7.08,6.78-.12.72-.24,1.56-.24,2.46v15.48h-5.22v-19.98Z"/><path class="cls-11" d="M318.6,89.09c0-2.22,1.5-3.78,3.6-3.78s3.48,1.56,3.54,3.78c0,2.1-1.38,3.72-3.6,3.72-2.1,0-3.54-1.62-3.54-3.72ZM318.6,110.27c0-2.22,1.5-3.78,3.6-3.78s3.48,1.56,3.54,3.78c0,2.1-1.38,3.72-3.6,3.72-2.1,0-3.54-1.62-3.54-3.72Z"/><path class="cls-11" d="M159.6,250.97c2.34,1.44,5.76,2.64,9.36,2.64,5.34,0,8.46-2.82,8.46-6.9,0-3.78-2.16-5.94-7.62-8.04-6.6-2.34-10.68-5.76-10.68-11.46,0-6.3,5.22-10.98,13.08-10.98,4.14,0,7.14.96,8.94,1.98l-1.44,4.26c-1.32-.72-4.02-1.92-7.68-1.92-5.52,0-7.62,3.3-7.62,6.06,0,3.78,2.46,5.64,8.04,7.8,6.84,2.64,10.32,5.94,10.32,11.88,0,6.24-4.62,11.64-14.16,11.64-3.9,0-8.16-1.14-10.32-2.58l1.32-4.38Z"/><path class="cls-11" d="M194.94,241.61h.12c.72-1.02,1.74-2.28,2.58-3.3l8.52-10.02h6.36l-11.22,11.94,12.78,17.1h-6.42l-10.02-13.92-2.7,3v10.92h-5.22v-42.6h5.22v26.88Z"/><path class="cls-11" d="M219.78,228.29l6.36,17.16c.66,1.92,1.38,4.2,1.86,5.94h.12c.54-1.74,1.14-3.96,1.86-6.06l5.76-17.04h5.58l-7.92,20.7c-3.78,9.96-6.36,15.06-9.96,18.18-2.58,2.28-5.16,3.18-6.48,3.42l-1.32-4.44c1.32-.42,3.06-1.26,4.62-2.58,1.44-1.14,3.24-3.18,4.44-5.88.24-.54.42-.96.42-1.26s-.12-.72-.36-1.38l-10.74-26.76h5.76Z"/><path class="cls-11" d="M271.2,214.74v35.1c0,2.58.06,5.52.24,7.5h-4.74l-.24-5.04h-.12c-1.62,3.24-5.16,5.7-9.9,5.7-7.02,0-12.42-5.94-12.42-14.76-.06-9.66,5.94-15.6,13.02-15.6,4.44,0,7.44,2.1,8.76,4.44h.12v-17.34h5.28ZM265.92,240.11c0-.66-.06-1.56-.24-2.22-.78-3.36-3.66-6.12-7.62-6.12-5.46,0-8.7,4.8-8.7,11.22,0,5.88,2.88,10.74,8.58,10.74,3.54,0,6.78-2.34,7.74-6.3.18-.72.24-1.44.24-2.28v-5.04Z"/><path class="cls-11" d="M291.96,251.93c1.56,1.02,4.32,2.1,6.96,2.1,3.84,0,5.64-1.92,5.64-4.32,0-2.52-1.5-3.9-5.4-5.34-5.22-1.86-7.68-4.74-7.68-8.22,0-4.68,3.78-8.52,10.02-8.52,2.94,0,5.52.84,7.14,1.8l-1.32,3.84c-1.14-.72-3.24-1.68-5.94-1.68-3.12,0-4.86,1.8-4.86,3.96,0,2.4,1.74,3.48,5.52,4.92,5.04,1.92,7.62,4.44,7.62,8.76,0,5.1-3.96,8.7-10.86,8.7-3.18,0-6.12-.78-8.16-1.98l1.32-4.02Z"/><path class="cls-11" d="M332.52,257.33l-.42-3.66h-.18c-1.62,2.28-4.74,4.32-8.88,4.32-5.88,0-8.88-4.14-8.88-8.34,0-7.02,6.24-10.86,17.46-10.8v-.6c0-2.4-.66-6.72-6.6-6.72-2.7,0-5.52.84-7.56,2.16l-1.2-3.48c2.4-1.56,5.88-2.58,9.54-2.58,8.88,0,11.04,6.06,11.04,11.88v10.86c0,2.52.12,4.98.48,6.96h-4.8ZM331.74,242.51c-5.76-.12-12.3.9-12.3,6.54,0,3.42,2.28,5.04,4.98,5.04,3.78,0,6.18-2.4,7.02-4.86.18-.54.3-1.14.3-1.68v-5.04ZM320.4,219.66c0-3.18,2.34-5.7,6.12-5.7s5.94,2.46,5.94,5.64-2.58,5.52-6,5.52c-3.6,0-6.06-2.4-6.06-5.46ZM329.52,219.54c0-1.8-1.2-3.3-3.12-3.3s-2.94,1.56-2.94,3.42c0,1.56,1.2,3.24,2.94,3.24,1.92,0,3.12-1.56,3.12-3.36Z"/><path class="cls-11" d="M358.08,236.15c0-3-.06-5.46-.24-7.86h4.62l.24,4.68h.18c1.62-2.76,4.32-5.34,9.12-5.34,3.96,0,6.96,2.4,8.22,5.82h.12c.9-1.62,2.04-2.88,3.24-3.78,1.74-1.32,3.66-2.04,6.42-2.04,3.84,0,9.54,2.52,9.54,12.6v17.1h-5.16v-16.44c0-5.58-2.04-8.94-6.3-8.94-3,0-5.34,2.22-6.24,4.8-.24.72-.42,1.68-.42,2.64v17.94h-5.16v-17.4c0-4.62-2.04-7.98-6.06-7.98-3.3,0-5.7,2.64-6.54,5.28-.3.78-.42,1.68-.42,2.58v17.52h-5.16v-21.18Z"/><path class="cls-11" d="M424.19,257.33l-.42-3.66h-.18c-1.62,2.28-4.74,4.32-8.88,4.32-5.88,0-8.88-4.14-8.88-8.34,0-7.02,6.24-10.86,17.46-10.8v-.6c0-2.4-.66-6.72-6.6-6.72-2.7,0-5.52.84-7.56,2.16l-1.2-3.48c2.4-1.56,5.88-2.58,9.54-2.58,8.88,0,11.04,6.06,11.04,11.88v10.86c0,2.52.12,4.98.48,6.96h-4.8ZM423.42,242.51c-5.76-.12-12.3.9-12.3,6.54,0,3.42,2.28,5.04,4.98,5.04,3.78,0,6.18-2.4,7.02-4.86.18-.54.3-1.14.3-1.68v-5.04Z"/><path class="cls-11" d="M437.04,236.15c0-3-.06-5.46-.24-7.86h4.68l.3,4.8h.12c1.44-2.76,4.8-5.46,9.6-5.46,4.02,0,10.26,2.4,10.26,12.36v17.34h-5.28v-16.74c0-4.68-1.74-8.58-6.72-8.58-3.48,0-6.18,2.46-7.08,5.4-.24.66-.36,1.56-.36,2.46v17.46h-5.28v-21.18Z"/><path class="cls-11" d="M495.35,228.29c-.12,2.1-.24,4.44-.24,7.98v16.86c0,6.66-1.32,10.74-4.14,13.26-2.82,2.64-6.9,3.48-10.56,3.48s-7.32-.84-9.66-2.4l1.32-4.02c1.92,1.2,4.92,2.28,8.52,2.28,5.4,0,9.36-2.82,9.36-10.14v-3.24h-.12c-1.62,2.7-4.74,4.86-9.24,4.86-7.2,0-12.36-6.12-12.36-14.16,0-9.84,6.42-15.42,13.08-15.42,5.04,0,7.8,2.64,9.06,5.04h.12l.24-4.38h4.62ZM489.89,239.75c0-.9-.06-1.68-.3-2.4-.96-3.06-3.54-5.58-7.38-5.58-5.04,0-8.64,4.26-8.64,10.98,0,5.7,2.88,10.44,8.58,10.44,3.24,0,6.18-2.04,7.32-5.4.3-.9.42-1.92.42-2.82v-5.22Z"/><path class="cls-11" d="M506.81,243.77c.12,7.14,4.68,10.08,9.96,10.08,3.78,0,6.06-.66,8.04-1.5l.9,3.78c-1.86.84-5.04,1.8-9.66,1.8-8.94,0-14.28-5.88-14.28-14.64s5.16-15.66,13.62-15.66c9.48,0,12,8.34,12,13.68,0,1.08-.12,1.92-.18,2.46h-20.4ZM522.29,239.99c.06-3.36-1.38-8.58-7.32-8.58-5.34,0-7.68,4.92-8.1,8.58h15.42Z"/><path class="cls-11" d="M566.87,243.35c-.18,6.9,3.78,10.56,9.24,10.56,4.02,0,6.3-.9,7.92-1.68l.96,3.72c-2.34,1.26-5.7,2.04-9.54,2.04-4.92,0-9.36-2.34-11.04-6.42h-.12c-1.86,4.02-5.82,6.42-10.8,6.42-6.06,0-9.06-4.08-9.06-8.28,0-6.72,6.24-10.62,17.52-10.5v-1.2c0-1.44-.9-6.48-6.78-6.48-2.76,0-5.7,1.02-7.44,2.22l-1.26-3.48c2.58-1.62,6.18-2.64,9.06-2.64,5.22,0,8.16,2.46,9.36,6.18h.12c1.98-3.84,5.58-6.18,10.14-6.18,8.88,0,11.34,8.58,11.34,13.38,0,.9-.06,1.8-.18,2.34h-19.44ZM562.01,242.75c-5.58-.12-12.36.84-12.36,6.54,0,3.06,2.28,4.8,5.04,4.8,3.78,0,6.18-2.34,7.02-4.98.24-.66.3-1.38.3-2.1v-4.26ZM581.39,239.57c.18-2.94-1.44-8.16-6.78-8.16s-7.62,4.86-7.8,8.16h14.58Z"/><path class="cls-11" d="M593.03,236.15c0-3-.06-5.46-.24-7.86h4.68l.3,4.8h.12c1.44-2.76,4.8-5.46,9.6-5.46,4.02,0,10.26,2.4,10.26,12.36v17.34h-5.28v-16.74c0-4.68-1.74-8.58-6.72-8.58-3.48,0-6.18,2.46-7.08,5.4-.24.66-.36,1.56-.36,2.46v17.46h-5.28v-21.18Z"/><path class="cls-11" d="M651.41,214.74v35.1c0,2.58.06,5.52.24,7.5h-4.74l-.24-5.04h-.12c-1.62,3.24-5.16,5.7-9.9,5.7-7.02,0-12.42-5.94-12.42-14.76-.06-9.66,5.94-15.6,13.02-15.6,4.44,0,7.44,2.1,8.76,4.44h.12v-17.34h5.28ZM646.13,240.11c0-.66-.06-1.56-.24-2.22-.78-3.36-3.66-6.12-7.62-6.12-5.46,0-8.7,4.8-8.7,11.22,0,5.88,2.88,10.74,8.58,10.74,3.54,0,6.78-2.34,7.74-6.3.18-.72.24-1.44.24-2.28v-5.04Z"/><path class="cls-11" d="M663.11,243.77c.12,7.14,4.68,10.08,9.96,10.08,3.78,0,6.06-.66,8.04-1.5l.9,3.78c-1.86.84-5.04,1.8-9.66,1.8-8.94,0-14.28-5.88-14.28-14.64s5.16-15.66,13.62-15.66c9.48,0,12,8.34,12,13.68,0,1.08-.12,1.92-.18,2.46h-20.4ZM678.59,239.99c.06-3.36-1.38-8.58-7.32-8.58-5.34,0-7.68,4.92-8.1,8.58h15.42Z"/><path class="cls-11" d="M690.23,237.35c0-3.42-.06-6.36-.24-9.06h4.62l.18,5.7h.24c1.32-3.9,4.5-6.36,8.04-6.36.6,0,1.02.06,1.5.18v4.98c-.54-.12-1.08-.18-1.8-.18-3.72,0-6.36,2.82-7.08,6.78-.12.72-.24,1.56-.24,2.46v15.48h-5.22v-19.98Z"/><path class="cls-11" d="M721.85,251.93c1.56,1.02,4.32,2.1,6.96,2.1,3.84,0,5.64-1.92,5.64-4.32,0-2.52-1.5-3.9-5.4-5.34-5.22-1.86-7.68-4.74-7.68-8.22,0-4.68,3.78-8.52,10.02-8.52,2.94,0,5.52.84,7.14,1.8l-1.32,3.84c-1.14-.72-3.24-1.68-5.94-1.68-3.12,0-4.86,1.8-4.86,3.96,0,2.4,1.74,3.48,5.52,4.92,5.04,1.92,7.62,4.44,7.62,8.76,0,5.1-3.96,8.7-10.86,8.7-3.18,0-6.12-.78-8.16-1.98l1.32-4.02Z"/><path class="cls-11" d="M772.61,242.57c0,10.74-7.44,15.42-14.46,15.42-7.86,0-13.92-5.76-13.92-14.94,0-9.72,6.36-15.42,14.4-15.42s13.98,6.06,13.98,14.94ZM749.57,242.87c0,6.36,3.66,11.16,8.82,11.16s8.82-4.74,8.82-11.28c0-4.92-2.46-11.16-8.7-11.16s-8.94,5.76-8.94,11.28Z"/><path class="cls-11" d="M779.27,236.15c0-3-.06-5.46-.24-7.86h4.62l.24,4.68h.18c1.62-2.76,4.32-5.34,9.12-5.34,3.96,0,6.96,2.4,8.22,5.82h.12c.9-1.62,2.04-2.88,3.24-3.78,1.74-1.32,3.66-2.04,6.42-2.04,3.84,0,9.54,2.52,9.54,12.6v17.1h-5.16v-16.44c0-5.58-2.04-8.94-6.3-8.94-3,0-5.34,2.22-6.24,4.8-.24.72-.42,1.68-.42,2.64v17.94h-5.16v-17.4c0-4.62-2.04-7.98-6.06-7.98-3.3,0-5.7,2.64-6.54,5.28-.3.78-.42,1.68-.42,2.58v17.52h-5.16v-21.18Z"/><path class="cls-11" d="M842.03,236.15c0-3-.06-5.46-.24-7.86h4.62l.24,4.68h.18c1.62-2.76,4.32-5.34,9.12-5.34,3.96,0,6.96,2.4,8.22,5.82h.12c.9-1.62,2.04-2.88,3.24-3.78,1.74-1.32,3.66-2.04,6.42-2.04,3.84,0,9.54,2.52,9.54,12.6v17.1h-5.16v-16.44c0-5.58-2.04-8.94-6.3-8.94-3,0-5.34,2.22-6.24,4.8-.24.72-.42,1.68-.42,2.64v17.94h-5.16v-17.4c0-4.62-2.04-7.98-6.06-7.98-3.3,0-5.7,2.64-6.54,5.28-.3.78-.42,1.68-.42,2.58v17.52h-5.16v-21.18Z"/><path class="cls-11" d="M916.37,249.41c0,3,.06,5.64.24,7.92h-4.68l-.3-4.74h-.12c-1.38,2.34-4.44,5.4-9.6,5.4-4.56,0-10.02-2.52-10.02-12.72v-16.98h5.28v16.08c0,5.52,1.68,9.24,6.48,9.24,3.54,0,6-2.46,6.96-4.8.3-.78.48-1.74.48-2.7v-17.82h5.28v21.12Z"/><path class="cls-11" d="M925.13,214.74h5.28v42.6h-5.28v-42.6Z"/><path class="cls-11" d="M945.17,220.14c.06,1.8-1.26,3.24-3.36,3.24-1.86,0-3.18-1.44-3.18-3.24s1.38-3.3,3.3-3.3,3.24,1.44,3.24,3.3ZM939.29,257.33v-29.04h5.28v29.04h-5.28Z"/><path class="cls-11" d="M978.35,228.29c-.12,2.1-.24,4.44-.24,7.98v16.86c0,6.66-1.32,10.74-4.14,13.26-2.82,2.64-6.9,3.48-10.56,3.48s-7.32-.84-9.66-2.4l1.32-4.02c1.92,1.2,4.92,2.28,8.52,2.28,5.4,0,9.36-2.82,9.36-10.14v-3.24h-.12c-1.62,2.7-4.74,4.86-9.24,4.86-7.2,0-12.36-6.12-12.36-14.16,0-9.84,6.42-15.42,13.08-15.42,5.04,0,7.8,2.64,9.06,5.04h.12l.24-4.38h4.62ZM972.89,239.75c0-.9-.06-1.68-.3-2.4-.96-3.06-3.54-5.58-7.38-5.58-5.04,0-8.64,4.26-8.64,10.98,0,5.7,2.88,10.44,8.58,10.44,3.24,0,6.18-2.04,7.32-5.4.3-.9.42-1.92.42-2.82v-5.22Z"/><path class="cls-11" d="M993.23,219.96v8.34h7.56v4.02h-7.56v15.66c0,3.6,1.02,5.64,3.96,5.64,1.38,0,2.4-.18,3.06-.36l.24,3.96c-1.02.42-2.64.72-4.68.72-2.46,0-4.44-.78-5.7-2.22-1.5-1.56-2.04-4.14-2.04-7.56v-15.84h-4.5v-4.02h4.5v-6.96l5.16-1.38Z"/><path class="cls-11" d="M1003.31,264.71c1.32-3.54,2.94-9.96,3.6-14.34l5.88-.6c-1.38,5.1-4.02,11.76-5.7,14.58l-3.78.36Z"/><path class="cls-11" d="M160.14,308.15c0-3-.06-5.46-.24-7.86h4.62l.24,4.68h.18c1.62-2.76,4.32-5.34,9.12-5.34,3.96,0,6.96,2.4,8.22,5.82h.12c.9-1.62,2.04-2.88,3.24-3.78,1.74-1.32,3.66-2.04,6.42-2.04,3.84,0,9.54,2.52,9.54,12.6v17.1h-5.16v-16.44c0-5.58-2.04-8.94-6.3-8.94-3,0-5.34,2.22-6.24,4.8-.24.72-.42,1.68-.42,2.64v17.94h-5.16v-17.4c0-4.62-2.04-7.98-6.06-7.98-3.3,0-5.7,2.64-6.54,5.28-.3.78-.42,1.68-.42,2.58v17.52h-5.16v-21.18Z"/><path class="cls-11" d="M213.12,315.77c.12,7.14,4.68,10.08,9.96,10.08,3.78,0,6.06-.66,8.04-1.5l.9,3.78c-1.86.84-5.04,1.8-9.66,1.8-8.94,0-14.28-5.88-14.28-14.64s5.16-15.66,13.62-15.66c9.48,0,12,8.34,12,13.68,0,1.08-.12,1.92-.18,2.46h-20.4ZM228.6,311.99c.06-3.36-1.38-8.58-7.32-8.58-5.34,0-7.68,4.92-8.1,8.58h15.42Z"/><path class="cls-11" d="M240.24,308.15c0-3-.06-5.46-.24-7.86h4.68l.3,4.8h.12c1.44-2.76,4.8-5.46,9.6-5.46,4.02,0,10.26,2.4,10.26,12.36v17.34h-5.28v-16.74c0-4.68-1.74-8.58-6.72-8.58-3.48,0-6.18,2.46-7.08,5.4-.24.66-.36,1.56-.36,2.46v17.46h-5.28v-21.18Z"/><path class="cls-11" d="M286.26,309.77c0-3.72-.12-6.72-.24-9.48h4.74l.24,4.98h.12c2.16-3.54,5.58-5.64,10.32-5.64,7.02,0,12.3,5.94,12.3,14.76,0,10.44-6.36,15.6-13.2,15.6-3.84,0-7.2-1.68-8.94-4.56h-.12v15.78h-5.22v-31.44ZM291.48,317.51c0,.78.12,1.5.24,2.16.96,3.66,4.14,6.18,7.92,6.18,5.58,0,8.82-4.56,8.82-11.22,0-5.82-3.06-10.8-8.64-10.8-3.6,0-6.96,2.58-7.98,6.54-.18.66-.36,1.44-.36,2.16v4.98Z"/><path class="cls-11" d="M336.48,329.33l-.42-3.66h-.18c-1.62,2.28-4.74,4.32-8.88,4.32-5.88,0-8.88-4.14-8.88-8.34,0-7.02,6.24-10.86,17.46-10.8v-.6c0-2.4-.66-6.72-6.6-6.72-2.7,0-5.52.84-7.56,2.16l-1.2-3.48c2.4-1.56,5.88-2.58,9.54-2.58,8.88,0,11.04,6.06,11.04,11.88v10.86c0,2.52.12,4.98.48,6.96h-4.8ZM335.7,314.51c-5.76-.12-12.3.9-12.3,6.54,0,3.42,2.28,5.04,4.98,5.04,3.78,0,6.18-2.4,7.02-4.86.18-.54.3-1.14.3-1.68v-5.04Z"/><path class="cls-11" d="M348.6,323.93c1.56,1.02,4.32,2.1,6.96,2.1,3.84,0,5.64-1.92,5.64-4.32,0-2.52-1.5-3.9-5.4-5.34-5.22-1.86-7.68-4.74-7.68-8.22,0-4.68,3.78-8.52,10.02-8.52,2.94,0,5.52.84,7.14,1.8l-1.32,3.84c-1.14-.72-3.24-1.68-5.94-1.68-3.12,0-4.86,1.8-4.86,3.96,0,2.4,1.74,3.48,5.52,4.92,5.04,1.92,7.62,4.44,7.62,8.76,0,5.1-3.96,8.7-10.86,8.7-3.18,0-6.12-.78-8.16-1.98l1.32-4.02Z"/><path class="cls-11" d="M385.8,309.77c0-3.72-.12-6.72-.24-9.48h4.74l.24,4.98h.12c2.16-3.54,5.58-5.64,10.32-5.64,7.02,0,12.3,5.94,12.3,14.76,0,10.44-6.36,15.6-13.2,15.6-3.84,0-7.2-1.68-8.94-4.56h-.12v15.78h-5.22v-31.44ZM391.02,317.51c0,.78.12,1.5.24,2.16.96,3.66,4.14,6.18,7.92,6.18,5.58,0,8.82-4.56,8.82-11.22,0-5.82-3.06-10.8-8.64-10.8-3.6,0-6.96,2.58-7.98,6.54-.18.66-.36,1.44-.36,2.16v4.98Z"/><path class="cls-11" d="M436.01,329.33l-.42-3.66h-.18c-1.62,2.28-4.74,4.32-8.88,4.32-5.88,0-8.88-4.14-8.88-8.34,0-7.02,6.24-10.86,17.46-10.8v-.6c0-2.4-.66-6.72-6.6-6.72-2.7,0-5.52.84-7.56,2.16l-1.2-3.48c2.4-1.56,5.88-2.58,9.54-2.58,8.88,0,11.04,6.06,11.04,11.88v10.86c0,2.52.12,4.98.48,6.96h-4.8ZM435.23,314.51c-5.76-.12-12.3.9-12.3,6.54,0,3.42,2.28,5.04,4.98,5.04,3.78,0,6.18-2.4,7.02-4.86.18-.54.3-1.14.3-1.68v-5.04ZM423.89,291.66c0-3.18,2.34-5.7,6.12-5.7s5.94,2.46,5.94,5.64-2.58,5.52-6,5.52c-3.6,0-6.06-2.4-6.06-5.46ZM433.01,291.54c0-1.8-1.2-3.3-3.12-3.3s-2.94,1.56-2.94,3.42c0,1.56,1.2,3.24,2.94,3.24,1.92,0,3.12-1.56,3.12-3.36Z"/><path class="cls-11" d="M486.65,286.74v35.1c0,2.58.06,5.52.24,7.5h-4.74l-.24-5.04h-.12c-1.62,3.24-5.16,5.7-9.9,5.7-7.02,0-12.42-5.94-12.42-14.76-.06-9.66,5.94-15.6,13.02-15.6,4.44,0,7.44,2.1,8.76,4.44h.12v-17.34h5.28ZM481.37,312.11c0-.66-.06-1.56-.24-2.22-.78-3.36-3.66-6.12-7.62-6.12-5.46,0-8.7,4.8-8.7,11.22,0,5.88,2.88,10.74,8.58,10.74,3.54,0,6.78-2.34,7.74-6.3.18-.72.24-1.44.24-2.28v-5.04Z"/><path class="cls-11" d="M519.71,321.41c0,3,.06,5.64.24,7.92h-4.68l-.3-4.74h-.12c-1.38,2.34-4.44,5.4-9.6,5.4-4.56,0-10.02-2.52-10.02-12.72v-16.98h5.28v16.08c0,5.52,1.68,9.24,6.48,9.24,3.54,0,6-2.46,6.96-4.8.3-.78.48-1.74.48-2.7v-17.82h5.28v21.12Z"/><path class="cls-11" d="M547.07,292.14c.06,1.8-1.26,3.24-3.36,3.24-1.86,0-3.18-1.44-3.18-3.24s1.38-3.3,3.3-3.3,3.24,1.44,3.24,3.3ZM541.19,329.33v-29.04h5.28v29.04h-5.28Z"/><path class="cls-11" d="M560.45,313.61h.12c.72-1.02,1.74-2.28,2.58-3.3l8.52-10.02h6.36l-11.22,11.94,12.78,17.1h-6.42l-10.02-13.92-2.7,3v10.92h-5.22v-42.6h5.22v26.88Z"/><path class="cls-11" d="M588.59,313.61h.12c.72-1.02,1.74-2.28,2.58-3.3l8.52-10.02h6.36l-11.22,11.94,12.78,17.1h-6.42l-10.02-13.92-2.7,3v10.92h-5.22v-42.6h5.22v26.88Z"/><path class="cls-11" d="M614.45,315.77c.12,7.14,4.68,10.08,9.96,10.08,3.78,0,6.06-.66,8.04-1.5l.9,3.78c-1.86.84-5.04,1.8-9.66,1.8-8.94,0-14.28-5.88-14.28-14.64s5.16-15.66,13.62-15.66c9.48,0,12,8.34,12,13.68,0,1.08-.12,1.92-.18,2.46h-20.4ZM629.93,311.99c.06-3.36-1.38-8.58-7.32-8.58-5.34,0-7.68,4.92-8.1,8.58h15.42Z"/><path class="cls-11" d="M653.57,323.93c1.56,1.02,4.32,2.1,6.96,2.1,3.84,0,5.64-1.92,5.64-4.32,0-2.52-1.5-3.9-5.4-5.34-5.22-1.86-7.68-4.74-7.68-8.22,0-4.68,3.78-8.52,10.02-8.52,2.94,0,5.52.84,7.14,1.8l-1.32,3.84c-1.14-.72-3.24-1.68-5.94-1.68-3.12,0-4.86,1.8-4.86,3.96,0,2.4,1.74,3.48,5.52,4.92,5.04,1.92,7.62,4.44,7.62,8.76,0,5.1-3.96,8.7-10.86,8.7-3.18,0-6.12-.78-8.16-1.98l1.32-4.02Z"/><path class="cls-11" d="M683.27,313.61h.12c.72-1.02,1.74-2.28,2.58-3.3l8.52-10.02h6.36l-11.22,11.94,12.78,17.1h-6.42l-10.02-13.92-2.7,3v10.92h-5.22v-42.6h5.22v26.88Z"/><path class="cls-11" d="M708.11,300.29l6.36,17.16c.66,1.92,1.38,4.2,1.86,5.94h.12c.54-1.74,1.14-3.96,1.86-6.06l5.76-17.04h5.58l-7.92,20.7c-3.78,9.96-6.36,15.06-9.96,18.18-2.58,2.28-5.16,3.18-6.48,3.42l-1.32-4.44c1.32-.42,3.06-1.26,4.62-2.58,1.44-1.14,3.24-3.18,4.44-5.88.24-.54.42-.96.42-1.26s-.12-.72-.36-1.38l-10.74-26.76h5.76Z"/><path class="cls-11" d="M759.53,286.74v35.1c0,2.58.06,5.52.24,7.5h-4.74l-.24-5.04h-.12c-1.62,3.24-5.16,5.7-9.9,5.7-7.02,0-12.42-5.94-12.42-14.76-.06-9.66,5.94-15.6,13.02-15.6,4.44,0,7.44,2.1,8.76,4.44h.12v-17.34h5.28ZM754.25,312.11c0-.66-.06-1.56-.24-2.22-.78-3.36-3.66-6.12-7.62-6.12-5.46,0-8.7,4.8-8.7,11.22,0,5.88,2.88,10.74,8.58,10.74,3.54,0,6.78-2.34,7.74-6.3.18-.72.24-1.44.24-2.28v-5.04Z"/><path class="cls-11" d="M771.23,315.77c.12,7.14,4.68,10.08,9.96,10.08,3.78,0,6.06-.66,8.04-1.5l.9,3.78c-1.86.84-5.04,1.8-9.66,1.8-8.94,0-14.28-5.88-14.28-14.64s5.16-15.66,13.62-15.66c9.48,0,12,8.34,12,13.68,0,1.08-.12,1.92-.18,2.46h-20.4ZM786.71,311.99c.06-3.36-1.38-8.58-7.32-8.58-5.34,0-7.68,4.92-8.1,8.58h15.42Z"/><path class="cls-11" d="M798.35,309.35c0-3.42-.06-6.36-.24-9.06h4.62l.18,5.7h.24c1.32-3.9,4.5-6.36,8.04-6.36.6,0,1.02.06,1.5.18v4.98c-.54-.12-1.08-.18-1.8-.18-3.72,0-6.36,2.82-7.08,6.78-.12.72-.24,1.56-.24,2.46v15.48h-5.22v-19.98Z"/><path class="cls-11" d="M814.55,336.71c1.32-3.54,2.94-9.96,3.6-14.34l5.88-.6c-1.38,5.1-4.02,11.76-5.7,14.58l-3.78.36Z"/><path class="cls-11" d="M846.05,315.77c.12,7.14,4.68,10.08,9.96,10.08,3.78,0,6.06-.66,8.04-1.5l.9,3.78c-1.86.84-5.04,1.8-9.66,1.8-8.94,0-14.28-5.88-14.28-14.64s5.16-15.66,13.62-15.66c9.48,0,12,8.34,12,13.68,0,1.08-.12,1.92-.18,2.46h-20.4ZM861.53,311.99c.06-3.36-1.38-8.58-7.32-8.58-5.34,0-7.68,4.92-8.1,8.58h15.42Z"/><path class="cls-11" d="M873.17,308.15c0-3-.06-5.46-.24-7.86h4.68l.3,4.8h.12c1.44-2.76,4.8-5.46,9.6-5.46,4.02,0,10.26,2.4,10.26,12.36v17.34h-5.28v-16.74c0-4.68-1.74-8.58-6.72-8.58-3.48,0-6.18,2.46-7.08,5.4-.24.66-.36,1.56-.36,2.46v17.46h-5.28v-21.18Z"/><path class="cls-11" d="M160.68,401.33v-25.02h-4.08v-4.02h4.08v-1.38c0-4.08.9-7.8,3.36-10.14,1.98-1.92,4.62-2.7,7.08-2.7,1.86,0,3.48.42,4.5.84l-.72,4.08c-.78-.36-1.86-.66-3.36-.66-4.5,0-5.64,3.96-5.64,8.4v1.56h7.02v4.02h-7.02v25.02h-5.22Z"/><path class="cls-11" d="M177.66,381.35c0-3.42-.06-6.36-.24-9.06h4.62l.18,5.7h.24c1.32-3.9,4.5-6.36,8.04-6.36.6,0,1.02.06,1.5.18v4.98c-.54-.12-1.08-.18-1.8-.18-3.72,0-6.36,2.82-7.08,6.78-.12.72-.24,1.56-.24,2.46v15.48h-5.22v-19.98Z"/><path class="cls-11" d="M200.22,387.77c.12,7.14,4.68,10.08,9.96,10.08,3.78,0,6.06-.66,8.04-1.5l.9,3.78c-1.86.84-5.04,1.8-9.66,1.8-8.94,0-14.28-5.88-14.28-14.64s5.16-15.66,13.62-15.66c9.48,0,12,8.34,12,13.68,0,1.08-.12,1.92-.18,2.46h-20.4ZM215.7,383.99c.06-3.36-1.38-8.58-7.32-8.58-5.34,0-7.68,4.92-8.1,8.58h15.42Z"/><path class="cls-11" d="M252.42,358.74v35.1c0,2.58.06,5.52.24,7.5h-4.74l-.24-5.04h-.12c-1.62,3.24-5.16,5.7-9.9,5.7-7.02,0-12.42-5.94-12.42-14.76-.06-9.66,5.94-15.6,13.02-15.6,4.44,0,7.44,2.1,8.76,4.44h.12v-17.34h5.28ZM247.14,384.11c0-.66-.06-1.56-.24-2.22-.78-3.36-3.66-6.12-7.62-6.12-5.46,0-8.7,4.8-8.7,11.22,0,5.88,2.88,10.74,8.58,10.74,3.54,0,6.78-2.34,7.74-6.3.18-.72.24-1.44.24-2.28v-5.04Z"/><path class="cls-11" d="M264.12,387.77c.12,7.14,4.68,10.08,9.96,10.08,3.78,0,6.06-.66,8.04-1.5l.9,3.78c-1.86.84-5.04,1.8-9.66,1.8-8.94,0-14.28-5.88-14.28-14.64s5.16-15.66,13.62-15.66c9.48,0,12,8.34,12,13.68,0,1.08-.12,1.92-.18,2.46h-20.4ZM279.6,383.99c.06-3.36-1.38-8.58-7.32-8.58-5.34,0-7.68,4.92-8.1,8.58h15.42Z"/><path class="cls-11" d="M297.6,363.96v8.34h7.56v4.02h-7.56v15.66c0,3.6,1.02,5.64,3.96,5.64,1.38,0,2.4-.18,3.06-.36l.24,3.96c-1.02.42-2.64.72-4.68.72-2.46,0-4.44-.78-5.7-2.22-1.5-1.56-2.04-4.14-2.04-7.56v-15.84h-4.5v-4.02h4.5v-6.96l5.16-1.38Z"/><path class="cls-11" d="M339.9,401.33l-.42-3.66h-.18c-1.62,2.28-4.74,4.32-8.88,4.32-5.88,0-8.88-4.14-8.88-8.34,0-7.02,6.24-10.86,17.46-10.8v-.6c0-2.4-.66-6.72-6.6-6.72-2.7,0-5.52.84-7.56,2.16l-1.2-3.48c2.4-1.56,5.88-2.58,9.54-2.58,8.88,0,11.04,6.06,11.04,11.88v10.86c0,2.52.12,4.98.48,6.96h-4.8ZM339.12,386.51c-5.76-.12-12.3.9-12.3,6.54,0,3.42,2.28,5.04,4.98,5.04,3.78,0,6.18-2.4,7.02-4.86.18-.54.3-1.14.3-1.68v-5.04Z"/><path class="cls-11" d="M352.74,380.15c0-3-.06-5.46-.24-7.86h4.68l.3,4.8h.12c1.44-2.76,4.8-5.46,9.6-5.46,4.02,0,10.26,2.4,10.26,12.36v17.34h-5.28v-16.74c0-4.68-1.74-8.58-6.72-8.58-3.48,0-6.18,2.46-7.08,5.4-.24.66-.36,1.56-.36,2.46v17.46h-5.28v-21.18Z"/><path class="cls-11" d="M411.11,358.74v35.1c0,2.58.06,5.52.24,7.5h-4.74l-.24-5.04h-.12c-1.62,3.24-5.16,5.7-9.9,5.7-7.02,0-12.42-5.94-12.42-14.76-.06-9.66,5.94-15.6,13.02-15.6,4.44,0,7.44,2.1,8.76,4.44h.12v-17.34h5.28ZM405.83,384.11c0-.66-.06-1.56-.24-2.22-.78-3.36-3.66-6.12-7.62-6.12-5.46,0-8.7,4.8-8.7,11.22,0,5.88,2.88,10.74,8.58,10.74,3.54,0,6.78-2.34,7.74-6.3.18-.72.24-1.44.24-2.28v-5.04Z"/><path class="cls-11" d="M418.62,398.21c0-2.22,1.5-3.78,3.6-3.78s3.54,1.56,3.54,3.78-1.38,3.78-3.6,3.78c-2.1,0-3.54-1.62-3.54-3.78Z"/><path class="cls-11" d="M165.54,504.9v16.92h19.56v-16.92h5.28v40.44h-5.28v-18.96h-19.56v18.96h-5.22v-40.44h5.22Z"/><path class="cls-11" d="M215.34,545.33l-.42-3.66h-.18c-1.62,2.28-4.74,4.32-8.88,4.32-5.88,0-8.88-4.14-8.88-8.34,0-7.02,6.24-10.86,17.46-10.8v-.6c0-2.4-.66-6.72-6.6-6.72-2.7,0-5.52.84-7.56,2.16l-1.2-3.48c2.4-1.56,5.88-2.58,9.54-2.58,8.88,0,11.04,6.06,11.04,11.88v10.86c0,2.52.12,4.98.48,6.96h-4.8ZM214.56,530.51c-5.76-.12-12.3.9-12.3,6.54,0,3.42,2.28,5.04,4.98,5.04,3.78,0,6.18-2.4,7.02-4.86.18-.54.3-1.14.3-1.68v-5.04Z"/><path class="cls-11" d="M228.18,525.77c0-3.72-.12-6.72-.24-9.48h4.74l.24,4.98h.12c2.16-3.54,5.58-5.64,10.32-5.64,7.02,0,12.3,5.94,12.3,14.76,0,10.44-6.36,15.6-13.2,15.6-3.84,0-7.2-1.68-8.94-4.56h-.12v15.78h-5.22v-31.44ZM233.4,533.51c0,.78.12,1.5.24,2.16.96,3.66,4.14,6.18,7.92,6.18,5.58,0,8.82-4.56,8.82-11.22,0-5.82-3.06-10.8-8.64-10.8-3.6,0-6.96,2.58-7.98,6.54-.18.66-.36,1.44-.36,2.16v4.98Z"/><path class="cls-11" d="M262.32,525.77c0-3.72-.12-6.72-.24-9.48h4.74l.24,4.98h.12c2.16-3.54,5.58-5.64,10.32-5.64,7.02,0,12.3,5.94,12.3,14.76,0,10.44-6.36,15.6-13.2,15.6-3.84,0-7.2-1.68-8.94-4.56h-.12v15.78h-5.22v-31.44ZM267.54,533.51c0,.78.12,1.5.24,2.16.96,3.66,4.14,6.18,7.92,6.18,5.58,0,8.82-4.56,8.82-11.22,0-5.82-3.06-10.8-8.64-10.8-3.6,0-6.96,2.58-7.98,6.54-.18.66-.36,1.44-.36,2.16v4.98Z"/><path class="cls-11" d="M298.38,516.29l6.36,17.16c.66,1.92,1.38,4.2,1.86,5.94h.12c.54-1.74,1.14-3.96,1.86-6.06l5.76-17.04h5.58l-7.92,20.7c-3.78,9.96-6.36,15.06-9.96,18.18-2.58,2.28-5.16,3.18-6.48,3.42l-1.32-4.44c1.32-.42,3.06-1.26,4.62-2.58,1.44-1.14,3.24-3.18,4.44-5.88.24-.54.42-.96.42-1.26s-.12-.72-.36-1.38l-10.74-26.76h5.76Z"/><path class="cls-11" d="M342.84,504.9v16.92h19.56v-16.92h5.28v40.44h-5.28v-18.96h-19.56v18.96h-5.22v-40.44h5.22Z"/><path class="cls-11" d="M400.85,537.41c0,3,.06,5.64.24,7.92h-4.68l-.3-4.74h-.12c-1.38,2.34-4.44,5.4-9.6,5.4-4.56,0-10.02-2.52-10.02-12.72v-16.98h5.28v16.08c0,5.52,1.68,9.24,6.48,9.24,3.54,0,6-2.46,6.96-4.8.3-.78.48-1.74.48-2.7v-17.82h5.28v21.12Z"/><path class="cls-11" d="M409.62,524.16c0-3-.06-5.46-.24-7.86h4.68l.3,4.8h.12c1.44-2.76,4.8-5.46,9.6-5.46,4.02,0,10.26,2.4,10.26,12.36v17.34h-5.28v-16.74c0-4.68-1.74-8.58-6.72-8.58-3.48,0-6.18,2.46-7.08,5.4-.24.66-.36,1.56-.36,2.46v17.46h-5.28v-21.18Z"/><path class="cls-11" d="M449.27,507.96v8.34h7.56v4.02h-7.56v15.66c0,3.6,1.02,5.64,3.96,5.64,1.38,0,2.4-.18,3.06-.36l.24,3.96c-1.02.42-2.64.72-4.68.72-2.46,0-4.44-.78-5.7-2.22-1.5-1.56-2.04-4.14-2.04-7.56v-15.84h-4.5v-4.02h4.5v-6.96l5.16-1.38Z"/><path class="cls-11" d="M468.65,508.14c.06,1.8-1.26,3.24-3.36,3.24-1.86,0-3.18-1.44-3.18-3.24s1.38-3.3,3.3-3.3,3.24,1.44,3.24,3.3ZM462.77,545.33v-29.04h5.28v29.04h-5.28Z"/><path class="cls-11" d="M476.81,524.16c0-3-.06-5.46-.24-7.86h4.68l.3,4.8h.12c1.44-2.76,4.8-5.46,9.6-5.46,4.02,0,10.26,2.4,10.26,12.36v17.34h-5.28v-16.74c0-4.68-1.74-8.58-6.72-8.58-3.48,0-6.18,2.46-7.08,5.4-.24.66-.36,1.56-.36,2.46v17.46h-5.28v-21.18Z"/><path class="cls-11" d="M535.13,516.29c-.12,2.1-.24,4.44-.24,7.98v16.86c0,6.66-1.32,10.74-4.14,13.26-2.82,2.64-6.9,3.48-10.56,3.48s-7.32-.84-9.66-2.4l1.32-4.02c1.92,1.2,4.92,2.28,8.52,2.28,5.4,0,9.36-2.82,9.36-10.14v-3.24h-.12c-1.62,2.7-4.74,4.86-9.24,4.86-7.2,0-12.36-6.12-12.36-14.16,0-9.84,6.42-15.42,13.08-15.42,5.04,0,7.8,2.64,9.06,5.04h.12l.24-4.38h4.62ZM529.67,527.75c0-.9-.06-1.68-.3-2.4-.96-3.06-3.54-5.58-7.38-5.58-5.04,0-8.64,4.26-8.64,10.98,0,5.7,2.88,10.44,8.58,10.44,3.24,0,6.18-2.04,7.32-5.4.3-.9.42-1.92.42-2.82v-5.22Z"/><path class="cls-11" d="M542.39,542.21c0-2.22,1.5-3.78,3.6-3.78s3.54,1.56,3.54,3.78-1.38,3.78-3.6,3.78c-2.1,0-3.54-1.62-3.54-3.78Z"/><path class="cls-22" d="M1442.81,258.42c.08,2.45-8.88,5.94-13.51,6.12-2.08.08-3.76-.09-5.48-.42-.15-.07-.3-.14-.46-.2-1.44-.61-2.92-1.14-4.41-1.57.77-1.24,1.16-2.49,1.11-3.74-.07-1.76-1.04-3.43-2.69-4.99.87-.02,1.76-.03,2.66-.03,9.3,0,22.68,1.61,22.78,4.83Z"/><path class="cls-19" d="M1439.84,239.46c.95,1.98-4.03,6.24-7.9,8.47-4.04,2.32-7.64,2.84-11.76,3.45-1.68.25-3.24.48-4.69.7-2.57-1.84-6.09-3.53-10.16-5.05,3.17-1.62,7.06-3.26,11.35-4.74,9.23-3.17,21.83-5.59,23.16-2.83Z"/><path class="cls-28" d="M1423.81,264.11c8.75,3.88,16.45,11.39,14.98,14.17-1.7,3.22-15.54-.17-23.16-2.83-2.62-.91-6.03-2.27-9.28-3.79,5.51-2.62,10.01-5.63,12.21-8.75.48.11.96.22,1.46.34,1.39.34,2.6.63,3.79.86Z"/><path class="cls-30" d="M1423.36,263.91c.15.06.3.13.46.2-1.19-.22-2.4-.52-3.79-.86-.5-.12-.98-.24-1.46-.34.14-.19.26-.38.38-.57,1.49.43,2.97.96,4.41,1.57Z"/><path class="cls-21" d="M1420.06,258.61c.05,1.25-.34,2.5-1.11,3.74-4.26-1.25-8.61-1.79-12.38-1.8-6.49-1.04-9.34-1.14-9.34-2.12,0-2.47,8.8-4.52,20.13-4.8,1.65,1.56,2.62,3.23,2.69,4.99Z"/><path class="cls-25" d="M1418.95,262.34c-.12.19-.24.38-.38.57-4.9-1.15-8.86-1.87-11.99-2.37,3.76.02,8.12.56,12.38,1.8Z"/><path class="cls-9" d="M1415.49,252.08c.69.5,1.33,1.01,1.87,1.54-11.33.28-20.13,2.33-20.13,4.8,0,.98,2.85,1.08,9.34,2.12-5.76-.02-10.13,1.19-10.61,2.99-.58,2.22,4.65,5.43,10.39,8.13-11.23,5.33-26.71,9.01-35.8,8.48-.73-.04-2.94-.2-9.57-.62-12.5-.8-18.59-1.14-20.13-1.25-1.17-.08-16.23-4.48-27.27-9.85,6.49-2.77,10.5-6.66,10.33-10.81-.18-4.34-4.88-8.04-12.08-10.31,7.43-4.2,17.67-7.47,25.73-8.98,6.15-1.15,13.03-1.62,23.43-.62,11.71,1.12,31.01,4.35,44.35,9.34-5.58,2.83-8.94,5.58-8.32,7.18.27.7,1.68.39,18.48-2.13Z"/><path class="cls-20" d="M1418.57,262.91c-2.2,3.12-6.7,6.13-12.21,8.75-5.74-2.7-10.97-5.91-10.39-8.13.48-1.8,4.84-3.02,10.61-2.99,3.13.51,7.1,1.22,11.99,2.37Z"/><path class="cls-12" d="M1405.33,247.03c4.07,1.52,7.58,3.21,10.16,5.05-16.8,2.52-18.21,2.83-18.48,2.13-.61-1.6,2.75-4.35,8.32-7.18Z"/><path class="cls-9" d="M1323.92,257.61c.17,4.16-3.84,8.04-10.33,10.81-6.49-3.16-11.59-6.66-11.67-9.81-.11-4.08,4.03-7.98,9.91-11.31,7.21,2.27,11.9,5.97,12.08,10.31Z"/><path class="cls-9" d="M1311.83,247.3c-5.89,3.32-10.02,7.22-9.91,11.31.08,3.16,5.18,6.66,11.67,9.81-5.42,2.32-12.56,3.86-20.44,4.16-9.85.37-18.72-1.31-24.6-4.23,15.14-1.01,26.44-4.98,26.44-9.74,0-2.18-2.38-4.2-6.42-5.84h0c.32-.45.51-.95.51-1.48,0-1.88-2.31-3.4-5.17-3.4-2.24,0-4.16.94-4.86,2.26-2.32-.43-4.82-.77-7.46-1.03,5.41-2.32,12.55-3.86,20.42-4.15,7.46-.27,14.37.62,19.83,2.34Z"/><path class="cls-9" d="M1288.57,252.76c4.04,1.64,6.42,3.66,6.42,5.84,0,4.76-11.3,8.73-26.44,9.74-4.45-2.21-7.17-5.13-7.31-8.42-.17-4.16,3.85-8.05,10.35-10.82,2.65.26,5.15.6,7.46,1.03-.2.36-.3.74-.3,1.14,0,1.88,2.32,3.4,5.17,3.4,2.05,0,3.82-.79,4.66-1.92Z"/><path class="cls-16" d="M1289.08,251.28c0,.53-.18,1.03-.51,1.47-.79-.32-1.65-.62-2.57-.92.05-.14.07-.27.07-.42,0-1.04-1.28-1.88-2.85-1.88-1.05,0-1.97.37-2.47.94-.56-.12-1.13-.23-1.71-.34.71-1.32,2.62-2.26,4.86-2.26,2.86,0,5.17,1.52,5.17,3.4Z"/><path class="cls-16" d="M1288.57,252.76h0c-.84,1.14-2.61,1.93-4.66,1.93-2.85,0-5.17-1.52-5.17-3.4,0-.4.11-.79.3-1.14.58.11,1.15.22,1.71.34-.24.27-.38.6-.38.94,0,1.04,1.28,1.88,2.85,1.88,1.35,0,2.49-.62,2.78-1.46.92.29,1.78.6,2.57.92Z"/><path class="cls-17" d="M1286.08,251.42c0,.14-.03.28-.07.42-1.59-.51-3.35-.96-5.25-1.36.5-.56,1.42-.94,2.47-.94,1.57,0,2.85.84,2.85,1.88Z"/><path class="cls-17" d="M1280.76,250.48c1.9.4,3.66.86,5.25,1.36-.29.84-1.43,1.46-2.78,1.46-1.57,0-2.85-.84-2.85-1.88,0-.34.14-.67.38-.94Z"/><path class="cls-18" d="M1261,248.62c3.7,0,7.25.17,10.59.49-6.5,2.77-10.52,6.66-10.35,10.82.14,3.28,2.86,6.21,7.31,8.42-2.43.16-4.96.25-7.55.25-18.77,0-33.99-4.47-33.99-9.99s15.22-9.99,33.99-9.99Z"/><path class="cls-8" d="M1271.58,249.11c5.41-2.32,12.55-3.86,20.42-4.15,7.46-.27,14.37.62,19.83,2.34"/><path class="cls-8" d="M1313.59,268.42c-5.42,2.32-12.56,3.86-20.44,4.16-9.85.37-18.72-1.31-24.6-4.23"/><path class="cls-8" d="M1268.55,268.34c-2.43.16-4.96.25-7.55.25-18.77,0-33.99-4.47-33.99-9.99s15.22-9.99,33.99-9.99c3.7,0,7.25.17,10.59.49"/><line class="cls-5" x1="1228.17" y1="256.71" x2="1255.14" y2="256.71"/><path class="cls-7" d="M1279.05,250.14c.71-1.32,2.62-2.26,4.86-2.26,2.86,0,5.17,1.52,5.17,3.4,0,.53-.18,1.03-.51,1.47h0c-.84,1.14-2.61,1.93-4.66,1.93-2.85,0-5.17-1.52-5.17-3.4,0-.4.11-.79.3-1.14Z"/><path class="cls-2" d="M1280.76,250.48c.5-.56,1.42-.94,2.47-.94,1.57,0,2.85.84,2.85,1.88,0,.14-.03.28-.07.42-.29.84-1.43,1.46-2.78,1.46-1.57,0-2.85-.84-2.85-1.88,0-.34.14-.67.38-.94Z"/><path class="cls-3" d="M1415.49,252.08c.69.5,1.33,1.01,1.87,1.54"/><path class="cls-3" d="M1311.83,247.3c7.43-4.2,17.67-7.47,25.73-8.98,6.15-1.15,13.03-1.62,23.43-.62,11.71,1.12,31.01,4.35,44.35,9.34"/><path class="cls-3" d="M1418.95,262.34c-.12.19-.24.38-.38.57-2.2,3.12-6.7,6.13-12.21,8.75-11.23,5.33-26.71,9.01-35.8,8.48-.73-.04-2.94-.2-9.57-.62-12.5-.8-18.59-1.14-20.13-1.25-1.17-.08-16.23-4.48-27.27-9.85"/><path class="cls-3" d="M1405.33,247.03c3.17-1.62,7.06-3.26,11.35-4.74,9.23-3.17,21.83-5.59,23.16-2.83.95,1.98-4.03,6.24-7.9,8.47-4.04,2.32-7.64,2.84-11.76,3.45-1.68.25-3.24.48-4.69.7"/><path class="cls-6" d="M1423.81,264.11c8.75,3.88,16.45,11.39,14.98,14.17-1.7,3.22-15.54-.17-23.16-2.83-2.62-.91-6.03-2.27-9.28-3.79"/><path class="cls-3" d="M1418.95,262.34c1.49.43,2.97.96,4.41,1.57.15.06.3.13.46.2"/><path class="cls-6" d="M1417.37,253.62c.87-.02,1.76-.03,2.66-.03,9.3,0,22.68,1.61,22.78,4.83.08,2.45-8.88,5.94-13.51,6.12-2.08.08-3.76-.09-5.48-.42-1.19-.22-2.4-.52-3.79-.86-.5-.12-.98-.24-1.46-.34"/><path class="cls-4" d="M1381.35,240.68c30.59-2.01-.23-14.22-.23-14.22,13.2-3.12-.2-16.21-.2-16.21,7.72-.6-1.12-13.13-1.12-13.13,4.62-1.25-6.6-11.86-6.6-11.86l-6.6,8.12c-1.32,18.1-15.18,31.21-15.18,31.21-7.26,11.86-26.54,17.08-26.54,17.08"/><path class="cls-1" d="M1346.01,263.14s-20.33,13.11-18.33,30.11.19,60.13,9.1,33.56c0,0,34.9-17.56,6.9-23.56,0,0,47-18,8-13,0,0,38.41-12.3,15.2-21.65,0,0,1.18-3.57-2.51-5.46"/><path class="cls-27" d="M1671.81,568.42c.08,2.45-8.88,5.94-13.51,6.12-2.08.08-3.76-.09-5.48-.42-.15-.07-.3-.14-.46-.2-1.44-.61-2.92-1.14-4.41-1.57.77-1.24,1.16-2.49,1.11-3.74-.07-1.76-1.04-3.43-2.69-4.99.87-.02,1.76-.03,2.66-.03,9.3,0,22.68,1.61,22.78,4.83Z"/><path class="cls-24" d="M1668.84,549.46c.95,1.98-4.03,6.24-7.9,8.47-4.04,2.32-7.64,2.84-11.76,3.45-1.68.25-3.24.48-4.69.7-2.57-1.84-6.09-3.53-10.16-5.05,3.17-1.62,7.06-3.26,11.35-4.74,9.23-3.17,21.83-5.59,23.16-2.83Z"/><path class="cls-29" d="M1652.81,574.11c8.75,3.88,16.45,11.39,14.98,14.17-1.7,3.22-15.54-.17-23.16-2.83-2.62-.91-6.03-2.27-9.28-3.79,5.51-2.62,10.01-5.63,12.21-8.75.48.11.96.22,1.46.34,1.39.34,2.6.63,3.79.86Z"/><path class="cls-14" d="M1652.36,573.91c.15.06.3.13.46.2-1.19-.22-2.4-.52-3.79-.86-.5-.12-.98-.24-1.46-.34.14-.19.26-.38.38-.57,1.49.43,2.97.96,4.41,1.57Z"/><path class="cls-13" d="M1649.06,568.61c.05,1.25-.34,2.5-1.11,3.74-4.26-1.25-8.61-1.79-12.38-1.8-6.49-1.04-9.34-1.14-9.34-2.12,0-2.48,8.8-4.52,20.13-4.8,1.65,1.56,2.62,3.23,2.69,4.99Z"/><path class="cls-23" d="M1647.95,572.35c-.12.19-.24.38-.38.57-4.9-1.15-8.86-1.87-11.99-2.37,3.76.02,8.12.56,12.38,1.8Z"/><path class="cls-9" d="M1644.49,562.08c.69.5,1.33,1.01,1.87,1.54-11.33.28-20.13,2.32-20.13,4.8,0,.98,2.85,1.08,9.34,2.12-5.76-.02-10.13,1.19-10.61,2.99-.58,2.22,4.65,5.43,10.39,8.13-11.23,5.33-26.71,9.01-35.8,8.48-.73-.04-2.94-.2-9.57-.62-12.5-.8-18.59-1.14-20.13-1.25-1.17-.08-16.23-4.48-27.27-9.85,6.49-2.77,10.5-6.66,10.33-10.81-.18-4.34-4.88-8.04-12.08-10.31,7.43-4.2,17.67-7.47,25.73-8.98,6.15-1.15,13.03-1.62,23.43-.62,11.71,1.12,31.01,4.35,44.35,9.34-5.58,2.83-8.94,5.58-8.32,7.18.27.7,1.68.39,18.48-2.13Z"/><path class="cls-26" d="M1647.57,572.91c-2.2,3.12-6.7,6.13-12.21,8.75-5.74-2.7-10.97-5.91-10.39-8.13.48-1.8,4.84-3.02,10.61-2.99,3.13.51,7.1,1.22,11.99,2.37Z"/><path class="cls-10" d="M1634.33,557.03c4.07,1.52,7.58,3.21,10.16,5.05-16.8,2.52-18.21,2.83-18.48,2.13-.61-1.6,2.75-4.35,8.32-7.18Z"/><path class="cls-9" d="M1552.92,567.61c.17,4.16-3.84,8.04-10.33,10.81-6.49-3.16-11.59-6.66-11.67-9.81-.11-4.08,4.03-7.98,9.91-11.31,7.21,2.27,11.9,5.97,12.08,10.31Z"/><path class="cls-9" d="M1540.83,557.3c-5.89,3.32-10.02,7.22-9.91,11.31.08,3.16,5.18,6.66,11.67,9.81-5.42,2.32-12.56,3.86-20.44,4.16-9.85.37-18.72-1.31-24.59-4.23,15.13-1.01,26.43-4.98,26.43-9.74,0-2.18-2.38-4.2-6.42-5.84h0c.32-.45.51-.95.51-1.48,0-1.88-2.31-3.4-5.17-3.4-2.24,0-4.16.94-4.86,2.26-2.32-.43-4.82-.77-7.46-1.03,5.41-2.32,12.55-3.86,20.42-4.15,7.46-.27,14.37.62,19.83,2.34Z"/><path class="cls-9" d="M1517.57,562.76c4.04,1.64,6.42,3.66,6.42,5.84,0,4.76-11.3,8.73-26.43,9.74-4.45-2.21-7.18-5.13-7.32-8.42-.17-4.16,3.85-8.05,10.35-10.82,2.65.26,5.15.6,7.46,1.03-.2.36-.3.74-.3,1.14,0,1.88,2.32,3.4,5.17,3.4,2.05,0,3.82-.79,4.66-1.92Z"/><path class="cls-16" d="M1518.08,561.28c0,.53-.18,1.03-.51,1.47-.79-.32-1.65-.62-2.57-.92.05-.14.07-.27.07-.42,0-1.04-1.28-1.89-2.85-1.89-1.06,0-1.98.38-2.47.94-.56-.12-1.13-.23-1.71-.34.71-1.32,2.62-2.26,4.86-2.26,2.86,0,5.17,1.52,5.17,3.4Z"/><path class="cls-16" d="M1517.57,562.76h0c-.84,1.14-2.61,1.93-4.66,1.93-2.85,0-5.17-1.52-5.17-3.4,0-.4.11-.79.3-1.14.58.11,1.15.22,1.71.34-.24.27-.38.6-.38.94,0,1.04,1.27,1.88,2.85,1.88,1.35,0,2.49-.62,2.78-1.46.92.29,1.78.6,2.57.92Z"/><path class="cls-17" d="M1515.08,561.42c0,.14-.03.28-.07.42-1.59-.51-3.35-.96-5.25-1.36.49-.56,1.41-.94,2.47-.94,1.57,0,2.85.84,2.85,1.89Z"/><path class="cls-17" d="M1509.76,560.48c1.9.4,3.66.86,5.25,1.36-.29.84-1.43,1.46-2.78,1.46-1.58,0-2.85-.84-2.85-1.88,0-.34.14-.67.38-.94Z"/><path class="cls-18" d="M1490,558.62c3.7,0,7.25.17,10.59.49-6.5,2.77-10.52,6.66-10.35,10.82.14,3.28,2.87,6.21,7.32,8.42-2.43.16-4.96.25-7.56.25-18.77,0-33.99-4.47-33.99-9.99s15.22-9.99,33.99-9.99Z"/><path class="cls-8" d="M1500.58,559.11c5.41-2.32,12.55-3.86,20.42-4.15,7.46-.27,14.37.62,19.83,2.34"/><path class="cls-8" d="M1542.59,578.42c-5.42,2.32-12.56,3.86-20.44,4.16-9.85.37-18.72-1.31-24.59-4.23"/><path class="cls-8" d="M1497.55,578.35c-2.43.16-4.96.25-7.56.25-18.77,0-33.99-4.47-33.99-9.99s15.22-9.99,33.99-9.99c3.7,0,7.25.17,10.59.49"/><line class="cls-5" x1="1457.17" y1="566.71" x2="1484.14" y2="566.71"/><path class="cls-7" d="M1508.05,560.14c.71-1.32,2.62-2.26,4.86-2.26,2.86,0,5.17,1.52,5.17,3.4,0,.53-.18,1.03-.51,1.47h0c-.84,1.14-2.61,1.93-4.66,1.93-2.85,0-5.17-1.52-5.17-3.4,0-.4.11-.79.3-1.14Z"/><path class="cls-2" d="M1509.76,560.48c.49-.56,1.41-.94,2.47-.94,1.57,0,2.85.84,2.85,1.89,0,.14-.03.28-.07.42-.29.84-1.43,1.46-2.78,1.46-1.58,0-2.85-.84-2.85-1.88,0-.34.14-.67.38-.94Z"/><path class="cls-3" d="M1644.49,562.08c.69.5,1.33,1.01,1.87,1.54"/><path class="cls-3" d="M1540.83,557.3c7.43-4.2,17.67-7.47,25.73-8.98,6.15-1.15,13.03-1.62,23.43-.62,11.71,1.12,31.01,4.35,44.35,9.34"/><path class="cls-3" d="M1647.95,572.35c-.12.19-.24.38-.38.57-2.2,3.12-6.7,6.13-12.21,8.75-11.23,5.33-26.71,9.01-35.8,8.48-.73-.04-2.94-.2-9.57-.62-12.5-.8-18.59-1.14-20.13-1.25-1.17-.08-16.23-4.48-27.27-9.85"/><path class="cls-3" d="M1634.33,557.03c3.17-1.62,7.06-3.26,11.35-4.74,9.23-3.17,21.83-5.59,23.16-2.83.95,1.98-4.03,6.24-7.9,8.47-4.04,2.32-7.64,2.84-11.76,3.45-1.68.25-3.24.48-4.69.7"/><path class="cls-6" d="M1652.81,574.11c8.75,3.88,16.45,11.39,14.98,14.17-1.7,3.22-15.54-.17-23.16-2.83-2.62-.91-6.03-2.27-9.28-3.79"/><path class="cls-3" d="M1647.95,572.35c1.49.43,2.97.96,4.41,1.57.15.06.3.13.46.2"/><path class="cls-6" d="M1646.37,563.62c.87-.02,1.76-.03,2.66-.03,9.3,0,22.68,1.61,22.78,4.83.08,2.45-8.88,5.94-13.51,6.12-2.08.08-3.76-.09-5.48-.42-1.19-.22-2.4-.52-3.79-.86-.5-.12-.98-.24-1.46-.34"/><path class="cls-4" d="M1610.35,550.68c30.59-2.01-.23-14.22-.23-14.22,13.2-3.12-.2-16.21-.2-16.21,7.72-.6-1.12-13.13-1.12-13.13,4.62-1.25-6.6-11.86-6.6-11.86l-6.6,8.12c-1.32,18.1-15.18,31.21-15.18,31.21-7.26,11.86-26.54,17.08-26.54,17.08"/><path class="cls-1" d="M1575.01,573.14s-20.33,13.11-18.33,30.11.19,60.13,9.1,33.56c0,0,34.9-17.56,6.9-23.56,0,0,47-18,8-13,0,0,38.41-12.3,15.2-21.65,0,0,1.18-3.57-2.51-5.46"/><path class="cls-11" d="M1140.68,100.68l-4.2,12.72h-5.4l13.74-40.44h6.3l13.8,40.44h-5.58l-4.32-12.72h-14.34ZM1153.94,96.6l-3.96-11.64c-.9-2.64-1.5-5.04-2.1-7.38h-.12c-.6,2.4-1.26,4.86-2.04,7.32l-3.96,11.7h12.18Z"/><path class="cls-11" d="M1170.68,92.22c0-3-.06-5.46-.24-7.86h4.68l.3,4.8h.12c1.44-2.76,4.8-5.46,9.6-5.46,4.02,0,10.26,2.4,10.26,12.36v17.34h-5.28v-16.74c0-4.68-1.74-8.58-6.72-8.58-3.48,0-6.18,2.46-7.08,5.4-.24.66-.36,1.56-.36,2.46v17.46h-5.28v-21.18Z"/><path class="cls-11" d="M1229.06,70.8v35.1c0,2.58.06,5.52.24,7.5h-4.74l-.24-5.04h-.12c-1.62,3.24-5.16,5.7-9.9,5.7-7.02,0-12.42-5.94-12.42-14.76-.06-9.66,5.94-15.6,13.02-15.6,4.44,0,7.44,2.1,8.76,4.44h.12v-17.34h5.28ZM1223.78,96.18c0-.66-.06-1.56-.24-2.22-.78-3.36-3.66-6.12-7.62-6.12-5.46,0-8.7,4.8-8.7,11.22,0,5.88,2.88,10.74,8.58,10.74,3.54,0,6.78-2.34,7.74-6.3.18-.72.24-1.44.24-2.28v-5.04Z"/><path class="cls-11" d="M1275.62,70.8v35.1c0,2.58.06,5.52.24,7.5h-4.74l-.24-5.04h-.12c-1.62,3.24-5.16,5.7-9.9,5.7-7.02,0-12.42-5.94-12.42-14.76-.06-9.66,5.94-15.6,13.02-15.6,4.44,0,7.44,2.1,8.76,4.44h.12v-17.34h5.28ZM1270.34,96.18c0-.66-.06-1.56-.24-2.22-.78-3.36-3.66-6.12-7.62-6.12-5.46,0-8.7,4.8-8.7,11.22,0,5.88,2.88,10.74,8.58,10.74,3.54,0,6.78-2.34,7.74-6.3.18-.72.24-1.44.24-2.28v-5.04Z"/><path class="cls-11" d="M1287.32,99.84c.12,7.14,4.68,10.08,9.96,10.08,3.78,0,6.06-.66,8.04-1.5l.9,3.78c-1.86.84-5.04,1.8-9.66,1.8-8.94,0-14.28-5.88-14.28-14.64s5.16-15.66,13.62-15.66c9.48,0,12,8.34,12,13.68,0,1.08-.12,1.92-.18,2.46h-20.4ZM1302.8,96.06c.06-3.36-1.38-8.58-7.32-8.58-5.34,0-7.68,4.92-8.1,8.58h15.42Z"/><path class="cls-11" d="M1314.44,93.42c0-3.42-.06-6.36-.24-9.06h4.62l.18,5.7h.24c1.32-3.9,4.5-6.36,8.04-6.36.6,0,1.02.06,1.5.18v4.98c-.54-.12-1.08-.18-1.8-.18-3.72,0-6.36,2.82-7.08,6.78-.12.72-.24,1.56-.24,2.46v15.48h-5.22v-19.98Z"/><path class="cls-11" d="M1352,97.68h.12c.72-1.02,1.74-2.28,2.58-3.3l8.52-10.02h6.36l-11.22,11.94,12.78,17.1h-6.42l-10.02-13.92-2.7,3v10.92h-5.22v-42.6h5.22v26.88Z"/><path class="cls-11" d="M1391,113.4l-.42-3.66h-.18c-1.62,2.28-4.74,4.32-8.88,4.32-5.88,0-8.88-4.14-8.88-8.34,0-7.02,6.24-10.86,17.46-10.8v-.6c0-2.4-.66-6.72-6.6-6.72-2.7,0-5.52.84-7.56,2.16l-1.2-3.48c2.4-1.56,5.88-2.58,9.54-2.58,8.88,0,11.04,6.06,11.04,11.88v10.86c0,2.52.12,4.98.48,6.96h-4.8ZM1390.22,98.58c-5.76-.12-12.3.9-12.3,6.54,0,3.42,2.28,5.04,4.98,5.04,3.78,0,6.18-2.4,7.02-4.86.18-.54.3-1.14.3-1.68v-5.04Z"/><path class="cls-11" d="M1403.84,92.22c0-3-.06-5.46-.24-7.86h4.68l.3,4.8h.12c1.44-2.76,4.8-5.46,9.6-5.46,4.02,0,10.26,2.4,10.26,12.36v17.34h-5.28v-16.74c0-4.68-1.74-8.58-6.72-8.58-3.48,0-6.18,2.46-7.08,5.4-.24.66-.36,1.56-.36,2.46v17.46h-5.28v-21.18Z"/><path class="cls-11" d="M1442.78,121.8c2.4-.18,4.5-.84,5.76-2.22,1.44-1.68,1.98-3.96,1.98-10.92v-24.3h5.28v26.34c0,5.64-.9,9.3-3.48,11.94-2.34,2.34-6.18,3.3-9,3.3l-.54-4.14ZM1456.4,76.2c.06,1.74-1.2,3.24-3.3,3.24-1.98,0-3.24-1.5-3.24-3.24,0-1.86,1.38-3.3,3.36-3.3s3.18,1.44,3.18,3.3Z"/><path class="cls-11" d="M1480.52,113.4l-.42-3.66h-.18c-1.62,2.28-4.74,4.32-8.88,4.32-5.88,0-8.88-4.14-8.88-8.34,0-7.02,6.24-10.86,17.46-10.8v-.6c0-2.4-.66-6.72-6.6-6.72-2.7,0-5.52.84-7.56,2.16l-1.2-3.48c2.4-1.56,5.88-2.58,9.54-2.58,8.88,0,11.04,6.06,11.04,11.88v10.86c0,2.52.12,4.98.48,6.96h-4.8ZM1479.74,98.58c-5.76-.12-12.3.9-12.3,6.54,0,3.42,2.28,5.04,4.98,5.04,3.78,0,6.18-2.4,7.02-4.86.18-.54.3-1.14.3-1.68v-5.04Z"/><path class="cls-11" d="M1518.38,84.36c-.12,2.1-.24,4.44-.24,7.98v16.86c0,6.66-1.32,10.74-4.14,13.26-2.82,2.64-6.9,3.48-10.56,3.48s-7.32-.84-9.66-2.4l1.32-4.02c1.92,1.2,4.92,2.28,8.52,2.28,5.4,0,9.36-2.82,9.36-10.14v-3.24h-.12c-1.62,2.7-4.74,4.86-9.24,4.86-7.2,0-12.36-6.12-12.36-14.16,0-9.84,6.42-15.42,13.08-15.42,5.04,0,7.8,2.64,9.06,5.04h.12l.24-4.38h4.62ZM1512.92,95.82c0-.9-.06-1.68-.3-2.4-.96-3.06-3.54-5.58-7.38-5.58-5.04,0-8.64,4.26-8.64,10.98,0,5.7,2.88,10.44,8.58,10.44,3.24,0,6.18-2.04,7.32-5.4.3-.9.42-1.92.42-2.82v-5.22Z"/><path class="cls-11" d="M1529.84,99.84c.12,7.14,4.68,10.08,9.96,10.08,3.78,0,6.06-.66,8.04-1.5l.9,3.78c-1.86.84-5.04,1.8-9.66,1.8-8.94,0-14.28-5.88-14.28-14.64s5.16-15.66,13.62-15.66c9.48,0,12,8.34,12,13.68,0,1.08-.12,1.92-.18,2.46h-20.4ZM1545.32,96.06c.06-3.36-1.38-8.58-7.32-8.58-5.34,0-7.68,4.92-8.1,8.58h15.42Z"/><path class="cls-11" d="M1556.24,108c1.56,1.02,4.32,2.1,6.96,2.1,3.84,0,5.64-1.92,5.64-4.32,0-2.52-1.5-3.9-5.4-5.34-5.22-1.86-7.68-4.74-7.68-8.22,0-4.68,3.78-8.52,10.02-8.52,2.94,0,5.52.84,7.14,1.8l-1.32,3.84c-1.14-.72-3.24-1.68-5.94-1.68-3.12,0-4.86,1.8-4.86,3.96,0,2.4,1.74,3.48,5.52,4.92,5.04,1.92,7.62,4.44,7.62,8.76,0,5.1-3.96,8.7-10.86,8.7-3.18,0-6.12-.78-8.16-1.98l1.32-4.02Z"/><path class="cls-11" d="M1389.38,402.76h21.78v4.38h-16.56v13.44h15.3v4.32h-15.3v18.3h-5.22v-40.44Z"/><path class="cls-11" d="M1418.42,423.22c0-3.42-.06-6.36-.24-9.06h4.62l.18,5.7h.24c1.32-3.9,4.5-6.36,8.04-6.36.6,0,1.02.06,1.5.18v4.98c-.54-.12-1.08-.18-1.8-.18-3.72,0-6.36,2.82-7.08,6.78-.12.72-.24,1.56-.24,2.46v15.48h-5.22v-19.98Z"/><path class="cls-11" d="M1440.98,429.63c.12,7.14,4.68,10.08,9.96,10.08,3.78,0,6.06-.66,8.04-1.5l.9,3.78c-1.86.84-5.04,1.8-9.66,1.8-8.94,0-14.28-5.88-14.28-14.64s5.16-15.66,13.62-15.66c9.48,0,12,8.34,12,13.68,0,1.08-.12,1.92-.18,2.46h-20.4ZM1456.46,425.85c.06-3.36-1.38-8.58-7.32-8.58-5.34,0-7.68,4.92-8.1,8.58h15.42Z"/><path class="cls-11" d="M1493.18,400.6v35.1c0,2.58.06,5.52.24,7.5h-4.74l-.24-5.04h-.12c-1.62,3.24-5.16,5.7-9.9,5.7-7.02,0-12.42-5.94-12.42-14.76-.06-9.66,5.94-15.6,13.02-15.6,4.44,0,7.44,2.1,8.76,4.44h.12v-17.34h5.28ZM1487.9,425.98c0-.66-.06-1.56-.24-2.22-.78-3.36-3.66-6.12-7.62-6.12-5.46,0-8.7,4.8-8.7,11.22,0,5.88,2.88,10.74,8.58,10.74,3.54,0,6.78-2.34,7.74-6.3.18-.72.24-1.44.24-2.28v-5.04Z"/><path class="cls-11" d="M1504.88,429.63c.12,7.14,4.68,10.08,9.96,10.08,3.78,0,6.06-.66,8.04-1.5l.9,3.78c-1.86.84-5.04,1.8-9.66,1.8-8.94,0-14.28-5.88-14.28-14.64s5.16-15.66,13.62-15.66c9.48,0,12,8.34,12,13.68,0,1.08-.12,1.92-.18,2.46h-20.4ZM1520.36,425.85c.06-3.36-1.38-8.58-7.32-8.58-5.34,0-7.68,4.92-8.1,8.58h15.42Z"/><path class="cls-11" d="M1538.36,405.82v8.34h7.56v4.02h-7.56v15.66c0,3.6,1.02,5.64,3.96,5.64,1.38,0,2.4-.18,3.06-.36l.24,3.96c-1.02.42-2.64.72-4.68.72-2.46,0-4.44-.78-5.7-2.22-1.5-1.56-2.04-4.14-2.04-7.56v-15.84h-4.5v-4.02h4.5v-6.96l5.16-1.38Z"/><path class="cls-11" d="M1580.66,443.19l-.42-3.66h-.18c-1.62,2.28-4.74,4.32-8.88,4.32-5.88,0-8.88-4.14-8.88-8.34,0-7.02,6.24-10.86,17.46-10.8v-.6c0-2.4-.66-6.72-6.6-6.72-2.7,0-5.52.84-7.56,2.16l-1.2-3.48c2.4-1.56,5.88-2.58,9.54-2.58,8.88,0,11.04,6.06,11.04,11.88v10.86c0,2.52.12,4.98.48,6.96h-4.8ZM1579.88,428.38c-5.76-.12-12.3.9-12.3,6.54,0,3.42,2.28,5.04,4.98,5.04,3.78,0,6.18-2.4,7.02-4.86.18-.54.3-1.14.3-1.68v-5.04Z"/><path class="cls-11" d="M1593.5,422.02c0-3-.06-5.46-.24-7.86h4.68l.3,4.8h.12c1.44-2.76,4.8-5.46,9.6-5.46,4.02,0,10.26,2.4,10.26,12.36v17.34h-5.28v-16.74c0-4.68-1.74-8.58-6.72-8.58-3.48,0-6.18,2.46-7.08,5.4-.24.66-.36,1.56-.36,2.46v17.46h-5.28v-21.18Z"/><path class="cls-11" d="M1651.88,400.6v35.1c0,2.58.06,5.52.24,7.5h-4.74l-.24-5.04h-.12c-1.62,3.24-5.16,5.7-9.9,5.7-7.02,0-12.42-5.94-12.42-14.76-.06-9.66,5.94-15.6,13.02-15.6,4.44,0,7.44,2.1,8.76,4.44h.12v-17.34h5.28ZM1646.6,425.98c0-.66-.06-1.56-.24-2.22-.78-3.36-3.66-6.12-7.62-6.12-5.46,0-8.7,4.8-8.7,11.22,0,5.88,2.88,10.74,8.58,10.74,3.54,0,6.78-2.34,7.74-6.3.18-.72.24-1.44.24-2.28v-5.04Z"/><path class="cls-11" d="M964.56,623.81h5.22v19.5h.18c1.08-1.56,2.16-3,3.18-4.32l12.36-15.18h6.48l-14.64,17.16,15.78,23.28h-6.18l-13.32-19.86-3.84,4.44v15.42h-5.22v-40.44Z"/><path class="cls-11" d="M1002.78,627.05c.06,1.8-1.26,3.24-3.36,3.24-1.86,0-3.18-1.44-3.18-3.24s1.38-3.3,3.3-3.3,3.24,1.44,3.24,3.3ZM996.9,664.25v-29.04h5.28v29.04h-5.28Z"/><path class="cls-11" d="M1035.96,635.21c-.12,2.1-.24,4.44-.24,7.98v16.86c0,6.66-1.32,10.74-4.14,13.26-2.82,2.64-6.9,3.48-10.56,3.48s-7.32-.84-9.66-2.4l1.32-4.02c1.92,1.2,4.92,2.28,8.52,2.28,5.4,0,9.36-2.82,9.36-10.14v-3.24h-.12c-1.62,2.7-4.74,4.86-9.24,4.86-7.2,0-12.36-6.12-12.36-14.16,0-9.84,6.42-15.42,13.08-15.42,5.04,0,7.8,2.64,9.06,5.04h.12l.24-4.38h4.62ZM1030.5,646.67c0-.9-.06-1.68-.3-2.4-.96-3.06-3.54-5.58-7.38-5.58-5.04,0-8.64,4.26-8.64,10.98,0,5.7,2.88,10.44,8.58,10.44,3.24,0,6.18-2.04,7.32-5.4.3-.9.42-1.92.42-2.82v-5.22Z"/><path class="cls-11" d="M1082.22,635.21c-.12,2.1-.24,4.44-.24,7.98v16.86c0,6.66-1.32,10.74-4.14,13.26-2.82,2.64-6.9,3.48-10.56,3.48s-7.32-.84-9.66-2.4l1.32-4.02c1.92,1.2,4.92,2.28,8.52,2.28,5.4,0,9.36-2.82,9.36-10.14v-3.24h-.12c-1.62,2.7-4.74,4.86-9.24,4.86-7.2,0-12.36-6.12-12.36-14.16,0-9.84,6.42-15.42,13.08-15.42,5.04,0,7.8,2.64,9.06,5.04h.12l.24-4.38h4.62ZM1076.76,646.67c0-.9-.06-1.68-.3-2.4-.96-3.06-3.54-5.58-7.38-5.58-5.04,0-8.64,4.26-8.64,10.98,0,5.7,2.88,10.44,8.58,10.44,3.24,0,6.18-2.04,7.32-5.4.3-.9.42-1.92.42-2.82v-5.22Z"/><path class="cls-11" d="M1117.02,649.49c0,10.74-7.44,15.42-14.46,15.42-7.86,0-13.92-5.76-13.92-14.94,0-9.72,6.36-15.42,14.4-15.42s13.98,6.06,13.98,14.94ZM1093.98,649.79c0,6.36,3.66,11.16,8.82,11.16s8.82-4.74,8.82-11.28c0-4.92-2.46-11.16-8.7-11.16s-8.94,5.76-8.94,11.28Z"/><path class="cls-11" d="M1148.76,621.65v35.1c0,2.58.06,5.52.24,7.5h-4.74l-.24-5.04h-.12c-1.62,3.24-5.16,5.7-9.9,5.7-7.02,0-12.42-5.94-12.42-14.76-.06-9.66,5.94-15.6,13.02-15.6,4.44,0,7.44,2.1,8.76,4.44h.12v-17.34h5.28ZM1143.48,647.03c0-.66-.06-1.56-.24-2.22-.78-3.36-3.66-6.12-7.62-6.12-5.46,0-8.7,4.8-8.7,11.22,0,5.88,2.88,10.74,8.58,10.74,3.54,0,6.78-2.34,7.74-6.3.18-.72.24-1.44.24-2.28v-5.04Z"/><path class="cls-11" d="M1163.88,626.87v8.34h7.56v4.02h-7.56v15.66c0,3.6,1.02,5.64,3.96,5.64,1.38,0,2.4-.18,3.06-.36l.24,3.96c-1.02.42-2.64.72-4.68.72-2.46,0-4.44-.78-5.7-2.22-1.5-1.56-2.04-4.14-2.04-7.56v-15.84h-4.5v-4.02h4.5v-6.96l5.16-1.38Z"/><path class="cls-11" d="M1190.1,644.69c0-3.72-.12-6.72-.24-9.48h4.74l.24,4.98h.12c2.16-3.54,5.58-5.64,10.32-5.64,7.02,0,12.3,5.94,12.3,14.76,0,10.44-6.36,15.6-13.2,15.6-3.84,0-7.2-1.68-8.94-4.56h-.12v15.78h-5.22v-31.44ZM1195.32,652.43c0,.78.12,1.5.24,2.16.96,3.66,4.14,6.18,7.92,6.18,5.58,0,8.82-4.56,8.82-11.22,0-5.82-3.06-10.8-8.64-10.8-3.6,0-6.96,2.58-7.98,6.54-.18.66-.36,1.44-.36,2.16v4.98Z"/><path class="cls-11" d="M1240.31,664.25l-.42-3.66h-.18c-1.62,2.28-4.74,4.32-8.88,4.32-5.88,0-8.88-4.14-8.88-8.34,0-7.02,6.24-10.86,17.46-10.8v-.6c0-2.4-.66-6.72-6.6-6.72-2.7,0-5.52.84-7.56,2.16l-1.2-3.48c2.4-1.56,5.88-2.58,9.54-2.58,8.88,0,11.04,6.06,11.04,11.88v10.86c0,2.52.12,4.98.48,6.96h-4.8ZM1239.53,649.43c-5.76-.12-12.3.9-12.3,6.54,0,3.42,2.28,5.04,4.98,5.04,3.78,0,6.18-2.4,7.02-4.86.18-.54.3-1.14.3-1.68v-5.04ZM1228.19,626.57c0-3.18,2.34-5.7,6.12-5.7s5.94,2.46,5.94,5.64-2.58,5.52-6,5.52c-3.6,0-6.06-2.4-6.06-5.46ZM1237.31,626.45c0-1.8-1.2-3.3-3.12-3.3s-2.94,1.56-2.94,3.42c0,1.56,1.2,3.24,2.94,3.24,1.92,0,3.12-1.56,3.12-3.36Z"/><path class="cls-11" d="M1290.95,621.65v35.1c0,2.58.06,5.52.24,7.5h-4.74l-.24-5.04h-.12c-1.62,3.24-5.16,5.7-9.9,5.7-7.02,0-12.42-5.94-12.42-14.76-.06-9.66,5.94-15.6,13.02-15.6,4.44,0,7.44,2.1,8.76,4.44h.12v-17.34h5.28ZM1285.67,647.03c0-.66-.06-1.56-.24-2.22-.78-3.36-3.66-6.12-7.62-6.12-5.46,0-8.7,4.8-8.7,11.22,0,5.88,2.88,10.74,8.58,10.74,3.54,0,6.78-2.34,7.74-6.3.18-.72.24-1.44.24-2.28v-5.04Z"/><path class="cls-11" d="M1302.65,650.69c.12,7.14,4.68,10.08,9.96,10.08,3.78,0,6.06-.66,8.04-1.5l.9,3.78c-1.86.84-5.04,1.8-9.66,1.8-8.94,0-14.28-5.88-14.28-14.64s5.16-15.66,13.62-15.66c9.48,0,12,8.34,12,13.68,0,1.08-.12,1.92-.18,2.46h-20.4ZM1318.13,646.91c.06-3.36-1.38-8.58-7.32-8.58-5.34,0-7.68,4.92-8.1,8.58h15.42Z"/><path class="cls-11" d="M1342.07,658.19c1.5.96,4.98,2.46,8.64,2.46,6.78,0,8.88-4.32,8.82-7.56-.06-5.46-4.98-7.8-10.08-7.8h-2.94v-3.96h2.94c3.84,0,8.7-1.98,8.7-6.6,0-3.12-1.98-5.88-6.84-5.88-3.12,0-6.12,1.38-7.8,2.58l-1.38-3.84c2.04-1.5,6-3,10.2-3,7.68,0,11.16,4.56,11.16,9.3,0,4.02-2.4,7.44-7.2,9.18v.12c4.8.96,8.7,4.56,8.7,10.02,0,6.24-4.86,11.7-14.22,11.7-4.38,0-8.22-1.38-10.14-2.64l1.44-4.08Z"/><path class="cls-11" d="M1386.53,664.25v-25.02h-4.08v-4.02h4.08v-1.56c0-7.68,4.5-12.66,12.66-12.66,2.7,0,5.88.84,7.38,1.92l-1.5,4.02c-1.26-.9-3.54-1.68-6.12-1.68-5.58,0-7.2,3.9-7.2,8.52v1.44h16.86v26.34c0,5.64-.9,9.3-3.48,11.94-2.28,2.34-6.18,3.3-9,3.3l-.54-4.14c2.46-.18,4.5-.84,5.76-2.22,1.44-1.68,2.04-3.96,2.04-10.92v-20.28h-11.64v25.02h-5.22Z"/><path class="cls-11" d="M1420.25,650.69c.12,7.14,4.68,10.08,9.96,10.08,3.78,0,6.06-.66,8.04-1.5l.9,3.78c-1.86.84-5.04,1.8-9.66,1.8-8.94,0-14.28-5.88-14.28-14.64s5.16-15.66,13.62-15.66c9.48,0,12,8.34,12,13.68,0,1.08-.12,1.92-.18,2.46h-20.4ZM1435.73,646.91c.06-3.36-1.38-8.58-7.32-8.58-5.34,0-7.68,4.92-8.1,8.58h15.42Z"/><path class="cls-11" d="M1447.37,644.27c0-3.42-.06-6.36-.24-9.06h4.62l.18,5.7h.24c1.32-3.9,4.5-6.36,8.04-6.36.6,0,1.02.06,1.5.18v4.98c-.54-.12-1.08-.18-1.8-.18-3.72,0-6.36,2.82-7.08,6.78-.12.72-.24,1.56-.24,2.46v15.48h-5.22v-19.98Z"/><path class="cls-11" d="M1463.57,671.62c1.32-3.54,2.94-9.96,3.6-14.34l5.88-.6c-1.38,5.1-4.02,11.76-5.7,14.58l-3.78.36Z"/><path class="cls-11" d="M964.92,736.25v-25.02h-4.08v-4.02h4.08v-1.38c0-4.08.9-7.8,3.36-10.14,1.98-1.92,4.62-2.7,7.08-2.7,1.86,0,3.48.42,4.5.84l-.72,4.08c-.78-.36-1.86-.66-3.36-.66-4.5,0-5.64,3.96-5.64,8.4v1.56h7.02v4.02h-7.02v25.02h-5.22Z"/><path class="cls-11" d="M1008.18,721.49c0,10.74-7.44,15.42-14.46,15.42-7.86,0-13.92-5.76-13.92-14.94,0-9.72,6.36-15.42,14.4-15.42s13.98,6.06,13.98,14.94ZM985.14,721.79c0,6.36,3.66,11.16,8.82,11.16s8.82-4.74,8.82-11.28c0-4.92-2.46-11.16-8.7-11.16s-8.94,5.76-8.94,11.28Z"/><path class="cls-11" d="M1014.84,716.27c0-3.42-.06-6.36-.24-9.06h4.62l.18,5.7h.24c1.32-3.9,4.5-6.36,8.04-6.36.6,0,1.02.06,1.5.18v4.98c-.54-.12-1.08-.18-1.8-.18-3.72,0-6.36,2.82-7.08,6.78-.12.72-.24,1.56-.24,2.46v15.48h-5.22v-19.98Z"/><path class="cls-11" d="M1063.26,736.25l-.42-3.66h-.18c-1.62,2.28-4.74,4.32-8.88,4.32-5.88,0-8.88-4.14-8.88-8.34,0-7.02,6.24-10.86,17.46-10.8v-.6c0-2.4-.66-6.72-6.6-6.72-2.7,0-5.52.84-7.56,2.16l-1.2-3.48c2.4-1.56,5.88-2.58,9.54-2.58,8.88,0,11.04,6.06,11.04,11.88v10.86c0,2.52.12,4.98.48,6.96h-4.8ZM1062.48,721.43c-5.76-.12-12.3.9-12.3,6.54,0,3.42,2.28,5.04,4.98,5.04,3.78,0,6.18-2.4,7.02-4.86.18-.54.3-1.14.3-1.68v-5.04Z"/><path class="cls-11" d="M1082.46,698.87v8.34h7.56v4.02h-7.56v15.66c0,3.6,1.02,5.64,3.96,5.64,1.38,0,2.4-.18,3.06-.36l.24,3.96c-1.02.42-2.64.72-4.68.72-2.46,0-4.44-.78-5.7-2.22-1.5-1.56-2.04-4.14-2.04-7.56v-15.84h-4.5v-4.02h4.5v-6.96l5.16-1.38Z"/><path class="cls-11" d="M1107.96,730.85c1.56,1.02,4.32,2.1,6.96,2.1,3.84,0,5.64-1.92,5.64-4.32,0-2.52-1.5-3.9-5.4-5.34-5.22-1.86-7.68-4.74-7.68-8.22,0-4.68,3.78-8.52,10.02-8.52,2.94,0,5.52.84,7.14,1.8l-1.32,3.84c-1.14-.72-3.24-1.68-5.94-1.68-3.12,0-4.86,1.8-4.86,3.96,0,2.4,1.74,3.48,5.52,4.92,5.04,1.92,7.62,4.44,7.62,8.76,0,5.1-3.96,8.7-10.86,8.7-3.18,0-6.12-.78-8.16-1.98l1.32-4.02Z"/><path class="cls-11" d="M1135.38,722.69c.12,7.14,4.68,10.08,9.96,10.08,3.78,0,6.06-.66,8.04-1.5l.9,3.78c-1.86.84-5.04,1.8-9.66,1.8-8.94,0-14.28-5.88-14.28-14.64s5.16-15.66,13.62-15.66c9.48,0,12,8.34,12,13.68,0,1.08-.12,1.92-.18,2.46h-20.4ZM1150.86,718.91c.06-3.36-1.38-8.58-7.32-8.58-5.34,0-7.68,4.92-8.1,8.58h15.42Z"/><path class="cls-11" d="M1175.76,736.25v-25.02h-4.08v-4.02h4.08v-1.38c0-4.08.9-7.8,3.36-10.14,1.98-1.92,4.62-2.7,7.08-2.7,1.86,0,3.48.42,4.5.84l-.72,4.08c-.78-.36-1.86-.66-3.36-.66-4.5,0-5.64,3.96-5.64,8.4v1.56h7.02v4.02h-7.02v25.02h-5.22Z"/><path class="cls-11" d="M1219.02,721.49c0,10.74-7.44,15.42-14.46,15.42-7.86,0-13.92-5.76-13.92-14.94,0-9.72,6.36-15.42,14.4-15.42s13.98,6.06,13.98,14.94ZM1195.98,721.79c0,6.36,3.66,11.16,8.82,11.16s8.82-4.74,8.82-11.28c0-4.92-2.46-11.16-8.7-11.16s-8.94,5.76-8.94,11.28Z"/><path class="cls-11" d="M1225.68,716.27c0-3.42-.06-6.36-.24-9.06h4.62l.18,5.7h.24c1.32-3.9,4.5-6.36,8.04-6.36.6,0,1.02.06,1.5.18v4.98c-.54-.12-1.08-.18-1.8-.18-3.72,0-6.36,2.82-7.08,6.78-.12.72-.24,1.56-.24,2.46v15.48h-5.22v-19.98Z"/><path class="cls-11" d="M1244.58,730.85c1.56,1.02,4.32,2.1,6.96,2.1,3.84,0,5.64-1.92,5.64-4.32,0-2.52-1.5-3.9-5.4-5.34-5.22-1.86-7.68-4.74-7.68-8.22,0-4.68,3.78-8.52,10.02-8.52,2.94,0,5.52.84,7.14,1.8l-1.32,3.84c-1.14-.72-3.24-1.68-5.94-1.68-3.12,0-4.86,1.8-4.86,3.96,0,2.4,1.74,3.48,5.52,4.92,5.04,1.92,7.62,4.44,7.62,8.76,0,5.1-3.96,8.7-10.86,8.7-3.18,0-6.12-.78-8.16-1.98l1.32-4.02Z"/><path class="cls-11" d="M1274.28,720.53h.12c.72-1.02,1.74-2.28,2.58-3.3l8.52-10.02h6.36l-11.22,11.94,12.78,17.1h-6.42l-10.02-13.92-2.7,3v10.92h-5.22v-42.6h5.22v26.88Z"/><path class="cls-11" d="M1300.13,722.69c.12,7.14,4.68,10.08,9.96,10.08,3.78,0,6.06-.66,8.04-1.5l.9,3.78c-1.86.84-5.04,1.8-9.66,1.8-8.94,0-14.28-5.88-14.28-14.64s5.16-15.66,13.62-15.66c9.48,0,12,8.34,12,13.68,0,1.08-.12,1.92-.18,2.46h-20.4ZM1315.61,718.91c.06-3.36-1.38-8.58-7.32-8.58-5.34,0-7.68,4.92-8.1,8.58h15.42Z"/><path class="cls-11" d="M1327.25,693.65h5.28v42.6h-5.28v-42.6Z"/><path class="cls-11" d="M1337.99,743.62c1.32-3.54,2.94-9.96,3.6-14.34l5.88-.6c-1.38,5.1-4.02,11.76-5.7,14.58l-3.78.36Z"/><path class="cls-11" d="M1365.83,730.85c1.56,1.02,4.32,2.1,6.96,2.1,3.84,0,5.64-1.92,5.64-4.32,0-2.52-1.5-3.9-5.4-5.34-5.22-1.86-7.68-4.74-7.68-8.22,0-4.68,3.78-8.52,10.02-8.52,2.94,0,5.52.84,7.14,1.8l-1.32,3.84c-1.14-.72-3.24-1.68-5.94-1.68-3.12,0-4.86,1.8-4.86,3.96,0,2.4,1.74,3.48,5.52,4.92,5.04,1.92,7.62,4.44,7.62,8.76,0,5.1-3.96,8.7-10.86,8.7-3.18,0-6.12-.78-8.16-1.98l1.32-4.02Z"/><path class="cls-11" d="M1406.39,736.25l-.42-3.66h-.18c-1.62,2.28-4.74,4.32-8.88,4.32-5.88,0-8.88-4.14-8.88-8.34,0-7.02,6.24-10.86,17.46-10.8v-.6c0-2.4-.66-6.72-6.6-6.72-2.7,0-5.52.84-7.56,2.16l-1.2-3.48c2.4-1.56,5.88-2.58,9.54-2.58,8.88,0,11.04,6.06,11.04,11.88v10.86c0,2.52.12,4.98.48,6.96h-4.8ZM1405.61,721.43c-5.76-.12-12.3.9-12.3,6.54,0,3.42,2.28,5.04,4.98,5.04,3.78,0,6.18-2.4,7.02-4.86.18-.54.3-1.14.3-1.68v-5.04ZM1394.27,698.57c0-3.18,2.34-5.7,6.12-5.7s5.94,2.46,5.94,5.64-2.58,5.52-6,5.52c-3.6,0-6.06-2.4-6.06-5.46ZM1403.39,698.45c0-1.8-1.2-3.3-3.12-3.3s-2.94,1.56-2.94,3.42c0,1.56,1.2,3.24,2.94,3.24,1.92,0,3.12-1.56,3.12-3.36Z"/><path class="cls-11" d="M1457.03,693.65v35.1c0,2.58.06,5.52.24,7.5h-4.74l-.24-5.04h-.12c-1.62,3.24-5.16,5.7-9.9,5.7-7.02,0-12.42-5.94-12.42-14.76-.06-9.66,5.94-15.6,13.02-15.6,4.44,0,7.44,2.1,8.76,4.44h.12v-17.34h5.28ZM1451.75,719.03c0-.66-.06-1.56-.24-2.22-.78-3.36-3.66-6.12-7.62-6.12-5.46,0-8.7,4.8-8.7,11.22,0,5.88,2.88,10.74,8.58,10.74,3.54,0,6.78-2.34,7.74-6.3.18-.72.24-1.44.24-2.28v-5.04Z"/><path class="cls-11" d="M1490.09,728.33c0,3,.06,5.64.24,7.92h-4.68l-.3-4.74h-.12c-1.38,2.34-4.44,5.4-9.6,5.4-4.56,0-10.02-2.52-10.02-12.72v-16.98h5.28v16.08c0,5.52,1.68,9.24,6.48,9.24,3.54,0,6-2.46,6.96-4.8.3-.78.48-1.74.48-2.7v-17.82h5.28v21.12Z"/><path class="cls-11" d="M970.26,771.05c.06,1.8-1.26,3.24-3.36,3.24-1.86,0-3.18-1.44-3.18-3.24s1.38-3.3,3.3-3.3,3.24,1.44,3.24,3.3ZM964.38,808.25v-29.04h5.28v29.04h-5.28Z"/><path class="cls-11" d="M983.64,792.53h.12c.72-1.02,1.74-2.28,2.58-3.3l8.52-10.02h6.36l-11.22,11.94,12.78,17.1h-6.42l-10.02-13.92-2.7,3v10.92h-5.22v-42.6h5.22v26.88Z"/><path class="cls-11" d="M1011.78,792.53h.12c.72-1.02,1.74-2.28,2.58-3.3l8.52-10.02h6.36l-11.22,11.94,12.78,17.1h-6.42l-10.02-13.92-2.7,3v10.92h-5.22v-42.6h5.22v26.88Z"/><path class="cls-11" d="M1037.64,794.69c.12,7.14,4.68,10.08,9.96,10.08,3.78,0,6.06-.66,8.04-1.5l.9,3.78c-1.86.84-5.04,1.8-9.66,1.8-8.94,0-14.28-5.88-14.28-14.64s5.16-15.66,13.62-15.66c9.48,0,12,8.34,12,13.68,0,1.08-.12,1.92-.18,2.46h-20.4ZM1053.12,790.91c.06-3.36-1.38-8.58-7.32-8.58-5.34,0-7.68,4.92-8.1,8.58h15.42Z"/><path class="cls-11" d="M1076.76,802.85c1.56,1.02,4.32,2.1,6.96,2.1,3.84,0,5.64-1.92,5.64-4.32,0-2.52-1.5-3.9-5.4-5.34-5.22-1.86-7.68-4.74-7.68-8.22,0-4.68,3.78-8.52,10.02-8.52,2.94,0,5.52.84,7.14,1.8l-1.32,3.84c-1.14-.72-3.24-1.68-5.94-1.68-3.12,0-4.86,1.8-4.86,3.96,0,2.4,1.74,3.48,5.52,4.92,5.04,1.92,7.62,4.44,7.62,8.76,0,5.1-3.96,8.7-10.86,8.7-3.18,0-6.12-.78-8.16-1.98l1.32-4.02Z"/><path class="cls-11" d="M1106.46,792.53h.12c.72-1.02,1.74-2.28,2.58-3.3l8.52-10.02h6.36l-11.22,11.94,12.78,17.1h-6.42l-10.02-13.92-2.7,3v10.92h-5.22v-42.6h5.22v26.88Z"/><path class="cls-11" d="M1131.3,779.21l6.36,17.16c.66,1.92,1.38,4.2,1.86,5.94h.12c.54-1.74,1.14-3.96,1.86-6.06l5.76-17.04h5.58l-7.92,20.7c-3.78,9.96-6.36,15.06-9.96,18.18-2.58,2.28-5.16,3.18-6.48,3.42l-1.32-4.44c1.32-.42,3.06-1.26,4.62-2.58,1.44-1.14,3.24-3.18,4.44-5.88.24-.54.42-.96.42-1.26s-.12-.72-.36-1.38l-10.74-26.76h5.76Z"/><path class="cls-11" d="M1182.72,765.65v35.1c0,2.58.06,5.52.24,7.5h-4.74l-.24-5.04h-.12c-1.62,3.24-5.16,5.7-9.9,5.7-7.02,0-12.42-5.94-12.42-14.76-.06-9.66,5.94-15.6,13.02-15.6,4.44,0,7.44,2.1,8.76,4.44h.12v-17.34h5.28ZM1177.44,791.03c0-.66-.06-1.56-.24-2.22-.78-3.36-3.66-6.12-7.62-6.12-5.46,0-8.7,4.8-8.7,11.22,0,5.88,2.88,10.74,8.58,10.74,3.54,0,6.78-2.34,7.74-6.3.18-.72.24-1.44.24-2.28v-5.04Z"/><path class="cls-11" d="M1194.42,794.69c.12,7.14,4.68,10.08,9.96,10.08,3.78,0,6.06-.66,8.04-1.5l.9,3.78c-1.86.84-5.04,1.8-9.66,1.8-8.94,0-14.28-5.88-14.28-14.64s5.16-15.66,13.62-15.66c9.48,0,12,8.34,12,13.68,0,1.08-.12,1.92-.18,2.46h-20.4ZM1209.9,790.91c.06-3.36-1.38-8.58-7.32-8.58-5.34,0-7.68,4.92-8.1,8.58h15.42Z"/><path class="cls-11" d="M1221.54,788.27c0-3.42-.06-6.36-.24-9.06h4.62l.18,5.7h.24c1.32-3.9,4.5-6.36,8.04-6.36.6,0,1.02.06,1.5.18v4.98c-.54-.12-1.08-.18-1.8-.18-3.72,0-6.36,2.82-7.08,6.78-.12.72-.24,1.56-.24,2.46v15.48h-5.22v-19.98Z"/><path class="cls-11" d="M1256.82,794.69c.12,7.14,4.68,10.08,9.96,10.08,3.78,0,6.06-.66,8.04-1.5l.9,3.78c-1.86.84-5.04,1.8-9.66,1.8-8.94,0-14.28-5.88-14.28-14.64s5.16-15.66,13.62-15.66c9.48,0,12,8.34,12,13.68,0,1.08-.12,1.92-.18,2.46h-20.4ZM1272.3,790.91c.06-3.36-1.38-8.58-7.32-8.58-5.34,0-7.68,4.92-8.1,8.58h15.42Z"/><path class="cls-11" d="M1283.94,787.07c0-3-.06-5.46-.24-7.86h4.68l.3,4.8h.12c1.44-2.76,4.8-5.46,9.6-5.46,4.02,0,10.26,2.4,10.26,12.36v17.34h-5.28v-16.74c0-4.68-1.74-8.58-6.72-8.58-3.48,0-6.18,2.46-7.08,5.4-.24.66-.36,1.56-.36,2.46v17.46h-5.28v-21.18Z"/><path class="cls-11" d="M1330.5,808.25v-25.02h-4.08v-4.02h4.08v-1.38c0-4.08.9-7.8,3.36-10.14,1.98-1.92,4.62-2.7,7.08-2.7,1.86,0,3.48.42,4.5.84l-.72,4.08c-.78-.36-1.86-.66-3.36-.66-4.5,0-5.64,3.96-5.64,8.4v1.56h7.02v4.02h-7.02v25.02h-5.22Z"/><path class="cls-11" d="M1347.48,788.27c0-3.42-.06-6.36-.24-9.06h4.62l.18,5.7h.24c1.32-3.9,4.5-6.36,8.04-6.36.6,0,1.02.06,1.5.18v4.98c-.54-.12-1.08-.18-1.8-.18-3.72,0-6.36,2.82-7.08,6.78-.12.72-.24,1.56-.24,2.46v15.48h-5.22v-19.98Z"/><path class="cls-11" d="M1370.04,794.69c.12,7.14,4.68,10.08,9.96,10.08,3.78,0,6.06-.66,8.04-1.5l.9,3.78c-1.86.84-5.04,1.8-9.66,1.8-8.94,0-14.28-5.88-14.28-14.64s5.16-15.66,13.62-15.66c9.48,0,12,8.34,12,13.68,0,1.08-.12,1.92-.18,2.46h-20.4ZM1385.51,790.91c.06-3.36-1.38-8.58-7.32-8.58-5.34,0-7.68,4.92-8.1,8.58h15.42Z"/><path class="cls-11" d="M1422.23,765.65v35.1c0,2.58.06,5.52.24,7.5h-4.74l-.24-5.04h-.12c-1.62,3.24-5.16,5.7-9.9,5.7-7.02,0-12.42-5.94-12.42-14.76-.06-9.66,5.94-15.6,13.02-15.6,4.44,0,7.44,2.1,8.76,4.44h.12v-17.34h5.28ZM1416.95,791.03c0-.66-.06-1.56-.24-2.22-.78-3.36-3.66-6.12-7.62-6.12-5.46,0-8.7,4.8-8.7,11.22,0,5.88,2.88,10.74,8.58,10.74,3.54,0,6.78-2.34,7.74-6.3.18-.72.24-1.44.24-2.28v-5.04Z"/><path class="cls-11" d="M1433.93,794.69c.12,7.14,4.68,10.08,9.96,10.08,3.78,0,6.06-.66,8.04-1.5l.9,3.78c-1.86.84-5.04,1.8-9.66,1.8-8.94,0-14.28-5.88-14.28-14.64s5.16-15.66,13.62-15.66c9.48,0,12,8.34,12,13.68,0,1.08-.12,1.92-.18,2.46h-20.4ZM1449.41,790.91c.06-3.36-1.38-8.58-7.32-8.58-5.34,0-7.68,4.92-8.1,8.58h15.42Z"/><path class="cls-11" d="M1467.41,770.87v8.34h7.56v4.02h-7.56v15.66c0,3.6,1.02,5.64,3.96,5.64,1.38,0,2.4-.18,3.06-.36l.24,3.96c-1.02.42-2.64.72-4.68.72-2.46,0-4.44-.78-5.7-2.22-1.5-1.56-2.04-4.14-2.04-7.56v-15.84h-4.5v-4.02h4.5v-6.96l5.16-1.38Z"/><path class="cls-11" d="M980.46,880.25l-.42-3.66h-.18c-1.62,2.28-4.74,4.32-8.88,4.32-5.88,0-8.88-4.14-8.88-8.34,0-7.02,6.24-10.86,17.46-10.8v-.6c0-2.4-.66-6.72-6.6-6.72-2.7,0-5.52.84-7.56,2.16l-1.2-3.48c2.4-1.56,5.88-2.58,9.54-2.58,8.88,0,11.04,6.06,11.04,11.88v10.86c0,2.52.12,4.98.48,6.96h-4.8ZM979.68,865.43c-5.76-.12-12.3.9-12.3,6.54,0,3.42,2.28,5.04,4.98,5.04,3.78,0,6.18-2.4,7.02-4.86.18-.54.3-1.14.3-1.68v-5.04Z"/><path class="cls-11" d="M993.3,859.07c0-3-.06-5.46-.24-7.86h4.68l.3,4.8h.12c1.44-2.76,4.8-5.46,9.6-5.46,4.02,0,10.26,2.4,10.26,12.36v17.34h-5.28v-16.74c0-4.68-1.74-8.58-6.72-8.58-3.48,0-6.18,2.46-7.08,5.4-.24.66-.36,1.56-.36,2.46v17.46h-5.28v-21.18Z"/><path class="cls-11" d="M1051.68,837.65v35.1c0,2.58.06,5.52.24,7.5h-4.74l-.24-5.04h-.12c-1.62,3.24-5.16,5.7-9.9,5.7-7.02,0-12.42-5.94-12.42-14.76-.06-9.66,5.94-15.6,13.02-15.6,4.44,0,7.44,2.1,8.76,4.44h.12v-17.34h5.28ZM1046.4,863.03c0-.66-.06-1.56-.24-2.22-.78-3.36-3.66-6.12-7.62-6.12-5.46,0-8.7,4.8-8.7,11.22,0,5.88,2.88,10.74,8.58,10.74,3.54,0,6.78-2.34,7.74-6.3.18-.72.24-1.44.24-2.28v-5.04Z"/><path class="cls-11" d="M1059.18,877.12c0-2.22,1.5-3.78,3.6-3.78s3.54,1.56,3.54,3.78-1.38,3.78-3.6,3.78c-2.1,0-3.54-1.62-3.54-3.78Z"/></g></svg>