<?xml version="1.0" encoding="UTF-8"?><svg id="Layer_1" xmlns="http://www.w3.org/2000/svg" width="637" height="183" viewBox="0 0 637 183"><defs><style>.cls-1{fill:#e7d8d8;stroke:#1e0b0b;stroke-miterlimit:10;}</style></defs><path class="cls-1" d="M116.6,93.06c-3.9,1.4-11.6,3.7-20.7,3.7-10.2,0-18.6-2.6-25.2-8.9-5.8-5.6-9.4-14.6-9.4-25.1.1-20.1,13.9-34.8,36.5-34.8,7.8,0,13.9,1.7,16.8,3.1l-2.1,7.1c-3.6-1.6-8.1-2.9-14.9-2.9-16.4,0-27.1,10.2-27.1,27.1s10.3,27.2,26,27.2c5.7,0,9.6-.8,11.6-1.8v-20.1h-13.7v-7h22.2v32.4Z"/><path class="cls-1" d="M181.6,71.46c0,17.9-12.4,25.7-24.1,25.7-13.1,0-23.2-9.6-23.2-24.9,0-16.2,10.6-25.7,24-25.7s23.3,10.1,23.3,24.9ZM143.2,71.96c0,10.6,6.1,18.6,14.7,18.6s14.7-7.9,14.7-18.8c0-8.2-4.1-18.6-14.5-18.6s-14.9,9.6-14.9,18.8Z"/><path class="cls-1" d="M238.29,28.65v28.2h32.6v-28.2h8.8v67.4h-8.8v-31.6h-32.6v31.6h-8.7V28.65h8.7Z"/><path class="cls-1" d="M342.7,82.86c0,5,.1,9.4.4,13.2h-7.8l-.5-7.9h-.2c-2.3,3.9-7.4,9-16,9-7.6,0-16.7-4.2-16.7-21.2v-28.3h8.8v26.8c0,9.2,2.8,15.4,10.8,15.4,5.9,0,10-4.1,11.6-8,.5-1.3.8-2.9.8-4.5v-29.7h8.8v35.2Z"/><path class="cls-1" d="M364.99,60.75c0-5-.1-9.1-.4-13.1h7.8l.5,8h.2c2.4-4.6,8-9.1,16-9.1,6.7,0,17.1,4,17.1,20.6v28.9h-8.8v-27.9c0-7.8-2.9-14.3-11.2-14.3-5.8,0-10.3,4.1-11.8,9-.4,1.1-.6,2.6-.6,4.1v29.1h-8.8v-35.3Z"/><path class="cls-1" d="M438.39,33.75v13.9h12.6v6.7h-12.6v26.1c0,6,1.7,9.4,6.6,9.4,2.3,0,4-.3,5.1-.6l.4,6.6c-1.7.7-4.4,1.2-7.8,1.2-4.1,0-7.4-1.3-9.5-3.7-2.5-2.6-3.4-6.9-3.4-12.6v-26.4h-7.5v-6.7h7.5v-11.6l8.6-2.3Z"/><path class="cls-1" d="M478.39,34.05c.1,3-2.1,5.4-5.6,5.4-3.1,0-5.3-2.4-5.3-5.4s2.3-5.5,5.5-5.5,5.4,2.4,5.4,5.5ZM468.59,96.06v-48.4h8.8v48.4h-8.8Z"/><path class="cls-1" d="M499.69,60.75c0-5-.1-9.1-.4-13.1h7.8l.5,8h.2c2.4-4.6,8-9.1,16-9.1,6.7,0,17.1,4,17.1,20.6v28.9h-8.8v-27.9c0-7.8-2.9-14.3-11.2-14.3-5.8,0-10.3,4.1-11.8,9-.4,1.1-.6,2.6-.6,4.1v29.1h-8.8v-35.3Z"/><path class="cls-1" d="M604.59,47.65c-.2,3.5-.4,7.4-.4,13.3v28.1c0,11.1-2.2,17.9-6.9,22.1-4.7,4.4-11.5,5.8-17.6,5.8s-12.2-1.4-16.1-4l2.2-6.7c3.2,2,8.2,3.8,14.2,3.8,9,0,15.6-4.7,15.6-16.9v-5.4h-.2c-2.7,4.5-7.9,8.1-15.4,8.1-12,0-20.6-10.2-20.6-23.6,0-16.4,10.7-25.7,21.8-25.7,8.4,0,13,4.4,15.1,8.4h.2l.4-7.3h7.7ZM595.49,66.75c0-1.5-.1-2.8-.5-4-1.6-5.1-5.9-9.3-12.3-9.3-8.4,0-14.4,7.1-14.4,18.3,0,9.5,4.8,17.4,14.3,17.4,5.4,0,10.3-3.4,12.2-9,.5-1.5.7-3.2.7-4.7v-8.7Z"/></svg>