<?xml version="1.0" encoding="UTF-8"?><svg id="Layer_1" xmlns="http://www.w3.org/2000/svg" width="811.26" height="293.39" xmlns:xlink="http://www.w3.org/1999/xlink" viewBox="0 0 811.26 293.39"><defs><style>.cls-1{fill:#000;}.cls-1,.cls-2,.cls-3{stroke-width:0px;}.cls-2{fill:url(#radial-gradient);}.cls-3{fill:#cb3333;}</style><radialGradient id="radial-gradient" cx="-349.2" cy="180.54" fx="-349.2" fy="180.54" r="263.36" gradientTransform="translate(672.7 30.88) rotate(-.15) scale(.65 .95) skewX(-.1)" gradientUnits="userSpaceOnUse"><stop offset="0" stop-color="#fff"/><stop offset=".4" stop-color="#f5f5f5"/><stop offset=".66" stop-color="#e4e3e4"/><stop offset="1" stop-color="#231f20"/></radialGradient></defs><path class="cls-2" d="M257.54,172.39c-2.54,1.34-7.54,3.54-13.46,3.56-6.64.02-12.1-2.44-16.41-8.43-3.78-5.32-6.14-13.89-6.15-23.88.04-19.14,9-33.16,23.7-33.2,5.08-.01,9.05,1.6,10.94,2.92l-1.36,6.76c-2.34-1.52-5.27-2.75-9.7-2.74-10.67.03-17.62,9.76-17.6,25.85.02,16.28,6.74,25.88,16.95,25.85,3.71,0,6.25-.78,7.54-1.73l-.03-19.14-8.91.02v-6.67s14.43-.04,14.43-.04l.04,30.85Z"/><path class="cls-2" d="M294.8,151.73c.02,17.04-8.03,24.49-15.65,24.51-8.52.02-15.11-9.1-15.13-23.67-.02-15.42,6.86-24.49,15.58-24.51,9.04-.02,15.17,9.58,15.19,23.67ZM269.82,152.27c.01,10.09,3.99,17.7,9.59,17.69,5.46-.01,9.55-7.55,9.54-17.92-.01-7.81-2.69-17.7-9.46-17.69s-9.68,9.17-9.67,17.92Z"/><path class="cls-2" d="M321.62,110.91l.04,26.85,21.21-.05-.04-26.85h5.73s.09,64.16.09,64.16h-5.73s-.04-30.07-.04-30.07l-21.21.05.04,30.09h-5.66s-.09-64.16-.09-64.16h5.66Z"/><path class="cls-2" d="M384.61,162.35c0,4.76.08,8.95.28,12.57h-5.07s-.34-7.51-.34-7.51h-.13c-1.49,3.72-4.8,8.58-10.4,8.6-4.94.01-10.87-3.97-10.89-20.16l-.04-26.95h5.73s.04,25.5.04,25.5c.01,8.76,1.84,14.66,7.05,14.64,3.84,0,6.5-3.92,7.54-7.64.32-1.24.52-2.76.51-4.29l-.04-28.28,5.73-.02.05,33.52Z"/><path class="cls-2" d="M394.08,141.29c0-4.76-.08-8.66-.28-12.47h5.08s.34,7.6.34,7.6h.13c1.56-4.38,5.19-8.68,10.4-8.69,4.36-.01,11.13,3.78,11.15,19.58l.04,27.52h-5.73s-.04-26.55-.04-26.55c-.01-7.43-1.91-13.61-7.31-13.6-3.77,0-6.7,3.92-7.67,8.59-.26,1.05-.39,2.48-.38,3.91l.04,27.71h-5.73s-.05-33.6-.05-33.6Z"/><path class="cls-2" d="M436.8,115.47l.02,13.23,8.2-.02v6.38s-8.19.02-8.19.02l.04,24.85c0,5.71,1.12,8.95,4.31,8.94,1.5,0,2.6-.29,3.32-.58l.27,6.28c-1.1.67-2.86,1.15-5.07,1.16-2.67,0-4.82-1.23-6.19-3.51-1.63-2.47-2.22-6.56-2.23-11.99l-.04-25.14h-4.88s0-6.37,0-6.37h4.88s-.02-11.06-.02-11.06l5.59-2.2Z"/><path class="cls-2" d="M457.81,115.7c.07,2.86-1.36,5.15-3.64,5.15-2.02,0-3.45-2.28-3.46-5.13,0-2.95,1.49-5.24,3.57-5.25,2.15,0,3.52,2.28,3.52,5.23ZM451.52,174.75l-.06-46.08h5.73s.06,46.07.06,46.07h-5.73Z"/><path class="cls-2" d="M466.7,141.1c0-4.76-.08-8.66-.28-12.47h5.08s.34,7.6.34,7.6h.13c1.56-4.38,5.19-8.68,10.4-8.69,4.36-.01,11.13,3.78,11.15,19.58l.04,27.52h-5.73s-.04-26.55-.04-26.55c-.01-7.43-1.91-13.61-7.31-13.6-3.77,0-6.7,3.92-7.67,8.59-.26,1.05-.39,2.48-.38,3.91l.04,27.71h-5.73s-.05-33.6-.05-33.6Z"/><path class="cls-2" d="M529.93,128.46c-.13,3.33-.25,7.05-.24,12.67l.04,26.75c.02,10.57-1.41,17.05-4.46,21.05-3.05,4.2-7.47,5.54-11.44,5.55-3.77,0-7.94-1.31-10.48-3.78l1.42-6.38c2.08,1.9,5.34,3.6,9.24,3.59,5.86-.02,10.14-4.5,10.13-16.12v-5.14h-.14c-1.75,4.29-5.13,7.73-10.01,7.74-7.81.02-13.42-9.68-13.43-22.44-.02-15.62,6.93-24.49,14.15-24.51,5.47-.01,8.46,4.17,9.84,7.97h.13s.25-6.95.25-6.95h5.01ZM524.03,146.66c0-1.43-.07-2.67-.33-3.81-1.05-4.85-3.85-8.84-8.01-8.83-5.47.01-9.36,6.79-9.34,17.45.01,9.04,3.15,16.56,9.33,16.54,3.51,0,6.7-3.25,7.93-8.59.32-1.43.45-3.05.45-4.48v-8.28Z"/><path class="cls-3" d="M257.54,172.39c-2.54,1.34-7.54,3.54-13.46,3.56-6.64.02-12.1-2.44-16.41-8.43-3.78-5.32-6.14-13.89-6.15-23.88.04-19.14,9-33.16,23.7-33.2,5.08-.01,9.05,1.6,10.94,2.92l-1.36,6.76c-2.34-1.52-5.27-2.75-9.7-2.74-10.67.03-17.62,9.76-17.6,25.85.02,16.28,6.74,25.88,16.95,25.85,3.71,0,6.25-.78,7.54-1.73l-.03-19.14-8.91.02v-6.67s14.43-.04,14.43-.04l.04,30.85Z"/><path class="cls-3" d="M294.8,151.73c.02,17.04-8.03,24.49-15.65,24.51-8.52.02-15.11-9.1-15.13-23.67-.02-15.42,6.86-24.49,15.58-24.51,9.04-.02,15.17,9.58,15.19,23.67ZM269.82,152.27c.01,10.09,3.99,17.7,9.59,17.69,5.46-.01,9.55-7.55,9.54-17.92-.01-7.81-2.69-17.7-9.46-17.69s-9.68,9.17-9.67,17.92Z"/><path class="cls-3" d="M321.62,110.91l.04,26.85,21.21-.05-.04-26.85h5.73s.09,64.16.09,64.16h-5.73s-.04-30.07-.04-30.07l-21.21.05.04,30.09h-5.66s-.09-64.16-.09-64.16h5.66Z"/><path class="cls-3" d="M384.61,162.35c0,4.76.08,8.95.28,12.57h-5.07s-.34-7.51-.34-7.51h-.13c-1.49,3.72-4.8,8.58-10.4,8.6-4.94.01-10.87-3.97-10.89-20.16l-.04-26.95h5.73s.04,25.5.04,25.5c.01,8.76,1.84,14.66,7.05,14.64,3.84,0,6.5-3.92,7.54-7.64.32-1.24.52-2.76.51-4.29l-.04-28.28,5.73-.02.05,33.52Z"/><path class="cls-3" d="M394.08,141.29c0-4.76-.08-8.66-.28-12.47h5.08s.34,7.6.34,7.6h.13c1.56-4.38,5.19-8.68,10.4-8.69,4.36-.01,11.13,3.78,11.15,19.58l.04,27.52h-5.73s-.04-26.55-.04-26.55c-.01-7.43-1.91-13.61-7.31-13.6-3.77,0-6.7,3.92-7.67,8.59-.26,1.05-.39,2.48-.38,3.91l.04,27.71h-5.73s-.05-33.6-.05-33.6Z"/><path class="cls-3" d="M436.8,115.47l.02,13.23,8.2-.02v6.38s-8.19.02-8.19.02l.04,24.85c0,5.71,1.12,8.95,4.31,8.94,1.5,0,2.6-.29,3.32-.58l.27,6.28c-1.1.67-2.86,1.15-5.07,1.16-2.67,0-4.82-1.23-6.19-3.51-1.63-2.47-2.22-6.56-2.23-11.99l-.04-25.14h-4.88s0-6.37,0-6.37h4.88s-.02-11.06-.02-11.06l5.59-2.2Z"/><path class="cls-3" d="M457.81,115.7c.07,2.86-1.36,5.15-3.64,5.15-2.02,0-3.45-2.28-3.46-5.13,0-2.95,1.49-5.24,3.57-5.25,2.15,0,3.52,2.28,3.52,5.23ZM451.52,174.75l-.06-46.08h5.73s.06,46.07.06,46.07h-5.73Z"/><path class="cls-3" d="M466.7,141.1c0-4.76-.08-8.66-.28-12.47h5.08s.34,7.6.34,7.6h.13c1.56-4.38,5.19-8.68,10.4-8.69,4.36-.01,11.13,3.78,11.15,19.58l.04,27.52h-5.73s-.04-26.55-.04-26.55c-.01-7.43-1.91-13.61-7.31-13.6-3.77,0-6.7,3.92-7.67,8.59-.26,1.05-.39,2.48-.38,3.91l.04,27.71h-5.73s-.05-33.6-.05-33.6Z"/><path class="cls-3" d="M529.93,128.46c-.13,3.33-.25,7.05-.24,12.67l.04,26.75c.02,10.57-1.41,17.05-4.46,21.05-3.05,4.2-7.47,5.54-11.44,5.55-3.77,0-7.94-1.31-10.48-3.78l1.42-6.38c2.08,1.9,5.34,3.6,9.24,3.59,5.86-.02,10.14-4.5,10.13-16.12v-5.14h-.14c-1.75,4.29-5.13,7.73-10.01,7.74-7.81.02-13.42-9.68-13.43-22.44-.02-15.62,6.93-24.49,14.15-24.51,5.47-.01,8.46,4.17,9.84,7.97h.13s.25-6.95.25-6.95h5.01ZM524.03,146.66c0-1.43-.07-2.67-.33-3.81-1.05-4.85-3.85-8.84-8.01-8.83-5.47.01-9.36,6.79-9.34,17.45.01,9.04,3.15,16.56,9.33,16.54,3.51,0,6.7-3.25,7.93-8.59.32-1.43.45-3.05.45-4.48v-8.28Z"/><path class="cls-1" d="M393.8,66.07c-52.16.53-105.23,7.05-153.81,26.8-18.95,8.07-37.84,18.07-51.39,33.89-19.68,23.43-10.82,46.95,11.73,64.08,61.95,45.43,181.31,51.03,255.96,42.05,44.77-5.44,111.08-19.19,142.38-53.3,20.35-22.92,11.66-46.89-10.4-64.52-49.24-38.42-133.3-48.9-194.47-48.99h0ZM393.8,65.57c60.71-.46,164.84,11.88,207.24,58.68,21.06,24.35,12.1,49.86-11.38,68.28-49.93,38.14-134.01,48.55-195.61,48.98-61.48.1-154.78-11-201.81-53.2-19.82-18.41-23.87-41.85-5.43-63.09,42.3-46.91,146.21-59.8,206.99-59.66h0Z"/></svg>